<svg xmlns="http://www.w3.org/2000/svg" width="100%" height="100%" viewBox="0 0 900 600" preserveAspectRatio="xMidYMid meet"><defs><style type="text/css"/></defs><rect width="100%" height="100%" fill="rgb(244, 245, 247)"/><g clip-path="url(#clip-of-16)"><path d="M0,0 H900 V600 H0 V0 Z" fill="var(--color-0)"/><g style="filter: blur(2px);"><g data-command="NotFound"><path d="M0,0 H900 V600 H0 V0 Z" fill="var(--color-1)"/><g><text x="378.7" y="62" fill="var(--color-2)" font-family="var(--fontFamily-3)" font-size="16px" font-weight="400" font-style="normal" letter-spacing="normal" text-decoration="none solid rgb(22, 30, 46)" text-anchor="start" style="line-height: normal; white-space: normal; text-transform: none;">404 page not found</text></g><g data-command="NotFound.goHome" clip-path="url(#clip-of-0)"><path d="M407.97,98 H492.03 A8,8 0 0 1 500.03,106 V130 A8,8 0 0 1 492.03,138 H407.97 A8,8 0 0 1 399.97,130 V106 A8,8 0 0 1 407.97,98 Z" fill="var(--color-4)" stroke-width="1px" stroke="rgba(0, 0, 0, 0)"/><text x="442.97" y="123" fill="var(--color-5)" font-family="var(--fontFamily-3)" font-size="16px" font-weight="500" font-style="normal" letter-spacing="normal" text-decoration="none solid rgb(255, 255, 255)" text-anchor="start" style="line-height: 16px; white-space: pre; text-transform: none;">Home</text><g style="transform: translate(411.87px, 105.9px); color: rgb(255, 255, 255);"><svg viewBox="0 0 24 24" role="presentation" class=" f-0 " style="width: 22px; height: 22px; transform: scale(1.1);" width="22" height="22"><path d="M20,11V13H8L13.5,18.5L12.08,19.92L4.16,12L12.08,4.08L13.5,5.5L8,11H20Z" style="fill: currentcolor;"/></svg></g><clipPath id="clip-of-0"><path d="M406.97,97 H493.03 A8,8 0 0 1 501.03,105 V131 A8,8 0 0 1 493.03,139 H406.97 A8,8 0 0 1 398.97,131 V105 A8,8 0 0 1 406.97,97 Z" fill="none" stroke="none"/></clipPath></g></g></g><g/><clipPath id="clip-of-16"><path d="M0,0 H900 V600 H0 V0 Z" fill="none" stroke="none"/></clipPath><g data-command="ClickCatchOverlay"><path d="M0,0 H900 V600 H0 V0 Z" fill="var(--color-6)"/></g><g data-command="CommandPalette" clip-path="url(#clip-of-15)"><path d="M107.5,50.5 H792.5 A8,8 0 0 1 800.5,58.5 V543.5 A8,8 0 0 1 792.5,551.5 H107.5 A8,8 0 0 1 99.5,543.5 V58.5 A8,8 0 0 1 107.5,50.5 Z" fill="var(--color-7)" stroke-width="1px" stroke="var(--color-8)" style="filter: var(--shadow-9);"/><g data-command="Popup.content" clip-path="url(#clip-of-14)"><path d="M100,51 H800 V551 H100 V51 Z" fill="none"/><g data-command="SearchList"><path d="M116,67 H784 V535 H116 V67 Z" fill="none"/><g clip-path="url(#clip-of-2)"><path d="M132.5,75.5 H769.5 A8,8 0 0 1 777.5,83.5 V112.5 A8,8 0 0 1 769.5,120.5 H132.5 A8,8 0 0 1 124.5,112.5 V83.5 A8,8 0 0 1 132.5,75.5 Z" fill="var(--color-10)" style="filter: drop-shadow(rgb(0, 183, 255) 0px 0px 0px);" stroke-width="1px" stroke="rgba(0, 0, 0, 0)"/><path d="M132,75 H768 A8,8 0 0 1 776,83 V111 A8,8 0 0 1 768,119 H132 A8,8 0 0 1 124,111 V83 A8,8 0 0 1 132,75 Z" fill="none" style="filter: drop-shadow(rgb(0, 183, 255) 0px 0px 0px);" stroke-width="1px" stroke="var(--color-11)" stroke-linejoin="round" stroke-linecap="round"/><g data-command="SearchList.Input" clip-path="url(#clip-of-1)"><path d="M133,80 H733 V114 H133 A8,8 0 0 1 125,106 V88 A8,8 0 0 1 133,80 Z" fill="none"/><text x="141" y="101" fill="var(--color-12)" font-family="Arial" font-size="16px" font-weight="600" font-style="normal" letter-spacing="normal" text-decoration="none solid rgb(0, 0, 0)" text-anchor="start" style="line-height: normal; white-space: normal; text-transform: none;">access con</text><clipPath id="clip-of-1"><path d="M133,80 H725 A8,8 0 0 1 733,88 V106 A8,8 0 0 1 725,114 H133 A8,8 0 0 1 125,106 V88 A8,8 0 0 1 133,80 Z" fill="none" stroke="none"/></clipPath></g><g data-command="SearchList.MatchCase"><path d="M740,77 H768 A6,6 0 0 1 774,83 V111 A6,6 0 0 1 768,117 H740 A6,6 0 0 1 734,111 V83 A6,6 0 0 1 740,77 Z" fill="none" stroke-width="1px" stroke="rgba(0, 0, 0, 0)"/><g style="transform: translate(741.9px, 84.9px); color: rgb(75, 85, 99);"><svg viewBox="0 0 24 24" role="presentation" class=" f-0 " style="width: 22px; height: 22px; transform: scale(1.1);" width="22" height="22"><path d="M20.06,18C20,17.83 19.91,17.54 19.86,17.11C19.19,17.81 18.38,18.16 17.45,18.16C16.62,18.16 15.93,17.92 15.4,17.45C14.87,17 14.6,16.39 14.6,15.66C14.6,14.78 14.93,14.1 15.6,13.61C16.27,13.12 17.21,12.88 18.43,12.88H19.83V12.24C19.83,11.75 19.68,11.36 19.38,11.07C19.08,10.78 18.63,10.64 18.05,10.64C17.53,10.64 17.1,10.76 16.75,11C16.4,11.25 16.23,11.54 16.23,11.89H14.77C14.77,11.46 14.92,11.05 15.22,10.65C15.5,10.25 15.93,9.94 16.44,9.71C16.95,9.5 17.5,9.36 18.13,9.36C19.11,9.36 19.87,9.6 20.42,10.09C20.97,10.58 21.26,11.25 21.28,12.11V16C21.28,16.8 21.38,17.42 21.58,17.88V18H20.06M17.66,16.88C18.11,16.88 18.54,16.77 18.95,16.56C19.35,16.35 19.65,16.07 19.83,15.73V14.16H18.7C16.93,14.16 16.04,14.63 16.04,15.57C16.04,16 16.19,16.3 16.5,16.53C16.8,16.76 17.18,16.88 17.66,16.88M5.46,13.71H9.53L7.5,8.29L5.46,13.71M6.64,6H8.36L13.07,18H11.14L10.17,15.43H4.82L3.86,18H1.93L6.64,6Z" style="fill: currentcolor;"/></svg></g></g><clipPath id="clip-of-2"><path d="M131,74 H769 A8,8 0 0 1 777,82 V112 A8,8 0 0 1 769,120 H131 A8,8 0 0 1 123,112 V82 A8,8 0 0 1 131,74 Z" fill="none" stroke="none"/></clipPath></g><g data-command="SearchList.List" clip-path="url(#clip-of-13)"><path d="M116,127 H784 V527 A8,8 0 0 1 776,535 H124 A8,8 0 0 1 116,527 V127 Z" fill="none"/><g><path d="M116,135 H784 V186 H116 V135 Z" fill="var(--color-1)" stroke="none"/><line x1="116" y1="185.5" x2="784" y2="185.5" stroke="var(--color-8)" stroke-width="1"/><g><text x="132" y="165" fill="var(--color-13)" font-family="var(--fontFamily-3)" font-size="16px" font-weight="700" font-style="normal" letter-spacing="normal" text-decoration="none solid rgb(75, 85, 99)" text-anchor="start" style="line-height: normal; white-space: normal; text-transform: none;">Connection configuration</text></g></g><g data-key="Access control" data-label="Access control"><path d="M116,194 H784 V250.5 H116 V194 Z" fill="none"/><g><g style="transform: translate(132px, 210.25px); color: rgb(75, 85, 99);"><svg viewBox="0 0 24 24" aria-labelledby="icon_labelledby_105" class="text-1 mr-p5" style="width: 1.5rem; height: 1.5rem;" width="24" height="24"><title id="icon_labelledby_105">tab</title><path d="M16 17V19H2V17S2 13 9 13 16 17 16 17M12.5 7.5A3.5 3.5 0 1 0 9 11A3.5 3.5 0 0 0 12.5 7.5M15.94 13A5.32 5.32 0 0 1 18 17V19H22V17S22 13.37 15.94 13M15 4A3.39 3.39 0 0 0 13.07 4.59A5 5 0 0 1 13.07 10.41A3.39 3.39 0 0 0 15 11A3.5 3.5 0 0 0 15 4Z" style="fill: currentcolor;"/></svg></g><g><g clip-path="url(#clip-of-3)"><g><text x="164" y="218" fill="var(--color-14)" font-family="var(--fontFamily-3)" font-size="18px" font-weight="700" font-style="normal" letter-spacing="normal" text-decoration="none solid rgb(22, 30, 46)" text-anchor="start" style="line-height: normal; white-space: normal; text-transform: none;">Access con</text></g><g><text x="256.25" y="218" fill="var(--color-15)" font-family="var(--fontFamily-3)" font-size="18px" font-weight="400" font-style="normal" letter-spacing="normal" text-decoration="none solid rgb(22, 30, 46)" text-anchor="start" style="line-height: normal; white-space: normal; text-transform: none;">trol</text></g><clipPath id="clip-of-3"><path d="M164,202 H285.97 V223 H164 V202 Z" fill="none" stroke="none"/></clipPath></g><g clip-path="url(#clip-of-4)"><text x="164" y="238.5" fill="var(--color-13)" font-family="var(--fontFamily-3)" font-size="14px" font-weight="400" font-style="normal" letter-spacing="normal" text-decoration="none solid rgb(75, 85, 99)" text-anchor="start" style="line-height: normal; white-space: normal; text-transform: none;">Manage user permissions and access rules for this database connection.</text><clipPath id="clip-of-4"><path d="M164,226.5 H776 V242.5 H164 V226.5 Z" fill="none" stroke="none"/></clipPath></g></g></g></g><g><path d="M116,258.5 H784 V309.5 H116 V258.5 Z" fill="var(--color-1)" stroke="none"/><line x1="116" y1="309" x2="784" y2="309" stroke="var(--color-8)" stroke-width="1"/><g><text x="132" y="288.5" fill="var(--color-13)" font-family="var(--fontFamily-3)" font-size="16px" font-weight="700" font-style="normal" letter-spacing="normal" text-decoration="none solid rgb(75, 85, 99)" text-anchor="start" style="line-height: normal; white-space: normal; text-transform: none;">Connection configuration</text></g><g><text x="330.09" y="288.5" fill="var(--color-16)" font-family="var(--fontFamily-3)" font-size="16px" font-weight="400" font-style="normal" letter-spacing="normal" text-decoration="none solid rgb(159, 166, 178)" text-anchor="start" style="line-height: normal; white-space: normal; text-transform: none;">&gt;</text></g><g><text x="343.13" y="288.5" fill="var(--color-13)" font-family="var(--fontFamily-3)" font-size="16px" font-weight="700" font-style="normal" letter-spacing="normal" text-decoration="none solid rgb(75, 85, 99)" text-anchor="start" style="line-height: normal; white-space: normal; text-transform: none;">Access control</text></g></g><g data-key="Create Access Rule" data-label="Create Access Rule"><path d="M116,317.5 H784 V374 H116 V317.5 Z" fill="none"/><g><g style="transform: translate(132px, 333.75px); color: rgb(75, 85, 99);"><svg viewBox="0 0 24 24" aria-labelledby="icon_labelledby_106" class="text-1 mr-p5" style="width: 1.5rem; height: 1.5rem;" width="24" height="24"><title id="icon_labelledby_106">button</title><path d="M20 20.5C20 21.3 19.3 22 18.5 22H13C12.6 22 12.3 21.9 12 21.6L8 17.4L8.7 16.6C8.9 16.4 9.2 16.3 9.5 16.3H9.7L12 18V9C12 8.4 12.4 8 13 8S14 8.4 14 9V13.5L15.2 13.6L19.1 15.8C19.6 16 20 16.6 20 17.1V20.5M20 2H4C2.9 2 2 2.9 2 4V12C2 13.1 2.9 14 4 14H8V12H4V4H20V12H18V14H20C21.1 14 22 13.1 22 12V4C22 2.9 21.1 2 20 2Z" style="fill: currentcolor;"/></svg></g><g><g clip-path="url(#clip-of-5)"><text x="164" y="341.5" fill="var(--color-2)" font-family="var(--fontFamily-3)" font-size="18px" font-weight="400" font-style="normal" letter-spacing="normal" text-decoration="none solid rgb(22, 30, 46)" text-anchor="start" style="line-height: normal; white-space: normal; text-transform: none;">Create Access Rule</text><clipPath id="clip-of-5"><path d="M164,325.5 H776 V346.5 H164 V325.5 Z" fill="none" stroke="none"/></clipPath></g><g clip-path="url(#clip-of-6)"><g><text x="164" y="362" fill="var(--color-15)" font-family="var(--fontFamily-3)" font-size="14px" font-weight="400" font-style="normal" letter-spacing="normal" text-decoration="none solid rgb(22, 30, 46)" text-anchor="start" style="line-height: normal; white-space: normal; text-transform: none;">Add a new</text></g><g><text x="233.34" y="362" fill="var(--color-14)" font-family="var(--fontFamily-3)" font-size="14px" font-weight="700" font-style="normal" letter-spacing="normal" text-decoration="none solid rgb(22, 30, 46)" text-anchor="start" style="line-height: normal; white-space: normal; text-transform: none;">access con</text></g><g><text x="302.91" y="362" fill="var(--color-15)" font-family="var(--fontFamily-3)" font-size="14px" font-weight="400" font-style="normal" letter-spacing="normal" text-decoration="none solid rgb(22, 30, 46)" text-anchor="start" style="line-height: normal; white-space: normal; text-transform: none;">trol rule to define user permissions.</text></g><clipPath id="clip-of-6"><path d="M164,350 H528.52 V366 H164 V350 Z" fill="none" stroke="none"/></clipPath></g></g></g></g><g data-key="Remove Rule" data-label="Remove Rule"><path d="M116,374 H784 V430.5 H116 V374 Z" fill="none"/><g><g style="transform: translate(132px, 390.25px); color: rgb(75, 85, 99);"><svg viewBox="0 0 24 24" aria-labelledby="icon_labelledby_107" class="text-1 mr-p5" style="width: 1.5rem; height: 1.5rem;" width="24" height="24"><title id="icon_labelledby_107">button</title><path d="M20 20.5C20 21.3 19.3 22 18.5 22H13C12.6 22 12.3 21.9 12 21.6L8 17.4L8.7 16.6C8.9 16.4 9.2 16.3 9.5 16.3H9.7L12 18V9C12 8.4 12.4 8 13 8S14 8.4 14 9V13.5L15.2 13.6L19.1 15.8C19.6 16 20 16.6 20 17.1V20.5M20 2H4C2.9 2 2 2.9 2 4V12C2 13.1 2.9 14 4 14H8V12H4V4H20V12H18V14H20C21.1 14 22 13.1 22 12V4C22 2.9 21.1 2 20 2Z" style="fill: currentcolor;"/></svg></g><g><g clip-path="url(#clip-of-7)"><text x="164" y="398" fill="var(--color-2)" font-family="var(--fontFamily-3)" font-size="18px" font-weight="400" font-style="normal" letter-spacing="normal" text-decoration="none solid rgb(22, 30, 46)" text-anchor="start" style="line-height: normal; white-space: normal; text-transform: none;">Remove Rule</text><clipPath id="clip-of-7"><path d="M164,382 H776 V403 H164 V382 Z" fill="none" stroke="none"/></clipPath></g><g clip-path="url(#clip-of-8)"><g><text x="164" y="418.5" fill="var(--color-15)" font-family="var(--fontFamily-3)" font-size="14px" font-weight="400" font-style="normal" letter-spacing="normal" text-decoration="none solid rgb(22, 30, 46)" text-anchor="start" style="line-height: normal; white-space: normal; text-transform: none;">Delete the selected</text></g><g><text x="291.72" y="418.5" fill="var(--color-14)" font-family="var(--fontFamily-3)" font-size="14px" font-weight="700" font-style="normal" letter-spacing="normal" text-decoration="none solid rgb(22, 30, 46)" text-anchor="start" style="line-height: normal; white-space: normal; text-transform: none;">access con</text></g><g><text x="361.28" y="418.5" fill="var(--color-15)" font-family="var(--fontFamily-3)" font-size="14px" font-weight="400" font-style="normal" letter-spacing="normal" text-decoration="none solid rgb(22, 30, 46)" text-anchor="start" style="line-height: normal; white-space: normal; text-transform: none;">trol rule.</text></g><clipPath id="clip-of-8"><path d="M164,406.5 H416.17 V422.5 H164 V406.5 Z" fill="none" stroke="none"/></clipPath></g></g></g></g><g data-key="Cancel Changes" data-label="Cancel Changes"><path d="M116,430.5 H784 V487 H116 V430.5 Z" fill="none"/><g><g style="transform: translate(132px, 446.75px); color: rgb(75, 85, 99);"><svg viewBox="0 0 24 24" aria-labelledby="icon_labelledby_108" class="text-1 mr-p5" style="width: 1.5rem; height: 1.5rem;" width="24" height="24"><title id="icon_labelledby_108">button</title><path d="M20 20.5C20 21.3 19.3 22 18.5 22H13C12.6 22 12.3 21.9 12 21.6L8 17.4L8.7 16.6C8.9 16.4 9.2 16.3 9.5 16.3H9.7L12 18V9C12 8.4 12.4 8 13 8S14 8.4 14 9V13.5L15.2 13.6L19.1 15.8C19.6 16 20 16.6 20 17.1V20.5M20 2H4C2.9 2 2 2.9 2 4V12C2 13.1 2.9 14 4 14H8V12H4V4H20V12H18V14H20C21.1 14 22 13.1 22 12V4C22 2.9 21.1 2 20 2Z" style="fill: currentcolor;"/></svg></g><g><g clip-path="url(#clip-of-9)"><text x="164" y="454.5" fill="var(--color-2)" font-family="var(--fontFamily-3)" font-size="18px" font-weight="400" font-style="normal" letter-spacing="normal" text-decoration="none solid rgb(22, 30, 46)" text-anchor="start" style="line-height: normal; white-space: normal; text-transform: none;">Cancel Changes</text><clipPath id="clip-of-9"><path d="M164,438.5 H776 V459.5 H164 V438.5 Z" fill="none" stroke="none"/></clipPath></g><g clip-path="url(#clip-of-10)"><g><text x="164" y="475" fill="var(--color-15)" font-family="var(--fontFamily-3)" font-size="14px" font-weight="400" font-style="normal" letter-spacing="normal" text-decoration="none solid rgb(22, 30, 46)" text-anchor="start" style="line-height: normal; white-space: normal; text-transform: none;">Cancel editing the current</text></g><g><text x="332.33" y="475" fill="var(--color-14)" font-family="var(--fontFamily-3)" font-size="14px" font-weight="700" font-style="normal" letter-spacing="normal" text-decoration="none solid rgb(22, 30, 46)" text-anchor="start" style="line-height: normal; white-space: normal; text-transform: none;">access con</text></g><g><text x="401.89" y="475" fill="var(--color-15)" font-family="var(--fontFamily-3)" font-size="14px" font-weight="400" font-style="normal" letter-spacing="normal" text-decoration="none solid rgb(22, 30, 46)" text-anchor="start" style="line-height: normal; white-space: normal; text-transform: none;">trol rule.</text></g><clipPath id="clip-of-10"><path d="M164,463 H456.78 V479 H164 V463 Z" fill="none" stroke="none"/></clipPath></g></g></g></g><g data-key="Save Access Rule" data-label="Save Access Rule"><path d="M116,487 H784 V543.5 H116 V487 Z" fill="none"/><g><g style="transform: translate(132px, 503.25px); color: rgb(75, 85, 99);"><svg viewBox="0 0 24 24" aria-labelledby="icon_labelledby_109" class="text-1 mr-p5" style="width: 1.5rem; height: 1.5rem;" width="24" height="24"><title id="icon_labelledby_109">button</title><path d="M20 20.5C20 21.3 19.3 22 18.5 22H13C12.6 22 12.3 21.9 12 21.6L8 17.4L8.7 16.6C8.9 16.4 9.2 16.3 9.5 16.3H9.7L12 18V9C12 8.4 12.4 8 13 8S14 8.4 14 9V13.5L15.2 13.6L19.1 15.8C19.6 16 20 16.6 20 17.1V20.5M20 2H4C2.9 2 2 2.9 2 4V12C2 13.1 2.9 14 4 14H8V12H4V4H20V12H18V14H20C21.1 14 22 13.1 22 12V4C22 2.9 21.1 2 20 2Z" style="fill: currentcolor;"/></svg></g><g><g clip-path="url(#clip-of-11)"><text x="164" y="511" fill="var(--color-2)" font-family="var(--fontFamily-3)" font-size="18px" font-weight="400" font-style="normal" letter-spacing="normal" text-decoration="none solid rgb(22, 30, 46)" text-anchor="start" style="line-height: normal; white-space: normal; text-transform: none;">Save Access Rule</text><clipPath id="clip-of-11"><path d="M164,495 H776 V516 H164 V495 Z" fill="none" stroke="none"/></clipPath></g><g clip-path="url(#clip-of-12)"><g><text x="164" y="531.5" fill="var(--color-15)" font-family="var(--fontFamily-3)" font-size="14px" font-weight="400" font-style="normal" letter-spacing="normal" text-decoration="none solid rgb(22, 30, 46)" text-anchor="start" style="line-height: normal; white-space: normal; text-transform: none;">Save changes to the current</text></g><g><text x="343.38" y="531.5" fill="var(--color-14)" font-family="var(--fontFamily-3)" font-size="14px" font-weight="700" font-style="normal" letter-spacing="normal" text-decoration="none solid rgb(22, 30, 46)" text-anchor="start" style="line-height: normal; white-space: normal; text-transform: none;">access con</text></g><g><text x="412.94" y="531.5" fill="var(--color-15)" font-family="var(--fontFamily-3)" font-size="14px" font-weight="400" font-style="normal" letter-spacing="normal" text-decoration="none solid rgb(22, 30, 46)" text-anchor="start" style="line-height: normal; white-space: normal; text-transform: none;">trol rule.</text></g><clipPath id="clip-of-12"><path d="M164,519.5 H467.83 V535.5 H164 V519.5 Z" fill="none" stroke="none"/></clipPath></g></g></g></g><g><path d="M116,551.5 H784 V602.5 H116 V551.5 Z" fill="var(--color-1)" stroke="none"/><line x1="116" y1="602" x2="784" y2="602" stroke="var(--color-8)" stroke-width="1"/><g><text x="132" y="581.5" fill="var(--color-13)" font-family="var(--fontFamily-3)" font-size="16px" font-weight="700" font-style="normal" letter-spacing="normal" text-decoration="none solid rgb(75, 85, 99)" text-anchor="start" style="line-height: normal; white-space: normal; text-transform: none;">Connections</text></g><g><text x="230.72" y="581.5" fill="var(--color-16)" font-family="var(--fontFamily-3)" font-size="16px" font-weight="400" font-style="normal" letter-spacing="normal" text-decoration="none solid rgb(159, 166, 178)" text-anchor="start" style="line-height: normal; white-space: normal; text-transform: none;">&gt;</text></g><g><text x="243.75" y="581.5" fill="var(--color-13)" font-family="var(--fontFamily-3)" font-size="16px" font-weight="700" font-style="normal" letter-spacing="normal" text-decoration="none solid rgb(75, 85, 99)" text-anchor="start" style="line-height: normal; white-space: normal; text-transform: none;">Connection list</text></g></g><clipPath id="clip-of-13"><path d="M116,127 H784 V535 H116 V127 Z" fill="none" stroke="none"/></clipPath></g></g><clipPath id="clip-of-14"><path d="M100,51 H800 V551 H100 V51 Z" fill="none" stroke="none"/></clipPath></g><clipPath id="clip-of-15"><path d="M106.5,49.5 H793.5 A8,8 0 0 1 801.5,57.5 V544.5 A8,8 0 0 1 793.5,552.5 H106.5 A8,8 0 0 1 98.5,544.5 V57.5 A8,8 0 0 1 106.5,49.5 Z" fill="none" stroke="none"/></clipPath></g></g><view id="NotFound" viewBox="-10 -10 920 620"/><view id="NotFound_goHome" viewBox="390 88 120 60"/><view id="ClickCatchOverlay" viewBox="-10 -10 920 620"/><view id="CommandPalette" viewBox="90 41 721 572"/><view id="Popup_content" viewBox="90 41 720 572"/><view id="SearchList" viewBox="106 57 688 556"/><view id="SearchList_Input" viewBox="115 70 628 54"/><view id="SearchList_MatchCase" viewBox="724 67 60 60"/><view id="SearchList_List" viewBox="106 117 688 496"/><style xmlns="http://www.w3.org/1999/xhtml" type="text/css">:root { 
  --dark-theme-hide: none;
  --color-0: rgb(244, 245, 247); 
  --color-1: rgb(255, 255, 255); 
  --color-5: rgb(255, 255, 255); 
  --color-7: rgb(255, 255, 255); 
  --color-10: rgb(255, 255, 255); 
  --color-2: rgb(22, 30, 46); 
  --color-14: rgb(22, 30, 46); 
  --color-15: rgb(22, 30, 46); 
  --fontFamily-3: -apple-system, BlinkMacSystemFont, "Segoe UI", Roboto, Oxygen, Ubuntu, Cantarell, "Fira Sans", "Droid Sans", "Helvetica Neue", sans-serif; 
  --color-4: rgb(63, 131, 248); 
  --color-6: rgba(44, 44, 44, 0.42); 
  --color-8: rgb(210, 214, 220); 
  --shadow-9: drop-shadow(rgba(0, 0, 0, 0.1) 0px 1px 1.5px) drop-shadow(rgba(0, 0, 0, 0.06) 0px 1px 1px); 
  --color-11: rgb(0, 183, 255); 
  --color-12: rgb(0, 0, 0); 
  --color-13: rgb(75, 85, 99); 
  --color-16: rgb(159, 166, 178); 
}
@media (prefers-color-scheme: dark) { 
 :root  { 
  --light-theme-hide: none;
  --color-0: rgb(36, 36, 36); 
  --color-1: rgb(44, 44, 44); 
  --color-5: rgb(255, 255, 255); 
  --color-7: rgb(45, 45, 45); 
  --color-10: rgb(28, 28, 28); 
  --color-2: rgb(244, 245, 247); 
  --color-14: rgb(221, 221, 221); 
  --color-15: rgb(150, 150, 150); 
  --fontFamily-3: -apple-system, BlinkMacSystemFont, "Segoe UI", Roboto, Oxygen, Ubuntu, Cantarell, "Fira Sans", "Droid Sans", "Helvetica Neue", sans-serif; 
  --color-4: rgb(48, 121, 197); 
  --color-6: rgba(0, 0, 0, 0.18); 
  --color-8: rgb(75, 85, 99); 
  --shadow-9: drop-shadow(rgba(255, 255, 255, 0.075) 0px 0px 0.3px) drop-shadow(rgba(0, 0, 0, 0.05) 0px 0px 0px) drop-shadow(rgba(0, 0, 0, 0.02) 0px 0.3px 0.2px) drop-shadow(rgba(0, 0, 0, 0.043) 0px 0.9px 0.8px) drop-shadow(rgba(0, 0, 0, 0.09) 0px 3.5px 3px); 
  --color-11: rgb(0, 183, 255); 
  --color-12: rgb(244, 245, 247); 
  --color-13: rgb(180, 180, 180); 
  --color-16: rgb(159, 166, 178); 
  }
} 
</style></svg>