<svg xmlns="http://www.w3.org/2000/svg" width="100%" height="100%" viewBox="0 0 900 600" preserveAspectRatio="xMidYMid meet"><defs><style type="text/css"/></defs><g data-selector="body.text-0 bg-color-2" clip-path="url(#clip-of-31)" id="id-becdb6b7-73d1-4592-a101-226ca2fd3ac2"><path d="M0,0 H900 V600 H0 V0 Z" fill="var(--color-0)"/><g data-selector="main."><g data-selector="div.App gap-0 f-1 min-h-0 FlexCol flex-col"><g data-selector="div.flex-col ai-center w-full f-1 min-h-0"><g data-selector="div.Connections gap-0 f-1 w-full min-h-0 FlexCol flex-col" data-command="Connections"><path d="M0,56 H900 V600 H0 V56 Z" fill="none"/><g data-selector="div.flex-row as-center w-full gap-p5 mt-1 p-p5  max-w-800"><g data-selector="a. f-0 flex-row gap-p5 ai-center button-css rounded btn btn-filled btn-size-default btn-color-action ws-nowrap w-fit" data-command="Connections.new" clip-path="url(#clip-of-0)"><path d="M66,80 H225.58 A8,8 0 0 1 233.58,88 V112 A8,8 0 0 1 225.58,120 H66 A8,8 0 0 1 58,112 V88 A8,8 0 0 1 66,80 Z" fill="var(--color-1)" stroke-width="1px" stroke="rgba(0, 0, 0, 0)"/><text x="101" y="105" fill="rgb(255, 255, 255)" font-family="var(--fontFamily-2)" font-size="16px" font-weight="500" font-style="normal" letter-spacing="normal" text-decoration="none solid rgb(255, 255, 255)" text-anchor="start" style="line-height: 16px; white-space: pre; text-transform: none;">New connection</text><g style="transform: translate(69.9px, 87.9px); color: var(--color-3);"><svg viewBox="0 0 24 24" role="presentation" class=" f-0 " style="width: 22px; height: 22px; transform: scale(1.1);" width="22" height="22"><path d="M19,13H13V19H11V13H5V11H11V5H13V11H19V13Z" style="fill: currentcolor;"/></svg></g><clipPath id="clip-of-0"><path d="M65,79 H226.58 A8,8 0 0 1 234.58,87 V113 A8,8 0 0 1 226.58,121 H65 A8,8 0 0 1 57,113 V87 A8,8 0 0 1 65,79 Z" fill="none" stroke="none"/></clipPath></g><g data-selector="div.PopupMenu_triggerWrapper h-fit w-fit ml-auto" data-command="ConnectionsOptions"><path d="M802,80 H842 V120 H802 V80 Z" fill="none"/><g data-selector="button. f-0 flex-row gap-p5 ai-center btn btn-default btn-size-default btn-color-default ws-nowrap w-fit"><path d="M808,80 H836 A6,6 0 0 1 842,86 V114 A6,6 0 0 1 836,120 H808 A6,6 0 0 1 802,114 V86 A6,6 0 0 1 808,80 Z" fill="none" stroke-width="1px" stroke="rgba(0, 0, 0, 0)"/><g style="transform: translate(809.9px, 87.9px); color: var(--color-4);"><svg viewBox="0 0 24 24" role="presentation" class=" f-0 " style="width: 22px; height: 22px; transform: scale(1.1);" width="22" height="22"><path d="M12,8A4,4 0 0,1 16,12A4,4 0 0,1 12,16A4,4 0 0,1 8,12A4,4 0 0,1 12,8M12,10A2,2 0 0,0 10,12A2,2 0 0,0 12,14A2,2 0 0,0 14,12A2,2 0 0,0 12,10M10,22C9.75,22 9.54,21.82 9.5,21.58L9.13,18.93C8.5,18.68 7.96,18.34 7.44,17.94L4.95,18.95C4.73,19.03 4.46,18.95 4.34,18.73L2.34,15.27C2.21,15.05 2.27,14.78 2.46,14.63L4.57,12.97L4.5,12L4.57,11L2.46,9.37C2.27,9.22 2.21,8.95 2.34,8.73L4.34,5.27C4.46,5.05 4.73,4.96 4.95,5.05L7.44,6.05C7.96,5.66 8.5,5.32 9.13,5.07L9.5,2.42C9.54,2.18 9.75,2 10,2H14C14.25,2 14.46,2.18 14.5,2.42L14.87,5.07C15.5,5.32 16.04,5.66 16.56,6.05L19.05,5.05C19.27,4.96 19.54,5.05 19.66,5.27L21.66,8.73C21.79,8.95 21.73,9.22 21.54,9.37L19.43,11L19.5,12L19.43,13L21.54,14.63C21.73,14.78 21.79,15.05 21.66,15.27L19.66,18.73C19.54,18.95 19.27,19.04 19.05,18.95L16.56,17.95C16.04,18.34 15.5,18.68 14.87,18.93L14.5,21.58C14.46,21.82 14.25,22 14,22H10M11.25,4L10.88,6.61C9.68,6.86 8.62,7.5 7.85,8.39L5.44,7.35L4.69,8.65L6.8,10.2C6.4,11.37 6.4,12.64 6.8,13.8L4.68,15.36L5.43,16.66L7.86,15.62C8.63,16.5 9.68,17.14 10.87,17.38L11.24,20H12.76L13.13,17.39C14.32,17.14 15.37,16.5 16.14,15.62L18.57,16.66L19.32,15.36L17.2,13.81C17.6,12.64 17.6,11.37 17.2,10.2L19.31,8.65L18.56,7.35L16.15,8.39C15.38,7.5 14.32,6.86 13.12,6.62L12.75,4H11.25Z" style="fill: currentcolor;"/></svg></g></g></g></g><g data-selector="div.Connections_list flex-col o-auto min-h-0 p-p5 pb-1 mt-1 gap-2 ai-center" clip-path="url(#clip-of-25)"><g data-selector="div. max-w-800 w-full"><g data-selector="div.gap-p25 jc-end p-p5 FlexRow flex-row ai-center"><g data-selector="h4.m-0 flex-row gap-p5 p-p5 ai-center text-1p5 jc-end text-ellipsis" clip-path="url(#clip-of-2)"><g data-selector="div.text-ellipsis" clip-path="url(#clip-of-1)"><text x="647.75" y="182" fill="rgb(107, 114, 128)" font-family="var(--fontFamily-2)" font-size="16px" font-weight="700" font-style="normal" letter-spacing="normal" text-decoration="none solid rgb(107, 114, 128)" text-anchor="start" style="line-height: normal; white-space: normal; text-transform: none;">usr@localhost:5432</text><clipPath id="clip-of-1"><path d="M647.75,168 H798 V186 H647.75 V168 Z" fill="none" stroke="none"/></clipPath></g><clipPath id="clip-of-2"><path d="M639.75,160 H806 V194 H639.75 V160 Z" fill="none" stroke="none"/></clipPath></g><g data-selector="button. Select w-fit f-0 select-button   flex-row gap-p5 ai-center btn btn-filled btn-size-small btn-color-action ws-nowrap" data-command="ConnectionServer.add" data-key="usr@localhost:5432"><path d="M816,161 H836 A6,6 0 0 1 842,167 V187 A6,6 0 0 1 836,193 H816 A6,6 0 0 1 810,187 V167 A6,6 0 0 1 816,161 Z" fill="var(--color-1)" stroke-width="1px" stroke="rgba(0, 0, 0, 0)"/><g style="transform: translate(816.1px, 167.1px); color: var(--color-3);"><svg viewBox="0 0 24 24" role="presentation" class=" f-0 " style="width: 18px; height: 18px; transform: scale(1.1);" width="18" height="18"><path d="M19,13H13V19H11V13H5V11H11V5H13V11H19V13Z" style="fill: currentcolor;"/></svg></g></g></g><g data-selector="div.flex-col gap-p5 "><g data-selector="div.Connection gap-0 bg-color-0 text-black shadow trigger-hover  FlexCol flex-col" data-key="crypto"><path d="M50,202 H850 V304 H50 V202 Z" fill="var(--color-5)" style="filter: drop-shadow(rgba(0, 0, 0, 0.1) 0px 1px 1.5px) drop-shadow(rgba(0, 0, 0, 0.06) 0px 1px 1px);"/><g data-selector="div.Connection_TOP-CONNECTION-INFO_ACTIONS flex-row"><g data-selector="a.no-decor flex-col min-w-0 text-ellipsis f-1 text-active-hover " data-command="Connection.openConnection" clip-path="url(#clip-of-4)"><path d="M50,202 H584 V258 H50 V202 Z" fill="none"/><g data-selector="div.flex-col gap-p5 p-1 h-full"><g data-selector="div.gap-1 FlexRowWrap flex-row-wrap ai-center"><g data-selector="div.text-ellipsis font-20 text-0" clip-path="url(#clip-of-3)"><text x="66" y="236" fill="var(--color-6)" font-family="var(--fontFamily-2)" font-size="20px" font-weight="400" font-style="normal" letter-spacing="normal" text-decoration="none solid rgb(22, 30, 46)" text-anchor="start" style="line-height: normal; white-space: normal; text-transform: none;">crypto</text><clipPath id="clip-of-3"><path d="M66,218 H124.73 V242 H66 V218 Z" fill="none" stroke="none"/></clipPath></g></g></g><clipPath id="clip-of-4"><path d="M50,202 H584 V258 H50 V202 Z" fill="none" stroke="none"/></clipPath></g><g data-selector="div.ActionsContainer gap-p5 p-p25 ai-start FlexRow flex-row"><g data-selector="button. f-0 flex-row gap-p5 ai-center rounded btn btn-default btn-size-default btn-color-green ws-nowrap w-fit" data-command="Connection.disconnect"><path d="M812,206 H838 A8,8 0 0 1 846,214 V240 A8,8 0 0 1 838,248 H812 A8,8 0 0 1 804,240 V214 A8,8 0 0 1 812,206 Z" fill="none" stroke-width="1px" stroke="rgba(0, 0, 0, 0)"/><g data-selector="div. shadow"><path d="M825,221 H825 A6,6 0 0 1 831,227 V227 A6,6 0 0 1 825,233 H825 A6,6 0 0 1 819,227 V227 A6,6 0 0 1 825,221 Z" fill="rgb(14, 159, 110)" style="filter: drop-shadow(rgba(0, 0, 0, 0.1) 0px 1px 1.5px) drop-shadow(rgba(0, 0, 0, 0.06) 0px 1px 1px);"/></g></g></g></g><g data-selector="div.ConnectionWorkspaceList  pl-1 p-p25 pt-0 ai-center gap-0 FlexRowWrap flex-row-wrap" data-command="Connection.workspaceList"><path d="M50,258 H850 V304 H50 V258 Z" fill="none"/><g style="transform: translate(66px, 270px); color: var(--color-7);"><svg viewBox="0 0 24 24" role="presentation" class="text-action mr-p5" style="width: 1.125rem; height: 1.125rem;" width="18" height="18"><path d="M18,6V17H22V6M2,17H6V6H2M7,19H17V4H7V19Z" style="fill: currentcolor;"/></svg></g><g data-selector="a.w-fit f-0 flex-row gap-p5 ai-center button-css rounded btn btn-default btn-size-default btn-color-action ws-nowrap" data-key="Crypto markets" clip-path="url(#clip-of-5)"><path d="M100,258 H229 A8,8 0 0 1 237,266 V292 A8,8 0 0 1 229,300 H100 A8,8 0 0 1 92,292 V266 A8,8 0 0 1 100,258 Z" fill="none" stroke-width="1px" stroke="rgba(0, 0, 0, 0)"/><text x="107" y="284" fill="var(--color-8)" font-family="var(--fontFamily-2)" font-size="16px" font-weight="500" font-style="normal" letter-spacing="normal" text-decoration="none solid rgb(63, 131, 248)" text-anchor="start" style="line-height: 16px; white-space: nowrap; text-transform: none;">Crypto markets</text><clipPath id="clip-of-5"><path d="M99,257 H230 A8,8 0 0 1 238,265 V293 A8,8 0 0 1 230,301 H99 A8,8 0 0 1 91,293 V265 A8,8 0 0 1 99,257 Z" fill="none" stroke="none"/></clipPath></g><g data-selector="a.w-fit f-0 flex-row gap-p5 ai-center button-css rounded btn btn-default btn-size-default btn-color-action ws-nowrap" data-key="Crypto dashboard" clip-path="url(#clip-of-6)"><path d="M245,258 H391.92 A8,8 0 0 1 399.92,266 V292 A8,8 0 0 1 391.92,300 H245 A8,8 0 0 1 237,292 V266 A8,8 0 0 1 245,258 Z" fill="none" stroke-width="1px" stroke="rgba(0, 0, 0, 0)"/><text x="252" y="284" fill="var(--color-8)" font-family="var(--fontFamily-2)" font-size="16px" font-weight="500" font-style="normal" letter-spacing="normal" text-decoration="none solid rgb(63, 131, 248)" text-anchor="start" style="line-height: 16px; white-space: nowrap; text-transform: none;">Crypto dashboard</text><clipPath id="clip-of-6"><path d="M244,257 H392.92 A8,8 0 0 1 400.92,265 V293 A8,8 0 0 1 392.92,301 H244 A8,8 0 0 1 236,293 V265 A8,8 0 0 1 244,257 Z" fill="none" stroke="none"/></clipPath></g></g></g><g data-selector="div.Connection gap-0 bg-color-0 text-black shadow trigger-hover  FlexCol flex-col" data-key="food_delivery"><path d="M50,312 H850 V414 H50 V312 Z" fill="var(--color-5)" style="filter: drop-shadow(rgba(0, 0, 0, 0.1) 0px 1px 1.5px) drop-shadow(rgba(0, 0, 0, 0.06) 0px 1px 1px);"/><g data-selector="div.Connection_TOP-CONNECTION-INFO_ACTIONS flex-row"><g data-selector="a.no-decor flex-col min-w-0 text-ellipsis f-1 text-active-hover " data-command="Connection.openConnection" clip-path="url(#clip-of-8)"><path d="M50,312 H584 V368 H50 V312 Z" fill="none"/><g data-selector="div.flex-col gap-p5 p-1 h-full"><g data-selector="div.gap-1 FlexRowWrap flex-row-wrap ai-center"><g data-selector="div.text-ellipsis font-20 text-0" clip-path="url(#clip-of-7)"><text x="66" y="346" fill="var(--color-6)" font-family="var(--fontFamily-2)" font-size="20px" font-weight="400" font-style="normal" letter-spacing="normal" text-decoration="none solid rgb(22, 30, 46)" text-anchor="start" style="line-height: normal; white-space: normal; text-transform: none;">food_delivery</text><clipPath id="clip-of-7"><path d="M66,328 H191.45 V352 H66 V328 Z" fill="none" stroke="none"/></clipPath></g></g></g><clipPath id="clip-of-8"><path d="M50,312 H584 V368 H50 V312 Z" fill="none" stroke="none"/></clipPath></g><g data-selector="div.ActionsContainer gap-p5 p-p25 ai-start FlexRow flex-row"><g data-selector="button. f-0 flex-row gap-p5 ai-center rounded btn btn-default btn-size-default btn-color-green ws-nowrap w-fit" data-command="Connection.disconnect"><path d="M812,316 H838 A8,8 0 0 1 846,324 V350 A8,8 0 0 1 838,358 H812 A8,8 0 0 1 804,350 V324 A8,8 0 0 1 812,316 Z" fill="none" stroke-width="1px" stroke="rgba(0, 0, 0, 0)"/><g data-selector="div. shadow"><path d="M825,331 H825 A6,6 0 0 1 831,337 V337 A6,6 0 0 1 825,343 H825 A6,6 0 0 1 819,337 V337 A6,6 0 0 1 825,331 Z" fill="rgb(14, 159, 110)" style="filter: drop-shadow(rgba(0, 0, 0, 0.1) 0px 1px 1.5px) drop-shadow(rgba(0, 0, 0, 0.06) 0px 1px 1px);"/></g></g></g></g><g data-selector="div.ConnectionWorkspaceList  pl-1 p-p25 pt-0 ai-center gap-0 FlexRowWrap flex-row-wrap" data-command="Connection.workspaceList"><path d="M50,368 H850 V414 H50 V368 Z" fill="none"/><g style="transform: translate(66px, 380px); color: var(--color-7);"><svg viewBox="0 0 24 24" role="presentation" class="text-action mr-p5" style="width: 1.125rem; height: 1.125rem;" width="18" height="18"><path d="M18,6V17H22V6M2,17H6V6H2M7,19H17V4H7V19Z" style="fill: currentcolor;"/></svg></g><g data-selector="a.w-fit f-0 flex-row gap-p5 ai-center button-css rounded btn btn-default btn-size-default btn-color-action ws-nowrap" data-key="Main (Copy)" clip-path="url(#clip-of-9)"><path d="M100,368 H201.83 A8,8 0 0 1 209.83,376 V402 A8,8 0 0 1 201.83,410 H100 A8,8 0 0 1 92,402 V376 A8,8 0 0 1 100,368 Z" fill="none" stroke-width="1px" stroke="rgba(0, 0, 0, 0)"/><text x="107" y="394" fill="var(--color-8)" font-family="var(--fontFamily-2)" font-size="16px" font-weight="500" font-style="normal" letter-spacing="normal" text-decoration="none solid rgb(63, 131, 248)" text-anchor="start" style="line-height: 16px; white-space: nowrap; text-transform: none;">Main (Copy)</text><clipPath id="clip-of-9"><path d="M99,367 H202.83 A8,8 0 0 1 210.83,375 V403 A8,8 0 0 1 202.83,411 H99 A8,8 0 0 1 91,403 V375 A8,8 0 0 1 99,367 Z" fill="none" stroke="none"/></clipPath></g><g data-selector="a.w-fit f-0 flex-row gap-p5 ai-center button-css rounded btn btn-default btn-size-default btn-color-action ws-nowrap" data-key="Main" clip-path="url(#clip-of-10)"><path d="M217.83,368 H268.3 A8,8 0 0 1 276.3,376 V402 A8,8 0 0 1 268.3,410 H217.83 A8,8 0 0 1 209.83,402 V376 A8,8 0 0 1 217.83,368 Z" fill="none" stroke-width="1px" stroke="rgba(0, 0, 0, 0)"/><text x="224.83" y="394" fill="var(--color-8)" font-family="var(--fontFamily-2)" font-size="16px" font-weight="500" font-style="normal" letter-spacing="normal" text-decoration="none solid rgb(63, 131, 248)" text-anchor="start" style="line-height: 16px; white-space: nowrap; text-transform: none;">Main</text><clipPath id="clip-of-10"><path d="M216.83,367 H269.3 A8,8 0 0 1 277.3,375 V403 A8,8 0 0 1 269.3,411 H216.83 A8,8 0 0 1 208.83,403 V375 A8,8 0 0 1 216.83,367 Z" fill="none" stroke="none"/></clipPath></g></g></g><g data-selector="div.Connection gap-0 bg-color-0 text-black shadow trigger-hover  FlexCol flex-col" data-key="prostgles_video_demo"><path d="M50,422 H850 V524 H50 V422 Z" fill="var(--color-5)" style="filter: drop-shadow(rgba(0, 0, 0, 0.1) 0px 1px 1.5px) drop-shadow(rgba(0, 0, 0, 0.06) 0px 1px 1px);"/><g data-selector="div.Connection_TOP-CONNECTION-INFO_ACTIONS flex-row"><g data-selector="a.no-decor flex-col min-w-0 text-ellipsis f-1 text-active-hover " data-command="Connection.openConnection" clip-path="url(#clip-of-12)"><path d="M50,422 H584 V478 H50 V422 Z" fill="none"/><g data-selector="div.flex-col gap-p5 p-1 h-full"><g data-selector="div.gap-1 FlexRowWrap flex-row-wrap ai-center"><g data-selector="div.text-ellipsis font-20 text-0" clip-path="url(#clip-of-11)"><text x="66" y="456" fill="var(--color-6)" font-family="var(--fontFamily-2)" font-size="20px" font-weight="400" font-style="normal" letter-spacing="normal" text-decoration="none solid rgb(22, 30, 46)" text-anchor="start" style="line-height: normal; white-space: normal; text-transform: none;">prostgles_video_demo</text><clipPath id="clip-of-11"><path d="M66,438 H272.7 V462 H66 V438 Z" fill="none" stroke="none"/></clipPath></g></g></g><clipPath id="clip-of-12"><path d="M50,422 H584 V478 H50 V422 Z" fill="none" stroke="none"/></clipPath></g><g data-selector="div.ActionsContainer gap-p5 p-p25 ai-start FlexRow flex-row"><g data-selector="button. f-0 flex-row gap-p5 ai-center rounded btn btn-default btn-size-default btn-color-green ws-nowrap w-fit" data-command="Connection.disconnect"><path d="M812,426 H838 A8,8 0 0 1 846,434 V460 A8,8 0 0 1 838,468 H812 A8,8 0 0 1 804,460 V434 A8,8 0 0 1 812,426 Z" fill="none" stroke-width="1px" stroke="rgba(0, 0, 0, 0)"/><g data-selector="div. shadow"><path d="M825,441 H825 A6,6 0 0 1 831,447 V447 A6,6 0 0 1 825,453 H825 A6,6 0 0 1 819,447 V447 A6,6 0 0 1 825,441 Z" fill="rgb(14, 159, 110)" style="filter: drop-shadow(rgba(0, 0, 0, 0.1) 0px 1px 1.5px) drop-shadow(rgba(0, 0, 0, 0.06) 0px 1px 1px);"/></g></g></g></g><g data-selector="div.ConnectionWorkspaceList  pl-1 p-p25 pt-0 ai-center gap-0 FlexRowWrap flex-row-wrap" data-command="Connection.workspaceList"><path d="M50,478 H850 V524 H50 V478 Z" fill="none"/><g style="transform: translate(66px, 490px); color: var(--color-7);"><svg viewBox="0 0 24 24" role="presentation" class="text-action mr-p5" style="width: 1.125rem; height: 1.125rem;" width="18" height="18"><path d="M18,6V17H22V6M2,17H6V6H2M7,19H17V4H7V19Z" style="fill: currentcolor;"/></svg></g><g data-selector="a.w-fit f-0 flex-row gap-p5 ai-center button-css rounded btn btn-default btn-size-default btn-color-action ws-nowrap" data-key="default" clip-path="url(#clip-of-13)"><path d="M100,478 H168.39 A8,8 0 0 1 176.39,486 V512 A8,8 0 0 1 168.39,520 H100 A8,8 0 0 1 92,512 V486 A8,8 0 0 1 100,478 Z" fill="none" stroke-width="1px" stroke="rgba(0, 0, 0, 0)"/><text x="107" y="504" fill="var(--color-8)" font-family="var(--fontFamily-2)" font-size="16px" font-weight="500" font-style="normal" letter-spacing="normal" text-decoration="none solid rgb(63, 131, 248)" text-anchor="start" style="line-height: 16px; white-space: nowrap; text-transform: none;">default</text><clipPath id="clip-of-13"><path d="M99,477 H169.39 A8,8 0 0 1 177.39,485 V513 A8,8 0 0 1 169.39,521 H99 A8,8 0 0 1 91,513 V485 A8,8 0 0 1 99,477 Z" fill="none" stroke="none"/></clipPath></g><g data-selector="a.w-fit f-0 flex-row gap-p5 ai-center button-css rounded btn btn-default btn-size-default btn-color-action ws-nowrap" data-key="Users dashboard" clip-path="url(#clip-of-14)"><path d="M184.39,478 H321.92 A8,8 0 0 1 329.92,486 V512 A8,8 0 0 1 321.92,520 H184.39 A8,8 0 0 1 176.39,512 V486 A8,8 0 0 1 184.39,478 Z" fill="none" stroke-width="1px" stroke="rgba(0, 0, 0, 0)"/><text x="191.39" y="504" fill="var(--color-8)" font-family="var(--fontFamily-2)" font-size="16px" font-weight="500" font-style="normal" letter-spacing="normal" text-decoration="none solid rgb(63, 131, 248)" text-anchor="start" style="line-height: 16px; white-space: nowrap; text-transform: none;">Users dashboard</text><clipPath id="clip-of-14"><path d="M183.39,477 H322.92 A8,8 0 0 1 330.92,485 V513 A8,8 0 0 1 322.92,521 H183.39 A8,8 0 0 1 175.39,513 V485 A8,8 0 0 1 183.39,477 Z" fill="none" stroke="none"/></clipPath></g><g data-selector="a.as-end ml-auto f-0 flex-row gap-p5 ai-center button-css rounded btn btn-default btn-size-default btn-color-action ws-nowrap w-fit" clip-path="url(#clip-of-15)"><path d="M788.91,480 H838 A8,8 0 0 1 846,488 V512 A8,8 0 0 1 838,520 H788.91 A8,8 0 0 1 780.91,512 V488 A8,8 0 0 1 788.91,480 Z" fill="none" stroke-width="1px" stroke="rgba(0, 0, 0, 0)"/><text x="793.91" y="505" fill="var(--color-8)" font-family="var(--fontFamily-2)" font-size="16px" font-weight="500" font-style="normal" letter-spacing="normal" text-decoration="none solid rgb(63, 131, 248)" text-anchor="start" style="line-height: 16px; white-space: nowrap; text-transform: none;">5</text><g style="transform: translate(809.9px, 487.9px); color: var(--color-8);"><svg viewBox="0 0 24 24" role="presentation" class=" f-0 " style="width: 22px; height: 22px; transform: scale(1.1);" width="22" height="22"><path d="M16 17V19H2V17S2 13 9 13 16 17 16 17M12.5 7.5A3.5 3.5 0 1 0 9 11A3.5 3.5 0 0 0 12.5 7.5M15.94 13A5.32 5.32 0 0 1 18 17V19H22V17S22 13.37 15.94 13M15 4A3.39 3.39 0 0 0 13.07 4.59A5 5 0 0 1 13.07 10.41A3.39 3.39 0 0 0 15 11A3.5 3.5 0 0 0 15 4Z" style="fill: currentcolor;"/></svg></g><clipPath id="clip-of-15"><path d="M787.91,479 H839 A8,8 0 0 1 847,487 V513 A8,8 0 0 1 839,521 H787.91 A8,8 0 0 1 779.91,513 V487 A8,8 0 0 1 787.91,479 Z" fill="none" stroke="none"/></clipPath></g></g></g><g data-selector="div.Connection gap-0 bg-color-0 text-black shadow trigger-hover  FlexCol flex-col" data-key="Prostgles UI automated tests database"><path d="M50,532 H850 V634 H50 V532 Z" fill="var(--color-5)" style="filter: drop-shadow(rgba(0, 0, 0, 0.1) 0px 1px 1.5px) drop-shadow(rgba(0, 0, 0, 0.06) 0px 1px 1px);"/><g data-selector="div.Connection_TOP-CONNECTION-INFO_ACTIONS flex-row"><g data-selector="a.no-decor flex-col min-w-0 text-ellipsis f-1 text-active-hover " data-command="Connection.openConnection" clip-path="url(#clip-of-17)"><path d="M50,532 H584 V588 H50 V532 Z" fill="none"/><g data-selector="div.flex-col gap-p5 p-1 h-full"><g data-selector="div.gap-1 FlexRowWrap flex-row-wrap ai-center"><g data-selector="div.text-ellipsis font-20 text-0" clip-path="url(#clip-of-16)"><text x="66" y="566" fill="var(--color-6)" font-family="var(--fontFamily-2)" font-size="20px" font-weight="400" font-style="normal" letter-spacing="normal" text-decoration="none solid rgb(22, 30, 46)" text-anchor="start" style="line-height: normal; white-space: normal; text-transform: none;">Prostgles UI automated tests database</text><clipPath id="clip-of-16"><path d="M66,548 H417.05 V572 H66 V548 Z" fill="none" stroke="none"/></clipPath></g></g></g><clipPath id="clip-of-17"><path d="M50,532 H584 V588 H50 V532 Z" fill="none" stroke="none"/></clipPath></g></g><g data-selector="div.ConnectionWorkspaceList  pl-1 p-p25 pt-0 ai-center gap-0 FlexRowWrap flex-row-wrap" data-command="Connection.workspaceList"><path d="M50,588 H850 V634 H50 V588 Z" fill="none"/><g style="transform: translate(66px, 600px); color: var(--color-7);"><svg viewBox="0 0 24 24" role="presentation" class="text-action mr-p5" style="width: 1.125rem; height: 1.125rem;" width="18" height="18"><path d="M18,6V17H22V6M2,17H6V6H2M7,19H17V4H7V19Z" style="fill: currentcolor;"/></svg></g><g data-selector="a.w-fit f-0 flex-row gap-p5 ai-center button-css rounded btn btn-default btn-size-default btn-color-action ws-nowrap" data-key="default" clip-path="url(#clip-of-18)"><path d="M100,588 H168.39 A8,8 0 0 1 176.39,596 V622 A8,8 0 0 1 168.39,630 H100 A8,8 0 0 1 92,622 V596 A8,8 0 0 1 100,588 Z" fill="none" stroke-width="1px" stroke="rgba(0, 0, 0, 0)"/><text x="107" y="614" fill="var(--color-8)" font-family="var(--fontFamily-2)" font-size="16px" font-weight="500" font-style="normal" letter-spacing="normal" text-decoration="none solid rgb(63, 131, 248)" text-anchor="start" style="line-height: 16px; white-space: nowrap; text-transform: none;">default</text><clipPath id="clip-of-18"><path d="M99,587 H169.39 A8,8 0 0 1 177.39,595 V623 A8,8 0 0 1 169.39,631 H99 A8,8 0 0 1 91,623 V595 A8,8 0 0 1 99,587 Z" fill="none" stroke="none"/></clipPath></g><g data-selector="a.w-fit f-0 flex-row gap-p5 ai-center button-css rounded btn btn-default btn-size-default btn-color-action ws-nowrap" data-key="default" clip-path="url(#clip-of-19)"><path d="M184.39,588 H252.78 A8,8 0 0 1 260.78,596 V622 A8,8 0 0 1 252.78,630 H184.39 A8,8 0 0 1 176.39,622 V596 A8,8 0 0 1 184.39,588 Z" fill="none" stroke-width="1px" stroke="rgba(0, 0, 0, 0)"/><text x="191.39" y="614" fill="var(--color-8)" font-family="var(--fontFamily-2)" font-size="16px" font-weight="500" font-style="normal" letter-spacing="normal" text-decoration="none solid rgb(63, 131, 248)" text-anchor="start" style="line-height: 16px; white-space: nowrap; text-transform: none;">default</text><clipPath id="clip-of-19"><path d="M183.39,587 H253.78 A8,8 0 0 1 261.78,595 V623 A8,8 0 0 1 253.78,631 H183.39 A8,8 0 0 1 175.39,623 V595 A8,8 0 0 1 183.39,587 Z" fill="none" stroke="none"/></clipPath></g><g data-selector="a.w-fit f-0 flex-row gap-p5 ai-center button-css rounded btn btn-default btn-size-default btn-color-action ws-nowrap" data-key="Table tests" clip-path="url(#clip-of-20)"><path d="M268.78,588 H364.09 A8,8 0 0 1 372.09,596 V622 A8,8 0 0 1 364.09,630 H268.78 A8,8 0 0 1 260.78,622 V596 A8,8 0 0 1 268.78,588 Z" fill="none" stroke-width="1px" stroke="rgba(0, 0, 0, 0)"/><text x="275.78" y="614" fill="var(--color-8)" font-family="var(--fontFamily-2)" font-size="16px" font-weight="500" font-style="normal" letter-spacing="normal" text-decoration="none solid rgb(63, 131, 248)" text-anchor="start" style="line-height: 16px; white-space: nowrap; text-transform: none;">Table tests</text><clipPath id="clip-of-20"><path d="M267.78,587 H365.09 A8,8 0 0 1 373.09,595 V623 A8,8 0 0 1 365.09,631 H267.78 A8,8 0 0 1 259.78,623 V595 A8,8 0 0 1 267.78,587 Z" fill="none" stroke="none"/></clipPath></g><g data-selector="a.w-fit f-0 flex-row gap-p5 ai-center button-css rounded btn btn-default btn-size-default btn-color-action ws-nowrap" data-key="default" clip-path="url(#clip-of-21)"><path d="M380.09,588 H448.48 A8,8 0 0 1 456.48,596 V622 A8,8 0 0 1 448.48,630 H380.09 A8,8 0 0 1 372.09,622 V596 A8,8 0 0 1 380.09,588 Z" fill="none" stroke-width="1px" stroke="rgba(0, 0, 0, 0)"/><text x="387.09" y="614" fill="var(--color-8)" font-family="var(--fontFamily-2)" font-size="16px" font-weight="500" font-style="normal" letter-spacing="normal" text-decoration="none solid rgb(63, 131, 248)" text-anchor="start" style="line-height: 16px; white-space: nowrap; text-transform: none;">default</text><clipPath id="clip-of-21"><path d="M379.09,587 H449.48 A8,8 0 0 1 457.48,595 V623 A8,8 0 0 1 449.48,631 H379.09 A8,8 0 0 1 371.09,623 V595 A8,8 0 0 1 379.09,587 Z" fill="none" stroke="none"/></clipPath></g><g data-selector="a.w-fit f-0 flex-row gap-p5 ai-center button-css rounded btn btn-default btn-size-default btn-color-action ws-nowrap" data-key="default" clip-path="url(#clip-of-22)"><path d="M464.48,588 H532.88 A8,8 0 0 1 540.88,596 V622 A8,8 0 0 1 532.88,630 H464.48 A8,8 0 0 1 456.48,622 V596 A8,8 0 0 1 464.48,588 Z" fill="none" stroke-width="1px" stroke="rgba(0, 0, 0, 0)"/><text x="471.48" y="614" fill="var(--color-8)" font-family="var(--fontFamily-2)" font-size="16px" font-weight="500" font-style="normal" letter-spacing="normal" text-decoration="none solid rgb(63, 131, 248)" text-anchor="start" style="line-height: 16px; white-space: nowrap; text-transform: none;">default</text><clipPath id="clip-of-22"><path d="M463.48,587 H533.88 A8,8 0 0 1 541.88,595 V623 A8,8 0 0 1 533.88,631 H463.48 A8,8 0 0 1 455.48,623 V595 A8,8 0 0 1 463.48,587 Z" fill="none" stroke="none"/></clipPath></g><g data-selector="a.w-fit f-0 flex-row gap-p5 ai-center button-css rounded btn btn-default btn-size-default btn-color-action ws-nowrap" data-key="default" clip-path="url(#clip-of-23)"><path d="M548.88,588 H617.27 A8,8 0 0 1 625.27,596 V622 A8,8 0 0 1 617.27,630 H548.88 A8,8 0 0 1 540.88,622 V596 A8,8 0 0 1 548.88,588 Z" fill="none" stroke-width="1px" stroke="rgba(0, 0, 0, 0)"/><text x="555.88" y="614" fill="var(--color-8)" font-family="var(--fontFamily-2)" font-size="16px" font-weight="500" font-style="normal" letter-spacing="normal" text-decoration="none solid rgb(63, 131, 248)" text-anchor="start" style="line-height: 16px; white-space: nowrap; text-transform: none;">default</text><clipPath id="clip-of-23"><path d="M547.88,587 H618.27 A8,8 0 0 1 626.27,595 V623 A8,8 0 0 1 618.27,631 H547.88 A8,8 0 0 1 539.88,623 V595 A8,8 0 0 1 547.88,587 Z" fill="none" stroke="none"/></clipPath></g><g data-selector="a.as-end ml-auto f-0 flex-row gap-p5 ai-center button-css rounded btn btn-default btn-size-default btn-color-action ws-nowrap w-fit" clip-path="url(#clip-of-24)"><path d="M779.81,590 H838 A8,8 0 0 1 846,598 V622 A8,8 0 0 1 838,630 H779.81 A8,8 0 0 1 771.81,622 V598 A8,8 0 0 1 779.81,590 Z" fill="none" stroke-width="1px" stroke="rgba(0, 0, 0, 0)"/><text x="784.81" y="615" fill="var(--color-8)" font-family="var(--fontFamily-2)" font-size="16px" font-weight="500" font-style="normal" letter-spacing="normal" text-decoration="none solid rgb(63, 131, 248)" text-anchor="start" style="line-height: 16px; white-space: nowrap; text-transform: none;">36</text><g style="transform: translate(809.9px, 597.9px); color: var(--color-8);"><svg viewBox="0 0 24 24" role="presentation" class=" f-0 " style="width: 22px; height: 22px; transform: scale(1.1);" width="22" height="22"><path d="M16 17V19H2V17S2 13 9 13 16 17 16 17M12.5 7.5A3.5 3.5 0 1 0 9 11A3.5 3.5 0 0 0 12.5 7.5M15.94 13A5.32 5.32 0 0 1 18 17V19H22V17S22 13.37 15.94 13M15 4A3.39 3.39 0 0 0 13.07 4.59A5 5 0 0 1 13.07 10.41A3.39 3.39 0 0 0 15 11A3.5 3.5 0 0 0 15 4Z" style="fill: currentcolor;"/></svg></g><clipPath id="clip-of-24"><path d="M778.81,589 H839 A8,8 0 0 1 847,597 V623 A8,8 0 0 1 839,631 H778.81 A8,8 0 0 1 770.81,623 V597 A8,8 0 0 1 778.81,589 Z" fill="none" stroke="none"/></clipPath></g></g></g></g></g><clipPath id="clip-of-25"><path d="M0,144 H900 V600 H0 V144 Z" fill="none" stroke="none"/></clipPath></g></g><g data-selector="nav.flex-row jc-center noselect w-full text-1p5 shadow-l bg-color-0  mobile-collapsed " data-command="NavBar"><path d="M0,0 H900 V56 H0 V0 Z" fill="var(--color-5)" style="filter: drop-shadow(rgba(32, 33, 36, 0.28) 0px 1px 3px);"/><g data-selector="div.flex-row f-1"><g data-selector="a.prgl-brand-icon flex-row ai-center jc-center"><svg xmlns:dc="http://purl.org/dc/elements/1.1/" xmlns:cc="http://creativecommons.org/ns#" xmlns:rdf="http://www.w3.org/1999/02/22-rdf-syntax-ns#" xmlns:svg="http://www.w3.org/2000/svg" xmlns="http://www.w3.org/2000/svg" id="svg8" version="1.1" viewBox="0 0 9.5249998 9.5250003" height="36" width="36" x="16" y="10">
  <style>
    @media (prefers-color-scheme: dark) {
      <!-- #path3881-head {
        fill: green !important;
      }
  
      #path3887-eye {
        fill: #ff0000 !important;
      }       -->
    }
  </style>
  <g transform="translate(0,-287.47498)" id="layer1">
    <path style="fill:#0087ab;stroke-width:0.10478402" id="path3881-head" d="m 6.5209966,295.25712 c 0.2175402,-0.46431 1.6420322,-2.2511 1.3456182,-4.2915 -0.085217,-0.58659 -2.1619067,-1.59449 -2.2268491,-1.64218 -0.01022,-0.008 -0.1325362,-0.0996 -0.1694292,-0.13795 -0.197562,-0.2055 -0.499117,-0.62298 -0.8304557,-0.82041 -0.1525898,-0.0909 -0.7394033,-0.0609 -1.0268278,0.11432 l -1.879837,1.08657 c -0.4703536,0.4665 0.1139504,1.07392 0.2268207,1.30469 0.1128704,0.23077 0.803662,0.95627 0.803662,0.95627 v 0 c -0.1433145,0.0653 -0.3911698,-0.0575 -0.6915708,-0.27496 0,0 -0.8432496,-0.80366 -0.8823501,-0.87005 -0.039101,-0.0664 -0.1564018,-0.20484 -0.23460266,-0.47082 0,0 -0.0384912,-0.0917 -0.0544209,-0.51555 -0.0159297,-0.42388 0.69813926,-0.64516 0.80535536,-0.72619 0.107216,-0.081 1.4441719,-0.86378 1.8275182,-1.11029 0.3833462,-0.24651 0.8880668,-0.20266 1.1387453,-0.0444 l 2.8538119,1.69411 c 0.2716598,0.15804 1.3866918,1.14066 1.421482,1.86382 0.081505,1.69417 -1.2190224,2.93746 -1.8472163,4.27428 -0.6281939,1.33683 1.1838142,0.58699 1.2737198,0.43944 l 0.259057,0.27303 c -0.8972105,0.56378 -1.9304095,0.39775 -2.0611443,0.33679 -0.1307347,-0.0609 -0.2768897,-0.88205 -0.051087,-1.439 z"/>
    <path style="fill: #bc0000;fill-opacity:1;fill-rule:evenodd;stroke-width:0.07858816;stroke-miterlimit:4;stroke-dasharray:none;stroke-opacity:0.60294118;" id="path3887-eye" d="m 6.2908378,290.63597 c 0.030281,-0.0145 0.067771,-0.0145 0.09805,0 0.9624569,0.37529 0.8624334,0.39198 0.8624334,1.21858 0,0.0285 -0.018608,0.0549 -0.049026,0.0694 -0.9558494,-0.4203 -0.9974496,-0.45611 -0.9114585,-1.28795 z"/>
  </g>
</svg></g><g data-selector="div.flex-col f-1"><g data-selector="div.navwrapper flex-row gap-p5 ai-center"><g data-selector="a.text-0 hover gap-p5 flex-row ai-center fs-1 px-1 pt-1 bb font-16 active"><path d="M100,0 H246.13 V56 H100 V0 Z" fill="none" stroke="none"/><line x1="100" y1="2" x2="246.125" y2="2" stroke="rgba(0, 0, 0, 0)" stroke-width="4"/><line x1="100" y1="54" x2="246.125" y2="54" stroke="rgb(0, 161, 255)" stroke-width="4"/><g style="transform: translate(112px, 16px); color: var(--color-9);"><svg viewBox="0 0 24 24" role="presentation" class="f-0" style="width: 1.5rem; height: 1.5rem;" width="24" height="24"><path d="M13,19H14A1,1 0 0,1 15,20H22V22H15A1,1 0 0,1 14,23H10A1,1 0 0,1 9,22H2V20H9A1,1 0 0,1 10,19H11V17H4A1,1 0 0,1 3,16V12A1,1 0 0,1 4,11H20A1,1 0 0,1 21,12V16A1,1 0 0,1 20,17H13V19M4,3H20A1,1 0 0,1 21,4V8A1,1 0 0,1 20,9H4A1,1 0 0,1 3,8V4A1,1 0 0,1 4,3M9,7H10V5H9V7M9,15H10V13H9V15M5,5V7H7V5H5M5,13V15H7V13H5Z" style="fill: currentcolor;"/></svg></g><g data-selector="div.fs-1 ws-no-wrap text-ellipsis ws-nowrap" clip-path="url(#clip-of-26)"><text x="144" y="33" fill="rgb(0, 161, 255)" font-family="var(--fontFamily-2)" font-size="16px" font-weight="400" font-style="normal" letter-spacing="normal" text-decoration="none solid rgb(0, 161, 255)" text-anchor="start" style="line-height: normal; white-space: nowrap; text-transform: none;">Connections</text><clipPath id="clip-of-26"><path d="M144,19 H234.13 V37 H144 V19 Z" fill="none" stroke="none"/></clipPath></g></g><g data-selector="a.text-0 hover gap-p5 flex-row ai-center fs-1 px-1 pt-1 bb font-16"><path d="M254.13,0 H350.53 V56 H254.13 V0 Z" fill="none" stroke="none"/><line x1="254.125" y1="2" x2="350.53125" y2="2" stroke="rgba(0, 0, 0, 0)" stroke-width="4"/><line x1="254.125" y1="54" x2="350.53125" y2="54" stroke="rgba(0, 0, 0, 0)" stroke-width="4"/><g style="transform: translate(266.13px, 16px); color: var(--color-6);"><svg viewBox="0 0 24 24" role="presentation" class="f-0" style="width: 1.5rem; height: 1.5rem;" width="24" height="24"><path d="M16 17V19H2V17S2 13 9 13 16 17 16 17M12.5 7.5A3.5 3.5 0 1 0 9 11A3.5 3.5 0 0 0 12.5 7.5M15.94 13A5.32 5.32 0 0 1 18 17V19H22V17S22 13.37 15.94 13M15 4A3.39 3.39 0 0 0 13.07 4.59A5 5 0 0 1 13.07 10.41A3.39 3.39 0 0 0 15 11A3.5 3.5 0 0 0 15 4Z" style="fill: currentcolor;"/></svg></g><g data-selector="div.fs-1 ws-no-wrap text-ellipsis ws-nowrap" clip-path="url(#clip-of-27)"><text x="298.13" y="33" fill="var(--color-6)" font-family="var(--fontFamily-2)" font-size="16px" font-weight="400" font-style="normal" letter-spacing="normal" text-decoration="none solid rgb(22, 30, 46)" text-anchor="start" style="line-height: normal; white-space: nowrap; text-transform: none;">Users</text><clipPath id="clip-of-27"><path d="M298.13,19 H338.53 V37 H298.13 V19 Z" fill="none" stroke="none"/></clipPath></g></g><g data-selector="a.text-0 hover gap-p5 flex-row ai-center fs-1 px-1 pt-1 bb font-16"><path d="M358.53,0 H523.69 V56 H358.53 V0 Z" fill="none" stroke="none"/><line x1="358.53125" y1="2" x2="523.6875" y2="2" stroke="rgba(0, 0, 0, 0)" stroke-width="4"/><line x1="358.53125" y1="54" x2="523.6875" y2="54" stroke="rgba(0, 0, 0, 0)" stroke-width="4"/><g style="transform: translate(370.53px, 16px); color: var(--color-6);"><svg viewBox="0 0 24 24" role="presentation" class="f-0" style="width: 1.5rem; height: 1.5rem;" width="24" height="24"><path d="M3,1H19A1,1 0 0,1 20,2V6A1,1 0 0,1 19,7H3A1,1 0 0,1 2,6V2A1,1 0 0,1 3,1M3,9H19A1,1 0 0,1 20,10V10.67L17.5,9.56L11,12.44V15H3A1,1 0 0,1 2,14V10A1,1 0 0,1 3,9M3,17H11C11.06,19.25 12,21.4 13.46,23H3A1,1 0 0,1 2,22V18A1,1 0 0,1 3,17M8,5H9V3H8V5M8,13H9V11H8V13M8,21H9V19H8V21M4,3V5H6V3H4M4,11V13H6V11H4M4,19V21H6V19H4M17.5,12L22,14V17C22,19.78 20.08,22.37 17.5,23C14.92,22.37 13,19.78 13,17V14L17.5,12M17.5,13.94L15,15.06V17.72C15,19.26 16.07,20.7 17.5,21.06V13.94Z" style="fill: currentcolor;"/></svg></g><g data-selector="div.fs-1 ws-no-wrap text-ellipsis ws-nowrap" clip-path="url(#clip-of-28)"><text x="402.53" y="33" fill="var(--color-6)" font-family="var(--fontFamily-2)" font-size="16px" font-weight="400" font-style="normal" letter-spacing="normal" text-decoration="none solid rgb(22, 30, 46)" text-anchor="start" style="line-height: normal; white-space: nowrap; text-transform: none;">Server settings</text><clipPath id="clip-of-28"><path d="M402.53,19 H511.69 V37 H402.53 V19 Z" fill="none" stroke="none"/></clipPath></g></g><g data-selector="a.text-0 ml-auto flex-row ai-center gap-p5  bb font-16 min-w-0"><path d="M556.03,0 H680.14 V56 H556.03 V0 Z" fill="none" stroke="none"/><line x1="556.03125" y1="2" x2="680.140625" y2="2" stroke="rgba(0, 0, 0, 0)" stroke-width="4"/><line x1="556.03125" y1="54" x2="680.140625" y2="54" stroke="rgba(0, 0, 0, 0)" stroke-width="4"/><g style="transform: translate(568.03px, 16px); color: var(--color-6);"><svg viewBox="0 0 24 24" role="presentation" class="f-0" style="width: 1.5rem; height: 1.5rem;" width="24" height="24"><path d="M15,4A4,4 0 0,1 19,8A4,4 0 0,1 15,12A4,4 0 0,1 11,8A4,4 0 0,1 15,4M15,5.9A2.1,2.1 0 0,0 12.9,8A2.1,2.1 0 0,0 15,10.1C16.16,10.1 17.1,9.16 17.1,8C17.1,6.84 16.16,5.9 15,5.9M15,13C17.67,13 23,14.33 23,17V20H7V17C7,14.33 12.33,13 15,13M15,14.9C12,14.9 8.9,16.36 8.9,17V18.1H21.1V17C21.1,16.36 17.97,14.9 15,14.9M5,13.28L2.5,14.77L3.18,11.96L1,10.08L3.87,9.83L5,7.19L6.11,9.83L9,10.08L6.8,11.96L7.45,14.77L5,13.28Z" style="fill: currentcolor;"/></svg></g><g data-selector="div.f-1 min-w-0 text-ellipsis ws-no-wrap" clip-path="url(#clip-of-29)"><text x="600.03" y="33" fill="var(--color-6)" font-family="var(--fontFamily-2)" font-size="16px" font-weight="400" font-style="normal" letter-spacing="normal" text-decoration="none solid rgb(22, 30, 46)" text-anchor="start" style="line-height: normal; white-space: normal; text-transform: none;">test_user</text><clipPath id="clip-of-29"><path d="M600.03,19 H668.14 V37 H600.03 V19 Z" fill="none" stroke="none"/></clipPath></g></g><g data-selector="a.ws-nowrap text-0 font-16 flex-row ai-center gap-p5" data-command="NavBar.logout"><path d="M688.14,0 H796 V56 H688.14 V0 Z" fill="none" stroke="none"/><line x1="688.140625" y1="2" x2="796" y2="2" stroke="rgba(0, 0, 0, 0)" stroke-width="4"/><line x1="688.140625" y1="54" x2="796" y2="54" stroke="rgba(0, 0, 0, 0)" stroke-width="4"/><g style="transform: translate(700.14px, 16px); color: var(--color-6);"><svg viewBox="0 0 24 24" role="presentation" class="f-0" style="width: 1.5rem; height: 1.5rem;" width="24" height="24"><path d="M17 7L15.59 8.41L18.17 11H8V13H18.17L15.59 15.58L17 17L22 12M4 5H12V3H4C2.9 3 2 3.9 2 5V19C2 20.1 2.9 21 4 21H12V19H4V5Z" style="fill: currentcolor;"/></svg></g><g data-selector="div.f-1 min-w-0 text-ellipsis ws-no-wrap" clip-path="url(#clip-of-30)"><text x="732.14" y="33" fill="var(--color-6)" font-family="var(--fontFamily-2)" font-size="16px" font-weight="400" font-style="normal" letter-spacing="normal" text-decoration="none solid rgb(22, 30, 46)" text-anchor="start" style="line-height: normal; white-space: nowrap; text-transform: none;">Logout</text><clipPath id="clip-of-30"><path d="M732.14,19 H784 V37 H732.14 V19 Z" fill="none" stroke="none"/></clipPath></g></g><g data-selector="div.NavBar_endContent"><g data-selector="div. FlexRow flex-row gap-1 ai-center"><g data-selector="button. Select w-fit f-0 select-button   flex-row gap-p5 ai-center btn btn-default btn-size-default btn-color-default ws-nowrap" data-command="App.colorScheme"><path d="M810,8 H838 A6,6 0 0 1 844,14 V42 A6,6 0 0 1 838,48 H810 A6,6 0 0 1 804,42 V14 A6,6 0 0 1 810,8 Z" fill="none" stroke-width="1px" stroke="rgba(0, 0, 0, 0)"/><g style="transform: translate(811.9px, 15.9px); color: var(--color-4);"><svg viewBox="0 0 24 24" role="presentation" class=" f-0 " style="width: 22px; height: 22px; transform: scale(1.1);" width="22" height="22"><path d="M7.5,2C5.71,3.15 4.5,5.18 4.5,7.5C4.5,9.82 5.71,11.85 7.53,13C4.46,13 2,10.54 2,7.5A5.5,5.5 0 0,1 7.5,2M19.07,3.5L20.5,4.93L4.93,20.5L3.5,19.07L19.07,3.5M12.89,5.93L11.41,5L9.97,6L10.39,4.3L9,3.24L10.75,3.12L11.33,1.47L12,3.1L13.73,3.13L12.38,4.26L12.89,5.93M9.59,9.54L8.43,8.81L7.31,9.59L7.65,8.27L6.56,7.44L7.92,7.35L8.37,6.06L8.88,7.33L10.24,7.36L9.19,8.23L9.59,9.54M19,13.5A5.5,5.5 0 0,1 13.5,19C12.28,19 11.15,18.6 10.24,17.93L17.93,10.24C18.6,11.15 19,12.28 19,13.5M14.6,20.08L17.37,18.93L17.13,22.28L14.6,20.08M18.93,17.38L20.08,14.61L22.28,17.15L18.93,17.38M20.08,12.42L18.94,9.64L22.28,9.88L20.08,12.42M9.63,18.93L12.4,20.08L9.87,22.27L9.63,18.93Z" style="fill: currentcolor;"/></svg></g></g><g data-selector="button. Select w-fit f-0 select-button   flex-row gap-p5 ai-center btn btn-default btn-size-default btn-color-default ws-nowrap" data-command="App.LanguageSelector"><path d="M866,8 H894 A6,6 0 0 1 900,14 V42 A6,6 0 0 1 894,48 H866 A6,6 0 0 1 860,42 V14 A6,6 0 0 1 866,8 Z" fill="none" stroke-width="1px" stroke="rgba(0, 0, 0, 0)"/><g style="transform: translate(867.9px, 15.9px); color: var(--color-4);"><svg viewBox="0 0 24 24" role="presentation" class=" f-0 " style="width: 22px; height: 22px; transform: scale(1.1);" width="22" height="22"><path d="M17.9,17.39C17.64,16.59 16.89,16 16,16H15V13A1,1 0 0,0 14,12H8V10H10A1,1 0 0,0 11,9V7H13A2,2 0 0,0 15,5V4.59C17.93,5.77 20,8.64 20,12C20,14.08 19.2,15.97 17.9,17.39M11,19.93C7.05,19.44 4,16.08 4,12C4,11.38 4.08,10.78 4.21,10.21L9,15V16A2,2 0 0,0 11,18M12,2A10,10 0 0,0 2,12A10,10 0 0,0 12,22A10,10 0 0,0 22,12A10,10 0 0,0 12,2Z" style="fill: currentcolor;"/></svg></g></g></g></g></g></g></g></g></g></g></g><clipPath id="clip-of-31"><path d="M0,0 H900 V600 H0 V0 Z" fill="none" stroke="none"/></clipPath></g><view id="Connections" viewBox="-10 46 920 598"/><view id="Connections_new" viewBox="48 70 196 60"/><view id="ConnectionsOptions" viewBox="792 70 60 60"/><view id="ConnectionServer_add" viewBox="800 151 52 52"/><view id="Connection_openConnection" viewBox="40 192 554 76"/><view id="Connection_disconnect" viewBox="794 196 62 62"/><view id="Connection_workspaceList" viewBox="40 248 820 66"/><view id="NavBar" viewBox="-10 -10 920 76"/><view id="NavBar_logout" viewBox="678 -10 128 76"/><view id="App_colorScheme" viewBox="794 -2 60 60"/><view id="App_LanguageSelector" viewBox="850 -2 60 60"/><style xmlns="http://www.w3.org/1999/xhtml" type="text/css">:root #id-becdb6b7-73d1-4592-a101-226ca2fd3ac2 { 
  --dark-theme-hide: visible;
  --light-theme-hide: hidden;
  --color-0: rgb(244, 245, 247); 
  --color-1: rgb(63, 131, 248); 
  --color-8: rgb(63, 131, 248); 
  --fontFamily-2: -apple-system, BlinkMacSystemFont, "Segoe UI", Roboto, Oxygen, Ubuntu, Cantarell, "Fira Sans", "Droid Sans", "Helvetica Neue", sans-serif; 
  --color-3: rgb(255, 255, 255); 
  --color-5: rgb(255, 255, 255); 
  --color-4: rgb(75, 85, 99); 
  --color-6: rgb(22, 30, 46); 
  --color-7: rgb(0, 161, 255); 
  --color-9: rgb(0, 161, 255); 
}
@media (prefers-color-scheme: dark) { 
 :root #id-becdb6b7-73d1-4592-a101-226ca2fd3ac2  { 
  --dark-theme-hide: hidden;
  --light-theme-hide: visible;
  --color-0: rgb(36, 36, 36); 
  --color-1: rgb(48, 121, 197); 
  --color-8: rgb(91, 164, 255); 
  --color-5: rgb(44, 44, 44); 
  --color-4: rgb(229, 231, 235); 
  --color-6: rgb(244, 245, 247); 
  --color-7: rgb(0, 162, 255); 
  }
} 
</style></svg>