<svg xmlns="http://www.w3.org/2000/svg" width="900" height="900" viewBox="0 0 900 900"><defs><style type="text/css"/></defs><g data-selector="body.text-0 bg-color-2" style="clip-path: inset(0px) view-box;" id="id-e7a27a38"><rect x="0" y="0" width="900" height="900" rx="0" ry="0" fill="rgb(244, 245, 247)"/><g data-selector="main."><g data-selector="div.App gap-0 f-1 min-h-0 FlexCol flex-col"><g data-selector="div.Project f-1 flex-col h-full w-full min-h-0 min-w-0 relative bg-color-4"><rect x="0" y="0" width="900" height="900" rx="0" ry="0" fill="rgb(210, 214, 220)"/><g data-selector="div.f-1 w-full h-full flex-col"><g data-selector="div.Dashboard gap-0 f-1 min-w-0 min-h-0 w-full  FlexCol flex-col"><g data-selector="div.TopHeader f-0 flex-row  min-h-0 min-w-0 o-hidden" style="clip-path: inset(0px 0px 842px) view-box;"><g data-selector="div.TopControls w-full bg-color-0 jc-center shadow FlexRow flex-row gap-1 ai-center"><rect x="0" y="0" width="900" height="58" rx="0" ry="0" fill="rgb(255, 255, 255)" style="filter: drop-shadow(rgba(0, 0, 0, 0.1) 0px 1px 1.5px) drop-shadow(rgba(0, 0, 0, 0.06) 0px 1px 1px);"/><g data-selector="div.max-w-fit f-1 ai-center  p-p5  FlexRow flex-row gap-1"><g data-selector="button. f-0 flex-row gap-p5 ai-center rounded btn btn-default btn-size-default btn-color-default ws-nowrap w-fit" data-command="dashboard.menu"><rect x="8.5" y="8.5" width="41" height="41" rx="4" ry="4" fill="rgb(240, 254, 255)" stroke-width="1px" stroke="rgb(58, 216, 227)"/><svg xmlns:dc="http://purl.org/dc/elements/1.1/" xmlns:cc="http://creativecommons.org/ns#" xmlns:rdf="http://www.w3.org/1999/02/22-rdf-syntax-ns#" xmlns:svg="http://www.w3.org/2000/svg" xmlns="http://www.w3.org/2000/svg" id="svg8" version="1.1" viewBox="0 0 9.5249998 9.5250003" height="36" width="36" x="11" y="11">
  <style>
    @media (prefers-color-scheme: dark) {
      <!-- #path3881-head {
        fill: green !important;
      }
  
      #path3887-eye {
        fill: #ff0000 !important;
      }       -->
    }
  </style>
  <g transform="translate(0,-287.47498)" id="layer1">
    <path style="fill:#0087ab;stroke-width:0.10478402" id="path3881-head" d="m 6.5209966,295.25712 c 0.2175402,-0.46431 1.6420322,-2.2511 1.3456182,-4.2915 -0.085217,-0.58659 -2.1619067,-1.59449 -2.2268491,-1.64218 -0.01022,-0.008 -0.1325362,-0.0996 -0.1694292,-0.13795 -0.197562,-0.2055 -0.499117,-0.62298 -0.8304557,-0.82041 -0.1525898,-0.0909 -0.7394033,-0.0609 -1.0268278,0.11432 l -1.879837,1.08657 c -0.4703536,0.4665 0.1139504,1.07392 0.2268207,1.30469 0.1128704,0.23077 0.803662,0.95627 0.803662,0.95627 v 0 c -0.1433145,0.0653 -0.3911698,-0.0575 -0.6915708,-0.27496 0,0 -0.8432496,-0.80366 -0.8823501,-0.87005 -0.039101,-0.0664 -0.1564018,-0.20484 -0.23460266,-0.47082 0,0 -0.0384912,-0.0917 -0.0544209,-0.51555 -0.0159297,-0.42388 0.69813926,-0.64516 0.80535536,-0.72619 0.107216,-0.081 1.4441719,-0.86378 1.8275182,-1.11029 0.3833462,-0.24651 0.8880668,-0.20266 1.1387453,-0.0444 l 2.8538119,1.69411 c 0.2716598,0.15804 1.3866918,1.14066 1.421482,1.86382 0.081505,1.69417 -1.2190224,2.93746 -1.8472163,4.27428 -0.6281939,1.33683 1.1838142,0.58699 1.2737198,0.43944 l 0.259057,0.27303 c -0.8972105,0.56378 -1.9304095,0.39775 -2.0611443,0.33679 -0.1307347,-0.0609 -0.2768897,-0.88205 -0.051087,-1.439 z"/>
    <path style="fill: #bc0000;fill-opacity:1;fill-rule:evenodd;stroke-width:0.07858816;stroke-miterlimit:4;stroke-dasharray:none;stroke-opacity:0.60294118;" id="path3887-eye" d="m 6.2908378,290.63597 c 0.030281,-0.0145 0.067771,-0.0145 0.09805,0 0.9624569,0.37529 0.8624334,0.39198 0.8624334,1.21858 0,0.0285 -0.018608,0.0549 -0.049026,0.0694 -0.9558494,-0.4203 -0.9974496,-0.45611 -0.9114585,-1.28795 z"/>
  </g>
</svg></g><g data-selector="div.h-full flex-col gap-p25 ai-start "><g data-selector="a.ConnectionConfigBtn f-0 flex-row gap-p5 ai-center button-css btn btn-faded btn-size-default btn-color-default ws-nowrap w-fit" data-command="dashboard.goToConnConfig" style="clip-path: inset(8px 793px 850px 65px round 6px) view-box;"><rect x="66" y="9" width="40" height="40" rx="6" ry="6" fill="rgba(125, 125, 125, 0.22)" stroke-width="1px" stroke="rgba(0, 0, 0, 0)"/><g style="transform: translate(73.9px, 16.9px); color: var(--rgb758599rgb229231235);"><svg viewBox="0 0 24 24" role="presentation" class=" f-0 " style="width: 22px; height: 22px; transform: scale(1.1);" width="22" height="22"><path d="M4 7C4 4.79 7.58 3 12 3S20 4.79 20 7 16.42 11 12 11 4 9.21 4 7M12.08 18L12 18C7.58 18 4 16.21 4 14V17C4 19.21 7.58 21 12 21C12.1 21 12.2 21 12.29 21C12.11 20.36 12 19.69 12 19C12 18.66 12.03 18.33 12.08 18M20 12.08C20 12.05 20 12.03 20 12V9C20 11.21 16.42 13 12 13S4 11.21 4 9V12C4 14.21 7.58 16 12 16C12.23 16 12.46 16 12.69 16C13.82 13.63 16.22 12 19 12C19.34 12 19.67 12.03 20 12.08M23.8 20.4C23.9 20.4 23.9 20.5 23.8 20.6L22.8 22.3C22.7 22.4 22.6 22.4 22.5 22.4L21.3 22C21 22.2 20.8 22.3 20.5 22.5L20.3 23.8C20.3 23.9 20.2 24 20.1 24H18.1C18 24 17.9 23.9 17.8 23.8L17.6 22.5C17.3 22.4 17 22.2 16.8 22L15.6 22.5C15.5 22.5 15.4 22.5 15.3 22.4L14.3 20.7C14.2 20.6 14.3 20.5 14.4 20.4L15.5 19.6V18.6L14.4 17.8C14.3 17.7 14.3 17.6 14.3 17.5L15.3 15.8C15.4 15.7 15.5 15.7 15.6 15.7L16.8 16.2C17.1 16 17.3 15.9 17.6 15.7L17.8 14.4C17.8 14.3 17.9 14.2 18.1 14.2H20.1C20.2 14.2 20.3 14.3 20.3 14.4L20.5 15.7C20.8 15.8 21.1 16 21.4 16.2L22.6 15.7C22.7 15.7 22.9 15.7 22.9 15.8L23.9 17.5C24 17.6 23.9 17.7 23.8 17.8L22.7 18.6V19.6L23.8 20.4M20.5 19C20.5 18.2 19.8 17.5 19 17.5S17.5 18.2 17.5 19 18.2 20.5 19 20.5 20.5 19.8 20.5 19Z" style="fill: currentcolor;"/></svg></g><g data-selector="svg.[object SVGAnimatedString]" role="presentation" style="clip-path: inset(16.9px 801.9px 858.9px 73.9px) view-box;"><rect x="73.9" y="16.9" width="24.2" height="24.2" fill="transparent"/></g></g></g><g data-selector="button. Select w-fit f-0 select-button flex-row gap-p5 ai-center rounded btn btn-faded btn-size-default btn-color-default ws-nowrap" data-command="ConnectionSelector"><rect x="122" y="9" width="104.203125" height="40" rx="8" ry="8" fill="rgba(125, 125, 125, 0.22)" stroke-width="1px" stroke="rgba(0, 0, 0, 0)"/><g style="transform: translate(133.9px, 16.9px); color: var(--rgb758599rgb229231235);"><svg viewBox="0 0 24 24" role="presentation" class=" f-0 " style="width: 22px; height: 22px; transform: scale(1.1);" width="22" height="22"><path d="M12,3C7.58,3 4,4.79 4,7C4,9.21 7.58,11 12,11C16.42,11 20,9.21 20,7C20,4.79 16.42,3 12,3M4,9V12C4,14.21 7.58,16 12,16C16.42,16 20,14.21 20,12V9C20,11.21 16.42,13 12,13C7.58,13 4,11.21 4,9M4,14V17C4,19.21 7.58,21 12,21C16.42,21 20,19.21 20,17V14C20,16.21 16.42,18 12,18C7.58,18 4,16.21 4,14Z" style="fill: currentcolor;"/></svg></g><g data-selector="svg.[object SVGAnimatedString]" role="presentation" style="clip-path: inset(16.9px 741.9px 858.9px 133.9px) view-box;"><rect x="133.9" y="16.9" width="24.2" height="24.2" fill="transparent"/></g><g data-selector="div. text-ellipsis text-color-0" style="clip-path: inset(20px 686.797px 862px 165px) view-box;"><text x="165" y="35" fill="var(--rgb758599rgb229231235)" font-family="var(--fontFamily-3551640753)" font-size="16px" font-weight="500" font-style="normal" letter-spacing="normal" text-decoration="none" text-anchor="start" style="line-height: 18px; white-space: nowrap; text-transform: none;">crypto</text></g></g></g><g data-selector="div. WorkspaceMenu as-end jc-center text-white ai-center f-1 min-w-0 o-auto h-fit FlexRow flex-row gap-1" style="clip-path: inset(5px 184px 842px 250.203px) view-box;"><g data-selector="ul.no-decor o-auto f-1 min-w-0 max-w-fit flex-row no-scroll-bar ai-end" data-command="WorkspaceMenu.list" style="clip-path: inset(5px 365.078px 842px 382.266px) view-box;"><g data-selector="li.workspace-list-item text-1 relative flex-row active"><g data-selector="button. f-0 flex-row gap-p5 ai-center rounded btn btn-default btn-size-default btn-color-default ws-nowrap w-fit"><text x="399.27" y="36" fill="var(--rgb758599rgb229231235)" font-family="var(--fontFamily-3551640753)" font-size="16px" font-weight="600" font-style="normal" letter-spacing="normal" text-decoration="none" text-anchor="start" style="line-height: 16px; white-space: nowrap; text-transform: none;">Crypto markets</text><line x1="382.265625" y1="5.5" x2="534.921875" y2="5.5" stroke="rgba(0, 0, 0, 0)" stroke-width="1"/><line x1="534.421875" y1="5" x2="534.421875" y2="58" stroke="rgba(0, 0, 0, 0)" stroke-width="1"/><line x1="382.265625" y1="56" x2="534.921875" y2="56" stroke="rgb(0, 161, 255)" stroke-width="4"/><line x1="382.765625" y1="5" x2="382.765625" y2="58" stroke="rgba(0, 0, 0, 0)" stroke-width="1"/></g></g></g><g data-selector="div. PopupMenu_triggerWrapper h-fit w-fit"><g data-selector="button.text-0 f-0 flex-row gap-p5 ai-center btn btn-default btn-size-default btn-color-default ws-nowrap w-fit" data-command="WorkspaceMenuDropDown"><g style="transform: translate(547.82px, 19.4px); color: var(--rgb758599rgb229231235);"><svg viewBox="0 0 24 24" role="presentation" class=" f-0 " style="width: 22px; height: 22px; transform: scale(1.1);" width="22" height="22"><path d="M7.41,8.58L12,13.17L16.59,8.58L18,10L12,16L6,10L7.41,8.58Z" style="fill: currentcolor;"/></svg></g><g data-selector="svg.[object SVGAnimatedString]" role="presentation" style="clip-path: inset(19.4px 327.978px 856.4px 547.822px) view-box;"><rect x="547.82" y="19.4" width="24.2" height="24.2" fill="transparent"/></g><rect x="535.921875" y="7.5" width="48" height="48" rx="6" ry="6" fill="none" stroke-width="1px" stroke="rgba(0, 0, 0, 0)"/></g></g></g><g data-selector="div.ml-auto min-w-0 f-0 ai-start gap-1 text-1p5 w-fit ai-center noselect o-auto no-scroll-bar jc-end  p-p5  FlexRow flex-row" style="clip-path: inset(1px 0px 843px 732px) view-box;"><g data-selector="button. f-0 flex-row gap-p5 ai-center btn btn-faded btn-size-default btn-color-action ws-nowrap w-fit" data-command="AskLLM"><rect x="740" y="9" width="40" height="40" rx="6" ry="6" fill="rgb(225, 239, 254)" stroke-width="1px" stroke="rgba(0, 0, 0, 0)"/><g style="transform: translate(747.9px, 16.9px); color: var(--rgb63131248rgb255255255);"><svg viewBox="0 0 24 24" role="presentation" class=" f-0 " style="width: 22px; height: 22px; transform: scale(1.1);" width="22" height="22"><path d="M19,2H5A2,2 0 0,0 3,4V18A2,2 0 0,0 5,20H9L12,23L15,20H19A2,2 0 0,0 21,18V4A2,2 0 0,0 19,2M13.88,12.88L12,17L10.12,12.88L6,11L10.12,9.12L12,5L13.88,9.12L18,11" style="fill: currentcolor;"/></svg></g><g data-selector="svg.[object SVGAnimatedString]" role="presentation" style="clip-path: inset(16.9px 127.9px 858.9px 747.9px) view-box;"><rect x="747.9" y="16.9" width="24.2" height="24.2" fill="transparent"/></g></g><g data-selector="div. PopupMenu_triggerWrapper h-fit w-fit"><g data-selector="button. f-0 flex-row gap-p5 ai-center btn btn-faded btn-size-default btn-color-default ws-nowrap w-fit" data-command="Feedback"><rect x="796" y="9" width="40" height="40" rx="6" ry="6" fill="rgba(125, 125, 125, 0.22)" stroke-width="1px" stroke="rgba(0, 0, 0, 0)"/><g style="transform: translate(803.9px, 16.9px); color: var(--rgb758599rgb229231235);"><svg viewBox="0 0 24 24" role="presentation" class=" f-0 " style="width: 22px; height: 22px; transform: scale(1.1);" width="22" height="22"><path d="M20 2H4C2.9 2 2 2.9 2 4V22L6 18H20C21.1 18 22 17.1 22 16V4C22 2.9 21.1 2 20 2M20 16H5.2L4 17.2V4H20V16M18 14V6H13V14L15.5 12.5L18 14" style="fill: currentcolor;"/></svg></g><g data-selector="svg.[object SVGAnimatedString]" role="presentation" style="clip-path: inset(16.9px 71.9px 858.9px 803.9px) view-box;"><rect x="803.9" y="16.9" width="24.2" height="24.2" fill="transparent"/></g></g></g><g data-selector="a. f-0 flex-row gap-p5 ai-center button-css btn btn-faded btn-size-default btn-color-default ws-nowrap w-fit active" data-command="dashboard.goToConnections" style="clip-path: inset(8px 7px 850px 851px round 6px) view-box;"><rect x="852" y="9" width="40" height="40" rx="6" ry="6" fill="rgba(125, 125, 125, 0.22)" stroke-width="1px" stroke="rgba(0, 0, 0, 0)"/><g style="transform: translate(859.9px, 16.9px); color: var(--rgb758599rgb229231235);"><svg viewBox="0 0 24 24" role="presentation" class=" f-0 " style="width: 22px; height: 22px; transform: scale(1.1);" width="22" height="22"><path d="M20,11V13H8L13.5,18.5L12.08,19.92L4.16,12L12.08,4.08L13.5,5.5L8,11H20Z" style="fill: currentcolor;"/></svg></g><g data-selector="svg.[object SVGAnimatedString]" role="presentation" style="clip-path: inset(16.9px 15.9px 858.9px 859.9px) view-box;"><rect x="859.9" y="16.9" width="24.2" height="24.2" fill="transparent"/></g></g></g></g></g><g data-selector="div.Dashboard_Wrapper min-h-0 f-1 flex-row relative"><g data-selector="div.Dashboard_MainContentWrapper f-1 gap-0 relative ai-none jc-none FlexRow flex-row"><g data-selector="div.ViewRenderer min-h-0 f-1 flex-row relative"><g data-selector="div.min-h-0 relative silver-grid-component"><g data-selector="div. silver-grid-box flex-tab min-w-0 min-h-0"><g data-selector="div.SilverGridChild silver-grid-box silver-grid-item bg-color-1 f-1 flex-col min-w-0 min-h-0   " style="clip-path: inset(60px 1px 0px) view-box;"><rect x="1" y="60" width="898" height="840" rx="0" ry="0" fill="rgb(249, 250, 251)"/><g data-selector="div.silver-grid-item-header flex-row  bg-color-0 bb b-color-0 pointer f-0 noselect relative ai-center shadow"><path d="M1,60 H899 V103 H1 V60 Z" fill="var(--rgb255255255rgb444444)" style="filter: drop-shadow(rgba(0, 0, 0, 0.1) 0px 1px 1.5px) drop-shadow(rgba(0, 0, 0, 0.06) 0px 1px 1px);"/><g data-selector="div.silver-grid-item-header--icon flex-row f-0 o-hidden f-1 ai-center" style="clip-path: inset(61px 857px 799px 1px) view-box;"><g data-selector="button.f-0 flex-row gap-p5 ai-center btn btn-default btn-size-default btn-color-default ws-nowrap w-fit" data-command="dashboard.window.menu"><g style="transform: translate(8.9px, 68.9px); color: var(--rgb758599rgb229231235);"><svg viewBox="0 0 24 24" role="presentation" class=" f-0 " style="width: 22px; height: 22px; transform: scale(1.1);" width="22" height="22"><path d="M12,16A2,2 0 0,1 14,18A2,2 0 0,1 12,20A2,2 0 0,1 10,18A2,2 0 0,1 12,16M12,10A2,2 0 0,1 14,12A2,2 0 0,1 12,14A2,2 0 0,1 10,12A2,2 0 0,1 12,10M12,4A2,2 0 0,1 14,6A2,2 0 0,1 12,8A2,2 0 0,1 10,6A2,2 0 0,1 12,4Z" style="fill: currentcolor;"/></svg></g><g data-selector="svg.[object SVGAnimatedString]" role="presentation" style="clip-path: inset(68.9px 866.9px 806.9px 8.9px) view-box;"><rect x="8.9" y="68.9" width="24.2" height="24.2" fill="transparent"/></g><rect x="1" y="61" width="40" height="40" rx="6" ry="6" fill="none" stroke-width="1px" stroke="rgba(0, 0, 0, 0)"/></g></g><g data-selector="div.SilverGridChildHeader_tabs flex-row f-1 min-w-0 ws-nowrap ai-end text-ellipsiss ml-p25 o-auto  no-scroll-bar FlexRow gap-1" style="clip-path: inset(60px 121px 798px 47px) view-box;"><g data-selector="div.gap-p25 pl-p5 pr-p25 bg-color-0 FlexRow flex-row ai-center"><rect x="47" y="62" width="187.1875" height="40" rx="0" ry="0" fill="rgb(255, 255, 255)"/><g data-selector="div.silver-grid-item-header--title py-p5 f-1 min-w-0 max-w-fit text-ellipsis noselect " style="clip-path: inset(61px 699.812px 797px 55px) view-box;"><text x="55" y="88" fill="var(--rgb223046rgb244245247)" font-family="var(--fontFamily-3551640753)" font-size="16px" font-weight="400" font-style="normal" letter-spacing="normal" text-decoration="none" text-anchor="start" style="line-height: 26px; white-space: nowrap; text-transform: none;">futures (timestamp)</text></g></g><g data-selector="div.gap-p25 pl-p5 pr-p25 bg-color-3 FlexRow flex-row ai-center"><rect x="235.1875" y="65" width="138.015625" height="37" rx="0" ry="0" fill="rgb(229, 231, 235)"/><g data-selector="div.f-1 min-w-0 ws-nowrap text-ellipsis py-p5 " style="clip-path: inset(65px 560.797px 798px 243.188px) view-box;"><text x="255.19" y="89" fill="var(--rgb223046rgb244245247)" font-family="var(--fontFamily-3551640753)" font-size="16px" font-weight="400" font-style="normal" letter-spacing="normal" text-decoration="none" text-anchor="start" style="line-height: 21px; white-space: nowrap; text-transform: none;">futures 840</text></g><g data-selector="button.SilverGridChild_CloseButton show-on-parent-hover f-0 flex-row gap-p5 ai-center btn btn-default btn-size-micro btn-color-default ws-nowrap w-fit"><g style="transform: translate(347.4px, 74.7px); color: var(--rgb758599rgb229231235);"><svg viewBox="0 0 24 24" role="presentation" class=" f-0 " style="width: 16px; height: 16px; transform: scale(1.1);" width="16" height="16"><path d="M19,6.41L17.59,5L12,10.59L6.41,5L5,6.41L10.59,12L5,17.59L6.41,19L12,13.41L17.59,19L19,17.59L13.41,12L19,6.41Z" style="fill: currentcolor;"/></svg></g><g data-selector="svg.[object SVGAnimatedString]" role="presentation" style="clip-path: inset(74.7px 534.997px 807.7px 347.403px) view-box;"><rect x="347.4" y="74.7" width="17.6" height="17.6" fill="transparent"/></g><rect x="343.203125" y="70.5" width="26" height="26" rx="6" ry="6" fill="none" stroke-width="1px" stroke="rgba(0, 0, 0, 0)"/></g></g><g data-selector="div.gap-p25 pl-p5 pr-p25 bg-color-3 FlexRow flex-row ai-center"><rect x="374.203125" y="65" width="176.609375" height="37" rx="0" ry="0" fill="rgb(229, 231, 235)"/><g data-selector="div.f-1 min-w-0 ws-nowrap text-ellipsis py-p5 " style="clip-path: inset(65px 383.188px 798px 382.203px) view-box;"><text x="394.2" y="89" fill="var(--rgb223046rgb244245247)" font-family="var(--fontFamily-3551640753)" font-size="16px" font-weight="400" font-style="normal" letter-spacing="normal" text-decoration="none" text-anchor="start" style="line-height: 21px; white-space: nowrap; text-transform: none;">market_caps 251</text></g></g><g data-selector="div.gap-p25 pl-p5 pr-p25 bg-color-3 FlexRow flex-row ai-center"><rect x="551.8125" y="65" width="112.765625" height="37" rx="0" ry="0" fill="rgb(229, 231, 235)"/><g data-selector="div.f-1 min-w-0 ws-nowrap text-ellipsis py-p5 " style="clip-path: inset(65px 269.422px 798px 559.812px) view-box;"><text x="571.81" y="89" fill="var(--rgb223046rgb244245247)" font-family="var(--fontFamily-3551640753)" font-size="16px" font-weight="400" font-style="normal" letter-spacing="normal" text-decoration="none" text-anchor="start" style="line-height: 21px; white-space: nowrap; text-transform: none;">markets</text></g></g></g><g data-selector="button.f-0  flex-row gap-p5 ai-center btn btn-default btn-size-default btn-color-default ws-nowrap w-fit" data-command="dashboard.window.collapse"><g style="transform: translate(786.9px, 68.9px); color: var(--rgb758599rgb229231235);"><svg viewBox="0 0 24 24" role="presentation" class=" f-0 " style="width: 22px; height: 22px; transform: scale(1.1);" width="22" height="22"><path d="M16.59,5.41L15.17,4L12,7.17L8.83,4L7.41,5.41L12,10M7.41,18.59L8.83,20L12,16.83L15.17,20L16.58,18.59L12,14L7.41,18.59Z" style="fill: currentcolor;"/></svg></g><g data-selector="svg.[object SVGAnimatedString]" role="presentation" style="clip-path: inset(68.9px 88.9px 806.9px 786.9px) view-box;"><rect x="786.9" y="68.9" width="24.2" height="24.2" fill="transparent"/></g><rect x="779" y="61" width="40" height="40" rx="6" ry="6" fill="none" stroke-width="1px" stroke="rgba(0, 0, 0, 0)"/></g><g data-selector="button.f-0  flex-row gap-p5 ai-center btn btn-default btn-size-default btn-color-default ws-nowrap w-fit" data-command="dashboard.window.fullscreen"><g style="transform: translate(826.9px, 68.9px); color: var(--rgb758599rgb229231235);"><svg viewBox="0 0 24 24" role="presentation" class=" f-0 " style="width: 22px; height: 22px; transform: scale(1.1);" width="22" height="22"><path d="M5,5H10V7H7V10H5V5M14,5H19V10H17V7H14V5M17,14H19V19H14V17H17V14M10,17V19H5V14H7V17H10Z" style="fill: currentcolor;"/></svg></g><g data-selector="svg.[object SVGAnimatedString]" role="presentation" style="clip-path: inset(68.9px 48.9px 806.9px 826.9px) view-box;"><rect x="826.9" y="68.9" width="24.2" height="24.2" fill="transparent"/></g><rect x="819" y="61" width="40" height="40" rx="6" ry="6" fill="none" stroke-width="1px" stroke="rgba(0, 0, 0, 0)"/></g><g data-selector="button.f-0  flex-row gap-p5 ai-center btn btn-default btn-size-default btn-color-default ws-nowrap w-fit" data-command="dashboard.window.close"><g style="transform: translate(866.9px, 68.9px); color: var(--rgb758599rgb229231235);"><svg viewBox="0 0 24 24" role="presentation" class=" f-0 " style="width: 22px; height: 22px; transform: scale(1.1);" width="22" height="22"><path d="M19,6.41L17.59,5L12,10.59L6.41,5L5,6.41L10.59,12L5,17.59L6.41,19L12,13.41L17.59,19L19,17.59L13.41,12L19,6.41Z" style="fill: currentcolor;"/></svg></g><g data-selector="svg.[object SVGAnimatedString]" role="presentation" style="clip-path: inset(68.9px 8.90002px 806.9px 866.9px) view-box;"><rect x="866.9" y="68.9" width="24.2" height="24.2" fill="transparent"/></g><rect x="859" y="61" width="40" height="40" rx="6" ry="6" fill="none" stroke-width="1px" stroke="rgba(0, 0, 0, 0)"/></g><line x1="1" y1="102.5" x2="899" y2="102.5" stroke="var(--rgb229231235rgb758599)" stroke-width="1"/></g><g data-selector="div.Window flex-col f-1 min-h-0 min-w-0 relative"><g data-selector="div.W_TimeChart relative f-1 flex-col min-h-0 min-w-0 noselect " data-command="W_TimeChart"><rect x="1" y="104" width="898" height="796" rx="0" ry="0" fill="rgb(255, 255, 255)"/><g data-selector="div. TimeChart flex-col f-1 h-fit min-h-0 min-w-0 relative noselect" style="clip-path: inset(104px 1px 0px) view-box;"><g data-selector="canvas.f-1 noselect" transform="translate(1, 104)" style="clip-path: inset(0px) view-box;"><g transform="translate(0, 0) scale(1)"><path d="M 67.82,483.42 L 73.27,473.05 L 78.72,463.96 L 84.18,463.48 L 89.63,394.11 L 95.08,329.84 L 100.54,323.46 L 105.99,331.28 L 111.44,350.89 L 116.9,443.13 L 122.35,460.82 L 127.8,460.74 L 133.26,467.37 L 138.71,467.47 L 144.16,481.18 L 149.62,479.71 L 155.07,481.98 L 160.52,476.39 L 165.98,466.8 L 171.43,421.22 L 176.89,429.11 L 182.34,439.52 L 187.79,390.73 L 193.25,323.3 L 198.7,321.12 L 204.15,321.44 L 209.61,320.11 L 215.06,332.67 L 220.51,429.88 L 225.97,460.15 L 231.42,461.79 L 236.87,468.52 L 242.33,474.67 L 247.78,431.75 L 253.23,370.98 L 258.69,366.2 L 264.14,366.2 L 269.59,370.29 L 275.05,370.53 L 280.5,356.35 L 285.96,344.99 L 291.41,344.24 L 296.86,341.38 L 302.32,347.16 L 307.77,339.41 L 313.22,338.05 L 318.68,343.12 L 324.13,357.17 L 329.58,355.33 L 335.04,340.2 L 340.49,340.68 L 345.94,340.68 L 351.4,340.68 L 356.85,337.8 L 362.3,339.92 L 367.76,305.28 L 373.21,281.68 L 378.66,281.99 L 384.12,283.27 L 389.57,291.7 L 395.03,298.13 L 400.48,297.01 L 405.93,302.95 L 411.39,340.3 L 416.84,365.59 L 422.29,230.32 L 427.75,225.54 L 433.2,225.06 L 438.65,205.29 L 444.11,172.43 L 449.56,116.81 L 455.01,93.42 L 460.47,79.14 L 465.92,60 L 471.37,63.33 L 476.83,73.52 L 482.28,110.38 L 487.73,178.71 L 493.19,228.73 L 498.64,239.88 L 504.1,248.66 L 509.55,247.12 L 515,246.49 L 520.46,250.27 L 525.91,299" fill="none" stroke="#940000" stroke-width="2" opacity="1" stroke-linecap="round"/><path d="M 67.82,744.62 L 73.27,741.81 L 78.72,743.37 L 84.18,746 L 89.63,682.33 L 95.08,603.35 L 100.54,592.18 L 105.99,592.66 L 111.44,640.95 L 116.9,680.46 L 122.35,687.56 L 127.8,699.36 L 133.26,713.37 L 138.71,726.81 L 144.16,734.51 L 149.62,736.95 L 155.07,735.9 L 160.52,735.19 L 165.98,735.52 L 171.43,735.37 L 176.89,736.03 L 182.34,735.71 L 187.79,680.85 L 193.25,621.85 L 198.7,621.53 L 204.15,620.09 L 209.61,620.09 L 215.06,637.44 L 220.51,707.66 L 225.97,721.27 L 231.42,725.49 L 236.87,730.38 L 242.33,733.8 L 247.78,709.46 L 253.23,653.9 L 258.69,653.26 L 264.14,653.58 L 269.59,653.26 L 275.05,653.74 L 280.5,653.58 L 285.96,625.03 L 291.41,622.45 L 296.86,618.92 L 302.32,615.62 L 307.77,610.95 L 313.22,611.32 L 318.68,613.82 L 324.13,618.84 L 329.58,621.1 L 335.04,622.31 L 340.49,623.07 L 345.94,623.3 L 351.4,623.18 L 356.85,623.06 L 362.3,622.46 L 367.76,590.51 L 373.21,568.9 L 378.66,568.9 L 384.12,569.22 L 389.57,568.9 L 395.03,568.74 L 400.48,568.97 L 405.93,569.07 L 411.39,588.71 L 416.84,602.22 L 422.29,522.6 L 427.75,512.1 L 433.2,510.27 L 438.65,488.63 L 444.11,447.37 L 449.56,411.97 L 455.01,384.06 L 460.47,355.67 L 465.92,327.29 L 471.37,330.9 L 476.83,341.09 L 482.28,344.21 L 487.73,406.91 L 493.19,445.7 L 498.64,461.83 L 504.1,483.38 L 509.55,491.97 L 515,501.28 L 520.46,509.83 L 525.91,554.58" fill="none" stroke="#4b4b4b" stroke-width="2" opacity="1" stroke-linecap="round"/><text x="6" y="730" text-anchor="start" font-family="Arial" font-size="14px" font-weight="normal" fill="var(--blackrgb187187187)" opacity="1">90,615</text><text x="6" y="610" text-anchor="start" font-family="Arial" font-size="14px" font-weight="normal" fill="var(--blackrgb187187187)" opacity="1">90,630</text><text x="6" y="491" text-anchor="start" font-family="Arial" font-size="14px" font-weight="normal" fill="var(--blackrgb187187187)" opacity="1">90,645</text><text x="6" y="371" text-anchor="start" font-family="Arial" font-size="14px" font-weight="normal" fill="var(--blackrgb187187187)" opacity="1">90,660</text><text x="6" y="251" text-anchor="start" font-family="Arial" font-size="14px" font-weight="normal" fill="var(--blackrgb187187187)" opacity="1">90,675</text><text x="6" y="132" text-anchor="start" font-family="Arial" font-size="14px" font-weight="normal" fill="var(--blackrgb187187187)" opacity="1">90,690</text><text x="70" y="776" text-anchor="start" font-family="Arial" font-size="12px" font-weight="normal" fill="var(--blackrgb187187187)" opacity="1">29 Nov</text><text x="70" y="791" text-anchor="start" font-family="Arial" font-size="14px" font-weight="600" fill="var(--blackrgb187187187)" opacity="1">2025</text><text x="155.07132270636782" y="786" text-anchor="middle" font-family="Arial" font-size="12px" font-weight="normal" fill="black" opacity="1">02:26 PM</text><text x="285.9553147158571" y="786" text-anchor="middle" font-family="Arial" font-size="12px" font-weight="normal" fill="var(--blackrgb187187187)" opacity="1">02:28 PM</text><text x="416.83930672534643" y="786" text-anchor="middle" font-family="Arial" font-size="12px" font-weight="normal" fill="var(--blackrgb187187187)" opacity="1">02:30 PM</text><text x="527" y="776" text-anchor="end" font-family="Arial" font-size="12px" font-weight="normal" fill="black" opacity="1">29 Nov</text><text x="527" y="791" text-anchor="end" font-family="Arial" font-size="14px" font-weight="600" fill="black" opacity="1">2025</text></g></g></g><g data-selector="div.W_TimeChart_TopBar gap-0 relative f-1 m-auto  FlexRow flex-row ai-center"><g data-selector="div. PopupMenu_triggerWrapper h-fit w-fit" data-command="ChartLayerManager"><g data-selector="button. f-0 flex-row gap-p5 ai-center btn btn-default btn-size-default btn-color-action ws-nowrap w-fit"><g style="transform: translate(8.9px, 113.49px); color: var(--rgb63131248rgb91164255);"><svg viewBox="0 0 24 24" role="presentation" class=" f-0 " style="width: 22px; height: 22px; transform: scale(1.1);" width="22" height="22"><path d="M12,16L19.36,10.27L21,9L12,2L3,9L4.63,10.27M12,18.54L4.62,12.81L3,14.07L12,21.07L21,14.07L19.37,12.8L12,18.54Z" style="fill: currentcolor;"/></svg></g><g data-selector="svg.[object SVGAnimatedString]" role="presentation" style="clip-path: inset(113.494px 866.9px 762.306px 8.9px) view-box;"><rect x="8.9" y="113.49" width="24.2" height="24.2" fill="transparent"/></g><rect x="1" y="105.59375" width="40" height="40" rx="6" ry="6" fill="none" stroke-width="1px" stroke="rgba(0, 0, 0, 0)"/></g></g><g data-selector="div.W_TimeChartLayerLegend flex-row gap-1 min-w-0 o-auto no-scroll-bar ScrollFade" style="clip-path: inset(104px 246.641px 752.812px 81px) view-box;"><g data-selector="div.W_TimeChartLayerLegend_Item gap-0 FlexRow flex-row ai-center"><g data-selector="div. PopupMenu_triggerWrapper h-fit w-fit" data-command="TimeChartLayerOptions.yAxis"><g data-selector="div. FlexRow flex-row gap-1 ai-center"><g data-selector="button. f-0 flex-row gap-p5 ai-center rounded btn btn-text btn-size-default btn-color-action ws-nowrap w-fit" data-command="TimeChartLayerOptions.aggFunc"><text x="172.59" y="131.59" fill="var(--rgb63131248rgb195221253)" font-family="var(--fontFamily-3551640753)" font-size="16px" font-weight="500" font-style="normal" letter-spacing="normal" text-decoration="none" text-anchor="start" style="line-height: 16px; white-space: nowrap; text-transform: none;">timestamp</text><g data-selector="div.gap-0 FlexRow flex-row ai-center"><g data-selector="span." style="opacity: 0.7;"><text x="82" y="131.59" fill="var(--rgb63131248rgb195221253)" font-family="var(--fontFamily-3551640753)" font-size="16px" font-weight="500" font-style="normal" letter-spacing="normal" text-decoration="none" text-anchor="start" style="line-height: 16px; white-space: nowrap; text-transform: none;">Avg(</text></g><g data-selector="strong."><text x="116.3" y="131.59" fill="var(--rgb63131248rgb195221253)" font-family="var(--fontFamily-3551640753)" font-size="16px" font-weight="700" font-style="normal" letter-spacing="normal" text-decoration="none" text-anchor="start" style="line-height: 16px; white-space: nowrap; text-transform: none;">price</text></g><g data-selector="span." style="opacity: 0.7;"><text x="154.88" y="131.59" fill="var(--rgb63131248rgb195221253)" font-family="var(--fontFamily-3551640753)" font-size="16px" font-weight="500" font-style="normal" letter-spacing="normal" text-decoration="none" text-anchor="start" style="line-height: 16px; white-space: nowrap; text-transform: none;">),</text></g></g><rect x="81" y="104" width="172.609375" height="43.1875" rx="8" ry="8" fill="none" stroke-width="1px" stroke="rgba(0, 0, 0, 0)"/></g></g></g><g data-selector="div.ml-1 ColorByLegend FlexRow flex-row gap-1 ai-center"><g data-selector="div. gap-p5 ai-center FlexRow flex-row"><g data-selector="button.shadow b b-color f-0 flex-row gap-p5 ai-center rounded btn btn-default btn-size-micro btn-color-default ws-nowrap w-fit"><rect x="270.109375" y="113.09375" width="25" height="25" rx="6" ry="6" fill="rgb(148, 0, 0)" stroke-width="1px" stroke="rgb(210, 214, 220)" style="filter: drop-shadow(rgba(0, 0, 0, 0.1) 0px 1px 1.5px) drop-shadow(rgba(0, 0, 0, 0.06) 0px 1px 1px);"/></g><g data-selector="div. noselect f-d1"><text x="303.61" y="131.59" fill="var(--rgb223046rgb244245247)" font-family="var(--fontFamily-3551640753)" font-size="16px" font-weight="400" font-style="normal" letter-spacing="normal" text-decoration="none" text-anchor="start" style="line-height: normal; white-space: normal; text-transform: none;">BTCUSDC</text></g></g><g data-selector="div. gap-p5 ai-center FlexRow flex-row"><g data-selector="button.shadow b b-color f-0 flex-row gap-p5 ai-center rounded btn btn-default btn-size-micro btn-color-default ws-nowrap w-fit"><rect x="389.78125" y="113.09375" width="25" height="25" rx="6" ry="6" fill="rgb(75, 75, 75)" stroke-width="1px" stroke="rgb(210, 214, 220)" style="filter: drop-shadow(rgba(0, 0, 0, 0.1) 0px 1px 1.5px) drop-shadow(rgba(0, 0, 0, 0.06) 0px 1px 1px);"/></g><g data-selector="div. noselect f-d1"><text x="423.28" y="131.59" fill="var(--rgb223046rgb244245247)" font-family="var(--fontFamily-3551640753)" font-size="16px" font-weight="400" font-style="normal" letter-spacing="normal" text-decoration="none" text-anchor="start" style="line-height: normal; white-space: normal; text-transform: none;">BTCUSDT</text></g></g><g data-selector="div. gap-p5 ai-center FlexRow flex-row" style="opacity: 0.25;"><g data-selector="button.shadow b b-color f-0 flex-row gap-p5 ai-center rounded btn btn-default btn-size-micro btn-color-default ws-nowrap w-fit"><rect x="508.140625" y="113.09375" width="25" height="25" rx="6" ry="6" fill="rgb(0, 154, 173)" stroke-width="1px" stroke="rgb(210, 214, 220)" style="filter: drop-shadow(rgba(0, 0, 0, 0.1) 0px 1px 1.5px) drop-shadow(rgba(0, 0, 0, 0.06) 0px 1px 1px);"/></g><g data-selector="div. noselect f-d1"><text x="541.64" y="131.59" fill="var(--rgb223046rgb244245247)" font-family="var(--fontFamily-3551640753)" font-size="16px" font-weight="400" font-style="normal" letter-spacing="normal" text-decoration="none" text-anchor="start" style="line-height: normal; white-space: normal; text-transform: none;">1INCHUSDT</text></g></g></g><g data-selector="button. f-0 flex-row gap-p5 ai-center btn btn-default btn-size-micro btn-color-default ws-nowrap w-fit"><g style="transform: translate(631.56px, 116.79px); color: var(--rgb758599rgb229231235);"><svg viewBox="0 0 24 24" role="presentation" class=" f-0 " style="width: 16px; height: 16px; transform: scale(1.1);" width="16" height="16"><path d="M19,6.41L17.59,5L12,10.59L6.41,5L5,6.41L10.59,12L5,17.59L6.41,19L12,13.41L17.59,19L19,17.59L13.41,12L19,6.41Z" style="fill: currentcolor;"/></svg></g><g data-selector="svg.[object SVGAnimatedString]" role="presentation" style="clip-path: inset(116.794px 250.841px 765.606px 631.559px) view-box;"><rect x="631.56" y="116.79" width="17.6" height="17.6" fill="transparent"/></g><rect x="627.359375" y="112.59375" width="26" height="26" rx="6" ry="6" fill="none" stroke-width="1px" stroke="rgba(0, 0, 0, 0)"/></g></g></g></g><g data-selector="div.AddTimeChartFilter FlexRow flex-row gap-1 ai-center"><g data-selector="button. f-0 flex-row gap-p5 ai-center btn btn-default btn-size-default btn-color-default ws-nowrap w-fit" data-command="W_TimeChart.AddTimeChartFilter"><g style="transform: translate(866.9px, 111.9px); color: var(--rgb758599rgb229231235);"><svg viewBox="0 0 24 24" role="presentation" class=" f-0 " style="width: 22px; height: 22px; transform: scale(1.1);" width="22" height="22"><path d="M12 12V19.88C12.04 20.18 11.94 20.5 11.71 20.71C11.32 21.1 10.69 21.1 10.3 20.71L8.29 18.7C8.06 18.47 7.96 18.16 8 17.87V12H7.97L2.21 4.62C1.87 4.19 1.95 3.56 2.38 3.22C2.57 3.08 2.78 3 3 3H17C17.22 3 17.43 3.08 17.62 3.22C18.05 3.56 18.13 4.19 17.79 4.62L12.03 12H12M15 17H18V14H20V17H23V19H20V22H18V19H15V17Z" style="fill: currentcolor;"/></svg></g><g data-selector="svg.[object SVGAnimatedString]" role="presentation" style="clip-path: inset(111.9px 8.90002px 763.9px 866.9px) view-box;"><rect x="866.9" y="111.9" width="24.2" height="24.2" fill="transparent"/></g><rect x="859" y="104" width="40" height="40" rx="6" ry="6" fill="none" stroke-width="1px" stroke="rgba(0, 0, 0, 0)"/></g></g></g></g></g></g></g></g></g></g></g></g></g></g></g></g><style xmlns="http://www.w3.org/1999/xhtml" type="text/css">:root #id-e7a27a38 { 
  --dark-theme-hide: 1;
  --light-theme-hide: 0;
  --rgb758599rgb229231235: rgb(75, 85, 99); 
  --fontFamily-3551640753: -apple-system, BlinkMacSystemFont, "Segoe UI", Roboto, Oxygen, Ubuntu, Cantarell, "Fira Sans", "Droid Sans", "Helvetica Neue", sans-serif; 
  --rgb63131248rgb255255255: rgb(63, 131, 248); 
  --rgb63131248rgb91164255: rgb(63, 131, 248); 
  --rgb63131248rgb195221253: rgb(63, 131, 248); 
  --rgb255255255rgb444444: rgb(255, 255, 255); 
  --rgb223046rgb244245247: rgb(22, 30, 46); 
  --rgb229231235rgb758599: rgb(229, 231, 235); 
  --blackrgb187187187: black; 
}
@media (prefers-color-scheme: dark) { 
 :root #id-e7a27a38  { 
  --dark-theme-hide: 0;
  --light-theme-hide: 1;
  --rgb758599rgb229231235: rgb(229, 231, 235); 
  --rgb63131248rgb255255255: rgb(255, 255, 255); 
  --rgb63131248rgb91164255: rgb(91, 164, 255); 
  --rgb63131248rgb195221253: rgb(195, 221, 253); 
  --rgb255255255rgb444444: rgb(44, 44, 44); 
  --rgb223046rgb244245247: rgb(244, 245, 247); 
  --rgb229231235rgb758599: rgb(75, 85, 99); 
  --blackrgb187187187: rgb(187, 187, 187); 
  }
} 
</style></svg>