<svg xmlns="http://www.w3.org/2000/svg" width="900" height="900" viewBox="0 0 900 900"><defs><linearGradient id="gradient-2192457489" x1="0" y1="60" x2="0" y2="740" gradientUnits="userSpaceOnUse"><stop offset="0" stop-color="rgb(203, 17, 240)" stop-opacity="0.5"/><stop offset="0.2" stop-color="rgb(203, 17, 240)" stop-opacity="0.3"/><stop offset="0.3" stop-color="rgb(203, 17, 240)" stop-opacity="0.02"/><stop offset="0.8" stop-color="rgb(203, 17, 240)" stop-opacity="0"/></linearGradient><style type="text/css"/></defs><g data-selector="body.text-0 bg-color-2" style="clip-path: inset(0px) view-box;" id="id-1b84f24a"><rect x="0" y="0" width="900" height="900" rx="0" ry="0" fill="var(--rgb244245247rgb262525)" style="animation: 0s ease 0s 1 normal none running none;"/><g data-selector="main."><g data-selector="div.App gap-0 f-1 min-h-0 FlexCol flex-col"><g data-selector="div.Project f-1 flex-col h-full w-full min-h-0 min-w-0 relative bg-color-4"><rect x="0" y="0" width="900" height="900" rx="0" ry="0" fill="var(--rgb210214220rgb000)" style="animation: 0s ease 0s 1 normal none running none;"/><g data-selector="div.f-1 w-full h-full flex-col"><g data-selector="div.Dashboard gap-0 f-1 min-w-0 min-h-0 w-full  FlexCol flex-col"><g data-selector="div.TopHeader f-0 flex-row  min-h-0 min-w-0 o-hidden" style="clip-path: inset(0px 0px 842px) view-box;"><g data-selector="div.TopControls w-full bg-color-0 jc-center shadow FlexRow flex-row gap-1 ai-center"><rect x="0" y="0" width="900" height="58" rx="0" ry="0" fill="var(--rgb255255255rgb444444)" style="animation: 0s ease 0s 1 normal none running none; filter: drop-shadow(rgba(0, 0, 0, 0.1) 0px 1px 1.5px) drop-shadow(rgba(0, 0, 0, 0.06) 0px 1px 1px);"/><g data-selector="div.max-w-fit f-1 ai-center  p-p5  FlexRow flex-row gap-1"><g data-selector="button. f-0 flex-row gap-p5 ai-center rounded btn btn-default btn-size-default btn-color-default ws-nowrap w-fit" data-command="dashboard.menu"><rect x="8.5" y="8.5" width="41" height="41" rx="4" ry="4" fill="var(--rgb240254255rgb03755)" stroke-width="1px" stroke="rgb(58, 216, 227)" style="animation: 0s ease 0s 1 normal none running none;"/><svg xmlns:dc="http://purl.org/dc/elements/1.1/" xmlns:cc="http://creativecommons.org/ns#" xmlns:rdf="http://www.w3.org/1999/02/22-rdf-syntax-ns#" xmlns:svg="http://www.w3.org/2000/svg" xmlns="http://www.w3.org/2000/svg" id="svg8" version="1.1" viewBox="0 0 9.5249998 9.5250003" height="36" width="36" x="11" y="11">
  <style>
    @media (prefers-color-scheme: dark) {
      <!-- #path3881-head {
        fill: green !important;
      }
  
      #path3887-eye {
        fill: #ff0000 !important;
      }       -->
    }
  </style>
  <g transform="translate(0,-287.47498)" id="layer1">
    <path style="fill:#0087ab;stroke-width:0.10478402" id="path3881-head" d="m 6.5209966,295.25712 c 0.2175402,-0.46431 1.6420322,-2.2511 1.3456182,-4.2915 -0.085217,-0.58659 -2.1619067,-1.59449 -2.2268491,-1.64218 -0.01022,-0.008 -0.1325362,-0.0996 -0.1694292,-0.13795 -0.197562,-0.2055 -0.499117,-0.62298 -0.8304557,-0.82041 -0.1525898,-0.0909 -0.7394033,-0.0609 -1.0268278,0.11432 l -1.879837,1.08657 c -0.4703536,0.4665 0.1139504,1.07392 0.2268207,1.30469 0.1128704,0.23077 0.803662,0.95627 0.803662,0.95627 v 0 c -0.1433145,0.0653 -0.3911698,-0.0575 -0.6915708,-0.27496 0,0 -0.8432496,-0.80366 -0.8823501,-0.87005 -0.039101,-0.0664 -0.1564018,-0.20484 -0.23460266,-0.47082 0,0 -0.0384912,-0.0917 -0.0544209,-0.51555 -0.0159297,-0.42388 0.69813926,-0.64516 0.80535536,-0.72619 0.107216,-0.081 1.4441719,-0.86378 1.8275182,-1.11029 0.3833462,-0.24651 0.8880668,-0.20266 1.1387453,-0.0444 l 2.8538119,1.69411 c 0.2716598,0.15804 1.3866918,1.14066 1.421482,1.86382 0.081505,1.69417 -1.2190224,2.93746 -1.8472163,4.27428 -0.6281939,1.33683 1.1838142,0.58699 1.2737198,0.43944 l 0.259057,0.27303 c -0.8972105,0.56378 -1.9304095,0.39775 -2.0611443,0.33679 -0.1307347,-0.0609 -0.2768897,-0.88205 -0.051087,-1.439 z"/>
    <path style="fill: #bc0000;fill-opacity:1;fill-rule:evenodd;stroke-width:0.07858816;stroke-miterlimit:4;stroke-dasharray:none;stroke-opacity:0.60294118;" id="path3887-eye" d="m 6.2908378,290.63597 c 0.030281,-0.0145 0.067771,-0.0145 0.09805,0 0.9624569,0.37529 0.8624334,0.39198 0.8624334,1.21858 0,0.0285 -0.018608,0.0549 -0.049026,0.0694 -0.9558494,-0.4203 -0.9974496,-0.45611 -0.9114585,-1.28795 z"/>
  </g>
</svg></g><g data-selector="div.h-full flex-col gap-p25 ai-start "><g data-selector="a.ConnectionConfigBtn f-0 flex-row gap-p5 ai-center button-css btn btn-faded btn-size-default btn-color-default ws-nowrap w-fit" data-command="dashboard.goToConnConfig" style="clip-path: inset(8px 793px 850px 65px round 6px) view-box;"><rect x="66" y="9" width="40" height="40" rx="6" ry="6" fill="var(--rgba125125125022rgba125125125038)" stroke-width="1px" stroke="rgba(0, 0, 0, 0)" style="animation: 0s ease 0s 1 normal none running none;"/><g style="transform: translate(73.9px, 16.9px); color: var(--rgb758599rgb229231235);"><svg viewBox="0 0 24 24" role="presentation" class=" f-0 " style="width: 22px; height: 22px; transform: scale(1.1);" width="22" height="22"><path d="M4 7C4 4.79 7.58 3 12 3S20 4.79 20 7 16.42 11 12 11 4 9.21 4 7M12.08 18L12 18C7.58 18 4 16.21 4 14V17C4 19.21 7.58 21 12 21C12.1 21 12.2 21 12.29 21C12.11 20.36 12 19.69 12 19C12 18.66 12.03 18.33 12.08 18M20 12.08C20 12.05 20 12.03 20 12V9C20 11.21 16.42 13 12 13S4 11.21 4 9V12C4 14.21 7.58 16 12 16C12.23 16 12.46 16 12.69 16C13.82 13.63 16.22 12 19 12C19.34 12 19.67 12.03 20 12.08M23.8 20.4C23.9 20.4 23.9 20.5 23.8 20.6L22.8 22.3C22.7 22.4 22.6 22.4 22.5 22.4L21.3 22C21 22.2 20.8 22.3 20.5 22.5L20.3 23.8C20.3 23.9 20.2 24 20.1 24H18.1C18 24 17.9 23.9 17.8 23.8L17.6 22.5C17.3 22.4 17 22.2 16.8 22L15.6 22.5C15.5 22.5 15.4 22.5 15.3 22.4L14.3 20.7C14.2 20.6 14.3 20.5 14.4 20.4L15.5 19.6V18.6L14.4 17.8C14.3 17.7 14.3 17.6 14.3 17.5L15.3 15.8C15.4 15.7 15.5 15.7 15.6 15.7L16.8 16.2C17.1 16 17.3 15.9 17.6 15.7L17.8 14.4C17.8 14.3 17.9 14.2 18.1 14.2H20.1C20.2 14.2 20.3 14.3 20.3 14.4L20.5 15.7C20.8 15.8 21.1 16 21.4 16.2L22.6 15.7C22.7 15.7 22.9 15.7 22.9 15.8L23.9 17.5C24 17.6 23.9 17.7 23.8 17.8L22.7 18.6V19.6L23.8 20.4M20.5 19C20.5 18.2 19.8 17.5 19 17.5S17.5 18.2 17.5 19 18.2 20.5 19 20.5 20.5 19.8 20.5 19Z" style="fill: currentcolor;"/></svg></g><g data-selector="svg.[object SVGAnimatedString]" role="presentation" style="clip-path: inset(16.9px 801.9px 858.9px 73.9px) view-box;"><rect x="73.9" y="16.9" width="24.2" height="24.2" fill="transparent"/></g></g></g><g data-selector="button. Select w-fit f-0 select-button flex-row gap-p5 ai-center rounded btn btn-faded btn-size-default btn-color-default ws-nowrap" data-command="ConnectionSelector"><rect x="122" y="9" width="104.203125" height="40" rx="8" ry="8" fill="var(--rgba125125125022rgba125125125038)" stroke-width="1px" stroke="rgba(0, 0, 0, 0)" style="animation: 0s ease 0s 1 normal none running none;"/><g style="transform: translate(133.9px, 16.9px); color: var(--rgb758599rgb229231235);"><svg viewBox="0 0 24 24" role="presentation" class=" f-0 " style="width: 22px; height: 22px; transform: scale(1.1);" width="22" height="22"><path d="M12,3C7.58,3 4,4.79 4,7C4,9.21 7.58,11 12,11C16.42,11 20,9.21 20,7C20,4.79 16.42,3 12,3M4,9V12C4,14.21 7.58,16 12,16C16.42,16 20,14.21 20,12V9C20,11.21 16.42,13 12,13C7.58,13 4,11.21 4,9M4,14V17C4,19.21 7.58,21 12,21C16.42,21 20,19.21 20,17V14C20,16.21 16.42,18 12,18C7.58,18 4,16.21 4,14Z" style="fill: currentcolor;"/></svg></g><g data-selector="svg.[object SVGAnimatedString]" role="presentation" style="clip-path: inset(16.9px 741.9px 858.9px 133.9px) view-box;"><rect x="133.9" y="16.9" width="24.2" height="24.2" fill="transparent"/></g><g data-selector="div. text-ellipsis text-color-0" style="clip-path: inset(20px 686.797px 862px 165px) view-box;"><text x="165" y="35" fill="var(--rgb758599rgb229231235)" font-family="var(--fontFamily-3551640753)" font-size="16px" font-weight="500" font-style="normal" letter-spacing="normal" text-decoration="none" text-anchor="start" style="line-height: 18px; white-space: nowrap; text-transform: none;">crypto</text></g></g></g><g data-selector="div. WorkspaceMenu as-end jc-center text-white ai-center f-1 min-w-0 o-auto h-fit FlexRow flex-row gap-1" style="clip-path: inset(5px 184px 842px 250.203px) view-box;"><g data-selector="ul.no-decor o-auto f-1 min-w-0 max-w-fit flex-row no-scroll-bar ai-end" data-command="WorkspaceMenu.list" style="clip-path: inset(5px 385.578px 842px 361.766px) view-box;"><g data-selector="li.workspace-list-item text-1 relative flex-row active"><g data-selector="button. f-0 flex-row gap-p5 ai-center rounded btn btn-default btn-size-default btn-color-default ws-nowrap w-fit"><text x="378.77" y="36" fill="var(--rgb758599rgb229231235)" font-family="var(--fontFamily-3551640753)" font-size="16px" font-weight="600" font-style="normal" letter-spacing="normal" text-decoration="none" text-anchor="start" style="line-height: 16px; white-space: nowrap; text-transform: none;">Crypto markets</text><path d="M361.77,5 H514.42 V58 H361.77 V5 Z" fill="none" style="animation: 0s ease 0s 1 normal none running none;"/><line x1="361.765625" y1="5.5" x2="514.421875" y2="5.5" stroke="rgba(0, 0, 0, 0)" stroke-width="1"/><line x1="513.921875" y1="5" x2="513.921875" y2="58" stroke="rgba(0, 0, 0, 0)" stroke-width="1"/><line x1="361.765625" y1="56" x2="514.421875" y2="56" stroke="rgb(0, 161, 255)" stroke-width="4"/><line x1="362.265625" y1="5" x2="362.265625" y2="58" stroke="rgba(0, 0, 0, 0)" stroke-width="1"/></g></g></g><g data-selector="button. f-0 flex-row gap-p5 ai-center btn btn-default btn-size-default btn-color-default ws-nowrap w-fit" data-command="WorkspaceMenu.toggleWorkspaceLayoutMode"><g style="transform: translate(523.32px, 19.4px); color: var(--rgb758599rgb229231235);"><svg viewBox="0 0 24 24" role="presentation" class=" f-0 " style="width: 22px; height: 22px; transform: scale(1.1);" width="22" height="22"><path d="M13,3V9H21V3M13,21H21V11H13M3,21H11V15H3M3,13H11V3H3V13Z" style="fill: currentcolor;"/></svg></g><g data-selector="svg.[object SVGAnimatedString]" role="presentation" style="clip-path: inset(19.4px 352.478px 856.4px 523.322px) view-box;"><rect x="523.32" y="19.4" width="24.2" height="24.2" fill="transparent"/></g><rect x="515.421875" y="11.5" width="40" height="40" rx="6" ry="6" fill="none" stroke-width="1px" stroke="rgba(0, 0, 0, 0)" style="animation: 0s ease 0s 1 normal none running none;"/></g><g data-selector="div. PopupMenu_triggerWrapper h-fit w-fit"><g data-selector="button.text-0 f-0 flex-row gap-p5 ai-center btn btn-default btn-size-default btn-color-default ws-nowrap w-fit" data-command="WorkspaceMenuDropDown"><g style="transform: translate(568.32px, 19.4px); color: var(--rgb758599rgb229231235);"><svg viewBox="0 0 24 24" role="presentation" class=" f-0 " style="width: 22px; height: 22px; transform: scale(1.1);" width="22" height="22"><path d="M7.41,8.58L12,13.17L16.59,8.58L18,10L12,16L6,10L7.41,8.58Z" style="fill: currentcolor;"/></svg></g><g data-selector="svg.[object SVGAnimatedString]" role="presentation" style="clip-path: inset(19.4px 307.478px 856.4px 568.322px) view-box;"><rect x="568.32" y="19.4" width="24.2" height="24.2" fill="transparent"/></g><rect x="556.421875" y="7.5" width="48" height="48" rx="6" ry="6" fill="none" stroke-width="1px" stroke="rgba(0, 0, 0, 0)" style="animation: 0s ease 0s 1 normal none running none;"/></g></g></g><g data-selector="div.ml-auto min-w-0 f-0 ai-start gap-1 text-1p5 w-fit ai-center noselect o-auto no-scroll-bar jc-end  p-p5  FlexRow flex-row" style="clip-path: inset(1px 0px 843px 732px) view-box;"><g data-selector="button. f-0 flex-row gap-p5 ai-center btn btn-faded btn-size-default btn-color-action ws-nowrap w-fit" data-command="AskLLM"><rect x="740" y="9" width="40" height="40" rx="6" ry="6" fill="var(--rgb225239254rgba07916308)" stroke-width="1px" stroke="rgba(0, 0, 0, 0)" style="animation: 0s ease 0s 1 normal none running none;"/><g style="transform: translate(747.9px, 16.9px); color: var(--rgb63131248rgb255255255);"><svg viewBox="0 0 24 24" role="presentation" class=" f-0 " style="width: 22px; height: 22px; transform: scale(1.1);" width="22" height="22"><path d="M19,2H5A2,2 0 0,0 3,4V18A2,2 0 0,0 5,20H9L12,23L15,20H19A2,2 0 0,0 21,18V4A2,2 0 0,0 19,2M13.88,12.88L12,17L10.12,12.88L6,11L10.12,9.12L12,5L13.88,9.12L18,11" style="fill: currentcolor;"/></svg></g><g data-selector="svg.[object SVGAnimatedString]" role="presentation" style="clip-path: inset(16.9px 127.9px 858.9px 747.9px) view-box;"><rect x="747.9" y="16.9" width="24.2" height="24.2" fill="transparent"/></g></g><g data-selector="div. PopupMenu_triggerWrapper h-fit w-fit"><g data-selector="button. f-0 flex-row gap-p5 ai-center btn btn-faded btn-size-default btn-color-default ws-nowrap w-fit" data-command="Feedback"><rect x="796" y="9" width="40" height="40" rx="6" ry="6" fill="var(--rgba125125125022rgba125125125038)" stroke-width="1px" stroke="rgba(0, 0, 0, 0)" style="animation: 0s ease 0s 1 normal none running none;"/><g style="transform: translate(803.9px, 16.9px); color: var(--rgb758599rgb229231235);"><svg viewBox="0 0 24 24" role="presentation" class=" f-0 " style="width: 22px; height: 22px; transform: scale(1.1);" width="22" height="22"><path d="M20 2H4C2.9 2 2 2.9 2 4V22L6 18H20C21.1 18 22 17.1 22 16V4C22 2.9 21.1 2 20 2M20 16H5.2L4 17.2V4H20V16M18 14V6H13V14L15.5 12.5L18 14" style="fill: currentcolor;"/></svg></g><g data-selector="svg.[object SVGAnimatedString]" role="presentation" style="clip-path: inset(16.9px 71.9px 858.9px 803.9px) view-box;"><rect x="803.9" y="16.9" width="24.2" height="24.2" fill="transparent"/></g></g></g><g data-selector="a. f-0 flex-row gap-p5 ai-center button-css btn btn-faded btn-size-default btn-color-default ws-nowrap w-fit active" data-command="dashboard.goToConnections" style="clip-path: inset(8px 7px 850px 851px round 6px) view-box;"><rect x="852" y="9" width="40" height="40" rx="6" ry="6" fill="var(--rgba125125125022rgba125125125038)" stroke-width="1px" stroke="rgba(0, 0, 0, 0)" style="animation: 0s ease 0s 1 normal none running none;"/><g style="transform: translate(859.9px, 16.9px); color: var(--rgb758599rgb229231235);"><svg viewBox="0 0 24 24" role="presentation" class=" f-0 " style="width: 22px; height: 22px; transform: scale(1.1);" width="22" height="22"><path d="M20,11V13H8L13.5,18.5L12.08,19.92L4.16,12L12.08,4.08L13.5,5.5L8,11H20Z" style="fill: currentcolor;"/></svg></g><g data-selector="svg.[object SVGAnimatedString]" role="presentation" style="clip-path: inset(16.9px 15.9px 858.9px 859.9px) view-box;"><rect x="859.9" y="16.9" width="24.2" height="24.2" fill="transparent"/></g></g></g></g></g><g data-selector="div.Dashboard_Wrapper min-h-0 f-1 flex-row relative"><g data-selector="div.Dashboard_MainContentWrapper f-1 gap-0 relative ai-none jc-none FlexRow flex-row"><g data-selector="div.ViewRenderer min-h-0 f-1 flex-row relative"><g data-selector="div.min-h-0 relative silver-grid-component"><g data-selector="div. silver-grid-box flex-tab min-w-0 min-h-0"><g data-selector="div.SilverGridChild silver-grid-box silver-grid-item bg-color-1 f-1 flex-col min-w-0 min-h-0   " style="clip-path: inset(60px 1px 0px) view-box;"><rect x="1" y="60" width="898" height="840" rx="0" ry="0" fill="var(--rgb249250251rgb333333)" style="animation: 0s ease 0s 1 normal none running none;"/><g data-selector="div.silver-grid-item-header flex-row  bg-color-0 bb b-color-0 pointer f-0 noselect relative ai-center shadow"><path d="M1,60 H899 V103 H1 V60 Z" fill="var(--rgb255255255rgb444444)" style="animation: 0s ease 0s 1 normal none running none; filter: drop-shadow(rgba(0, 0, 0, 0.1) 0px 1px 1.5px) drop-shadow(rgba(0, 0, 0, 0.06) 0px 1px 1px);"/><g data-selector="div.silver-grid-item-header--icon flex-row f-0 o-hidden f-1 ai-center" style="clip-path: inset(61px 827px 799px 1px) view-box;"><g data-selector="button.f-0 flex-row gap-p5 ai-center btn btn-default btn-size-default btn-color-default ws-nowrap w-fit" data-command="dashboard.window.menu"><g style="transform: translate(8.9px, 68.9px); color: var(--rgb758599rgb229231235);"><svg viewBox="0 0 24 24" role="presentation" class=" f-0 " style="width: 22px; height: 22px; transform: scale(1.1);" width="22" height="22"><path d="M12,16A2,2 0 0,1 14,18A2,2 0 0,1 12,20A2,2 0 0,1 10,18A2,2 0 0,1 12,16M12,10A2,2 0 0,1 14,12A2,2 0 0,1 12,14A2,2 0 0,1 10,12A2,2 0 0,1 12,10M12,4A2,2 0 0,1 14,6A2,2 0 0,1 12,8A2,2 0 0,1 10,6A2,2 0 0,1 12,4Z" style="fill: currentcolor;"/></svg></g><g data-selector="svg.[object SVGAnimatedString]" role="presentation" style="clip-path: inset(68.9px 866.9px 806.9px 8.9px) view-box;"><rect x="8.9" y="68.9" width="24.2" height="24.2" fill="transparent"/></g><rect x="1" y="61" width="40" height="40" rx="6" ry="6" fill="none" stroke-width="1px" stroke="rgba(0, 0, 0, 0)" style="animation: 0s ease 0s 1 normal none running none;"/></g><g data-selector="div.bg-color-3 W_QuickMenu flex-row ai-center rounded b-color h-fit w-fit m-auto f-1 min-w-0 o-auto no-scroll-bar" data-command="Window.W_QuickMenu" style="clip-path: inset(65px 827px 803px 41px round 8px) view-box;"><rect x="41" y="65" width="32" height="32" rx="8" ry="8" fill="var(--rgb229231235rgb444444)" style="animation: 0s ease 0s 1 normal none running none;"/><g data-selector="button.bg-color-3 f-0 flex-row gap-p5 ai-center btn btn-default btn-size-small btn-color-default ws-nowrap w-fit" data-command="dashboard.window.toggleFilterBar"><g style="transform: translate(47.1px, 71.1px); color: var(--rgb758599rgb229231235);"><svg viewBox="0 0 24 24" role="presentation" class=" f-0 " style="width: 18px; height: 18px; transform: scale(1.1);" width="18" height="18"><path d="M14,12V19.88C14.04,20.18 13.94,20.5 13.71,20.71C13.32,21.1 12.69,21.1 12.3,20.71L10.29,18.7C10.06,18.47 9.96,18.16 10,17.87V12H9.97L4.21,4.62C3.87,4.19 3.95,3.56 4.38,3.22C4.57,3.08 4.78,3 5,3V3H19V3C19.22,3 19.43,3.08 19.62,3.22C20.05,3.56 20.13,4.19 19.79,4.62L14.03,12H14Z" style="fill: currentcolor;"/></svg></g><g data-selector="svg.[object SVGAnimatedString]" role="presentation" style="clip-path: inset(71.1px 833.1px 809.1px 47.1px) view-box;"><rect x="47.1" y="71.1" width="19.8" height="19.8" fill="transparent"/></g><rect x="41" y="65" width="32" height="32" rx="6" ry="6" fill="none" stroke-width="1px" stroke="rgba(0, 0, 0, 0)" style="animation: 0s ease 0s 1 normal none running none;"/></g></g></g><g data-selector="div.SilverGridChildHeader_tabs flex-row f-1 min-w-0 ws-nowrap ai-end text-ellipsiss ml-p25 o-auto  no-scroll-bar FlexRow gap-1" style="clip-path: inset(60px 121px 798px 77px) view-box;"><g data-selector="div.gap-p25 pl-p5 pr-p25 bg-color-0 FlexRow flex-row ai-center"><rect x="77" y="62" width="157.015625" height="40" rx="0" ry="0" fill="var(--rgb255255255rgb363636)" style="animation: 0s ease 0s 1 normal none running none;"/><g data-selector="div.silver-grid-item-header--title py-p5 f-1 min-w-0 max-w-fit text-ellipsis noselect " style="clip-path: inset(61px 699.984px 797px 85px) view-box;"><text x="85" y="88" fill="var(--rgb223046rgb244245247)" font-family="var(--fontFamily-3551640753)" font-size="16px" font-weight="400" font-style="normal" letter-spacing="normal" text-decoration="none" text-anchor="start" style="line-height: 26px; white-space: nowrap; text-transform: none;">futures 646,156</text></g></g></g><g data-selector="button.f-0  flex-row gap-p5 ai-center btn btn-default btn-size-default btn-color-default ws-nowrap w-fit" data-command="dashboard.window.collapse"><g style="transform: translate(786.9px, 68.9px); color: var(--rgb758599rgb229231235);"><svg viewBox="0 0 24 24" role="presentation" class=" f-0 " style="width: 22px; height: 22px; transform: scale(1.1);" width="22" height="22"><path d="M16.59,5.41L15.17,4L12,7.17L8.83,4L7.41,5.41L12,10M7.41,18.59L8.83,20L12,16.83L15.17,20L16.58,18.59L12,14L7.41,18.59Z" style="fill: currentcolor;"/></svg></g><g data-selector="svg.[object SVGAnimatedString]" role="presentation" style="clip-path: inset(68.9px 88.9px 806.9px 786.9px) view-box;"><rect x="786.9" y="68.9" width="24.2" height="24.2" fill="transparent"/></g><rect x="779" y="61" width="40" height="40" rx="6" ry="6" fill="none" stroke-width="1px" stroke="rgba(0, 0, 0, 0)" style="animation: 0s ease 0s 1 normal none running none;"/></g><g data-selector="button.f-0  flex-row gap-p5 ai-center btn btn-default btn-size-default btn-color-default ws-nowrap w-fit" data-command="dashboard.window.fullscreen"><g style="transform: translate(826.9px, 68.9px); color: var(--rgb758599rgb229231235);"><svg viewBox="0 0 24 24" role="presentation" class=" f-0 " style="width: 22px; height: 22px; transform: scale(1.1);" width="22" height="22"><path d="M5,5H10V7H7V10H5V5M14,5H19V10H17V7H14V5M17,14H19V19H14V17H17V14M10,17V19H5V14H7V17H10Z" style="fill: currentcolor;"/></svg></g><g data-selector="svg.[object SVGAnimatedString]" role="presentation" style="clip-path: inset(68.9px 48.9px 806.9px 826.9px) view-box;"><rect x="826.9" y="68.9" width="24.2" height="24.2" fill="transparent"/></g><rect x="819" y="61" width="40" height="40" rx="6" ry="6" fill="none" stroke-width="1px" stroke="rgba(0, 0, 0, 0)" style="animation: 0s ease 0s 1 normal none running none;"/></g><g data-selector="button.f-0  flex-row gap-p5 ai-center btn btn-default btn-size-default btn-color-default ws-nowrap w-fit" data-command="dashboard.window.close"><g style="transform: translate(866.9px, 68.9px); color: var(--rgb758599rgb229231235);"><svg viewBox="0 0 24 24" role="presentation" class=" f-0 " style="width: 22px; height: 22px; transform: scale(1.1);" width="22" height="22"><path d="M19,6.41L17.59,5L12,10.59L6.41,5L5,6.41L10.59,12L5,17.59L6.41,19L12,13.41L17.59,19L19,17.59L13.41,12L19,6.41Z" style="fill: currentcolor;"/></svg></g><g data-selector="svg.[object SVGAnimatedString]" role="presentation" style="clip-path: inset(68.9px 8.90002px 806.9px 866.9px) view-box;"><rect x="866.9" y="68.9" width="24.2" height="24.2" fill="transparent"/></g><rect x="859" y="61" width="40" height="40" rx="6" ry="6" fill="none" stroke-width="1px" stroke="rgba(0, 0, 0, 0)" style="animation: 0s ease 0s 1 normal none running none;"/></g><line x1="1" y1="102.5" x2="899" y2="102.5" stroke="var(--rgb229231235rgb758599)" stroke-width="1"/></g><g data-selector="div.Window flex-col f-1 min-h-0 min-w-0 relative"><g data-selector="div.W_Table flex-col f-1 min-h-0 min-w-0 relative"><g data-selector="div.W_Table_Content flex-col oy-auto f-1 relative " style="clip-path: inset(103px 1px 0px) view-box;"><g data-selector="div.f-1 gap-0 min-s-0 o-hidden FlexCol flex-col" data-command="Window.ChildChart" style="clip-path: inset(103px 1px 0px) view-box;"><g data-selector="div.p-p5 FlexRow flex-row gap-1 ai-center" data-command="Window.ChildChart.toolbar"><g data-selector="button.f-0 flex-row gap-p5 ai-center b rounded btn btn-outline btn-size-default btn-color-action ws-nowrap w-fit" data-command="dashboard.window.chartMenu"><rect x="9.5" y="111.5" width="156.390625" height="39" rx="8" ry="8" fill="var(--rgb255255255rgb444444)" stroke-width="1px" stroke="var(--rgb63131248rgb82146215)" style="animation: 0s ease 0s 1 normal none running none;"/><text x="52" y="137" fill="rgb(71, 157, 255)" font-family="var(--fontFamily-3551640753)" font-size="16px" font-weight="500" font-style="normal" letter-spacing="normal" text-decoration="none" text-anchor="start" style="line-height: 16px; white-space: nowrap; text-transform: none;">Chart options</text><g style="transform: translate(20.9px, 118.9px); color: var(--rgb71157255rgb71157255);"><svg viewBox="0 0 24 24" role="presentation" class=" f-0 " style="width: 22px; height: 22px; transform: scale(1.1);" width="22" height="22"><path d="M12,15.5A3.5,3.5 0 0,1 8.5,12A3.5,3.5 0 0,1 12,8.5A3.5,3.5 0 0,1 15.5,12A3.5,3.5 0 0,1 12,15.5M19.43,12.97C19.47,12.65 19.5,12.33 19.5,12C19.5,11.67 19.47,11.34 19.43,11L21.54,9.37C21.73,9.22 21.78,8.95 21.66,8.73L19.66,5.27C19.54,5.05 19.27,4.96 19.05,5.05L16.56,6.05C16.04,5.66 15.5,5.32 14.87,5.07L14.5,2.42C14.46,2.18 14.25,2 14,2H10C9.75,2 9.54,2.18 9.5,2.42L9.13,5.07C8.5,5.32 7.96,5.66 7.44,6.05L4.95,5.05C4.73,4.96 4.46,5.05 4.34,5.27L2.34,8.73C2.21,8.95 2.27,9.22 2.46,9.37L4.57,11C4.53,11.34 4.5,11.67 4.5,12C4.5,12.33 4.53,12.65 4.57,12.97L2.46,14.63C2.27,14.78 2.21,15.05 2.34,15.27L4.34,18.73C4.46,18.95 4.73,19.03 4.95,18.95L7.44,17.94C7.96,18.34 8.5,18.68 9.13,18.93L9.5,21.58C9.54,21.82 9.75,22 10,22H14C14.25,22 14.46,21.82 14.5,21.58L14.87,18.93C15.5,18.67 16.04,18.34 16.56,17.94L19.05,18.95C19.27,19.03 19.54,18.95 19.66,18.73L21.66,15.27C21.78,15.05 21.73,14.78 21.54,14.63L19.43,12.97Z" style="fill: currentcolor;"/></svg></g><g data-selector="svg.[object SVGAnimatedString]" role="presentation" style="clip-path: inset(118.9px 854.9px 756.9px 20.9px) view-box;"><rect x="20.9" y="118.9" width="24.2" height="24.2" fill="transparent"/></g></g><g data-selector="button.ml-auto f-0 flex-row gap-p5 ai-center btn btn-default btn-size-default btn-color-action ws-nowrap w-fit" data-command="dashboard.window.collapseChart"><g style="transform: translate(536.53px, 118.9px); color: var(--rgb63131248rgb91164255);"><svg viewBox="0 0 24 24" role="presentation" class=" f-0 " style="width: 22px; height: 22px; transform: scale(1.1);" width="22" height="22"><path d="M19.5,3.09L15,7.59V4H13V11H20V9H16.41L20.91,4.5L19.5,3.09M4,13V15H7.59L3.09,19.5L4.5,20.91L9,16.41V20H11V13H4Z" style="fill: currentcolor;"/></svg></g><g data-selector="svg.[object SVGAnimatedString]" role="presentation" style="clip-path: inset(118.9px 339.275px 756.9px 536.525px) view-box;"><rect x="536.53" y="118.9" width="24.2" height="24.2" fill="transparent"/></g><rect x="528.625" y="111" width="40" height="40" rx="6" ry="6" fill="none" stroke-width="1px" stroke="rgba(0, 0, 0, 0)" style="animation: 0s ease 0s 1 normal none running none;"/></g><g data-selector="button. f-0 flex-row gap-p5 ai-center b rounded btn btn-outline btn-size-default btn-color-action ws-nowrap w-fit" data-command="dashboard.window.detachChart"><rect x="585.125" y="111.5" width="150.125" height="39" rx="8" ry="8" fill="var(--rgb255255255rgb444444)" stroke-width="1px" stroke="var(--rgb63131248rgb82146215)" style="animation: 0s ease 0s 1 normal none running none;"/><text x="627.63" y="137" fill="rgb(71, 157, 255)" font-family="var(--fontFamily-3551640753)" font-size="16px" font-weight="500" font-style="normal" letter-spacing="normal" text-decoration="none" text-anchor="start" style="line-height: 16px; white-space: nowrap; text-transform: none;">Detach chart</text><g style="transform: translate(596.53px, 118.9px); color: var(--rgb71157255rgb71157255);"><svg viewBox="0 0 24 24" role="presentation" class=" f-0 " style="width: 22px; height: 22px; transform: scale(1.1);" width="22" height="22"><path d="M14,3V5H17.59L7.76,14.83L9.17,16.24L19,6.41V10H21V3M19,19H5V5H12V3H5C3.89,3 3,3.9 3,5V19A2,2 0 0,0 5,21H19A2,2 0 0,0 21,19V12H19V19Z" style="fill: currentcolor;"/></svg></g><g data-selector="svg.[object SVGAnimatedString]" role="presentation" style="clip-path: inset(118.9px 279.275px 756.9px 596.525px) view-box;"><rect x="596.53" y="118.9" width="24.2" height="24.2" fill="transparent"/></g></g><g data-selector="button. f-0 flex-row gap-p5 ai-center b rounded btn btn-outline btn-size-default btn-color-default ws-nowrap w-fit" data-command="dashboard.window.closeChart"><rect x="752.25" y="111.5" width="138.25" height="39" rx="8" ry="8" fill="var(--rgb255255255rgb444444)" stroke-width="1px" stroke="rgb(159, 166, 178)" style="animation: 0s ease 0s 1 normal none running none;"/><text x="794.75" y="137" fill="var(--rgb758599rgb229231235)" font-family="var(--fontFamily-3551640753)" font-size="16px" font-weight="500" font-style="normal" letter-spacing="normal" text-decoration="none" text-anchor="start" style="line-height: 16px; white-space: nowrap; text-transform: none;">Close chart</text><g style="transform: translate(763.65px, 118.9px); color: var(--rgb758599rgb229231235);"><svg viewBox="0 0 24 24" role="presentation" class=" f-0 " style="width: 22px; height: 22px; transform: scale(1.1);" width="22" height="22"><path d="M19,6.41L17.59,5L12,10.59L6.41,5L5,6.41L10.59,12L5,17.59L6.41,19L12,13.41L17.59,19L19,17.59L13.41,12L19,6.41Z" style="fill: currentcolor;"/></svg></g><g data-selector="svg.[object SVGAnimatedString]" role="presentation" style="clip-path: inset(118.9px 112.15px 756.9px 763.65px) view-box;"><rect x="763.65" y="118.9" width="24.2" height="24.2" fill="transparent"/></g></g></g><g data-selector="div.Window flex-col f-1 min-h-0 min-w-0 relative"><g data-selector="div.W_TimeChart relative f-1 flex-col min-h-0 min-w-0 noselect " data-command="W_TimeChart"><rect x="1" y="160" width="898" height="740" rx="0" ry="0" fill="var(--rgb255255255rgb393939)" style="animation: 0s ease 0s 1 normal none running none;"/><g data-selector="div. TimeChart flex-col f-1 h-fit min-h-0 min-w-0 relative noselect" style="clip-path: inset(160px 1px 0px) view-box;"><g data-selector="canvas.f-1 noselect" transform="translate(1, 160)" style="clip-path: inset(0px) view-box;"><g transform="translate(0, 0) scale(1)"><path d="M 66.31,740 L 66.31,217.93 L 66.31,217.93 L 72.46,208.25 L 78.6,173.14 L 84.75,141.02 L 90.89,80.02 L 97.04,71.59 L 103.18,68.55 L 109.33,60 L 115.47,93.03 L 121.61,119.5 L 127.76,177.97 L 133.9,184.45 L 140.05,179.27 L 146.19,141.16 L 152.34,152.95 L 158.48,166.37 L 164.63,164.56 L 170.77,160.34 L 176.92,159.28 L 183.06,158.32 L 189.21,157.23 L 195.35,157.73 L 201.5,167.01 L 207.64,190.75 L 213.79,198.98 L 219.93,215.02 L 226.08,223.58 L 232.22,226 L 238.37,182.89 L 244.51,158.65 L 250.66,211.85 L 256.8,218.14 L 262.95,325.27 L 269.09,418.67 L 275.23,416.46 L 281.38,350.39 L 287.52,280.07 L 293.67,343.14 L 299.81,416.04 L 305.96,443.92 L 312.1,465.7 L 318.25,484.92 L 324.39,466.98 L 330.54,437.73 L 336.68,482.02 L 342.83,451.35 L 348.97,440.24 L 355.12,407.39 L 361.26,397.94 L 367.41,396.13 L 373.55,394.49 L 379.7,391.94 L 385.84,404.13 L 391.99,458.45 L 398.13,435.16 L 404.28,428.81 L 410.42,441.49 L 416.56,480.18 L 422.71,464.23 L 428.85,481.11 L 435,501 L 441.14,468.47 L 447.29,470.27 L 453.43,475.74 L 459.58,490.57 L 465.72,541.33 L 471.87,546.46 L 478.01,531.04 L 484.16,494.35 L 490.3,473.65 L 496.45,499.3 L 502.59,513.85 L 508.74,562.35 L 514.88,547.46 L 521.03,521.69 L 527.17,510.61 L 533.32,473.43 L 539.46,460.28 L 545.61,485.65 L 551.75,503.02 L 557.89,495.62 L 564.04,475.77 L 570.18,480.49 L 576.33,487.72 L 582.47,542.59 L 588.62,662.6 L 594.76,659.77 L 600.91,660.88 L 607.05,633.24 L 613.2,612.71 L 619.34,622.89 L 625.49,613.7 L 631.63,643.16 L 637.78,674.73 L 643.92,667.37 L 650.07,645.64 L 656.21,690 L 662.36,687.47 L 668.5,681.97 L 674.65,673.99 L 680.79,668.79 L 686.94,671.19 L 693.08,634.85 L 699.22,631.97 L 705.37,596.12 L 711.51,574.97 L 717.66,541.48 L 723.8,532.89 L 729.95,546.21 L 736.09,598.22 L 742.24,594.12 L 748.38,584.38 L 754.53,583.74 L 760.67,611.43 L 766.82,630.71 L 772.96,592.05 L 779.11,545.46 L 785.25,569.07 L 791.4,551.83 L 797.54,537.98 L 803.69,530.34 L 809.83,484.83 L 815.98,458.39 L 822.12,443.37 L 828.27,418.7 L 834.41,432.76 L 840.55,435.29 L 846.7,422.22 L 852.84,418.83 L 858.99,417.63 L 865.13,400.83 L 871.28,387.92 L 877.42,396.77 L 877.42,740 Z" fill="url(#gradient-2192457489)" opacity="1"/><path d="M 66.31,217.93 L 72.46,208.25 L 78.6,173.14 L 84.75,141.02 L 90.89,80.02 L 97.04,71.59 L 103.18,68.55 L 109.33,60 L 115.47,93.03 L 121.61,119.5 L 127.76,177.97 L 133.9,184.45 L 140.05,179.27 L 146.19,141.16 L 152.34,152.95 L 158.48,166.37 L 164.63,164.56 L 170.77,160.34 L 176.92,159.28 L 183.06,158.32 L 189.21,157.23 L 195.35,157.73 L 201.5,167.01 L 207.64,190.75 L 213.79,198.98 L 219.93,215.02 L 226.08,223.58 L 232.22,226 L 238.37,182.89 L 244.51,158.65 L 250.66,211.85 L 256.8,218.14 L 262.95,325.27 L 269.09,418.67 L 275.23,416.46 L 281.38,350.39 L 287.52,280.07 L 293.67,343.14 L 299.81,416.04 L 305.96,443.92 L 312.1,465.7 L 318.25,484.92 L 324.39,466.98 L 330.54,437.73 L 336.68,482.02 L 342.83,451.35 L 348.97,440.24 L 355.12,407.39 L 361.26,397.94 L 367.41,396.13 L 373.55,394.49 L 379.7,391.94 L 385.84,404.13 L 391.99,458.45 L 398.13,435.16 L 404.28,428.81 L 410.42,441.49 L 416.56,480.18 L 422.71,464.23 L 428.85,481.11 L 435,501 L 441.14,468.47 L 447.29,470.27 L 453.43,475.74 L 459.58,490.57 L 465.72,541.33 L 471.87,546.46 L 478.01,531.04 L 484.16,494.35 L 490.3,473.65 L 496.45,499.3 L 502.59,513.85 L 508.74,562.35 L 514.88,547.46 L 521.03,521.69 L 527.17,510.61 L 533.32,473.43 L 539.46,460.28 L 545.61,485.65 L 551.75,503.02 L 557.89,495.62 L 564.04,475.77 L 570.18,480.49 L 576.33,487.72 L 582.47,542.59 L 588.62,662.6 L 594.76,659.77 L 600.91,660.88 L 607.05,633.24 L 613.2,612.71 L 619.34,622.89 L 625.49,613.7 L 631.63,643.16 L 637.78,674.73 L 643.92,667.37 L 650.07,645.64 L 656.21,690 L 662.36,687.47 L 668.5,681.97 L 674.65,673.99 L 680.79,668.79 L 686.94,671.19 L 693.08,634.85 L 699.22,631.97 L 705.37,596.12 L 711.51,574.97 L 717.66,541.48 L 723.8,532.89 L 729.95,546.21 L 736.09,598.22 L 742.24,594.12 L 748.38,584.38 L 754.53,583.74 L 760.67,611.43 L 766.82,630.71 L 772.96,592.05 L 779.11,545.46 L 785.25,569.07 L 791.4,551.83 L 797.54,537.98 L 803.69,530.34 L 809.83,484.83 L 815.98,458.39 L 822.12,443.37 L 828.27,418.7 L 834.41,432.76 L 840.55,435.29 L 846.7,422.22 L 852.84,418.83 L 858.99,417.63 L 865.13,400.83 L 871.28,387.92 L 877.42,396.77" fill="none" stroke="rgba(203,17,240,1)" stroke-width="2" opacity="1" stroke-linecap="round"/><text x="6" y="646" text-anchor="start" fill="black" opacity="1" style="font: 14px Arial;">587</text><text x="6" y="533" text-anchor="start" fill="black" opacity="1" style="font: 14px Arial;">587.4</text><text x="6" y="420" text-anchor="start" fill="black" opacity="1" style="font: 14px Arial;">587.8</text><text x="6" y="307" text-anchor="start" fill="black" opacity="1" style="font: 14px Arial;">588.2</text><text x="6" y="194" text-anchor="start" fill="black" opacity="1" style="font: 14px Arial;">588.6</text><text x="6" y="81" text-anchor="start" fill="var(--blackrgb187187187)" opacity="1" style="font: 14px Arial;">589</text><text x="70" y="720" text-anchor="start" fill="var(--blackrgb187187187)" opacity="1" style="font: 12px Arial;">25 Dec</text><text x="70" y="735" text-anchor="start" fill="var(--blackrgb187187187)" opacity="1" style="font: 600 14px Arial;">2025</text><text x="170.77325740568364" y="730" text-anchor="middle" fill="var(--blackrgb187187187)" opacity="1" style="font: 12px Arial;">11:32 PM</text><text x="244.51068645166" y="730" text-anchor="middle" fill="var(--blackrgb187187187)" opacity="1" style="font: 12px Arial;">11:33 PM</text><text x="318.2481154976364" y="730" text-anchor="middle" fill="var(--blackrgb187187187)" opacity="1" style="font: 12px Arial;">11:34 PM</text><text x="391.9855445436128" y="730" text-anchor="middle" fill="var(--blackrgb187187187)" opacity="1" style="font: 12px Arial;">11:35 PM</text><text x="465.7229735895891" y="730" text-anchor="middle" fill="var(--blackrgb187187187)" opacity="1" style="font: 12px Arial;">11:36 PM</text><text x="539.4604026355655" y="730" text-anchor="middle" fill="var(--blackrgb187187187)" opacity="1" style="font: 12px Arial;">11:37 PM</text><text x="613.197831681542" y="730" text-anchor="middle" fill="var(--blackrgb187187187)" opacity="1" style="font: 12px Arial;">11:38 PM</text><text x="686.9352607275183" y="730" text-anchor="middle" fill="var(--blackrgb187187187)" opacity="1" style="font: 12px Arial;">11:39 PM</text><text x="760.6726897734947" y="730" text-anchor="middle" fill="var(--blackrgb187187187)" opacity="1" style="font: 12px Arial;">11:40 PM</text><text x="878" y="720" text-anchor="end" fill="var(--blackrgb187187187)" opacity="1" style="font: 12px Arial;">25 Dec</text><text x="878" y="735" text-anchor="end" fill="var(--blackrgb187187187)" opacity="1" style="font: 600 14px Arial;">2025</text></g></g></g><g data-selector="div.W_TimeChart_TopBar gap-0 relative f-1 m-auto  FlexRow flex-row ai-center"><g data-selector="div. PopupMenu_triggerWrapper h-fit w-fit" data-command="ChartLayerManager"><g data-selector="button. f-0 flex-row gap-p5 ai-center btn btn-default btn-size-default btn-color-action ws-nowrap w-fit"><g style="transform: translate(8.9px, 169.49px); color: var(--rgb63131248rgb91164255);"><svg viewBox="0 0 24 24" role="presentation" class=" f-0 " style="width: 22px; height: 22px; transform: scale(1.1);" width="22" height="22"><path d="M12,16L19.36,10.27L21,9L12,2L3,9L4.63,10.27M12,18.54L4.62,12.81L3,14.07L12,21.07L21,14.07L19.37,12.8L12,18.54Z" style="fill: currentcolor;"/></svg></g><g data-selector="svg.[object SVGAnimatedString]" role="presentation" style="clip-path: inset(169.494px 866.9px 706.306px 8.9px) view-box;"><rect x="8.9" y="169.49" width="24.2" height="24.2" fill="transparent"/></g><rect x="1" y="161.59375" width="40" height="40" rx="6" ry="6" fill="none" stroke-width="1px" stroke="rgba(0, 0, 0, 0)" style="animation: 0s ease 0s 1 normal none running none;"/></g></g><g data-selector="div.W_TimeChartLayerLegend flex-row gap-1 min-w-0 o-auto no-scroll-bar ScrollFade" style="clip-path: inset(160px 578.391px 696.812px 81px) view-box;"><g data-selector="div.W_TimeChartLayerLegend_Item gap-0 FlexRow flex-row ai-center"><g data-selector="div.w-fit m-p5 text-2 gap-p5 ai-center FlexRow flex-row" data-command="LayerColorPicker"><g data-selector="button.shadow b b-color f-0 flex-row gap-p5 ai-center rounded btn btn-default btn-size-micro btn-color-default ws-nowrap w-fit"><rect x="89.5" y="169.09375" width="25" height="25" rx="6" ry="6" fill="rgb(203, 17, 240)" stroke-width="1px" stroke="var(--rgb210214220rgb758599)" style="animation: 0s ease 0s 1 normal none running none; filter: drop-shadow(rgba(0, 0, 0, 0.1) 0px 1px 1.5px) drop-shadow(rgba(0, 0, 0, 0.06) 0px 1px 1px);"/></g></g><g data-selector="div. PopupMenu_triggerWrapper h-fit w-fit" data-command="TimeChartLayerOptions.yAxis"><g data-selector="div.gap-p5 font-14 FlexRow flex-row ai-center"><g data-selector="button. f-0 flex-row gap-p5 ai-center rounded btn btn-text btn-size-default btn-color-action ws-nowrap w-fit" data-command="TimeChartLayerOptions.aggFunc"><text x="214.59" y="187.59" fill="var(--rgb63131248rgb195221253)" font-family="var(--fontFamily-3551640753)" font-size="16px" font-weight="500" font-style="normal" letter-spacing="normal" text-decoration="none" text-anchor="start" style="line-height: 16px; white-space: nowrap; text-transform: none;">timestamp</text><g data-selector="div.gap-0 FlexRow flex-row ai-center"><g data-selector="span." style="opacity: 0.7;"><text x="124" y="187.59" fill="var(--rgb63131248rgb195221253)" font-family="var(--fontFamily-3551640753)" font-size="16px" font-weight="500" font-style="normal" letter-spacing="normal" text-decoration="none" text-anchor="start" style="line-height: 16px; white-space: nowrap; text-transform: none;">Avg(</text></g><g data-selector="strong."><text x="158.3" y="187.59" fill="var(--rgb63131248rgb195221253)" font-family="var(--fontFamily-3551640753)" font-size="16px" font-weight="700" font-style="normal" letter-spacing="normal" text-decoration="none" text-anchor="start" style="line-height: 16px; white-space: nowrap; text-transform: none;">price</text></g><g data-selector="span." style="opacity: 0.7;"><text x="196.88" y="187.59" fill="var(--rgb63131248rgb195221253)" font-family="var(--fontFamily-3551640753)" font-size="16px" font-weight="500" font-style="normal" letter-spacing="normal" text-decoration="none" text-anchor="start" style="line-height: 16px; white-space: nowrap; text-transform: none;">),</text></g></g><rect x="123" y="160" width="172.609375" height="43.1875" rx="8" ry="8" fill="none" stroke-width="1px" stroke="rgba(0, 0, 0, 0)" style="animation: 0s ease 0s 1 normal none running none;"/></g></g></g><g data-selector="button. f-0 flex-row gap-p5 ai-center btn btn-default btn-size-micro btn-color-default ws-nowrap w-fit"><g style="transform: translate(299.81px, 172.79px); color: var(--rgb758599rgb229231235);"><svg viewBox="0 0 24 24" role="presentation" class=" f-0 " style="width: 16px; height: 16px; transform: scale(1.1);" width="16" height="16"><path d="M19,6.41L17.59,5L12,10.59L6.41,5L5,6.41L10.59,12L5,17.59L6.41,19L12,13.41L17.59,19L19,17.59L13.41,12L19,6.41Z" style="fill: currentcolor;"/></svg></g><g data-selector="svg.[object SVGAnimatedString]" role="presentation" style="clip-path: inset(172.794px 582.591px 709.606px 299.809px) view-box;"><rect x="299.81" y="172.79" width="17.6" height="17.6" fill="transparent"/></g><rect x="295.609375" y="168.59375" width="26" height="26" rx="6" ry="6" fill="none" stroke-width="1px" stroke="rgba(0, 0, 0, 0)" style="animation: 0s ease 0s 1 normal none running none;"/></g></g></g></g><g data-selector="div.AddTimeChartFilter FlexRow flex-row gap-1 ai-center"><g data-selector="button. f-0 flex-row gap-p5 ai-center btn btn-default btn-size-default btn-color-default ws-nowrap w-fit" data-command="W_TimeChart.AddTimeChartFilter"><g style="transform: translate(866.9px, 167.9px); color: var(--rgb758599rgb229231235);"><svg viewBox="0 0 24 24" role="presentation" class=" f-0 " style="width: 22px; height: 22px; transform: scale(1.1);" width="22" height="22"><path d="M12 12V19.88C12.04 20.18 11.94 20.5 11.71 20.71C11.32 21.1 10.69 21.1 10.3 20.71L8.29 18.7C8.06 18.47 7.96 18.16 8 17.87V12H7.97L2.21 4.62C1.87 4.19 1.95 3.56 2.38 3.22C2.57 3.08 2.78 3 3 3H17C17.22 3 17.43 3.08 17.62 3.22C18.05 3.56 18.13 4.19 17.79 4.62L12.03 12H12M15 17H18V14H20V17H23V19H20V22H18V19H15V17Z" style="fill: currentcolor;"/></svg></g><g data-selector="svg.[object SVGAnimatedString]" role="presentation" style="clip-path: inset(167.9px 8.90002px 707.9px 866.9px) view-box;"><rect x="866.9" y="167.9" width="24.2" height="24.2" fill="transparent"/></g><rect x="859" y="160" width="40" height="40" rx="6" ry="6" fill="none" stroke-width="1px" stroke="rgba(0, 0, 0, 0)" style="animation: 0s ease 0s 1 normal none running none;"/></g></g></g></g></g></g></g></g></g></g></g></g></g></g></g></g></g></g></g></g><style xmlns="http://www.w3.org/1999/xhtml" type="text/css">:root #id-1b84f24a { 
  --dark-theme-hide: 1;
  --light-theme-hide: 0;
  --rgb244245247rgb262525: rgb(244, 245, 247); 
  --rgb210214220rgb000: rgb(210, 214, 220); 
  --rgb210214220rgb758599: rgb(210, 214, 220); 
  --rgb255255255rgb444444: rgb(255, 255, 255); 
  --rgb255255255rgb363636: rgb(255, 255, 255); 
  --rgb255255255rgb393939: rgb(255, 255, 255); 
  --rgb240254255rgb03755: rgb(240, 254, 255); 
  --rgba125125125022rgba125125125038: rgba(125, 125, 125, 0.22); 
  --rgb758599rgb229231235: rgb(75, 85, 99); 
  --fontFamily-3551640753: -apple-system, BlinkMacSystemFont, "Segoe UI", Roboto, Oxygen, Ubuntu, Cantarell, "Fira Sans", "Droid Sans", "Helvetica Neue", sans-serif; 
  --rgb225239254rgba07916308: rgb(225, 239, 254); 
  --rgb63131248rgb255255255: rgb(63, 131, 248); 
  --rgb63131248rgb82146215: rgb(63, 131, 248); 
  --rgb63131248rgb91164255: rgb(63, 131, 248); 
  --rgb63131248rgb195221253: rgb(63, 131, 248); 
  --rgb249250251rgb333333: rgb(249, 250, 251); 
  --rgb229231235rgb444444: rgb(229, 231, 235); 
  --rgb229231235rgb758599: rgb(229, 231, 235); 
  --rgb223046rgb244245247: rgb(22, 30, 46); 
  --rgb71157255rgb71157255: rgb(71, 157, 255); 
  --blackrgb187187187: black; 
}
@media (prefers-color-scheme: dark) { 
 :root #id-1b84f24a  { 
  --dark-theme-hide: 0;
  --light-theme-hide: 1;
  --rgb244245247rgb262525: rgb(26, 25, 25); 
  --rgb210214220rgb000: rgb(0, 0, 0); 
  --rgb210214220rgb758599: rgb(75, 85, 99); 
  --rgb255255255rgb444444: rgb(44, 44, 44); 
  --rgb255255255rgb363636: rgb(36, 36, 36); 
  --rgb255255255rgb393939: rgb(39, 39, 39); 
  --rgb240254255rgb03755: rgb(0, 37, 55); 
  --rgba125125125022rgba125125125038: rgba(125, 125, 125, 0.38); 
  --rgb758599rgb229231235: rgb(229, 231, 235); 
  --rgb225239254rgba07916308: rgba(0, 79, 163, 0.8); 
  --rgb63131248rgb255255255: rgb(255, 255, 255); 
  --rgb63131248rgb82146215: rgb(82, 146, 215); 
  --rgb63131248rgb91164255: rgb(91, 164, 255); 
  --rgb63131248rgb195221253: rgb(195, 221, 253); 
  --rgb249250251rgb333333: rgb(33, 33, 33); 
  --rgb229231235rgb444444: rgb(44, 44, 44); 
  --rgb229231235rgb758599: rgb(75, 85, 99); 
  --rgb223046rgb244245247: rgb(244, 245, 247); 
  --blackrgb187187187: rgb(187, 187, 187); 
  }
} 
</style></svg>