<svg xmlns="http://www.w3.org/2000/svg" width="100%" height="100%" viewBox="0 0 900 600" preserveAspectRatio="xMidYMid meet"><defs><style type="text/css"/></defs><rect width="100%" height="100%" fill="rgb(244, 245, 247)"/><g clip-path="url(#clip-of-17)"><path d="M0,0 H900 V600 H0 V0 Z" fill="var(--color-0)"/><g><path d="M0,0 H900 V600 H0 V0 Z" fill="var(--color-1)"/><g><g clip-path="url(#clip-of-6)"><g><path d="M0,0 H900 V58 H0 V0 Z" fill="var(--color-2)" style="filter: drop-shadow(rgba(0, 0, 0, 0.1) 0px 1px 1.5px) drop-shadow(rgba(0, 0, 0, 0.06) 0px 1px 1px);"/><g><g data-command="dashboard.menu"><path d="M12.5,8.5 H45.5 A4,4 0 0 1 49.5,12.5 V45.5 A4,4 0 0 1 45.5,49.5 H12.5 A4,4 0 0 1 8.5,45.5 V12.5 A4,4 0 0 1 12.5,8.5 Z" fill="var(--color-3)" stroke-width="1px" stroke="var(--color-4)"/><svg xmlns:dc="http://purl.org/dc/elements/1.1/" xmlns:cc="http://creativecommons.org/ns#" xmlns:rdf="http://www.w3.org/1999/02/22-rdf-syntax-ns#" xmlns:svg="http://www.w3.org/2000/svg" xmlns="http://www.w3.org/2000/svg" id="svg8" version="1.1" viewBox="0 0 9.5249998 9.5250003" height="36" width="36" x="11" y="11">
  <style>
    @media (prefers-color-scheme: dark) {
      <!-- #path3881-head {
        fill: green !important;
      }
  
      #path3887-eye {
        fill: #ff0000 !important;
      }       -->
    }
  </style>
  <g transform="translate(0,-287.47498)" id="layer1">
    <path style="fill:#0087ab;stroke-width:0.10478402" id="path3881-head" d="m 6.5209966,295.25712 c 0.2175402,-0.46431 1.6420322,-2.2511 1.3456182,-4.2915 -0.085217,-0.58659 -2.1619067,-1.59449 -2.2268491,-1.64218 -0.01022,-0.008 -0.1325362,-0.0996 -0.1694292,-0.13795 -0.197562,-0.2055 -0.499117,-0.62298 -0.8304557,-0.82041 -0.1525898,-0.0909 -0.7394033,-0.0609 -1.0268278,0.11432 l -1.879837,1.08657 c -0.4703536,0.4665 0.1139504,1.07392 0.2268207,1.30469 0.1128704,0.23077 0.803662,0.95627 0.803662,0.95627 v 0 c -0.1433145,0.0653 -0.3911698,-0.0575 -0.6915708,-0.27496 0,0 -0.8432496,-0.80366 -0.8823501,-0.87005 -0.039101,-0.0664 -0.1564018,-0.20484 -0.23460266,-0.47082 0,0 -0.0384912,-0.0917 -0.0544209,-0.51555 -0.0159297,-0.42388 0.69813926,-0.64516 0.80535536,-0.72619 0.107216,-0.081 1.4441719,-0.86378 1.8275182,-1.11029 0.3833462,-0.24651 0.8880668,-0.20266 1.1387453,-0.0444 l 2.8538119,1.69411 c 0.2716598,0.15804 1.3866918,1.14066 1.421482,1.86382 0.081505,1.69417 -1.2190224,2.93746 -1.8472163,4.27428 -0.6281939,1.33683 1.1838142,0.58699 1.2737198,0.43944 l 0.259057,0.27303 c -0.8972105,0.56378 -1.9304095,0.39775 -2.0611443,0.33679 -0.1307347,-0.0609 -0.2768897,-0.88205 -0.051087,-1.439 z"/>
    <path style="fill: #bc0000;fill-opacity:1;fill-rule:evenodd;stroke-width:0.07858816;stroke-miterlimit:4;stroke-dasharray:none;stroke-opacity:0.60294118;" id="path3887-eye" d="m 6.2908378,290.63597 c 0.030281,-0.0145 0.067771,-0.0145 0.09805,0 0.9624569,0.37529 0.8624334,0.39198 0.8624334,1.21858 0,0.0285 -0.018608,0.0549 -0.049026,0.0694 -0.9558494,-0.4203 -0.9974496,-0.45611 -0.9114585,-1.28795 z"/>
  </g>
</svg></g><g data-command="dashboard.goToConnConfig" clip-path="url(#clip-of-0)"><path d="M72,9 H100 A6,6 0 0 1 106,15 V43 A6,6 0 0 1 100,49 H72 A6,6 0 0 1 66,43 V15 A6,6 0 0 1 72,9 Z" fill="var(--color-5)" stroke-width="1px" stroke="rgba(0, 0, 0, 0)"/><g style="transform: translate(73.9px, 16.9px); color: rgb(75, 85, 99);"><svg viewBox="0 0 24 24" role="presentation" class=" f-0 " style="width: 22px; height: 22px; transform: scale(1.1);" width="22" height="22"><path d="M4 7C4 4.79 7.58 3 12 3S20 4.79 20 7 16.42 11 12 11 4 9.21 4 7M12.08 18L12 18C7.58 18 4 16.21 4 14V17C4 19.21 7.58 21 12 21C12.1 21 12.2 21 12.29 21C12.11 20.36 12 19.69 12 19C12 18.66 12.03 18.33 12.08 18M20 12.08C20 12.05 20 12.03 20 12V9C20 11.21 16.42 13 12 13S4 11.21 4 9V12C4 14.21 7.58 16 12 16C12.23 16 12.46 16 12.69 16C13.82 13.63 16.22 12 19 12C19.34 12 19.67 12.03 20 12.08M23.8 20.4C23.9 20.4 23.9 20.5 23.8 20.6L22.8 22.3C22.7 22.4 22.6 22.4 22.5 22.4L21.3 22C21 22.2 20.8 22.3 20.5 22.5L20.3 23.8C20.3 23.9 20.2 24 20.1 24H18.1C18 24 17.9 23.9 17.8 23.8L17.6 22.5C17.3 22.4 17 22.2 16.8 22L15.6 22.5C15.5 22.5 15.4 22.5 15.3 22.4L14.3 20.7C14.2 20.6 14.3 20.5 14.4 20.4L15.5 19.6V18.6L14.4 17.8C14.3 17.7 14.3 17.6 14.3 17.5L15.3 15.8C15.4 15.7 15.5 15.7 15.6 15.7L16.8 16.2C17.1 16 17.3 15.9 17.6 15.7L17.8 14.4C17.8 14.3 17.9 14.2 18.1 14.2H20.1C20.2 14.2 20.3 14.3 20.3 14.4L20.5 15.7C20.8 15.8 21.1 16 21.4 16.2L22.6 15.7C22.7 15.7 22.9 15.7 22.9 15.8L23.9 17.5C24 17.6 23.9 17.7 23.8 17.8L22.7 18.6V19.6L23.8 20.4M20.5 19C20.5 18.2 19.8 17.5 19 17.5S17.5 18.2 17.5 19 18.2 20.5 19 20.5 20.5 19.8 20.5 19Z" style="fill: currentcolor;"/></svg></g><clipPath id="clip-of-0"><path d="M71,8 H101 A6,6 0 0 1 107,14 V44 A6,6 0 0 1 101,50 H71 A6,6 0 0 1 65,44 V14 A6,6 0 0 1 71,8 Z" fill="none" stroke="none"/></clipPath></g><g data-command="ConnectionSelector"><path d="M130,9 H218.2 A8,8 0 0 1 226.2,17 V41 A8,8 0 0 1 218.2,49 H130 A8,8 0 0 1 122,41 V17 A8,8 0 0 1 130,9 Z" fill="var(--color-5)" stroke-width="1px" stroke="rgba(0, 0, 0, 0)"/><g style="transform: translate(133.9px, 16.9px); color: rgb(75, 85, 99);"><svg viewBox="0 0 24 24" role="presentation" class=" f-0 " style="width: 22px; height: 22px; transform: scale(1.1);" width="22" height="22"><path d="M12,3C7.58,3 4,4.79 4,7C4,9.21 7.58,11 12,11C16.42,11 20,9.21 20,7C20,4.79 16.42,3 12,3M4,9V12C4,14.21 7.58,16 12,16C16.42,16 20,14.21 20,12V9C20,11.21 16.42,13 12,13C7.58,13 4,11.21 4,9M4,14V17C4,19.21 7.58,21 12,21C16.42,21 20,19.21 20,17V14C20,16.21 16.42,18 12,18C7.58,18 4,16.21 4,14Z" style="fill: currentcolor;"/></svg></g><g clip-path="url(#clip-of-1)"><text x="165" y="34" fill="var(--color-6)" font-family="var(--fontFamily-7)" font-size="16px" font-weight="500" font-style="normal" letter-spacing="normal" text-decoration="none solid rgb(75, 85, 99)" text-anchor="start" style="line-height: 18px; white-space: nowrap; text-transform: none;">crypto</text><clipPath id="clip-of-1"><path d="M165,20 H213.2 V38 H165 V20 Z" fill="none" stroke="none"/></clipPath></g></g></g><g clip-path="url(#clip-of-3)"><g data-command="WorkspaceMenu.list" clip-path="url(#clip-of-2)"><path d="M382.27,5 H534.92 V58 H382.27 V5 Z" fill="none"/><g><path d="M382.27,5 H534.92 V58 H382.27 V5 Z" fill="none" stroke="none"/><line x1="382.265625" y1="5.5" x2="534.921875" y2="5.5" stroke="rgba(0, 0, 0, 0)" stroke-width="1"/><line x1="534.421875" y1="5" x2="534.421875" y2="58" stroke="rgba(0, 0, 0, 0)" stroke-width="1"/><line x1="382.265625" y1="56" x2="534.921875" y2="56" stroke="var(--color-8)" stroke-width="4"/><line x1="382.765625" y1="5" x2="382.765625" y2="58" stroke="rgba(0, 0, 0, 0)" stroke-width="1"/><text x="399.27" y="35" fill="var(--color-6)" font-family="var(--fontFamily-7)" font-size="16px" font-weight="600" font-style="normal" letter-spacing="normal" text-decoration="none solid rgb(75, 85, 99)" text-anchor="start" style="line-height: 16px; white-space: nowrap; text-transform: none;">Crypto markets</text></g><clipPath id="clip-of-2"><path d="M382.27,5 H534.92 V58 H382.27 V5 Z" fill="none" stroke="none"/></clipPath></g><g data-command="WorkspaceMenuDropDown"><path d="M541.92,7.5 H577.92 A6,6 0 0 1 583.92,13.5 V49.5 A6,6 0 0 1 577.92,55.5 H541.92 A6,6 0 0 1 535.92,49.5 V13.5 A6,6 0 0 1 541.92,7.5 Z" fill="none" stroke-width="1px" stroke="rgba(0, 0, 0, 0)"/><g style="transform: translate(547.82px, 19.4px); color: rgb(75, 85, 99);"><svg viewBox="0 0 24 24" role="presentation" class=" f-0 " style="width: 22px; height: 22px; transform: scale(1.1);" width="22" height="22"><path d="M7.41,8.58L12,13.17L16.59,8.58L18,10L12,16L6,10L7.41,8.58Z" style="fill: currentcolor;"/></svg></g></g><clipPath id="clip-of-3"><path d="M250.2,5 H716 V58 H250.2 V5 Z" fill="none" stroke="none"/></clipPath></g><g clip-path="url(#clip-of-5)"><g data-command="AskLLM"><path d="M746,9 H774 A6,6 0 0 1 780,15 V43 A6,6 0 0 1 774,49 H746 A6,6 0 0 1 740,43 V15 A6,6 0 0 1 746,9 Z" fill="var(--color-9)" stroke-width="1px" stroke="rgba(0, 0, 0, 0)"/><g style="transform: translate(747.9px, 16.9px); color: rgb(63, 131, 248);"><svg viewBox="0 0 24 24" role="presentation" class=" f-0 " style="width: 22px; height: 22px; transform: scale(1.1);" width="22" height="22"><path d="M19,2H5A2,2 0 0,0 3,4V18A2,2 0 0,0 5,20H9L12,23L15,20H19A2,2 0 0,0 21,18V4A2,2 0 0,0 19,2M13.88,12.88L12,17L10.12,12.88L6,11L10.12,9.12L12,5L13.88,9.12L18,11" style="fill: currentcolor;"/></svg></g></g><g data-command="Feedback"><path d="M802,9 H830 A6,6 0 0 1 836,15 V43 A6,6 0 0 1 830,49 H802 A6,6 0 0 1 796,43 V15 A6,6 0 0 1 802,9 Z" fill="var(--color-5)" stroke-width="1px" stroke="rgba(0, 0, 0, 0)"/><g style="transform: translate(803.9px, 16.9px); color: rgb(75, 85, 99);"><svg viewBox="0 0 24 24" role="presentation" class=" f-0 " style="width: 22px; height: 22px; transform: scale(1.1);" width="22" height="22"><path d="M20 2H4C2.9 2 2 2.9 2 4V22L6 18H20C21.1 18 22 17.1 22 16V4C22 2.9 21.1 2 20 2M20 16H5.2L4 17.2V4H20V16M18 14V6H13V14L15.5 12.5L18 14" style="fill: currentcolor;"/></svg></g></g><g data-command="dashboard.goToConnections" clip-path="url(#clip-of-4)"><path d="M858,9 H886 A6,6 0 0 1 892,15 V43 A6,6 0 0 1 886,49 H858 A6,6 0 0 1 852,43 V15 A6,6 0 0 1 858,9 Z" fill="var(--color-5)" stroke-width="1px" stroke="rgba(0, 0, 0, 0)"/><g style="transform: translate(859.9px, 16.9px); color: rgb(75, 85, 99);"><svg viewBox="0 0 24 24" role="presentation" class=" f-0 " style="width: 22px; height: 22px; transform: scale(1.1);" width="22" height="22"><path d="M20,11V13H8L13.5,18.5L12.08,19.92L4.16,12L12.08,4.08L13.5,5.5L8,11H20Z" style="fill: currentcolor;"/></svg></g><clipPath id="clip-of-4"><path d="M857,8 H887 A6,6 0 0 1 893,14 V44 A6,6 0 0 1 887,50 H857 A6,6 0 0 1 851,44 V14 A6,6 0 0 1 857,8 Z" fill="none" stroke="none"/></clipPath></g><clipPath id="clip-of-5"><path d="M732,1 H900 V57 H732 V1 Z" fill="none" stroke="none"/></clipPath></g></g><clipPath id="clip-of-6"><path d="M0,0 H900 V58 H0 V0 Z" fill="none" stroke="none"/></clipPath></g><g clip-path="url(#clip-of-16)"><path d="M1,60 H899 V600 H1 V60 Z" fill="var(--color-10)"/><g><path d="M1,60 H899 V103 H1 V60 Z" fill="var(--color-2)" stroke="none" style="filter: drop-shadow(rgba(0, 0, 0, 0.1) 0px 1px 1.5px) drop-shadow(rgba(0, 0, 0, 0.06) 0px 1px 1px);"/><line x1="1" y1="102.5" x2="899" y2="102.5" stroke="var(--color-11)" stroke-width="1"/><g clip-path="url(#clip-of-7)"><g data-command="dashboard.window.menu"><path d="M7,61 H35 A6,6 0 0 1 41,67 V95 A6,6 0 0 1 35,101 H7 A6,6 0 0 1 1,95 V67 A6,6 0 0 1 7,61 Z" fill="none" stroke-width="1px" stroke="rgba(0, 0, 0, 0)"/><g style="transform: translate(8.9px, 68.9px); color: rgb(75, 85, 99);"><svg viewBox="0 0 24 24" role="presentation" class=" f-0 " style="width: 22px; height: 22px; transform: scale(1.1);" width="22" height="22"><path d="M12,16A2,2 0 0,1 14,18A2,2 0 0,1 12,20A2,2 0 0,1 10,18A2,2 0 0,1 12,16M12,10A2,2 0 0,1 14,12A2,2 0 0,1 12,14A2,2 0 0,1 10,12A2,2 0 0,1 12,10M12,4A2,2 0 0,1 14,6A2,2 0 0,1 12,8A2,2 0 0,1 10,6A2,2 0 0,1 12,4Z" style="fill: currentcolor;"/></svg></g></g><clipPath id="clip-of-7"><path d="M1,61 H43 V101 H1 V61 Z" fill="none" stroke="none"/></clipPath></g><g clip-path="url(#clip-of-12)"><g><path d="M47,62 H234.19 V102 H47 V62 Z" fill="var(--color-12)"/><g clip-path="url(#clip-of-8)"><text x="55" y="87" fill="var(--color-13)" font-family="var(--fontFamily-7)" font-size="16px" font-weight="400" font-style="normal" letter-spacing="normal" text-decoration="none solid rgb(22, 30, 46)" text-anchor="start" style="line-height: 26px; white-space: nowrap; text-transform: none;">futures (timestamp)</text><clipPath id="clip-of-8"><path d="M55,61 H200.19 V103 H55 V61 Z" fill="none" stroke="none"/></clipPath></g></g><g><path d="M235.19,65 H373.2 V102 H235.19 V65 Z" fill="var(--color-14)"/><g clip-path="url(#clip-of-9)"><text x="255.19" y="88" fill="var(--color-13)" font-family="var(--fontFamily-7)" font-size="16px" font-weight="400" font-style="normal" letter-spacing="normal" text-decoration="none solid rgb(22, 30, 46)" text-anchor="start" style="line-height: 21px; white-space: nowrap; text-transform: none;">futures 840</text><clipPath id="clip-of-9"><path d="M243.19,65 H339.2 V102 H243.19 V65 Z" fill="none" stroke="none"/></clipPath></g><g><path d="M349.2,70.5 H363.2 A6,6 0 0 1 369.2,76.5 V90.5 A6,6 0 0 1 363.2,96.5 H349.2 A6,6 0 0 1 343.2,90.5 V76.5 A6,6 0 0 1 349.2,70.5 Z" fill="none" stroke-width="1px" stroke="rgba(0, 0, 0, 0)"/><g style="transform: translate(347.4px, 74.7px); color: rgb(75, 85, 99);"><svg viewBox="0 0 24 24" role="presentation" class=" f-0 " style="width: 16px; height: 16px; transform: scale(1.1);" width="16" height="16"><path d="M19,6.41L17.59,5L12,10.59L6.41,5L5,6.41L10.59,12L5,17.59L6.41,19L12,13.41L17.59,19L19,17.59L13.41,12L19,6.41Z" style="fill: currentcolor;"/></svg></g></g></g><g><path d="M374.2,65 H508.7 V102 H374.2 V65 Z" fill="var(--color-14)"/><g clip-path="url(#clip-of-10)"><text x="394.2" y="88" fill="var(--color-13)" font-family="var(--fontFamily-7)" font-size="16px" font-weight="400" font-style="normal" letter-spacing="normal" text-decoration="none solid rgb(22, 30, 46)" text-anchor="start" style="line-height: 21px; white-space: nowrap; text-transform: none;">markets 60</text><clipPath id="clip-of-10"><path d="M382.2,65 H474.7 V102 H382.2 V65 Z" fill="none" stroke="none"/></clipPath></g></g><g><path d="M509.7,65 H655.55 V102 H509.7 V65 Z" fill="var(--color-14)"/><g clip-path="url(#clip-of-11)"><text x="529.7" y="88" fill="var(--color-13)" font-family="var(--fontFamily-7)" font-size="16px" font-weight="400" font-style="normal" letter-spacing="normal" text-decoration="none solid rgb(22, 30, 46)" text-anchor="start" style="line-height: 21px; white-space: nowrap; text-transform: none;">market_caps</text><clipPath id="clip-of-11"><path d="M517.7,65 H621.55 V102 H517.7 V65 Z" fill="none" stroke="none"/></clipPath></g></g><clipPath id="clip-of-12"><path d="M47,60 H779 V102 H47 V60 Z" fill="none" stroke="none"/></clipPath></g><g data-command="dashboard.window.collapse"><path d="M785,61 H813 A6,6 0 0 1 819,67 V95 A6,6 0 0 1 813,101 H785 A6,6 0 0 1 779,95 V67 A6,6 0 0 1 785,61 Z" fill="none" stroke-width="1px" stroke="rgba(0, 0, 0, 0)"/><g style="transform: translate(786.9px, 68.9px); color: rgb(75, 85, 99);"><svg viewBox="0 0 24 24" role="presentation" class=" f-0 " style="width: 22px; height: 22px; transform: scale(1.1);" width="22" height="22"><path d="M16.59,5.41L15.17,4L12,7.17L8.83,4L7.41,5.41L12,10M7.41,18.59L8.83,20L12,16.83L15.17,20L16.58,18.59L12,14L7.41,18.59Z" style="fill: currentcolor;"/></svg></g></g><g data-command="dashboard.window.fullscreen"><path d="M825,61 H853 A6,6 0 0 1 859,67 V95 A6,6 0 0 1 853,101 H825 A6,6 0 0 1 819,95 V67 A6,6 0 0 1 825,61 Z" fill="none" stroke-width="1px" stroke="rgba(0, 0, 0, 0)"/><g style="transform: translate(826.9px, 68.9px); color: rgb(75, 85, 99);"><svg viewBox="0 0 24 24" role="presentation" class=" f-0 " style="width: 22px; height: 22px; transform: scale(1.1);" width="22" height="22"><path d="M5,5H10V7H7V10H5V5M14,5H19V10H17V7H14V5M17,14H19V19H14V17H17V14M10,17V19H5V14H7V17H10Z" style="fill: currentcolor;"/></svg></g></g><g data-command="dashboard.window.close"><path d="M865,61 H893 A6,6 0 0 1 899,67 V95 A6,6 0 0 1 893,101 H865 A6,6 0 0 1 859,95 V67 A6,6 0 0 1 865,61 Z" fill="none" stroke-width="1px" stroke="rgba(0, 0, 0, 0)"/><g style="transform: translate(866.9px, 68.9px); color: rgb(75, 85, 99);"><svg viewBox="0 0 24 24" role="presentation" class=" f-0 " style="width: 22px; height: 22px; transform: scale(1.1);" width="22" height="22"><path d="M19,6.41L17.59,5L12,10.59L6.41,5L5,6.41L10.59,12L5,17.59L6.41,19L12,13.41L17.59,19L19,17.59L13.41,12L19,6.41Z" style="fill: currentcolor;"/></svg></g></g></g><g data-command="W_TimeChart"><path d="M1,104 H899 V600 H1 V104 Z" fill="var(--color-15)"/><g clip-path="url(#clip-of-14)"><g transform="translate(1, 104)" clip-path="url(#clip-of-13)"><g transform="translate(0, 0) scale(1)"><path d="M 70,71.85364209673304 L 74.20897136038185,72.69097133767973 L 79.47150119331742,77.5540511109572 L 84.73403102625298,99.1707836825134 L 89.99656085918855,127.44122425010138 L 95.2590906921241,149.6755889539583 L 100.52162052505966,148.1206796808159 L 105.78415035799523,151.0034399306021 L 111.04668019093077,152.32909691702864 L 116.30921002386636,153.06081262847238 L 121.57173985680191,153.06081262847238 L 126.83426968973745,153.06081262847238 L 132.09679952267305,153.06081262847238 L 137.3593293556086,153.06081262847238 L 142.62185918854416,153.06081262847238 L 147.8843890214797,152.35483602420152 L 153.14691885441528,151.3943250546278 L 158.40944868735085,150.55494636104555 L 163.67197852028642,152.11831701338392 L 168.93450835322196,153.06081262847238 L 174.1970381861575,153.20135752817714 L 179.45956801909307,153.2482058280446 L 184.72209785202867,153.06081262847238 L 189.9846276849642,154.8094213367827 L 195.24715751789975,155.18356140740872 L 200.50968735083532,156.15341158554045 L 205.7722171837709,160.82993006325563 L 211.03474701670643,164.6173132190841 L 216.297276849642,230.77758976421524 L 221.55980668257757,241.83853255686316 L 226.82233651551311,246.62803121445182 L 232.08486634844866,246.99165391202325 L 237.34739618138425,248.613619569485 L 242.60992601431983,259.3596050835187 L 247.87245584725537,263.15431737476285 L 253.13498568019097,262.6768294439434 L 258.39751551312645,262.50746575169103 L 263.6600453460621,263.9041332501223 L 268.9225751789976,263.388285992265 L 274.18510501193316,264.27366205196046 L 279.44763484486873,263.0498307822981 L 284.7101646778043,263.15431737476285 L 289.9726945107398,262.85810343100235 L 295.23522434367544,239.58962252907298 L 300.497754176611,126.40412998992565 L 305.7602840095465,119.37688500611988 L 311.0228138424821,118.06513260914824 L 316.28534367541766,122.81881735773082 L 321.5478735083532,118.06496052596077 L 326.81040334128875,112.41770276902085 L 332.0729331742244,168.25608340156248 L 337.33546300715994,218.1738665592919 L 342.59799284009546,170.16044208907323 L 347.860522673031,138.26004061368857 L 353.1230525059666,117.97143600934507 L 358.38558233890217,118.01828430924664 L 363.64811217183774,145.36481294224782 L 368.91064200477325,177.2275980015864 L 374.1731718377088,140.64601315710945 L 379.4357016706444,140.64601315710945 L 384.69823150357996,140.36492335773403 L 389.9607613365155,105.91241978624979 L 395.22329116945104,65.2687813701919 L 400.4858210023867,60 L 405.74835083532224,149.6277532792825 L 411.01088066825776,171.6185090817878 L 416.2734105011933,160.0784647670225 L 421.5359403341289,160.6460642080492 L 426.79847016706447,166.3950212101165 L 432.061,171.8226569012049 L 437.32352983293555,172.93104355023777 L 442.5860596658711,176.52400097232993 L 447.8485894988067,187.53241565686426 L 453.11111933174226,223.78933685466149 L 458.3736491646778,245.37736198267356 L 463.63617899761334,252.33396892655293 L 468.89870883054897,254.86280080682388 L 474.16123866348454,250.35537302226783 L 479.42376849642005,249.18883087075272 L 484.6862983293556,247.92628368354613 L 489.9488281622912,290.10503314999124 L 495.2113579952267,321.2052058941993 L 500.4738878281623,344.715685198146 L 505.73641766109785,346.4293048226908 L 510.9989474940334,340.9224951955741" fill="none" stroke="#009aad" stroke-width="2" opacity="1" stroke-linecap="round"/><path d="M 70,164.01026602327724 L 74.20897136038185,168.59588540177305 L 79.47150119331742,172.6560612091487 L 84.73403102625298,180.07403400976492 L 89.99656085918855,202.21883555340787 L 95.2590906921241,219.43417691355285 L 100.52162052505966,222.70985475869168 L 105.78415035799523,230.88018316067584 L 111.04668019093077,236.849560523602 L 116.30921002386636,240.6053615726609 L 121.57173985680191,241.96235991714164 L 126.83426968973745,244.56266461781695 L 132.09679952267305,246.73396789296018 L 137.3593293556086,246.89795731225416 L 142.62185918854416,246.85110901235257 L 147.8843890214797,246.89795731225416 L 153.14691885441528,246.85110901235257 L 158.40944868735085,246.85110901235257 L 163.67197852028642,246.804260712451 L 168.93450835322196,246.804260712451 L 174.1970381861575,246.89795731225416 L 179.45956801909307,246.89795731225416 L 184.72209785202867,246.94480561212166 L 189.9846276849642,246.99165391202325 L 195.24715751789975,246.89795731225416 L 200.50968735083532,246.85110901235257 L 205.7722171837709,246.85110901235257 L 211.03474701670643,254.04145397700398 L 216.297276849642,296.8468270669247 L 221.55980668257757,308.71681136036653 L 226.82233651551311,316.78205851035005 L 232.08486634844866,319.62005383223163 L 237.34739618138425,323.38632456746444 L 242.60992601431983,334.44655624979373 L 247.87245584725537,339.20731829608417 L 253.13498568019097,340.05411969521816 L 258.39751551312645,343.25745859794847 L 263.6600453460621,346.9959155865616 L 268.9225751789976,350.04155071584074 L 274.18510501193316,352.25978376943925 L 279.44763484486873,352.3066320693408 L 284.7101646778043,352.25586277286203 L 289.9726945107398,352.3066320693408 L 295.23522434367544,351.42429526497716 L 300.497754176611,263.4822554740058 L 305.7602840095465,248.02231650965354 L 311.0228138424821,229.9388727513239 L 316.28534367541766,229.9388727513239 L 321.5478735083532,229.9388727513239 L 326.81040334128875,229.37149231672288 L 332.0729331742244,285.3091431896816 L 337.33546300715994,315.18875461462915 L 342.59799284009546,269.2827653150386 L 347.860522673031,247.70212207834496 L 353.1230525059666,230.8289904492836 L 358.38558233890217,230.75713602134698 L 363.64811217183774,262.37335961208277 L 368.91064200477325,290.34560700768617 L 374.1731718377088,264.1093301575676 L 379.4357016706444,262.1950305372373 L 384.69823150357996,261.2265777314457 L 389.9607613365155,228.22181466304792 L 395.22329116945104,190.72684574167545 L 400.4858210023867,196.1033671173354 L 405.74835083532224,244.70896289629275 L 411.01088066825776,270.38986134964154 L 416.2734105011933,279.5564231775647 L 421.5359403341289,279.91973174323584 L 426.79847016706447,279.20448041705095 L 432.061,279.9260087361209 L 437.32352983293555,279.50437403710885 L 442.5860596658711,279.36382913743824 L 447.8485894988067,285.67871517160347 L 453.11111933174226,307.094074518967 L 458.3736491646778,334.74152401001675 L 463.63617899761334,342.4100984578887 L 468.89870883054897,346.2685991272492 L 474.16123866348454,346.70396580316327 L 479.42376849642005,347.10144751919614 L 484.6862983293556,352.1904103572206 L 489.9488281622912,399.2659013278854 L 495.2113579952267,413.2094219289909 L 500.4738878281623,443.61396855891434 L 505.73641766109785,446 L 510.9989474940334,431.1054724877483" fill="none" stroke="#4b4b4b" stroke-width="2" opacity="1" stroke-linecap="round"/><text x="6" y="434" text-anchor="start" font-family="Arial" font-size="14px" font-weight="normal" fill="var(--color-16)" opacity="1">110,420</text><text x="6" y="364" text-anchor="start" font-family="Arial" font-size="14px" font-weight="normal" fill="var(--color-16)" opacity="1">110,450</text><text x="6" y="294" text-anchor="start" font-family="Arial" font-size="14px" font-weight="normal" fill="var(--color-16)" opacity="1">110,480</text><text x="6" y="224" text-anchor="start" font-family="Arial" font-size="14px" font-weight="normal" fill="var(--color-16)" opacity="1">110,510</text><text x="6" y="153" text-anchor="start" font-family="Arial" font-size="14px" font-weight="normal" fill="var(--color-16)" opacity="1">110,540</text><text x="6" y="83" text-anchor="start" font-family="Arial" font-size="14px" font-weight="normal" fill="var(--color-16)" opacity="1">110,570</text><text x="70" y="476" text-anchor="start" font-family="Arial" font-size="12px" font-weight="normal" fill="var(--color-16)" opacity="1">20 Oct</text><text x="70" y="491" text-anchor="start" font-family="Arial" font-size="14px" font-weight="600" fill="var(--color-16)" opacity="1">2025</text><text x="174.1970381861575" y="486" text-anchor="middle" font-family="Arial" font-size="12px" font-weight="normal" fill="var(--color-16)" opacity="1">10:57 PM</text><text x="300.497754176611" y="486" text-anchor="middle" font-family="Arial" font-size="12px" font-weight="normal" fill="var(--color-16)" opacity="1">10:59 PM</text><text x="426.79847016706447" y="486" text-anchor="middle" font-family="Arial" font-size="12px" font-weight="normal" fill="black" opacity="1">11:01 PM</text><text x="511" y="476" text-anchor="end" font-family="Arial" font-size="12px" font-weight="normal" fill="var(--color-16)" opacity="1">20 Oct</text><text x="511" y="491" text-anchor="end" font-family="Arial" font-size="14px" font-weight="600" fill="var(--color-16)" opacity="1">2025</text></g><clipPath id="clip-of-13"><path d="M1,104 H899 V600 H1 V104 Z" fill="none" stroke="none" transform="translate(-1, -104)"/></clipPath></g><clipPath id="clip-of-14"><path d="M1,104 H899 V600 H1 V104 Z" fill="none" stroke="none"/></clipPath></g><g data-command="W_TimeChart.AddTimeChartFilter"><path d="M865,104 H893 A6,6 0 0 1 899,110 V138 A6,6 0 0 1 893,144 H865 A6,6 0 0 1 859,138 V110 A6,6 0 0 1 865,104 Z" fill="none" stroke-width="1px" stroke="rgba(0, 0, 0, 0)"/><g style="transform: translate(866.9px, 111.9px); color: rgb(75, 85, 99);"><svg viewBox="0 0 24 24" role="presentation" class=" f-0 " style="width: 22px; height: 22px; transform: scale(1.1);" width="22" height="22"><path d="M12 12V19.88C12.04 20.18 11.94 20.5 11.71 20.71C11.32 21.1 10.69 21.1 10.3 20.71L8.29 18.7C8.06 18.47 7.96 18.16 8 17.87V12H7.97L2.21 4.62C1.87 4.19 1.95 3.56 2.38 3.22C2.57 3.08 2.78 3 3 3H17C17.22 3 17.43 3.08 17.62 3.22C18.05 3.56 18.13 4.19 17.79 4.62L12.03 12H12M15 17H18V14H20V17H23V19H20V22H18V19H15V17Z" style="fill: currentcolor;"/></svg></g></g><g><g data-command="ChartLayerManager"><path d="M1,105.59 H41 V145.59 H1 V105.59 Z" fill="none"/><g><path d="M7,105.59 H35 A6,6 0 0 1 41,111.59 V139.59 A6,6 0 0 1 35,145.59 H7 A6,6 0 0 1 1,139.59 V111.59 A6,6 0 0 1 7,105.59 Z" fill="none" stroke-width="1px" stroke="rgba(0, 0, 0, 0)"/><g style="transform: translate(8.9px, 113.49px); color: rgb(63, 131, 248);"><svg viewBox="0 0 24 24" role="presentation" class=" f-0 " style="width: 22px; height: 22px; transform: scale(1.1);" width="22" height="22"><path d="M12,16L19.36,10.27L21,9L12,2L3,9L4.63,10.27M12,18.54L4.62,12.81L3,14.07L12,21.07L21,14.07L19.37,12.8L12,18.54Z" style="fill: currentcolor;"/></svg></g></g></g><g clip-path="url(#clip-of-15)"><g><g data-command="TimeChartLayerOptions.yAxis"><path d="M81,104 H253.61 V147.19 H81 V104 Z" fill="none"/><g data-command="TimeChartLayerOptions.aggFunc"><path d="M89,104 H245.61 A8,8 0 0 1 253.61,112 V139.19 A8,8 0 0 1 245.61,147.19 H89 A8,8 0 0 1 81,139.19 V112 A8,8 0 0 1 89,104 Z" fill="none" stroke-width="1px" stroke="rgba(0, 0, 0, 0)"/><text x="172.59" y="130.59" fill="var(--color-17)" font-family="var(--fontFamily-7)" font-size="16px" font-weight="500" font-style="normal" letter-spacing="normal" text-decoration="none solid rgb(63, 131, 248)" text-anchor="start" style="line-height: 16px; white-space: pre; text-transform: none;">timestamp</text><g><g opacity="0.7" style="opacity: 0.7;"><text x="82" y="130.59" fill="var(--color-17)" font-family="var(--fontFamily-7)" font-size="16px" font-weight="500" font-style="normal" letter-spacing="normal" text-decoration="none solid rgb(63, 131, 248)" text-anchor="start" style="line-height: 16px; white-space: nowrap; text-transform: none;">Avg(</text></g><g><text x="116.3" y="130.59" fill="var(--color-17)" font-family="var(--fontFamily-7)" font-size="16px" font-weight="700" font-style="normal" letter-spacing="normal" text-decoration="none solid rgb(63, 131, 248)" text-anchor="start" style="line-height: 16px; white-space: nowrap; text-transform: none;">price</text></g><g opacity="0.7" style="opacity: 0.7;"><text x="154.88" y="130.59" fill="var(--color-17)" font-family="var(--fontFamily-7)" font-size="16px" font-weight="500" font-style="normal" letter-spacing="normal" text-decoration="none solid rgb(63, 131, 248)" text-anchor="start" style="line-height: 16px; white-space: nowrap; text-transform: none;">),</text></g></g></g></g><g><g><g><path d="M276.11,113.09 H289.11 A6,6 0 0 1 295.11,119.09 V132.09 A6,6 0 0 1 289.11,138.09 H276.11 A6,6 0 0 1 270.11,132.09 V119.09 A6,6 0 0 1 276.11,113.09 Z" fill="var(--color-18)" stroke-width="1px" stroke="var(--color-19)" style="filter: drop-shadow(rgba(0, 0, 0, 0.1) 0px 1px 1.5px) drop-shadow(rgba(0, 0, 0, 0.06) 0px 1px 1px);"/><g style="transform: translate(273.81px, 116.79px); color: rgb(75, 85, 99);"><svg viewBox="0 0 24 24" role="presentation" class=" f-0 " style="width: 16px; height: 16px; transform: scale(1.1);" width="16" height="16"><path d="M17.5,12A1.5,1.5 0 0,1 16,10.5A1.5,1.5 0 0,1 17.5,9A1.5,1.5 0 0,1 19,10.5A1.5,1.5 0 0,1 17.5,12M14.5,8A1.5,1.5 0 0,1 13,6.5A1.5,1.5 0 0,1 14.5,5A1.5,1.5 0 0,1 16,6.5A1.5,1.5 0 0,1 14.5,8M9.5,8A1.5,1.5 0 0,1 8,6.5A1.5,1.5 0 0,1 9.5,5A1.5,1.5 0 0,1 11,6.5A1.5,1.5 0 0,1 9.5,8M6.5,12A1.5,1.5 0 0,1 5,10.5A1.5,1.5 0 0,1 6.5,9A1.5,1.5 0 0,1 8,10.5A1.5,1.5 0 0,1 6.5,12M12,3A9,9 0 0,0 3,12A9,9 0 0,0 12,21A1.5,1.5 0 0,0 13.5,19.5C13.5,19.11 13.35,18.76 13.11,18.5C12.88,18.23 12.73,17.88 12.73,17.5A1.5,1.5 0 0,1 14.23,16H16A5,5 0 0,0 21,11C21,6.58 16.97,3 12,3Z" style="fill: rgb(0, 154, 173);"/></svg></g></g><g><text x="303.61" y="130.59" fill="var(--color-13)" font-family="var(--fontFamily-7)" font-size="16px" font-weight="400" font-style="normal" letter-spacing="normal" text-decoration="none solid rgb(22, 30, 46)" text-anchor="start" style="line-height: normal; white-space: normal; text-transform: none;">BTCUSDC</text></g></g><g><g><path d="M395.78,113.09 H408.78 A6,6 0 0 1 414.78,119.09 V132.09 A6,6 0 0 1 408.78,138.09 H395.78 A6,6 0 0 1 389.78,132.09 V119.09 A6,6 0 0 1 395.78,113.09 Z" fill="var(--color-20)" stroke-width="1px" stroke="var(--color-19)" style="filter: drop-shadow(rgba(0, 0, 0, 0.1) 0px 1px 1.5px) drop-shadow(rgba(0, 0, 0, 0.06) 0px 1px 1px);"/><g style="transform: translate(393.48px, 116.79px); color: rgb(75, 85, 99);"><svg viewBox="0 0 24 24" role="presentation" class=" f-0 " style="width: 16px; height: 16px; transform: scale(1.1);" width="16" height="16"><path d="M17.5,12A1.5,1.5 0 0,1 16,10.5A1.5,1.5 0 0,1 17.5,9A1.5,1.5 0 0,1 19,10.5A1.5,1.5 0 0,1 17.5,12M14.5,8A1.5,1.5 0 0,1 13,6.5A1.5,1.5 0 0,1 14.5,5A1.5,1.5 0 0,1 16,6.5A1.5,1.5 0 0,1 14.5,8M9.5,8A1.5,1.5 0 0,1 8,6.5A1.5,1.5 0 0,1 9.5,5A1.5,1.5 0 0,1 11,6.5A1.5,1.5 0 0,1 9.5,8M6.5,12A1.5,1.5 0 0,1 5,10.5A1.5,1.5 0 0,1 6.5,9A1.5,1.5 0 0,1 8,10.5A1.5,1.5 0 0,1 6.5,12M12,3A9,9 0 0,0 3,12A9,9 0 0,0 12,21A1.5,1.5 0 0,0 13.5,19.5C13.5,19.11 13.35,18.76 13.11,18.5C12.88,18.23 12.73,17.88 12.73,17.5A1.5,1.5 0 0,1 14.23,16H16A5,5 0 0,0 21,11C21,6.58 16.97,3 12,3Z" style="fill: rgb(75, 75, 75);"/></svg></g></g><g><text x="423.28" y="130.59" fill="var(--color-13)" font-family="var(--fontFamily-7)" font-size="16px" font-weight="400" font-style="normal" letter-spacing="normal" text-decoration="none solid rgb(22, 30, 46)" text-anchor="start" style="line-height: normal; white-space: normal; text-transform: none;">BTCUSDT</text></g></g></g><g><path d="M497.64,112.59 H511.64 A6,6 0 0 1 517.64,118.59 V132.59 A6,6 0 0 1 511.64,138.59 H497.64 A6,6 0 0 1 491.64,132.59 V118.59 A6,6 0 0 1 497.64,112.59 Z" fill="none" stroke-width="1px" stroke="rgba(0, 0, 0, 0)"/><g style="transform: translate(495.84px, 116.79px); color: rgb(75, 85, 99);"><svg viewBox="0 0 24 24" role="presentation" class=" f-0 " style="width: 16px; height: 16px; transform: scale(1.1);" width="16" height="16"><path d="M19,6.41L17.59,5L12,10.59L6.41,5L5,6.41L10.59,12L5,17.59L6.41,19L12,13.41L17.59,19L19,17.59L13.41,12L19,6.41Z" style="fill: currentcolor;"/></svg></g></g></g><clipPath id="clip-of-15"><path d="M81,104 H517.64 V147.19 H81 V104 Z" fill="none" stroke="none"/></clipPath></g></g></g><clipPath id="clip-of-16"><path d="M1,60 H899 V600 H1 V60 Z" fill="none" stroke="none"/></clipPath></g></g></g><clipPath id="clip-of-17"><path d="M0,0 H900 V600 H0 V0 Z" fill="none" stroke="none"/></clipPath></g><view id="dashboard_menu" viewBox="-1 -1 61 61"/><view id="dashboard_goToConnConfig" viewBox="56 -1 60 60"/><view id="ConnectionSelector" viewBox="112 -1 124 60"/><view id="WorkspaceMenu_list" viewBox="372 -5 173 73"/><view id="WorkspaceMenuDropDown" viewBox="526 -2 68 68"/><view id="AskLLM" viewBox="730 -1 60 60"/><view id="Feedback" viewBox="786 -1 60 60"/><view id="dashboard_goToConnections" viewBox="842 -1 60 60"/><view id="dashboard_window_menu" viewBox="-9 51 60 60"/><view id="dashboard_window_collapse" viewBox="769 51 60 60"/><view id="dashboard_window_fullscreen" viewBox="809 51 60 60"/><view id="dashboard_window_close" viewBox="849 51 60 60"/><view id="W_TimeChart" viewBox="-9 94 918 516"/><view id="ChartLayerManager" viewBox="-9 96 60 60"/><view id="TimeChartLayerOptions_yAxis" viewBox="71 94 193 63"/><view id="TimeChartLayerOptions_aggFunc" viewBox="71 94 193 63"/><view id="W_TimeChart_AddTimeChartFilter" viewBox="849 94 60 60"/><style xmlns="http://www.w3.org/1999/xhtml" type="text/css">:root { 
  --dark-theme-hide: none;
  --color-0: rgb(244, 245, 247); 
  --color-1: rgb(210, 214, 220); 
  --color-19: rgb(210, 214, 220); 
  --color-2: rgb(255, 255, 255); 
  --color-12: rgb(255, 255, 255); 
  --color-15: rgb(255, 255, 255); 
  --color-3: rgb(240, 254, 255); 
  --color-4: rgb(58, 216, 227); 
  --color-5: rgba(125, 125, 125, 0.22); 
  --color-6: rgb(75, 85, 99); 
  --fontFamily-7: -apple-system, BlinkMacSystemFont, "Segoe UI", Roboto, Oxygen, Ubuntu, Cantarell, "Fira Sans", "Droid Sans", "Helvetica Neue", sans-serif; 
  --color-8: rgb(0, 161, 255); 
  --color-9: rgb(225, 239, 254); 
  --color-10: rgb(249, 250, 251); 
  --color-11: rgb(229, 231, 235); 
  --color-14: rgb(229, 231, 235); 
  --color-13: rgb(22, 30, 46); 
  --color-16: black; 
  --color-17: rgb(63, 131, 248); 
  --color-18: rgb(0, 154, 173); 
  --color-20: rgb(75, 75, 75); 
}
@media (prefers-color-scheme: dark) { 
 :root  { 
  --light-theme-hide: none;
  --color-0: rgb(36, 36, 36); 
  --color-1: rgb(0, 0, 0); 
  --color-19: rgb(75, 85, 99); 
  --color-2: rgb(44, 44, 44); 
  --color-12: rgb(36, 36, 36); 
  --color-15: rgb(39, 39, 39); 
  --color-3: rgb(0, 37, 55); 
  --color-4: rgb(58, 216, 227); 
  --color-5: rgba(125, 125, 125, 0.38); 
  --color-6: rgb(229, 231, 235); 
  --fontFamily-7: -apple-system, BlinkMacSystemFont, "Segoe UI", Roboto, Oxygen, Ubuntu, Cantarell, "Fira Sans", "Droid Sans", "Helvetica Neue", sans-serif; 
  --color-8: rgb(0, 161, 255); 
  --color-9: rgba(0, 79, 163, 0.8); 
  --color-10: rgb(33, 33, 33); 
  --color-11: rgb(75, 85, 99); 
  --color-14: rgb(44, 44, 44); 
  --color-13: rgb(244, 245, 247); 
  --color-16: rgb(187, 187, 187); 
  --color-17: rgb(195, 221, 253); 
  --color-18: rgb(0, 154, 173); 
  --color-20: rgb(75, 75, 75); 
  }
} 
</style></svg>