<svg xmlns="http://www.w3.org/2000/svg" width="900" height="900" viewBox="0 0 900 900"><defs><style type="text/css"/></defs><g data-selector="body.text-0 bg-color-2" style="clip-path: inset(0px) view-box;" id="id-29b84ee4"><path d="M0,0 H900 V900 H0 V0 Z" fill="var(--rgb244245247rgb000)"/><g data-selector="main."><g data-selector="div.App gap-0 f-1 min-h-0 FlexCol flex-col"><g data-selector="div.Project f-1 flex-col h-full w-full min-h-0 min-w-0 relative bg-color-4"><path d="M0,0 H900 V900 H0 V0 Z" fill="var(--rgb210214220rgb000)"/><g data-selector="div.f-1 w-full h-full flex-col"><g data-selector="div.Dashboard gap-0 f-1 min-w-0 min-h-0 w-full  FlexCol flex-col"><g data-selector="div.TopHeader f-0 flex-row  min-h-0 min-w-0 o-hidden" style="clip-path: inset(0px 0px 842px) view-box;"><g data-selector="div.TopControls w-full bg-color-0 jc-center shadow FlexRow flex-row gap-1 ai-center"><path d="M0,0 H900 V58 H0 V0 Z" fill="var(--rgb255255255rgb444444)" style="filter: drop-shadow(rgba(0, 0, 0, 0.1) 0px 1px 1.5px) drop-shadow(rgba(0, 0, 0, 0.06) 0px 1px 1px);"/><g data-selector="div.max-w-fit f-1 ai-center  p-p5  FlexRow flex-row gap-1"><g data-selector="button. f-0 flex-row gap-p5 ai-center rounded btn btn-default btn-size-default btn-color-default ws-nowrap w-fit" data-command="dashboard.menu"><path d="M12.5,8.5 H45.5 A4,4 0 0 1 49.5,12.5 V45.5 A4,4 0 0 1 45.5,49.5 H12.5 A4,4 0 0 1 8.5,45.5 V12.5 A4,4 0 0 1 12.5,8.5 Z" fill="var(--rgb240254255rgb03755)" stroke-width="1px" stroke="rgb(58, 216, 227)"/><svg xmlns:dc="http://purl.org/dc/elements/1.1/" xmlns:cc="http://creativecommons.org/ns#" xmlns:rdf="http://www.w3.org/1999/02/22-rdf-syntax-ns#" xmlns:svg="http://www.w3.org/2000/svg" xmlns="http://www.w3.org/2000/svg" id="svg8" version="1.1" viewBox="0 0 9.5249998 9.5250003" height="36" width="36" x="11" y="11">
  <style>
    @media (prefers-color-scheme: dark) {
      <!-- #path3881-head {
        fill: green !important;
      }
  
      #path3887-eye {
        fill: #ff0000 !important;
      }       -->
    }
  </style>
  <g transform="translate(0,-287.47498)" id="layer1">
    <path style="fill:#0087ab;stroke-width:0.10478402" id="path3881-head" d="m 6.5209966,295.25712 c 0.2175402,-0.46431 1.6420322,-2.2511 1.3456182,-4.2915 -0.085217,-0.58659 -2.1619067,-1.59449 -2.2268491,-1.64218 -0.01022,-0.008 -0.1325362,-0.0996 -0.1694292,-0.13795 -0.197562,-0.2055 -0.499117,-0.62298 -0.8304557,-0.82041 -0.1525898,-0.0909 -0.7394033,-0.0609 -1.0268278,0.11432 l -1.879837,1.08657 c -0.4703536,0.4665 0.1139504,1.07392 0.2268207,1.30469 0.1128704,0.23077 0.803662,0.95627 0.803662,0.95627 v 0 c -0.1433145,0.0653 -0.3911698,-0.0575 -0.6915708,-0.27496 0,0 -0.8432496,-0.80366 -0.8823501,-0.87005 -0.039101,-0.0664 -0.1564018,-0.20484 -0.23460266,-0.47082 0,0 -0.0384912,-0.0917 -0.0544209,-0.51555 -0.0159297,-0.42388 0.69813926,-0.64516 0.80535536,-0.72619 0.107216,-0.081 1.4441719,-0.86378 1.8275182,-1.11029 0.3833462,-0.24651 0.8880668,-0.20266 1.1387453,-0.0444 l 2.8538119,1.69411 c 0.2716598,0.15804 1.3866918,1.14066 1.421482,1.86382 0.081505,1.69417 -1.2190224,2.93746 -1.8472163,4.27428 -0.6281939,1.33683 1.1838142,0.58699 1.2737198,0.43944 l 0.259057,0.27303 c -0.8972105,0.56378 -1.9304095,0.39775 -2.0611443,0.33679 -0.1307347,-0.0609 -0.2768897,-0.88205 -0.051087,-1.439 z"/>
    <path style="fill: #bc0000;fill-opacity:1;fill-rule:evenodd;stroke-width:0.07858816;stroke-miterlimit:4;stroke-dasharray:none;stroke-opacity:0.60294118;" id="path3887-eye" d="m 6.2908378,290.63597 c 0.030281,-0.0145 0.067771,-0.0145 0.09805,0 0.9624569,0.37529 0.8624334,0.39198 0.8624334,1.21858 0,0.0285 -0.018608,0.0549 -0.049026,0.0694 -0.9558494,-0.4203 -0.9974496,-0.45611 -0.9114585,-1.28795 z"/>
  </g>
</svg></g><g data-selector="div.h-full flex-col gap-p25 ai-start "><g data-selector="a.ConnectionConfigBtn f-0 flex-row gap-p5 ai-center button-css btn btn-faded btn-size-default btn-color-default ws-nowrap w-fit" data-command="dashboard.goToConnConfig" style="clip-path: inset(8px 793px 850px 65px round 6px) view-box;"><path d="M72,9 H100 A6,6 0 0 1 106,15 V43 A6,6 0 0 1 100,49 H72 A6,6 0 0 1 66,43 V15 A6,6 0 0 1 72,9 Z" fill="var(--rgba125125125022rgba125125125038)" stroke-width="1px" stroke="rgba(0, 0, 0, 0)"/><g style="transform: translate(73.9px, 16.9px); color: var(--rgb758599rgb229231235);"><svg viewBox="0 0 24 24" role="presentation" class=" f-0 " style="width: 22px; height: 22px; transform: scale(1.1);" width="22" height="22"><path d="M4 7C4 4.79 7.58 3 12 3S20 4.79 20 7 16.42 11 12 11 4 9.21 4 7M12.08 18L12 18C7.58 18 4 16.21 4 14V17C4 19.21 7.58 21 12 21C12.1 21 12.2 21 12.29 21C12.11 20.36 12 19.69 12 19C12 18.66 12.03 18.33 12.08 18M20 12.08C20 12.05 20 12.03 20 12V9C20 11.21 16.42 13 12 13S4 11.21 4 9V12C4 14.21 7.58 16 12 16C12.23 16 12.46 16 12.69 16C13.82 13.63 16.22 12 19 12C19.34 12 19.67 12.03 20 12.08M23.8 20.4C23.9 20.4 23.9 20.5 23.8 20.6L22.8 22.3C22.7 22.4 22.6 22.4 22.5 22.4L21.3 22C21 22.2 20.8 22.3 20.5 22.5L20.3 23.8C20.3 23.9 20.2 24 20.1 24H18.1C18 24 17.9 23.9 17.8 23.8L17.6 22.5C17.3 22.4 17 22.2 16.8 22L15.6 22.5C15.5 22.5 15.4 22.5 15.3 22.4L14.3 20.7C14.2 20.6 14.3 20.5 14.4 20.4L15.5 19.6V18.6L14.4 17.8C14.3 17.7 14.3 17.6 14.3 17.5L15.3 15.8C15.4 15.7 15.5 15.7 15.6 15.7L16.8 16.2C17.1 16 17.3 15.9 17.6 15.7L17.8 14.4C17.8 14.3 17.9 14.2 18.1 14.2H20.1C20.2 14.2 20.3 14.3 20.3 14.4L20.5 15.7C20.8 15.8 21.1 16 21.4 16.2L22.6 15.7C22.7 15.7 22.9 15.7 22.9 15.8L23.9 17.5C24 17.6 23.9 17.7 23.8 17.8L22.7 18.6V19.6L23.8 20.4M20.5 19C20.5 18.2 19.8 17.5 19 17.5S17.5 18.2 17.5 19 18.2 20.5 19 20.5 20.5 19.8 20.5 19Z" style="fill: currentcolor;"/></svg></g></g></g><g data-selector="button. Select w-fit f-0 select-button flex-row gap-p5 ai-center rounded btn btn-faded btn-size-default btn-color-default ws-nowrap" data-command="ConnectionSelector"><path d="M130,9 H218.2 A8,8 0 0 1 226.2,17 V41 A8,8 0 0 1 218.2,49 H130 A8,8 0 0 1 122,41 V17 A8,8 0 0 1 130,9 Z" fill="var(--rgba125125125022rgba125125125038)" stroke-width="1px" stroke="rgba(0, 0, 0, 0)"/><g style="transform: translate(133.9px, 16.9px); color: var(--rgb758599rgb229231235);"><svg viewBox="0 0 24 24" role="presentation" class=" f-0 " style="width: 22px; height: 22px; transform: scale(1.1);" width="22" height="22"><path d="M12,3C7.58,3 4,4.79 4,7C4,9.21 7.58,11 12,11C16.42,11 20,9.21 20,7C20,4.79 16.42,3 12,3M4,9V12C4,14.21 7.58,16 12,16C16.42,16 20,14.21 20,12V9C20,11.21 16.42,13 12,13C7.58,13 4,11.21 4,9M4,14V17C4,19.21 7.58,21 12,21C16.42,21 20,19.21 20,17V14C20,16.21 16.42,18 12,18C7.58,18 4,16.21 4,14Z" style="fill: currentcolor;"/></svg></g><g data-selector="div. text-ellipsis text-color-0" style="clip-path: inset(20px 686.797px 862px 165px) view-box;"><text x="165" y="34" fill="var(--rgb758599rgb229231235)" font-family="var(--applesystemBlinkMacSystemFontSegoeUIRobotoOxygenUbuntuCantarellFiraSansDroidSansHelveticaNeuesansserifapplesystemBlinkMacSystemFontSegoeUIRobotoOxygenUbuntuCantarellFiraSansDroidSansHelveticaNeuesansserif)" font-size="16px" font-weight="500" font-style="normal" letter-spacing="normal" text-decoration="none solid rgb(75, 85, 99)" text-anchor="start" style="line-height: 18px; white-space: nowrap; text-transform: none;">crypto</text></g></g></g><g data-selector="div. WorkspaceMenu as-end jc-center text-white ai-center f-1 min-w-0 o-auto h-fit FlexRow flex-row gap-1" style="clip-path: inset(5px 184px 842px 250.203px) view-box;"><g data-selector="ul.no-decor o-auto f-1 min-w-0 max-w-fit flex-row no-scroll-bar ai-end" data-command="WorkspaceMenu.list" style="clip-path: inset(5px 365.078px 842px 382.266px) view-box;"><path d="M382.27,5 H534.92 V58 H382.27 V5 Z" fill="none"/><g data-selector="li.workspace-list-item text-1 relative active"><g data-selector="button. f-0 flex-row gap-p5 ai-center rounded btn btn-default btn-size-default btn-color-default ws-nowrap w-fit"><line x1="382.265625" y1="5.5" x2="534.921875" y2="5.5" stroke="rgba(0, 0, 0, 0)" stroke-width="1"/><line x1="534.421875" y1="5" x2="534.421875" y2="58" stroke="rgba(0, 0, 0, 0)" stroke-width="1"/><line x1="382.265625" y1="56" x2="534.921875" y2="56" stroke="rgb(0, 161, 255)" stroke-width="4"/><line x1="382.765625" y1="5" x2="382.765625" y2="58" stroke="rgba(0, 0, 0, 0)" stroke-width="1"/><text x="399.27" y="35" fill="var(--rgb758599rgb229231235)" font-family="var(--applesystemBlinkMacSystemFontSegoeUIRobotoOxygenUbuntuCantarellFiraSansDroidSansHelveticaNeuesansserifapplesystemBlinkMacSystemFontSegoeUIRobotoOxygenUbuntuCantarellFiraSansDroidSansHelveticaNeuesansserif)" font-size="16px" font-weight="600" font-style="normal" letter-spacing="normal" text-decoration="none solid rgb(75, 85, 99)" text-anchor="start" style="line-height: 16px; white-space: nowrap; text-transform: none;">Crypto markets</text><path d="M382.27,5 H534.92 V58 H382.27 V5 Z" fill="none" stroke="none"/></g></g></g><g data-selector="div. PopupMenu_triggerWrapper h-fit w-fit"><g data-selector="button.text-0 f-0 flex-row gap-p5 ai-center btn btn-default btn-size-default btn-color-default ws-nowrap w-fit" data-command="WorkspaceMenuDropDown"><g style="transform: translate(547.82px, 19.4px); color: var(--rgb758599rgb229231235);"><svg viewBox="0 0 24 24" role="presentation" class=" f-0 " style="width: 22px; height: 22px; transform: scale(1.1);" width="22" height="22"><path d="M7.41,8.58L12,13.17L16.59,8.58L18,10L12,16L6,10L7.41,8.58Z" style="fill: currentcolor;"/></svg></g><path d="M541.92,7.5 H577.92 A6,6 0 0 1 583.92,13.5 V49.5 A6,6 0 0 1 577.92,55.5 H541.92 A6,6 0 0 1 535.92,49.5 V13.5 A6,6 0 0 1 541.92,7.5 Z" fill="none" stroke-width="1px" stroke="rgba(0, 0, 0, 0)"/></g></g></g><g data-selector="div.ml-auto min-w-0 f-0 ai-start gap-1 text-1p5 w-fit ai-center noselect o-auto no-scroll-bar jc-end  p-p5  FlexRow flex-row" style="clip-path: inset(1px 0px 843px 732px) view-box;"><g data-selector="button. f-0 flex-row gap-p5 ai-center btn btn-faded btn-size-default btn-color-action ws-nowrap w-fit" data-command="AskLLM"><path d="M746,9 H774 A6,6 0 0 1 780,15 V43 A6,6 0 0 1 774,49 H746 A6,6 0 0 1 740,43 V15 A6,6 0 0 1 746,9 Z" fill="var(--rgb225239254rgba07916308)" stroke-width="1px" stroke="rgba(0, 0, 0, 0)"/><g style="transform: translate(747.9px, 16.9px); color: var(--rgb63131248rgb255255255);"><svg viewBox="0 0 24 24" role="presentation" class=" f-0 " style="width: 22px; height: 22px; transform: scale(1.1);" width="22" height="22"><path d="M19,2H5A2,2 0 0,0 3,4V18A2,2 0 0,0 5,20H9L12,23L15,20H19A2,2 0 0,0 21,18V4A2,2 0 0,0 19,2M13.88,12.88L12,17L10.12,12.88L6,11L10.12,9.12L12,5L13.88,9.12L18,11" style="fill: currentcolor;"/></svg></g></g><g data-selector="div. PopupMenu_triggerWrapper h-fit w-fit"><g data-selector="button. f-0 flex-row gap-p5 ai-center btn btn-faded btn-size-default btn-color-default ws-nowrap w-fit" data-command="Feedback"><path d="M802,9 H830 A6,6 0 0 1 836,15 V43 A6,6 0 0 1 830,49 H802 A6,6 0 0 1 796,43 V15 A6,6 0 0 1 802,9 Z" fill="var(--rgba125125125022rgba125125125038)" stroke-width="1px" stroke="rgba(0, 0, 0, 0)"/><g style="transform: translate(803.9px, 16.9px); color: var(--rgb758599rgb229231235);"><svg viewBox="0 0 24 24" role="presentation" class=" f-0 " style="width: 22px; height: 22px; transform: scale(1.1);" width="22" height="22"><path d="M20 2H4C2.9 2 2 2.9 2 4V22L6 18H20C21.1 18 22 17.1 22 16V4C22 2.9 21.1 2 20 2M20 16H5.2L4 17.2V4H20V16M18 14V6H13V14L15.5 12.5L18 14" style="fill: currentcolor;"/></svg></g></g></g><g data-selector="a. f-0 flex-row gap-p5 ai-center button-css btn btn-faded btn-size-default btn-color-default ws-nowrap w-fit active" data-command="dashboard.goToConnections" style="clip-path: inset(8px 7px 850px 851px round 6px) view-box;"><path d="M858,9 H886 A6,6 0 0 1 892,15 V43 A6,6 0 0 1 886,49 H858 A6,6 0 0 1 852,43 V15 A6,6 0 0 1 858,9 Z" fill="var(--rgba125125125022rgba125125125038)" stroke-width="1px" stroke="rgba(0, 0, 0, 0)"/><g style="transform: translate(859.9px, 16.9px); color: var(--rgb758599rgb229231235);"><svg viewBox="0 0 24 24" role="presentation" class=" f-0 " style="width: 22px; height: 22px; transform: scale(1.1);" width="22" height="22"><path d="M20,11V13H8L13.5,18.5L12.08,19.92L4.16,12L12.08,4.08L13.5,5.5L8,11H20Z" style="fill: currentcolor;"/></svg></g></g></g></g></g><g data-selector="div.Dashboard_Wrapper min-h-0 f-1 flex-row relative"><g data-selector="div.Dashboard_MainContentWrapper f-1 gap-0 relative ai-none jc-none FlexRow flex-row"><g data-selector="div.ViewRenderer min-h-0 f-1 flex-row relative"><g data-selector="div.min-h-0 relative silver-grid-component"><g data-selector="div. silver-grid-box flex-tab min-w-0 min-h-0"><g data-selector="div.SilverGridChild silver-grid-box silver-grid-item bg-color-1 f-1 flex-col min-w-0 min-h-0   " style="clip-path: inset(60px 1px 0px) view-box;"><path d="M1,60 H899 V900 H1 V60 Z" fill="var(--rgb249250251rgb333333)"/><g data-selector="div.silver-grid-item-header flex-row  bg-color-0 bb b-color-0 pointer f-0 noselect relative ai-center shadow"><path d="M1,60 H899 V103 H1 V60 Z" fill="var(--rgb255255255rgb444444)" stroke="none" style="filter: drop-shadow(rgba(0, 0, 0, 0.1) 0px 1px 1.5px) drop-shadow(rgba(0, 0, 0, 0.06) 0px 1px 1px);"/><line x1="1" y1="102.5" x2="899" y2="102.5" stroke="var(--rgb229231235rgb758599)" stroke-width="1"/><g data-selector="div.silver-grid-item-header--icon flex-row f-0 o-hidden f-1 ai-center" style="clip-path: inset(61px 857px 799px 1px) view-box;"><g data-selector="button.f-0 flex-row gap-p5 ai-center btn btn-default btn-size-default btn-color-default ws-nowrap w-fit" data-command="dashboard.window.menu"><g style="transform: translate(8.9px, 68.9px); color: var(--rgb758599rgb229231235);"><svg viewBox="0 0 24 24" role="presentation" class=" f-0 " style="width: 22px; height: 22px; transform: scale(1.1);" width="22" height="22"><path d="M12,16A2,2 0 0,1 14,18A2,2 0 0,1 12,20A2,2 0 0,1 10,18A2,2 0 0,1 12,16M12,10A2,2 0 0,1 14,12A2,2 0 0,1 12,14A2,2 0 0,1 10,12A2,2 0 0,1 12,10M12,4A2,2 0 0,1 14,6A2,2 0 0,1 12,8A2,2 0 0,1 10,6A2,2 0 0,1 12,4Z" style="fill: currentcolor;"/></svg></g><path d="M7,61 H35 A6,6 0 0 1 41,67 V95 A6,6 0 0 1 35,101 H7 A6,6 0 0 1 1,95 V67 A6,6 0 0 1 7,61 Z" fill="none" stroke-width="1px" stroke="rgba(0, 0, 0, 0)"/></g></g><g data-selector="div.SilverGridChildHeader_tabs flex-row f-1 min-w-0 ws-nowrap ai-end text-ellipsiss ml-p25 o-auto  no-scroll-bar FlexRow gap-1" style="clip-path: inset(60px 121px 798px 47px) view-box;"><g data-selector="div.gap-p25 pl-p5 pr-p25 bg-color-0 FlexRow flex-row ai-center"><path d="M47,62 H234.19 V102 H47 V62 Z" fill="var(--rgb255255255rgb363636)"/><g data-selector="div.silver-grid-item-header--title py-p5 f-1 min-w-0 max-w-fit text-ellipsis noselect " style="clip-path: inset(61px 699.812px 797px 55px) view-box;"><text x="55" y="87" fill="var(--rgb223046rgb244245247)" font-family="var(--applesystemBlinkMacSystemFontSegoeUIRobotoOxygenUbuntuCantarellFiraSansDroidSansHelveticaNeuesansserifapplesystemBlinkMacSystemFontSegoeUIRobotoOxygenUbuntuCantarellFiraSansDroidSansHelveticaNeuesansserif)" font-size="16px" font-weight="400" font-style="normal" letter-spacing="normal" text-decoration="none solid rgb(22, 30, 46)" text-anchor="start" style="line-height: 26px; white-space: nowrap; text-transform: none;">futures (timestamp)</text></g></g><g data-selector="div.gap-p25 pl-p5 pr-p25 bg-color-3 FlexRow flex-row ai-center"><path d="M235.19,65 H373.2 V102 H235.19 V65 Z" fill="var(--rgb229231235rgb444444)"/><g data-selector="div.f-1 min-w-0 ws-nowrap text-ellipsis py-p5 " style="clip-path: inset(65px 560.797px 798px 243.188px) view-box;"><text x="255.19" y="88" fill="var(--rgb223046rgb244245247)" font-family="var(--applesystemBlinkMacSystemFontSegoeUIRobotoOxygenUbuntuCantarellFiraSansDroidSansHelveticaNeuesansserifapplesystemBlinkMacSystemFontSegoeUIRobotoOxygenUbuntuCantarellFiraSansDroidSansHelveticaNeuesansserif)" font-size="16px" font-weight="400" font-style="normal" letter-spacing="normal" text-decoration="none solid rgb(22, 30, 46)" text-anchor="start" style="line-height: 21px; white-space: nowrap; text-transform: none;">futures 840</text></g></g><g data-selector="div.gap-p25 pl-p5 pr-p25 bg-color-3 FlexRow flex-row ai-center"><path d="M374.2,65 H508.7 V102 H374.2 V65 Z" fill="var(--rgb229231235rgb444444)"/><g data-selector="div.f-1 min-w-0 ws-nowrap text-ellipsis py-p5 " style="clip-path: inset(65px 425.297px 798px 382.203px) view-box;"><text x="394.2" y="88" fill="var(--rgb223046rgb244245247)" font-family="var(--applesystemBlinkMacSystemFontSegoeUIRobotoOxygenUbuntuCantarellFiraSansDroidSansHelveticaNeuesansserifapplesystemBlinkMacSystemFontSegoeUIRobotoOxygenUbuntuCantarellFiraSansDroidSansHelveticaNeuesansserif)" font-size="16px" font-weight="400" font-style="normal" letter-spacing="normal" text-decoration="none solid rgb(22, 30, 46)" text-anchor="start" style="line-height: 21px; white-space: nowrap; text-transform: none;">markets 60</text></g></g><g data-selector="div.gap-p25 pl-p5 pr-p25 bg-color-3 FlexRow flex-row ai-center"><path d="M509.7,65 H655.55 V102 H509.7 V65 Z" fill="var(--rgb229231235rgb444444)"/><g data-selector="div.f-1 min-w-0 ws-nowrap text-ellipsis py-p5 " style="clip-path: inset(65px 278.453px 798px 517.703px) view-box;"><text x="529.7" y="88" fill="var(--rgb223046rgb244245247)" font-family="var(--applesystemBlinkMacSystemFontSegoeUIRobotoOxygenUbuntuCantarellFiraSansDroidSansHelveticaNeuesansserifapplesystemBlinkMacSystemFontSegoeUIRobotoOxygenUbuntuCantarellFiraSansDroidSansHelveticaNeuesansserif)" font-size="16px" font-weight="400" font-style="normal" letter-spacing="normal" text-decoration="none solid rgb(22, 30, 46)" text-anchor="start" style="line-height: 21px; white-space: nowrap; text-transform: none;">market_caps</text></g></g></g><g data-selector="button.f-0  flex-row gap-p5 ai-center btn btn-default btn-size-default btn-color-default ws-nowrap w-fit" data-command="dashboard.window.collapse"><g style="transform: translate(786.9px, 68.9px); color: var(--rgb758599rgb229231235);"><svg viewBox="0 0 24 24" role="presentation" class=" f-0 " style="width: 22px; height: 22px; transform: scale(1.1);" width="22" height="22"><path d="M16.59,5.41L15.17,4L12,7.17L8.83,4L7.41,5.41L12,10M7.41,18.59L8.83,20L12,16.83L15.17,20L16.58,18.59L12,14L7.41,18.59Z" style="fill: currentcolor;"/></svg></g><path d="M785,61 H813 A6,6 0 0 1 819,67 V95 A6,6 0 0 1 813,101 H785 A6,6 0 0 1 779,95 V67 A6,6 0 0 1 785,61 Z" fill="none" stroke-width="1px" stroke="rgba(0, 0, 0, 0)"/></g><g data-selector="button.f-0  flex-row gap-p5 ai-center btn btn-default btn-size-default btn-color-default ws-nowrap w-fit" data-command="dashboard.window.fullscreen"><g style="transform: translate(826.9px, 68.9px); color: var(--rgb758599rgb229231235);"><svg viewBox="0 0 24 24" role="presentation" class=" f-0 " style="width: 22px; height: 22px; transform: scale(1.1);" width="22" height="22"><path d="M5,5H10V7H7V10H5V5M14,5H19V10H17V7H14V5M17,14H19V19H14V17H17V14M10,17V19H5V14H7V17H10Z" style="fill: currentcolor;"/></svg></g><path d="M825,61 H853 A6,6 0 0 1 859,67 V95 A6,6 0 0 1 853,101 H825 A6,6 0 0 1 819,95 V67 A6,6 0 0 1 825,61 Z" fill="none" stroke-width="1px" stroke="rgba(0, 0, 0, 0)"/></g><g data-selector="button.f-0  flex-row gap-p5 ai-center btn btn-default btn-size-default btn-color-default ws-nowrap w-fit" data-command="dashboard.window.close"><g style="transform: translate(866.9px, 68.9px); color: var(--rgb758599rgb229231235);"><svg viewBox="0 0 24 24" role="presentation" class=" f-0 " style="width: 22px; height: 22px; transform: scale(1.1);" width="22" height="22"><path d="M19,6.41L17.59,5L12,10.59L6.41,5L5,6.41L10.59,12L5,17.59L6.41,19L12,13.41L17.59,19L19,17.59L13.41,12L19,6.41Z" style="fill: currentcolor;"/></svg></g><path d="M865,61 H893 A6,6 0 0 1 899,67 V95 A6,6 0 0 1 893,101 H865 A6,6 0 0 1 859,95 V67 A6,6 0 0 1 865,61 Z" fill="none" stroke-width="1px" stroke="rgba(0, 0, 0, 0)"/></g></g><g data-selector="div.Window flex-col f-1 min-h-0 min-w-0 relative"><g data-selector="div.W_TimeChart relative f-1 flex-col min-h-0 min-w-0 noselect " data-command="W_TimeChart"><path d="M1,104 H899 V900 H1 V104 Z" fill="var(--rgb255255255rgb393939)"/><g data-selector="div. TimeChart flex-col f-1 h-fit min-h-0 min-w-0 relative noselect" style="clip-path: inset(104px 1px 0px) view-box;"><g data-selector="canvas.f-1 noselect" transform="translate(1, 104)" style="clip-path: inset(0px) view-box;"><g transform="translate(0, 0) scale(1)"><path d="M 70,484.6031128404803 L 71.92840095465394,478.025291828785 L 81.57040572792363,460.1984435798019 L 91.21241050119332,428.4533073930145 L 100.85441527446301,406.3969969651533 L 110.4964200477327,377.73735408562356 L 120.13842482100239,353.26135830856884 L 129.78042959427208,352.8722706626879 L 139.42243436754177,459.57941881032554 L 149.06443914081146,515.5411319903016 L 158.70644391408115,481.83852140078335 L 168.34844868735084,465.1131178118775 L 177.99045346062053,472.2082652179221 L 187.63245823389022,454.66926070040785 L 197.2744630071599,445.22620308792506 L 206.9164677804296,439.88773274631046 L 216.55847255369926,442.9729100130449 L 226.20047732696895,481.9014102601312 L 235.84248210023867,521.510273390875 L 245.48448687350836,562.1595632072081 L 255.12649164677805,602.2024410066446 L 264.7684964200477,629.3767839698303 L 274.41050119331743,676.032645266758 L 284.0525059665871,705.9761481379564 L 293.69451073985675,726.0165488221731 L 303.3365155131265,746 L 312.97852028639625,681.4610894941931 L 322.62052505966585,584.700389105073 L 332.26252983293557,563.7276264591861 L 341.90453460620523,519.7801556420595 L 351.54653937947495,517.5875486381378 L 361.1885441527446,480.9805447471201 L 370.83054892601433,426.6420233462996 L 380.472553699284,397.8747741883575 L 390.1145584725537,411.2389368937635 L 399.7565632458234,429.0928955367946 L 409.3985680190931,421.6794930830561 L 419.04057279236275,412.76134492960693 L 428.6825775656324,395.00592131127854 L 438.3245823389022,389.3677042801874 L 447.96658711217185,396.4221789883393 L 457.60859188544157,392.46485425837443 L 467.25059665871123,392.5095377396733 L 476.8926014319809,399.692107904653 L 486.5346062052506,426.12847936107687 L 496.1766109785203,457.7105639867651 L 505.81861575179,408.9105058365663 L 515.4606205250597,234.8365758755246 L 525.1026252983294,138.64785992217992 L 534.744630071599,140.81162258990005 L 544.3866348448687,185.74840556149547 L 554.0286396181384,185.37280540388863 L 563.6706443914081,204.79074398776538 L 573.3126491646779,230.3927619002032 L 582.9546539379475,278.91368882391447 L 592.5966587112173,323.87898801286343 L 602.2386634844869,395.9160628978764 L 611.8806682577566,433.8046081081907 L 621.5226730310262,419.6828793774668 L 631.1646778042959,414.8922171480616 L 640.8066825775657,395.0875486381502 L 650.4486873508354,397.8994325136103 L 660.090692124105,385.2661025488736 L 669.7326968973747,391.0215438433807 L 679.3747016706444,339.5559662953687 L 689.016706443914,271.82490272374906 L 698.6587112171837,258.06988893484777 L 708.3007159904533,284.6285097000296 L 717.9427207637232,363.3700551626759 L 727.5847255369929,368.32607883603856 L 737.2267303102626,376.70709947587363 L 746.8687350835322,357.24124513619313 L 756.5107398568019,333.8938154716165 L 766.1527446300717,359.2653436949681 L 775.7947494033414,398.20158606594276 L 785.436754176611,476.5594158079975 L 795.0787589498806,600.9950772220081 L 804.7207637231503,656.2878910683357 L 814.36276849642,652.2898832684647 L 824.0047732696896,620.9260700389533 L 833.6467780429593,620.1521304824748 L 843.2887828162292,631.0099576210033 L 852.9307875894989,626.0576798070275 L 862.5727923627686,633.4662870482528 L 872.2147971360382,600.0724708171632" fill="none" stroke="#002fff" stroke-width="2" opacity="1" stroke-linecap="round"/><path d="M 70,402.14202334630215 L 71.92840095465394,401.76070038909535 L 81.57040572792363,401.76070038909535 L 91.21241050119332,382.7898832684919 L 100.85441527446301,340.10675365528357 L 110.4964200477327,297.2007366266444 L 120.13842482100239,275.14567302961103 L 129.78042959427208,279.8664305338963 L 139.42243436754177,347.7060987922223 L 149.06443914081146,424.63229939514997 L 158.70644391408115,399.0494734385617 L 168.34844868735084,372.20817120622945 L 177.99045346062053,376.3073929961156 L 187.63245823389022,376.0214007782278 L 197.2744630071599,376.21206225679657 L 206.9164677804296,372.1251643863757 L 216.55847255369926,368.02374583311274 L 226.20047732696895,393.9329414089851 L 235.84248210023867,439.5631724758556 L 245.48448687350836,474.74735817141305 L 255.12649164677805,528.9516842827048 L 264.7684964200477,545.335598177475 L 274.41050119331743,574.1397948798011 L 284.0525059665871,616.9027328902538 L 293.69451073985675,639.1079631266928 L 303.3365155131265,658.4863813229534 L 312.97852028639625,631.4124513618968 L 322.62052505966585,513.202334630364 L 332.26252983293557,495.4708171206306 L 341.90453460620523,472.3054474708221 L 351.54653937947495,444.18287937746436 L 361.1885441527446,429.9785992217722 L 370.83054892601433,380.31128404668266 L 380.472553699284,346.18287937747425 L 390.1145584725537,347.8967464574393 L 399.7565632458234,367.60134776790363 L 409.3985680190931,367.4476442151655 L 419.04057279236275,360.6417547816965 L 428.6825775656324,342.08365758758816 L 438.3245823389022,342.08365758758816 L 447.96658711217185,342.17898832683784 L 457.60859188544157,342.2743190661568 L 467.25059665871123,340.6463394531047 L 476.8926014319809,341.7132562156007 L 486.5346062052506,355.01417399183885 L 496.1766109785203,380.4027670085806 L 505.81861575179,339.0187328692875 L 515.4606205250597,192.4143968871556 L 525.1026252983294,60 L 534.744630071599,67.8718045463041 L 544.3866348448687,111.6276467545001 L 554.0286396181384,122.79369480834806 L 563.6706443914081,122.30446850312538 L 573.3126491646779,153.44940787489367 L 582.9546539379475,200.0865526208237 L 592.5966587112173,251.0497441224054 L 602.2386634844869,318.2660599008067 L 611.8806682577566,351.4229338005919 L 621.5226730310262,361.27640881618396 L 631.1646778042959,357.95952080704177 L 640.8066825775657,348.03440267216104 L 650.4486873508354,350.40027674571473 L 660.090692124105,335.8158687180933 L 669.7326968973747,311.7684824903087 L 679.3747016706444,281.2626459143912 L 689.016706443914,209.9552529183203 L 698.6587112171837,190.78619069200545 L 708.3007159904533,226.517162439925 L 717.9427207637232,302.37224546459237 L 727.5847255369929,292.93848890056825 L 737.2267303102626,299.676568492409 L 746.8687350835322,306.0486381322765 L 756.5107398568019,306.1439688715955 L 766.1527446300717,306.1439688715955 L 775.7947494033414,323.6910421352171 L 785.436754176611,399.42354987723655 L 795.0787589498806,486.9009083350587 L 804.7207637231503,547.7442881935718 L 814.36276849642,587.7712409071917 L 824.0047732696896,563.1556420233413 L 833.6467780429593,562.4883268482467 L 843.2887828162292,557.0544747081717 L 852.9307875894989,563.9250992523336 L 862.5727923627686,575.188135961504 L 872.2147971360382,546.8064202334912" fill="none" stroke="#4b4b4b" stroke-width="2" opacity="1" stroke-linecap="round"/><text x="6" y="659" text-anchor="start" font-family="Arial" font-size="14px" font-weight="normal" fill="var(--blackrgb187187187)" opacity="1">110,420</text><text x="6" y="563" text-anchor="start" font-family="Arial" font-size="14px" font-weight="normal" fill="var(--blackrgb187187187)" opacity="1">110,440</text><text x="6" y="468" text-anchor="start" font-family="Arial" font-size="14px" font-weight="normal" fill="var(--blackrgb187187187)" opacity="1">110,460</text><text x="6" y="373" text-anchor="start" font-family="Arial" font-size="14px" font-weight="normal" fill="var(--blackrgb187187187)" opacity="1">110,480</text><text x="6" y="277" text-anchor="start" font-family="Arial" font-size="14px" font-weight="normal" fill="var(--blackrgb187187187)" opacity="1">110,500</text><text x="6" y="182" text-anchor="start" font-family="Arial" font-size="14px" font-weight="normal" fill="var(--blackrgb187187187)" opacity="1">110,520</text><text x="6" y="87" text-anchor="start" font-family="Arial" font-size="14px" font-weight="normal" fill="var(--blackrgb187187187)" opacity="1">110,540</text><text x="70" y="776" text-anchor="start" font-family="Arial" font-size="12px" font-weight="normal" fill="var(--blackrgb187187187)" opacity="1">2 Nov</text><text x="70" y="791" text-anchor="start" font-family="Arial" font-size="14px" font-weight="600" fill="var(--blackrgb187187187)" opacity="1">2025</text><text x="245.48448687350836" y="786" text-anchor="middle" font-family="Arial" font-size="12px" font-weight="normal" fill="var(--blackrgb187187187)" opacity="1">01:56 PM</text><text x="361.1885441527446" y="786" text-anchor="middle" font-family="Arial" font-size="12px" font-weight="normal" fill="var(--blackrgb187187187)" opacity="1">01:57 PM</text><text x="476.8926014319809" y="786" text-anchor="middle" font-family="Arial" font-size="12px" font-weight="normal" fill="var(--blackrgb187187187)" opacity="1">01:58 PM</text><text x="592.5966587112173" y="786" text-anchor="middle" font-family="Arial" font-size="12px" font-weight="normal" fill="var(--blackrgb187187187)" opacity="1">01:59 PM</text><text x="708.3007159904533" y="786" text-anchor="middle" font-family="Arial" font-size="12px" font-weight="normal" fill="var(--blackrgb187187187)" opacity="1">02:00 PM</text><text x="878" y="776" text-anchor="end" font-family="Arial" font-size="12px" font-weight="normal" fill="var(--blackrgb187187187)" opacity="1">2 Nov</text><text x="878" y="791" text-anchor="end" font-family="Arial" font-size="14px" font-weight="600" fill="var(--blackrgb187187187)" opacity="1">2025</text></g></g></g><g data-selector="div.W_TimeChart_TopBar gap-0 relative f-1 m-auto  FlexRow flex-row ai-center"><g data-selector="div. PopupMenu_triggerWrapper h-fit w-fit" data-command="ChartLayerManager"><path d="M1,105.59 H41 V145.59 H1 V105.59 Z" fill="none"/><g data-selector="button. f-0 flex-row gap-p5 ai-center btn btn-default btn-size-default btn-color-action ws-nowrap w-fit"><g style="transform: translate(8.9px, 113.49px); color: var(--rgb63131248rgb91164255);"><svg viewBox="0 0 24 24" role="presentation" class=" f-0 " style="width: 22px; height: 22px; transform: scale(1.1);" width="22" height="22"><path d="M12,16L19.36,10.27L21,9L12,2L3,9L4.63,10.27M12,18.54L4.62,12.81L3,14.07L12,21.07L21,14.07L19.37,12.8L12,18.54Z" style="fill: currentcolor;"/></svg></g><path d="M7,105.59 H35 A6,6 0 0 1 41,111.59 V139.59 A6,6 0 0 1 35,145.59 H7 A6,6 0 0 1 1,139.59 V111.59 A6,6 0 0 1 7,105.59 Z" fill="none" stroke-width="1px" stroke="rgba(0, 0, 0, 0)"/></g></g><g data-selector="div.W_TimeChartLayerLegend flex-row gap-1 min-w-0 o-auto no-scroll-bar ScrollFade" style="clip-path: inset(104px 382.359px 752.812px 81px) view-box;"><g data-selector="div.W_TimeChartLayerLegend_Item gap-0 FlexRow flex-row ai-center"><g data-selector="div. PopupMenu_triggerWrapper h-fit w-fit" data-command="TimeChartLayerOptions.yAxis"><path d="M81,104 H253.61 V147.19 H81 V104 Z" fill="none"/><g data-selector="div. FlexRow flex-row gap-1 ai-center"><g data-selector="button. f-0 flex-row gap-p5 ai-center rounded btn btn-text btn-size-default btn-color-action ws-nowrap w-fit" data-command="TimeChartLayerOptions.aggFunc"><text x="172.59" y="130.59" fill="var(--rgb63131248rgb195221253)" font-family="var(--applesystemBlinkMacSystemFontSegoeUIRobotoOxygenUbuntuCantarellFiraSansDroidSansHelveticaNeuesansserifapplesystemBlinkMacSystemFontSegoeUIRobotoOxygenUbuntuCantarellFiraSansDroidSansHelveticaNeuesansserif)" font-size="16px" font-weight="500" font-style="normal" letter-spacing="normal" text-decoration="none solid rgb(63, 131, 248)" text-anchor="start" style="line-height: 16px; white-space: nowrap; text-transform: none;">timestamp</text><g data-selector="div.gap-0 FlexRow flex-row ai-center"><g data-selector="span." style="opacity: 0.7;"><text x="82" y="130.59" fill="var(--rgb63131248rgb195221253)" font-family="var(--applesystemBlinkMacSystemFontSegoeUIRobotoOxygenUbuntuCantarellFiraSansDroidSansHelveticaNeuesansserifapplesystemBlinkMacSystemFontSegoeUIRobotoOxygenUbuntuCantarellFiraSansDroidSansHelveticaNeuesansserif)" font-size="16px" font-weight="500" font-style="normal" letter-spacing="normal" text-decoration="none solid rgb(63, 131, 248)" text-anchor="start" style="line-height: 16px; white-space: nowrap; text-transform: none;">Avg(</text></g><g data-selector="strong."><text x="116.3" y="130.59" fill="var(--rgb63131248rgb195221253)" font-family="var(--applesystemBlinkMacSystemFontSegoeUIRobotoOxygenUbuntuCantarellFiraSansDroidSansHelveticaNeuesansserifapplesystemBlinkMacSystemFontSegoeUIRobotoOxygenUbuntuCantarellFiraSansDroidSansHelveticaNeuesansserif)" font-size="16px" font-weight="700" font-style="normal" letter-spacing="normal" text-decoration="none solid rgb(63, 131, 248)" text-anchor="start" style="line-height: 16px; white-space: nowrap; text-transform: none;">price</text></g><g data-selector="span." style="opacity: 0.7;"><text x="154.88" y="130.59" fill="var(--rgb63131248rgb195221253)" font-family="var(--applesystemBlinkMacSystemFontSegoeUIRobotoOxygenUbuntuCantarellFiraSansDroidSansHelveticaNeuesansserifapplesystemBlinkMacSystemFontSegoeUIRobotoOxygenUbuntuCantarellFiraSansDroidSansHelveticaNeuesansserif)" font-size="16px" font-weight="500" font-style="normal" letter-spacing="normal" text-decoration="none solid rgb(63, 131, 248)" text-anchor="start" style="line-height: 16px; white-space: nowrap; text-transform: none;">),</text></g></g><path d="M89,104 H245.61 A8,8 0 0 1 253.61,112 V139.19 A8,8 0 0 1 245.61,147.19 H89 A8,8 0 0 1 81,139.19 V112 A8,8 0 0 1 89,104 Z" fill="none" stroke-width="1px" stroke="rgba(0, 0, 0, 0)"/></g></g></g><g data-selector="div.ml-1 ColorByLegend FlexRow flex-row gap-1 ai-center"><g data-selector="div. gap-p5 ai-center FlexRow flex-row"><g data-selector="button.shadow b b-color f-0 flex-row gap-p5 ai-center rounded btn btn-default btn-size-micro btn-color-default ws-nowrap w-fit"><path d="M276.11,113.09 H289.11 A6,6 0 0 1 295.11,119.09 V132.09 A6,6 0 0 1 289.11,138.09 H276.11 A6,6 0 0 1 270.11,132.09 V119.09 A6,6 0 0 1 276.11,113.09 Z" fill="rgb(0, 47, 255)" stroke-width="1px" stroke="var(--rgb210214220rgb758599)" style="filter: drop-shadow(rgba(0, 0, 0, 0.1) 0px 1px 1.5px) drop-shadow(rgba(0, 0, 0, 0.06) 0px 1px 1px);"/><g style="transform: translate(273.81px, 116.79px); color: var(--rgb758599rgb229231235);"><svg viewBox="0 0 24 24" role="presentation" class=" f-0 " style="width: 16px; height: 16px; transform: scale(1.1);" width="16" height="16"><path d="M17.5,12A1.5,1.5 0 0,1 16,10.5A1.5,1.5 0 0,1 17.5,9A1.5,1.5 0 0,1 19,10.5A1.5,1.5 0 0,1 17.5,12M14.5,8A1.5,1.5 0 0,1 13,6.5A1.5,1.5 0 0,1 14.5,5A1.5,1.5 0 0,1 16,6.5A1.5,1.5 0 0,1 14.5,8M9.5,8A1.5,1.5 0 0,1 8,6.5A1.5,1.5 0 0,1 9.5,5A1.5,1.5 0 0,1 11,6.5A1.5,1.5 0 0,1 9.5,8M6.5,12A1.5,1.5 0 0,1 5,10.5A1.5,1.5 0 0,1 6.5,9A1.5,1.5 0 0,1 8,10.5A1.5,1.5 0 0,1 6.5,12M12,3A9,9 0 0,0 3,12A9,9 0 0,0 12,21A1.5,1.5 0 0,0 13.5,19.5C13.5,19.11 13.35,18.76 13.11,18.5C12.88,18.23 12.73,17.88 12.73,17.5A1.5,1.5 0 0,1 14.23,16H16A5,5 0 0,0 21,11C21,6.58 16.97,3 12,3Z" style="fill: rgb(0, 47, 255);"/></svg></g></g><g data-selector="div. noselect f-d1"><text x="303.61" y="130.59" fill="var(--rgb223046rgb244245247)" font-family="var(--applesystemBlinkMacSystemFontSegoeUIRobotoOxygenUbuntuCantarellFiraSansDroidSansHelveticaNeuesansserifapplesystemBlinkMacSystemFontSegoeUIRobotoOxygenUbuntuCantarellFiraSansDroidSansHelveticaNeuesansserif)" font-size="16px" font-weight="400" font-style="normal" letter-spacing="normal" text-decoration="none solid rgb(22, 30, 46)" text-anchor="start" style="line-height: normal; white-space: normal; text-transform: none;">BTCUSDC</text></g></g><g data-selector="div. gap-p5 ai-center FlexRow flex-row"><g data-selector="button.shadow b b-color f-0 flex-row gap-p5 ai-center rounded btn btn-default btn-size-micro btn-color-default ws-nowrap w-fit"><path d="M395.78,113.09 H408.78 A6,6 0 0 1 414.78,119.09 V132.09 A6,6 0 0 1 408.78,138.09 H395.78 A6,6 0 0 1 389.78,132.09 V119.09 A6,6 0 0 1 395.78,113.09 Z" fill="rgb(75, 75, 75)" stroke-width="1px" stroke="var(--rgb210214220rgb758599)" style="filter: drop-shadow(rgba(0, 0, 0, 0.1) 0px 1px 1.5px) drop-shadow(rgba(0, 0, 0, 0.06) 0px 1px 1px);"/><g style="transform: translate(393.48px, 116.79px); color: var(--rgb758599rgb229231235);"><svg viewBox="0 0 24 24" role="presentation" class=" f-0 " style="width: 16px; height: 16px; transform: scale(1.1);" width="16" height="16"><path d="M17.5,12A1.5,1.5 0 0,1 16,10.5A1.5,1.5 0 0,1 17.5,9A1.5,1.5 0 0,1 19,10.5A1.5,1.5 0 0,1 17.5,12M14.5,8A1.5,1.5 0 0,1 13,6.5A1.5,1.5 0 0,1 14.5,5A1.5,1.5 0 0,1 16,6.5A1.5,1.5 0 0,1 14.5,8M9.5,8A1.5,1.5 0 0,1 8,6.5A1.5,1.5 0 0,1 9.5,5A1.5,1.5 0 0,1 11,6.5A1.5,1.5 0 0,1 9.5,8M6.5,12A1.5,1.5 0 0,1 5,10.5A1.5,1.5 0 0,1 6.5,9A1.5,1.5 0 0,1 8,10.5A1.5,1.5 0 0,1 6.5,12M12,3A9,9 0 0,0 3,12A9,9 0 0,0 12,21A1.5,1.5 0 0,0 13.5,19.5C13.5,19.11 13.35,18.76 13.11,18.5C12.88,18.23 12.73,17.88 12.73,17.5A1.5,1.5 0 0,1 14.23,16H16A5,5 0 0,0 21,11C21,6.58 16.97,3 12,3Z" style="fill: rgb(75, 75, 75);"/></svg></g></g><g data-selector="div. noselect f-d1"><text x="423.28" y="130.59" fill="var(--rgb223046rgb244245247)" font-family="var(--applesystemBlinkMacSystemFontSegoeUIRobotoOxygenUbuntuCantarellFiraSansDroidSansHelveticaNeuesansserifapplesystemBlinkMacSystemFontSegoeUIRobotoOxygenUbuntuCantarellFiraSansDroidSansHelveticaNeuesansserif)" font-size="16px" font-weight="400" font-style="normal" letter-spacing="normal" text-decoration="none solid rgb(22, 30, 46)" text-anchor="start" style="line-height: normal; white-space: normal; text-transform: none;">BTCUSDT</text></g></g></g><g data-selector="button. f-0 flex-row gap-p5 ai-center btn btn-default btn-size-micro btn-color-default ws-nowrap w-fit"><g style="transform: translate(495.84px, 116.79px); color: var(--rgb758599rgb229231235);"><svg viewBox="0 0 24 24" role="presentation" class=" f-0 " style="width: 16px; height: 16px; transform: scale(1.1);" width="16" height="16"><path d="M19,6.41L17.59,5L12,10.59L6.41,5L5,6.41L10.59,12L5,17.59L6.41,19L12,13.41L17.59,19L19,17.59L13.41,12L19,6.41Z" style="fill: currentcolor;"/></svg></g><path d="M497.64,112.59 H511.64 A6,6 0 0 1 517.64,118.59 V132.59 A6,6 0 0 1 511.64,138.59 H497.64 A6,6 0 0 1 491.64,132.59 V118.59 A6,6 0 0 1 497.64,112.59 Z" fill="none" stroke-width="1px" stroke="rgba(0, 0, 0, 0)"/></g></g></g></g><g data-selector="div.AddTimeChartFilter FlexRow flex-row gap-1 ai-center"><g data-selector="button. f-0 flex-row gap-p5 ai-center btn btn-default btn-size-default btn-color-default ws-nowrap w-fit" data-command="W_TimeChart.AddTimeChartFilter"><g style="transform: translate(866.9px, 111.9px); color: var(--rgb758599rgb229231235);"><svg viewBox="0 0 24 24" role="presentation" class=" f-0 " style="width: 22px; height: 22px; transform: scale(1.1);" width="22" height="22"><path d="M12 12V19.88C12.04 20.18 11.94 20.5 11.71 20.71C11.32 21.1 10.69 21.1 10.3 20.71L8.29 18.7C8.06 18.47 7.96 18.16 8 17.87V12H7.97L2.21 4.62C1.87 4.19 1.95 3.56 2.38 3.22C2.57 3.08 2.78 3 3 3H17C17.22 3 17.43 3.08 17.62 3.22C18.05 3.56 18.13 4.19 17.79 4.62L12.03 12H12M15 17H18V14H20V17H23V19H20V22H18V19H15V17Z" style="fill: currentcolor;"/></svg></g><path d="M865,104 H893 A6,6 0 0 1 899,110 V138 A6,6 0 0 1 893,144 H865 A6,6 0 0 1 859,138 V110 A6,6 0 0 1 865,104 Z" fill="none" stroke-width="1px" stroke="rgba(0, 0, 0, 0)"/></g></g></g></g></g></g></g></g></g></g></g></g></g></g></g></g><style xmlns="http://www.w3.org/1999/xhtml" type="text/css">:root #id-29b84ee4 { 
  --dark-theme-hide: 1;
  --light-theme-hide: 0;
  --rgb244245247rgb000: rgb(244, 245, 247); 
  --rgb210214220rgb000: rgb(210, 214, 220); 
  --rgb210214220rgb758599: rgb(210, 214, 220); 
  --rgb255255255rgb444444: rgb(255, 255, 255); 
  --rgb255255255rgb363636: rgb(255, 255, 255); 
  --rgb255255255rgb393939: rgb(255, 255, 255); 
  --rgb240254255rgb03755: rgb(240, 254, 255); 
  --rgba125125125022rgba125125125038: rgba(125, 125, 125, 0.22); 
  --rgb758599rgb229231235: rgb(75, 85, 99); 
  --applesystemBlinkMacSystemFontSegoeUIRobotoOxygenUbuntuCantarellFiraSansDroidSansHelveticaNeuesansserifapplesystemBlinkMacSystemFontSegoeUIRobotoOxygenUbuntuCantarellFiraSansDroidSansHelveticaNeuesansserif: -apple-system, BlinkMacSystemFont, "Segoe UI", Roboto, Oxygen, Ubuntu, Cantarell, "Fira Sans", "Droid Sans", "Helvetica Neue", sans-serif; 
  --rgb225239254rgba07916308: rgb(225, 239, 254); 
  --rgb63131248rgb255255255: rgb(63, 131, 248); 
  --rgb63131248rgb91164255: rgb(63, 131, 248); 
  --rgb63131248rgb195221253: rgb(63, 131, 248); 
  --rgb249250251rgb333333: rgb(249, 250, 251); 
  --rgb229231235rgb758599: rgb(229, 231, 235); 
  --rgb229231235rgb444444: rgb(229, 231, 235); 
  --rgb223046rgb244245247: rgb(22, 30, 46); 
  --blackrgb187187187: black; 
}
@media (prefers-color-scheme: dark) { 
 :root #id-29b84ee4  { 
  --dark-theme-hide: 0;
  --light-theme-hide: 1;
  --rgb244245247rgb000: rgb(0, 0, 0); 
  --rgb210214220rgb000: rgb(0, 0, 0); 
  --rgb210214220rgb758599: rgb(75, 85, 99); 
  --rgb255255255rgb444444: rgb(44, 44, 44); 
  --rgb255255255rgb363636: rgb(36, 36, 36); 
  --rgb255255255rgb393939: rgb(39, 39, 39); 
  --rgb240254255rgb03755: rgb(0, 37, 55); 
  --rgba125125125022rgba125125125038: rgba(125, 125, 125, 0.38); 
  --rgb758599rgb229231235: rgb(229, 231, 235); 
  --rgb225239254rgba07916308: rgba(0, 79, 163, 0.8); 
  --rgb63131248rgb255255255: rgb(255, 255, 255); 
  --rgb63131248rgb91164255: rgb(91, 164, 255); 
  --rgb63131248rgb195221253: rgb(195, 221, 253); 
  --rgb249250251rgb333333: rgb(33, 33, 33); 
  --rgb229231235rgb758599: rgb(75, 85, 99); 
  --rgb229231235rgb444444: rgb(44, 44, 44); 
  --rgb223046rgb244245247: rgb(244, 245, 247); 
  --blackrgb187187187: rgb(187, 187, 187); 
  }
} 
</style></svg>