<svg xmlns="http://www.w3.org/2000/svg" width="100%" height="100%" viewBox="0 0 900 600" preserveAspectRatio="xMidYMid meet"><defs><style type="text/css"/></defs><g data-selector="body.text-0 bg-color-2" clip-path="url(#clip-of-17)"><path d="M0,0 H900 V600 H0 V0 Z" fill="var(--color-0)"/><g data-selector="main."><g data-selector="div.App gap-0 f-1 min-h-0 FlexCol flex-col"><g data-selector="div.Project f-1 flex-col h-full w-full min-h-0 min-w-0 relative bg-color-4"><path d="M0,0 H900 V600 H0 V0 Z" fill="var(--color-1)"/><g data-selector="div.f-1 w-full h-full flex-col"><g data-selector="div.Dashboard gap-0 f-1 min-w-0 min-h-0 w-full  FlexCol flex-col"><g data-selector="div.TopHeader f-0 flex-row  min-h-0 min-w-0 o-hidden" clip-path="url(#clip-of-6)"><g data-selector="div.TopControls w-full bg-color-0 jc-center shadow FlexRow flex-row gap-1 ai-center"><path d="M0,0 H900 V58 H0 V0 Z" fill="var(--color-2)" style="filter: drop-shadow(rgba(0, 0, 0, 0.1) 0px 1px 1.5px) drop-shadow(rgba(0, 0, 0, 0.06) 0px 1px 1px);"/><g data-selector="div.max-w-fit f-1 ai-center  p-p5  FlexRow flex-row gap-1"><g data-selector="button. f-0 flex-row gap-p5 ai-center rounded btn btn-default btn-size-default btn-color-default ws-nowrap w-fit" data-command="dashboard.menu"><path d="M12.5,8.5 H45.5 A4,4 0 0 1 49.5,12.5 V45.5 A4,4 0 0 1 45.5,49.5 H12.5 A4,4 0 0 1 8.5,45.5 V12.5 A4,4 0 0 1 12.5,8.5 Z" fill="var(--color-3)" stroke-width="1px" stroke="rgb(58, 216, 227)"/><svg xmlns:dc="http://purl.org/dc/elements/1.1/" xmlns:cc="http://creativecommons.org/ns#" xmlns:rdf="http://www.w3.org/1999/02/22-rdf-syntax-ns#" xmlns:svg="http://www.w3.org/2000/svg" xmlns="http://www.w3.org/2000/svg" id="svg8" version="1.1" viewBox="0 0 9.5249998 9.5250003" height="36" width="36" x="11" y="11">
  <style>
    @media (prefers-color-scheme: dark) {
      <!-- #path3881-head {
        fill: green !important;
      }
  
      #path3887-eye {
        fill: #ff0000 !important;
      }       -->
    }
  </style>
  <g transform="translate(0,-287.47498)" id="layer1">
    <path style="fill:#0087ab;stroke-width:0.10478402" id="path3881-head" d="m 6.5209966,295.25712 c 0.2175402,-0.46431 1.6420322,-2.2511 1.3456182,-4.2915 -0.085217,-0.58659 -2.1619067,-1.59449 -2.2268491,-1.64218 -0.01022,-0.008 -0.1325362,-0.0996 -0.1694292,-0.13795 -0.197562,-0.2055 -0.499117,-0.62298 -0.8304557,-0.82041 -0.1525898,-0.0909 -0.7394033,-0.0609 -1.0268278,0.11432 l -1.879837,1.08657 c -0.4703536,0.4665 0.1139504,1.07392 0.2268207,1.30469 0.1128704,0.23077 0.803662,0.95627 0.803662,0.95627 v 0 c -0.1433145,0.0653 -0.3911698,-0.0575 -0.6915708,-0.27496 0,0 -0.8432496,-0.80366 -0.8823501,-0.87005 -0.039101,-0.0664 -0.1564018,-0.20484 -0.23460266,-0.47082 0,0 -0.0384912,-0.0917 -0.0544209,-0.51555 -0.0159297,-0.42388 0.69813926,-0.64516 0.80535536,-0.72619 0.107216,-0.081 1.4441719,-0.86378 1.8275182,-1.11029 0.3833462,-0.24651 0.8880668,-0.20266 1.1387453,-0.0444 l 2.8538119,1.69411 c 0.2716598,0.15804 1.3866918,1.14066 1.421482,1.86382 0.081505,1.69417 -1.2190224,2.93746 -1.8472163,4.27428 -0.6281939,1.33683 1.1838142,0.58699 1.2737198,0.43944 l 0.259057,0.27303 c -0.8972105,0.56378 -1.9304095,0.39775 -2.0611443,0.33679 -0.1307347,-0.0609 -0.2768897,-0.88205 -0.051087,-1.439 z"/>
    <path style="fill: #bc0000;fill-opacity:1;fill-rule:evenodd;stroke-width:0.07858816;stroke-miterlimit:4;stroke-dasharray:none;stroke-opacity:0.60294118;" id="path3887-eye" d="m 6.2908378,290.63597 c 0.030281,-0.0145 0.067771,-0.0145 0.09805,0 0.9624569,0.37529 0.8624334,0.39198 0.8624334,1.21858 0,0.0285 -0.018608,0.0549 -0.049026,0.0694 -0.9558494,-0.4203 -0.9974496,-0.45611 -0.9114585,-1.28795 z"/>
  </g>
</svg></g><g data-selector="div.h-full flex-col gap-p25 ai-start "><g data-selector="a.ConnectionConfigBtn f-0 flex-row gap-p5 ai-center button-css btn btn-faded btn-size-default btn-color-default ws-nowrap w-fit" data-command="dashboard.goToConnConfig" clip-path="url(#clip-of-0)"><path d="M72,9 H100 A6,6 0 0 1 106,15 V43 A6,6 0 0 1 100,49 H72 A6,6 0 0 1 66,43 V15 A6,6 0 0 1 72,9 Z" fill="var(--color-4)" stroke-width="1px" stroke="rgba(0, 0, 0, 0)"/><g style="transform: translate(73.9px, 16.9px); color: var(--color-5);"><svg viewBox="0 0 24 24" role="presentation" class=" f-0 " style="width: 22px; height: 22px; transform: scale(1.1);" width="22" height="22"><path d="M4 7C4 4.79 7.58 3 12 3S20 4.79 20 7 16.42 11 12 11 4 9.21 4 7M12.08 18L12 18C7.58 18 4 16.21 4 14V17C4 19.21 7.58 21 12 21C12.1 21 12.2 21 12.29 21C12.11 20.36 12 19.69 12 19C12 18.66 12.03 18.33 12.08 18M20 12.08C20 12.05 20 12.03 20 12V9C20 11.21 16.42 13 12 13S4 11.21 4 9V12C4 14.21 7.58 16 12 16C12.23 16 12.46 16 12.69 16C13.82 13.63 16.22 12 19 12C19.34 12 19.67 12.03 20 12.08M23.8 20.4C23.9 20.4 23.9 20.5 23.8 20.6L22.8 22.3C22.7 22.4 22.6 22.4 22.5 22.4L21.3 22C21 22.2 20.8 22.3 20.5 22.5L20.3 23.8C20.3 23.9 20.2 24 20.1 24H18.1C18 24 17.9 23.9 17.8 23.8L17.6 22.5C17.3 22.4 17 22.2 16.8 22L15.6 22.5C15.5 22.5 15.4 22.5 15.3 22.4L14.3 20.7C14.2 20.6 14.3 20.5 14.4 20.4L15.5 19.6V18.6L14.4 17.8C14.3 17.7 14.3 17.6 14.3 17.5L15.3 15.8C15.4 15.7 15.5 15.7 15.6 15.7L16.8 16.2C17.1 16 17.3 15.9 17.6 15.7L17.8 14.4C17.8 14.3 17.9 14.2 18.1 14.2H20.1C20.2 14.2 20.3 14.3 20.3 14.4L20.5 15.7C20.8 15.8 21.1 16 21.4 16.2L22.6 15.7C22.7 15.7 22.9 15.7 22.9 15.8L23.9 17.5C24 17.6 23.9 17.7 23.8 17.8L22.7 18.6V19.6L23.8 20.4M20.5 19C20.5 18.2 19.8 17.5 19 17.5S17.5 18.2 17.5 19 18.2 20.5 19 20.5 20.5 19.8 20.5 19Z" style="fill: currentcolor;"/></svg></g><clipPath id="clip-of-0"><path d="M71,8 H101 A6,6 0 0 1 107,14 V44 A6,6 0 0 1 101,50 H71 A6,6 0 0 1 65,44 V14 A6,6 0 0 1 71,8 Z" fill="none" stroke="none"/></clipPath></g></g><g data-selector="button. Select w-fit f-0 select-button   flex-row gap-p5 ai-center rounded btn btn-faded btn-size-default btn-color-default ws-nowrap" data-command="ConnectionSelector"><path d="M130,9 H218.2 A8,8 0 0 1 226.2,17 V41 A8,8 0 0 1 218.2,49 H130 A8,8 0 0 1 122,41 V17 A8,8 0 0 1 130,9 Z" fill="var(--color-4)" stroke-width="1px" stroke="rgba(0, 0, 0, 0)"/><g style="transform: translate(133.9px, 16.9px); color: var(--color-5);"><svg viewBox="0 0 24 24" role="presentation" class=" f-0 " style="width: 22px; height: 22px; transform: scale(1.1);" width="22" height="22"><path d="M12,3C7.58,3 4,4.79 4,7C4,9.21 7.58,11 12,11C16.42,11 20,9.21 20,7C20,4.79 16.42,3 12,3M4,9V12C4,14.21 7.58,16 12,16C16.42,16 20,14.21 20,12V9C20,11.21 16.42,13 12,13C7.58,13 4,11.21 4,9M4,14V17C4,19.21 7.58,21 12,21C16.42,21 20,19.21 20,17V14C20,16.21 16.42,18 12,18C7.58,18 4,16.21 4,14Z" style="fill: currentcolor;"/></svg></g><g data-selector="div. text-ellipsis text-color-0" clip-path="url(#clip-of-1)"><text x="165" y="34" fill="var(--color-5)" font-family="var(--fontFamily-6)" font-size="16px" font-weight="500" font-style="normal" letter-spacing="normal" text-decoration="none solid rgb(75, 85, 99)" text-anchor="start" style="line-height: 18px; white-space: nowrap; text-transform: none;">crypto</text><clipPath id="clip-of-1"><path d="M165,20 H213.2 V38 H165 V20 Z" fill="none" stroke="none"/></clipPath></g></g></g><g data-selector="div. WorkspaceMenu as-end jc-center text-white ai-center f-1 min-w-0 o-auto h-fit FlexRow flex-row gap-1" clip-path="url(#clip-of-3)"><g data-selector="ul.no-decor o-auto f-1 min-w-0 max-w-fit flex-row no-scroll-bar ai-end" data-command="WorkspaceMenu.list" clip-path="url(#clip-of-2)"><path d="M382.27,5 H534.92 V58 H382.27 V5 Z" fill="none"/><g data-selector="li.workspace-list-item text-1 relative active"><g data-selector="button. f-0 flex-row gap-p5 ai-center rounded btn btn-default btn-size-default btn-color-default ws-nowrap w-fit"><path d="M382.27,5 H534.92 V58 H382.27 V5 Z" fill="none" stroke="none"/><line x1="382.265625" y1="5.5" x2="534.921875" y2="5.5" stroke="rgba(0, 0, 0, 0)" stroke-width="1"/><line x1="534.421875" y1="5" x2="534.421875" y2="58" stroke="rgba(0, 0, 0, 0)" stroke-width="1"/><line x1="382.265625" y1="56" x2="534.921875" y2="56" stroke="rgb(0, 161, 255)" stroke-width="4"/><line x1="382.765625" y1="5" x2="382.765625" y2="58" stroke="rgba(0, 0, 0, 0)" stroke-width="1"/><text x="399.27" y="35" fill="var(--color-5)" font-family="var(--fontFamily-6)" font-size="16px" font-weight="600" font-style="normal" letter-spacing="normal" text-decoration="none solid rgb(75, 85, 99)" text-anchor="start" style="line-height: 16px; white-space: nowrap; text-transform: none;">Crypto markets</text></g></g><clipPath id="clip-of-2"><path d="M382.27,5 H534.92 V58 H382.27 V5 Z" fill="none" stroke="none"/></clipPath></g><g data-selector="div.PopupMenu_triggerWrapper h-fit w-fit "><g data-selector="button.text-0 f-0 flex-row gap-p5 ai-center btn btn-default btn-size-default btn-color-default ws-nowrap w-fit" data-command="WorkspaceMenuDropDown"><path d="M541.92,7.5 H577.92 A6,6 0 0 1 583.92,13.5 V49.5 A6,6 0 0 1 577.92,55.5 H541.92 A6,6 0 0 1 535.92,49.5 V13.5 A6,6 0 0 1 541.92,7.5 Z" fill="none" stroke-width="1px" stroke="rgba(0, 0, 0, 0)"/><g style="transform: translate(547.82px, 19.4px); color: var(--color-5);"><svg viewBox="0 0 24 24" role="presentation" class=" f-0 " style="width: 22px; height: 22px; transform: scale(1.1);" width="22" height="22"><path d="M7.41,8.58L12,13.17L16.59,8.58L18,10L12,16L6,10L7.41,8.58Z" style="fill: currentcolor;"/></svg></g></g></g><clipPath id="clip-of-3"><path d="M250.2,5 H716 V58 H250.2 V5 Z" fill="none" stroke="none"/></clipPath></g><g data-selector="div.ml-auto min-w-0 f-0 ai-start gap-1 text-1p5 w-fit ai-center noselect o-auto no-scroll-bar jc-end  p-p5  FlexRow flex-row" clip-path="url(#clip-of-5)"><g data-selector="button. f-0 flex-row gap-p5 ai-center btn btn-faded btn-size-default btn-color-action ws-nowrap w-fit" data-command="AskLLM"><path d="M746,9 H774 A6,6 0 0 1 780,15 V43 A6,6 0 0 1 774,49 H746 A6,6 0 0 1 740,43 V15 A6,6 0 0 1 746,9 Z" fill="var(--color-7)" stroke-width="1px" stroke="rgba(0, 0, 0, 0)"/><g style="transform: translate(747.9px, 16.9px); color: var(--color-8);"><svg viewBox="0 0 24 24" role="presentation" class=" f-0 " style="width: 22px; height: 22px; transform: scale(1.1);" width="22" height="22"><path d="M19,2H5A2,2 0 0,0 3,4V18A2,2 0 0,0 5,20H9L12,23L15,20H19A2,2 0 0,0 21,18V4A2,2 0 0,0 19,2M13.88,12.88L12,17L10.12,12.88L6,11L10.12,9.12L12,5L13.88,9.12L18,11" style="fill: currentcolor;"/></svg></g></g><g data-selector="div.PopupMenu_triggerWrapper h-fit w-fit "><g data-selector="button. f-0 flex-row gap-p5 ai-center btn btn-faded btn-size-default btn-color-default ws-nowrap w-fit" data-command="Feedback"><path d="M802,9 H830 A6,6 0 0 1 836,15 V43 A6,6 0 0 1 830,49 H802 A6,6 0 0 1 796,43 V15 A6,6 0 0 1 802,9 Z" fill="var(--color-4)" stroke-width="1px" stroke="rgba(0, 0, 0, 0)"/><g style="transform: translate(803.9px, 16.9px); color: var(--color-5);"><svg viewBox="0 0 24 24" role="presentation" class=" f-0 " style="width: 22px; height: 22px; transform: scale(1.1);" width="22" height="22"><path d="M20 2H4C2.9 2 2 2.9 2 4V22L6 18H20C21.1 18 22 17.1 22 16V4C22 2.9 21.1 2 20 2M20 16H5.2L4 17.2V4H20V16M18 14V6H13V14L15.5 12.5L18 14" style="fill: currentcolor;"/></svg></g></g></g><g data-selector="a. f-0 flex-row gap-p5 ai-center button-css btn btn-faded btn-size-default btn-color-default ws-nowrap w-fit active" data-command="dashboard.goToConnections" clip-path="url(#clip-of-4)"><path d="M858,9 H886 A6,6 0 0 1 892,15 V43 A6,6 0 0 1 886,49 H858 A6,6 0 0 1 852,43 V15 A6,6 0 0 1 858,9 Z" fill="var(--color-4)" stroke-width="1px" stroke="rgba(0, 0, 0, 0)"/><g style="transform: translate(859.9px, 16.9px); color: var(--color-5);"><svg viewBox="0 0 24 24" role="presentation" class=" f-0 " style="width: 22px; height: 22px; transform: scale(1.1);" width="22" height="22"><path d="M20,11V13H8L13.5,18.5L12.08,19.92L4.16,12L12.08,4.08L13.5,5.5L8,11H20Z" style="fill: currentcolor;"/></svg></g><clipPath id="clip-of-4"><path d="M857,8 H887 A6,6 0 0 1 893,14 V44 A6,6 0 0 1 887,50 H857 A6,6 0 0 1 851,44 V14 A6,6 0 0 1 857,8 Z" fill="none" stroke="none"/></clipPath></g><clipPath id="clip-of-5"><path d="M732,1 H900 V57 H732 V1 Z" fill="none" stroke="none"/></clipPath></g></g><clipPath id="clip-of-6"><path d="M0,0 H900 V58 H0 V0 Z" fill="none" stroke="none"/></clipPath></g><g data-selector="div.Dashboard_Wrapper min-h-0 f-1 flex-row relative"><g data-selector="div.Dashboard_MainContentWrapper f-1 gap-0 relative ai-none jc-none FlexRow flex-row"><g data-selector="div.ViewRenderer min-h-0 f-1 flex-row relative"><g data-selector="div.min-h-0 relative silver-grid-component"><g data-selector="div. silver-grid-box flex-tab min-w-0 min-h-0"><g data-selector="div.SilverGridChild silver-grid-box silver-grid-item bg-color-1 f-1 flex-col min-w-0 min-h-0   " clip-path="url(#clip-of-16)"><path d="M1,60 H899 V600 H1 V60 Z" fill="var(--color-9)"/><g data-selector="div.silver-grid-item-header flex-row  bg-color-0 bb b-color-0 pointer f-0 noselect relative ai-center shadow"><path d="M1,60 H899 V103 H1 V60 Z" fill="var(--color-2)" stroke="none" style="filter: drop-shadow(rgba(0, 0, 0, 0.1) 0px 1px 1.5px) drop-shadow(rgba(0, 0, 0, 0.06) 0px 1px 1px);"/><line x1="1" y1="102.5" x2="899" y2="102.5" stroke="var(--color-10)" stroke-width="1"/><g data-selector="div.silver-grid-item-header--icon flex-row f-0 o-hidden f-1 ai-center" clip-path="url(#clip-of-7)"><g data-selector="button.f-0 flex-row gap-p5 ai-center btn btn-default btn-size-default btn-color-default ws-nowrap w-fit" data-command="dashboard.window.menu"><path d="M7,61 H35 A6,6 0 0 1 41,67 V95 A6,6 0 0 1 35,101 H7 A6,6 0 0 1 1,95 V67 A6,6 0 0 1 7,61 Z" fill="none" stroke-width="1px" stroke="rgba(0, 0, 0, 0)"/><g style="transform: translate(8.9px, 68.9px); color: var(--color-5);"><svg viewBox="0 0 24 24" role="presentation" class=" f-0 " style="width: 22px; height: 22px; transform: scale(1.1);" width="22" height="22"><path d="M12,16A2,2 0 0,1 14,18A2,2 0 0,1 12,20A2,2 0 0,1 10,18A2,2 0 0,1 12,16M12,10A2,2 0 0,1 14,12A2,2 0 0,1 12,14A2,2 0 0,1 10,12A2,2 0 0,1 12,10M12,4A2,2 0 0,1 14,6A2,2 0 0,1 12,8A2,2 0 0,1 10,6A2,2 0 0,1 12,4Z" style="fill: currentcolor;"/></svg></g></g><clipPath id="clip-of-7"><path d="M1,61 H43 V101 H1 V61 Z" fill="none" stroke="none"/></clipPath></g><g data-selector="div.SilverGridChildHeader_tabs flex-row f-1 min-w-0 ws-nowrap ai-end text-ellipsiss ml-p25 o-auto  no-scroll-bar FlexRow gap-1" clip-path="url(#clip-of-12)"><g data-selector="div.gap-p25 pl-p5 pr-p25 bg-color-0 FlexRow flex-row ai-center"><path d="M47,62 H234.19 V102 H47 V62 Z" fill="var(--color-11)"/><g data-selector="div.silver-grid-item-header--title py-p5 f-1 min-w-0 max-w-fit text-ellipsis noselect " clip-path="url(#clip-of-8)"><text x="55" y="87" fill="var(--color-12)" font-family="var(--fontFamily-6)" font-size="16px" font-weight="400" font-style="normal" letter-spacing="normal" text-decoration="none solid rgb(22, 30, 46)" text-anchor="start" style="line-height: 26px; white-space: nowrap; text-transform: none;">futures (timestamp)</text><clipPath id="clip-of-8"><path d="M55,61 H200.19 V103 H55 V61 Z" fill="none" stroke="none"/></clipPath></g></g><g data-selector="div.gap-p25 pl-p5 pr-p25 bg-color-3 FlexRow flex-row ai-center"><path d="M235.19,65 H373.2 V102 H235.19 V65 Z" fill="var(--color-13)"/><g data-selector="div.f-1 min-w-0 ws-nowrap text-ellipsis py-p5 " clip-path="url(#clip-of-9)"><text x="255.19" y="88" fill="var(--color-12)" font-family="var(--fontFamily-6)" font-size="16px" font-weight="400" font-style="normal" letter-spacing="normal" text-decoration="none solid rgb(22, 30, 46)" text-anchor="start" style="line-height: 21px; white-space: nowrap; text-transform: none;">futures 208</text><clipPath id="clip-of-9"><path d="M243.19,65 H339.2 V102 H243.19 V65 Z" fill="none" stroke="none"/></clipPath></g><g data-selector="button.SilverGridChild_CloseButton show-on-parent-hover f-0 flex-row gap-p5 ai-center btn btn-default btn-size-micro btn-color-default ws-nowrap w-fit"><path d="M349.2,70.5 H363.2 A6,6 0 0 1 369.2,76.5 V90.5 A6,6 0 0 1 363.2,96.5 H349.2 A6,6 0 0 1 343.2,90.5 V76.5 A6,6 0 0 1 349.2,70.5 Z" fill="none" stroke-width="1px" stroke="rgba(0, 0, 0, 0)"/><g style="transform: translate(347.4px, 74.7px); color: var(--color-5);"><svg viewBox="0 0 24 24" role="presentation" class=" f-0 " style="width: 16px; height: 16px; transform: scale(1.1);" width="16" height="16"><path d="M19,6.41L17.59,5L12,10.59L6.41,5L5,6.41L10.59,12L5,17.59L6.41,19L12,13.41L17.59,19L19,17.59L13.41,12L19,6.41Z" style="fill: currentcolor;"/></svg></g></g></g><g data-selector="div.gap-p25 pl-p5 pr-p25 bg-color-3 FlexRow flex-row ai-center"><path d="M374.2,65 H550.81 V102 H374.2 V65 Z" fill="var(--color-13)"/><g data-selector="div.f-1 min-w-0 ws-nowrap text-ellipsis py-p5 " clip-path="url(#clip-of-10)"><text x="394.2" y="88" fill="var(--color-12)" font-family="var(--fontFamily-6)" font-size="16px" font-weight="400" font-style="normal" letter-spacing="normal" text-decoration="none solid rgb(22, 30, 46)" text-anchor="start" style="line-height: 21px; white-space: nowrap; text-transform: none;">market_caps 250</text><clipPath id="clip-of-10"><path d="M382.2,65 H516.81 V102 H382.2 V65 Z" fill="none" stroke="none"/></clipPath></g></g><g data-selector="div.gap-p25 pl-p5 pr-p25 bg-color-3 FlexRow flex-row ai-center"><path d="M551.81,65 H664.58 V102 H551.81 V65 Z" fill="var(--color-13)"/><g data-selector="div.f-1 min-w-0 ws-nowrap text-ellipsis py-p5 " clip-path="url(#clip-of-11)"><text x="571.81" y="88" fill="var(--color-12)" font-family="var(--fontFamily-6)" font-size="16px" font-weight="400" font-style="normal" letter-spacing="normal" text-decoration="none solid rgb(22, 30, 46)" text-anchor="start" style="line-height: 21px; white-space: nowrap; text-transform: none;">markets</text><clipPath id="clip-of-11"><path d="M559.81,65 H630.58 V102 H559.81 V65 Z" fill="none" stroke="none"/></clipPath></g></g><clipPath id="clip-of-12"><path d="M47,60 H779 V102 H47 V60 Z" fill="none" stroke="none"/></clipPath></g><g data-selector="button.f-0  flex-row gap-p5 ai-center btn btn-default btn-size-default btn-color-default ws-nowrap w-fit" data-command="dashboard.window.collapse"><path d="M785,61 H813 A6,6 0 0 1 819,67 V95 A6,6 0 0 1 813,101 H785 A6,6 0 0 1 779,95 V67 A6,6 0 0 1 785,61 Z" fill="none" stroke-width="1px" stroke="rgba(0, 0, 0, 0)"/><g style="transform: translate(786.9px, 68.9px); color: var(--color-5);"><svg viewBox="0 0 24 24" role="presentation" class=" f-0 " style="width: 22px; height: 22px; transform: scale(1.1);" width="22" height="22"><path d="M16.59,5.41L15.17,4L12,7.17L8.83,4L7.41,5.41L12,10M7.41,18.59L8.83,20L12,16.83L15.17,20L16.58,18.59L12,14L7.41,18.59Z" style="fill: currentcolor;"/></svg></g></g><g data-selector="button.f-0  flex-row gap-p5 ai-center btn btn-default btn-size-default btn-color-default ws-nowrap w-fit" data-command="dashboard.window.fullscreen"><path d="M825,61 H853 A6,6 0 0 1 859,67 V95 A6,6 0 0 1 853,101 H825 A6,6 0 0 1 819,95 V67 A6,6 0 0 1 825,61 Z" fill="none" stroke-width="1px" stroke="rgba(0, 0, 0, 0)"/><g style="transform: translate(826.9px, 68.9px); color: var(--color-5);"><svg viewBox="0 0 24 24" role="presentation" class=" f-0 " style="width: 22px; height: 22px; transform: scale(1.1);" width="22" height="22"><path d="M5,5H10V7H7V10H5V5M14,5H19V10H17V7H14V5M17,14H19V19H14V17H17V14M10,17V19H5V14H7V17H10Z" style="fill: currentcolor;"/></svg></g></g><g data-selector="button.f-0  flex-row gap-p5 ai-center btn btn-default btn-size-default btn-color-default ws-nowrap w-fit" data-command="dashboard.window.close"><path d="M865,61 H893 A6,6 0 0 1 899,67 V95 A6,6 0 0 1 893,101 H865 A6,6 0 0 1 859,95 V67 A6,6 0 0 1 865,61 Z" fill="none" stroke-width="1px" stroke="rgba(0, 0, 0, 0)"/><g style="transform: translate(866.9px, 68.9px); color: var(--color-5);"><svg viewBox="0 0 24 24" role="presentation" class=" f-0 " style="width: 22px; height: 22px; transform: scale(1.1);" width="22" height="22"><path d="M19,6.41L17.59,5L12,10.59L6.41,5L5,6.41L10.59,12L5,17.59L6.41,19L12,13.41L17.59,19L19,17.59L13.41,12L19,6.41Z" style="fill: currentcolor;"/></svg></g></g></g><g data-selector="div.Window flex-col f-1 min-h-0 min-w-0 relative"><g data-selector="div.W_TimeChart relative f-1 flex-col min-h-0 min-w-0 noselect " data-command="W_TimeChart"><path d="M1,104 H899 V600 H1 V104 Z" fill="var(--color-14)"/><g data-selector="div. TimeChart flex-col f-1 h-fit min-h-0 min-w-0 relative noselect" clip-path="url(#clip-of-14)"><g data-selector="canvas.f-1 noselect" transform="translate(1, 104)" clip-path="url(#clip-of-13)"><g transform="translate(0, 0) scale(1)"><path d="M 70,351.9492385786802 L 74.17919900947663,353.12487309645815 L 78.3793990190009,353.12487309645815 L 82.57959902852517,367.62436548223354 L 86.77979903804943,367.62436548223354 L 90.9799990475737,367.62436548223354 L 95.18019905709795,367.62436548223354 L 99.38039906662222,339.409137055849 L 103.58059907614648,334.31472081218277 L 107.78079908567074,334.31472081218277 L 111.98099909519502,334.31472081218277 L 116.18119910471927,334.31472081218277 L 120.38139911424354,334.31472081218277 L 124.5815991237678,334.31472081218277 L 128.78179913329205,334.31472081218277 L 132.98199914281633,319.42335025379566 L 137.1821991523406,319.42335025379566 L 141.38239916186487,304.92385786802026 L 145.58259917138912,304.92385786802026 L 149.78279918091337,304.92385786802026 L 153.98299919043762,304.92385786802026 L 158.1831991999619,304.92385786802026 L 162.38339920948619,283.76243654824617 L 166.58359921901044,283.76243654824617 L 170.7837992285347,277.8842639594137 L 174.98399923805897,277.8842639594137 L 179.18419924758322,277.8842639594137 L 183.3843992571075,277.49238578680206 L 187.58459926663176,239.8720812182513 L 191.784799276156,239.8720812182513 L 195.98499928568026,239.8720812182513 L 200.1851992952045,239.4802030456967 L 204.3853993047288,234.19115063229418 L 208.58559931425305,233.40515497766302 L 212.78579932377733,233.39843505074276 L 216.98599933330158,233.39843505074276 L 221.18619934282583,239.4802030456967 L 225.3863993523501,239.4802030456967 L 229.5865993618744,239.4802030456967 L 233.78679937139867,238.75800194414532 L 237.9869993809229,238.75800194414532 L 242.18719939044715,238.75800194414532 L 246.38739939997143,239.4802030456967 L 250.58759940949568,233.20605413989767 L 254.78779941901996,230.73053385967629 L 258.9879994285442,235.1695431471967 L 263.18819943806847,227.1685136722978 L 267.38839944759275,227.1685136722978 L 271.588599457117,227.1976259882304 L 275.7887994666413,214.54484365889292 L 279.98899947616553,222.57126601642238 L 284.1891994856898,222.57126601642238 L 288.38939949521404,222.54887296123485 L 292.5895995047383,214.98043204043304 L 296.78979951426254,222.4201130014289 L 300.9899995237868,217.46717696549308 L 305.1901995333111,145.8213197969315 L 309.3903995428353,158.7532994923744 L 313.5905995523596,125.051776649769 L 317.7907995618839,147.78448613178395 L 321.99099957140817,120.74111675126906 L 326.19119958093245,120.74111675126906 L 330.39139959045673,116.11487383348424 L 334.591599599981,116.11487383348424 L 338.79179960950523,120.74111675126906 L 342.9919996190295,97.05839809845406 L 347.1921996285538,93.97487671738213 L 351.392399638078,93.98159664424536 L 355.5925996476023,97.63160316082755 L 359.7927996571266,97.67191065238673 L 363.99299966665075,105.11384119005396 L 368.193199676175,105.11384119005396 L 372.3933996856993,106.52460127896873 L 376.5935996952236,106.52460127896873 L 380.7937997047478,103.84995249441181 L 384.9939997142721,111.26277142149829 L 389.1941997237964,109.39071339165686 L 393.3943997333206,109.39071339165686 L 397.5945997428449,101.1472081218274 L 401.79479975236916,100.61191911450355 L 405.9949997618934,101.1472081218274 L 410.19519977141766,101.1472081218274 L 414.39539978094194,101.1472081218274 L 418.5955997904662,101.1472081218274 L 422.79579979999045,99.22210605037166 L 426.99599980951473,99.22210605037166 L 431.196199819039,87.0395939086066 L 435.39639982856323,87.0395939086066 L 439.5965998380875,60 L 443.7967998476118,60.39187817261166 L 447.9969998571361,60.39187817261166 L 452.19719986666036,60 L 456.39739987618464,60 L 460.5975998857089,61.17563451777789 L 464.7977998952331,73.77747813175665 L 468.99799990475736,88.27249323106653 L 473.19819991428164,88.27249323106653 L 477.39839992380587,88.27249323106653 L 481.59859993333015,83.22085750458979 L 485.79879994285443,83.21413757766952 L 489.99899995237865,83.21413757766952 L 494.19919996190293,80.8359989058126 L 498.3993999714272,82.13927174966987 L 502.5995999809515,93.6893554564195 L 506.7997999904757,151.1863719659032 L 511,177.12276047511088" fill="none" stroke="#716400" stroke-width="2" opacity="1" stroke-linecap="round"/><path d="M 70,446 L 74.17919900947663,446 L 78.3793990190009,445.60812182738835 L 82.57959902852517,445.60812182738835 L 86.77979903804943,445.60812182738835 L 90.9799990475737,445.60812182738835 L 95.18019905709795,445.60812182738835 L 99.38039906662222,425.2304568527805 L 103.58059907614648,425.2304568527805 L 107.78079908567074,425.6223350253921 L 111.98099909519502,425.6223350253921 L 116.18119910471927,425.6223350253921 L 120.38139911424354,425.6223350253921 L 124.5815991237678,425.2304568527805 L 128.78179913329205,425.6223350253921 L 132.98199914281633,414.6497461928934 L 137.1821991523406,414.6497461928934 L 141.38239916186487,397.01522842639594 L 145.58259917138912,397.01522842639594 L 149.78279918091337,397.01522842639594 L 153.98299919043762,397.01522842639594 L 158.1831991999619,397.01522842639594 L 162.38339920948619,364.0974619289568 L 166.58359921901044,364.0974619289568 L 170.7837992285347,364.0974619289568 L 174.98399923805897,364.0974619289568 L 179.18419924758322,364.0974619289568 L 183.3843992571075,364.0974619289568 L 187.58459926663176,346.46294416245934 L 191.784799276156,346.07106598984774 L 195.98499928568026,340.1928934010152 L 200.1851992952045,335.03821879532245 L 204.3853993047288,330.3252022546255 L 208.58559931425305,314.59640504892616 L 212.78579932377733,314.5538096158611 L 216.98599933330158,314.5538096158611 L 221.18619934282583,312.9249594485388 L 225.3863993523501,310.5975438805907 L 229.5865993618744,312.9412593076293 L 233.78679937139867,312.5621597727783 L 237.9869993809229,310.2108907372795 L 242.18719939044715,312.13024187897156 L 246.38739939997143,312.10468460345044 L 250.58759940949568,311.93174708079573 L 254.78779941901996,315.3787699522995 L 258.9879994285442,313.2685911872183 L 263.18819943806847,312.61262121971464 L 267.38839944759275,312.61262121971464 L 271.588599457117,312.62965937725863 L 275.7887994666413,312.28889575574624 L 279.98899947616553,308.84263959390864 L 284.1891994856898,308.450761421297 L 288.38939949521404,308.450761421297 L 292.5895995047383,308.450761421297 L 296.78979951426254,308.450761421297 L 300.9899995237868,308.84263959390864 L 305.1901995333111,255.54720812180457 L 309.3903995428353,218.71065989847716 L 313.5905995523596,219.10253807108882 L 317.7907995618839,218.71065989847716 L 321.99099957140817,206.56243654820054 L 326.19119958093245,206.17055837564592 L 330.39139959045673,203.02008503979 L 334.591599599981,202.99452776426887 L 338.79179960950523,203.45200293359662 L 342.9919996190295,203.40088838255443 L 347.1921996285538,201.17229426174447 L 351.392399638078,201.07614213197968 L 355.5925996476023,198.65092737036863 L 359.7927996571266,198.65092737036863 L 363.99299966665075,198.67648464588976 L 368.193199676175,198.67648464588976 L 372.3933996856993,177.95532994926137 L 376.5935996952236,177.56345177664977 L 380.7937997047478,177.56345177664977 L 384.9939997142721,177.56345177664977 L 389.1941997237964,177.56345177664977 L 393.3943997333206,177.56345177664977 L 397.5945997428449,177.56345177664977 L 401.79479975236916,177.95532994926137 L 405.9949997618934,177.95532994926137 L 410.19519977141766,177.56345177664977 L 414.39539978094194,177.95532994926137 L 418.5955997904662,177.95532994926137 L 422.79579979999045,173.82331539653768 L 426.99599980951473,173.7014923858055 L 431.196199819039,171.06920696408332 L 435.39639982856323,150.57568234555967 L 439.5965998380875,144.64568527921065 L 443.7967998476118,144.64568527921065 L 447.9969998571361,144.64568527921065 L 452.19719986666036,118.38984771571322 L 456.39739987618464,118.38984771571322 L 460.5975998857089,118.78172588832489 L 464.7977998952331,152.971421010789 L 468.99799990475736,152.99357067048345 L 473.19819991428164,152.99357067048345 L 477.39839992380587,152.99612638235345 L 481.59859993333015,150.59999015677022 L 485.79879994285443,150.59999015677022 L 489.99899995237865,150.7362955739996 L 494.19919996190293,150.7362955739996 L 498.3993999714272,162.2123627031283 L 502.5995999809515,192.92879616324896 L 506.7997999904757,216.78878141683705 L 511,217.2488123372686" fill="none" stroke="#002fff" stroke-width="2" opacity="1" stroke-linecap="round"/><text x="6" y="415" text-anchor="start" font-family="Arial" font-size="14px" font-weight="normal" fill="var(--color-15)" opacity="1">110,620</text><text x="6" y="356" text-anchor="start" font-family="Arial" font-size="14px" font-weight="normal" fill="var(--color-15)" opacity="1">110,635</text><text x="6" y="297" text-anchor="start" font-family="Arial" font-size="14px" font-weight="normal" fill="var(--color-15)" opacity="1">110,650</text><text x="6" y="238" text-anchor="start" font-family="Arial" font-size="14px" font-weight="normal" fill="var(--color-15)" opacity="1">110,665</text><text x="6" y="180" text-anchor="start" font-family="Arial" font-size="14px" font-weight="normal" fill="var(--color-15)" opacity="1">110,680</text><text x="6" y="121" text-anchor="start" font-family="Arial" font-size="14px" font-weight="normal" fill="var(--color-15)" opacity="1">110,695</text><text x="6" y="62" text-anchor="start" font-family="Arial" font-size="14px" font-weight="normal" fill="var(--color-15)" opacity="1">110,710</text><text x="70" y="476" text-anchor="start" font-family="Arial" font-size="12px" font-weight="normal" fill="var(--color-15)" opacity="1">24 Oct</text><text x="70" y="491" text-anchor="start" font-family="Arial" font-size="14px" font-weight="600" fill="var(--color-15)" opacity="1">2025</text><text x="238.00800038097054" y="486" text-anchor="middle" font-family="Arial" font-size="12px" font-weight="normal" fill="var(--color-15)" opacity="1">09:16:00 PM</text><text x="364.0140006666984" y="486" text-anchor="middle" font-family="Arial" font-size="12px" font-weight="normal" fill="var(--color-15)" opacity="1">09:16:30 PM</text><text x="511" y="476" text-anchor="end" font-family="Arial" font-size="12px" font-weight="normal" fill="var(--color-15)" opacity="1">24 Oct</text><text x="511" y="491" text-anchor="end" font-family="Arial" font-size="14px" font-weight="600" fill="var(--color-15)" opacity="1">2025</text></g><clipPath id="clip-of-13"><path d="M1,104 H899 V600 H1 V104 Z" fill="none" stroke="none" transform="translate(-1, -104)"/></clipPath></g><clipPath id="clip-of-14"><path d="M1,104 H899 V600 H1 V104 Z" fill="none" stroke="none"/></clipPath></g><g data-selector="div.W_TimeChart_TopBar gap-0 relative f-1 m-auto  FlexRow flex-row ai-center"><g data-selector="div.PopupMenu_triggerWrapper h-fit w-fit " data-command="ChartLayerManager"><path d="M1,105.59 H41 V145.59 H1 V105.59 Z" fill="none"/><g data-selector="button. f-0 flex-row gap-p5 ai-center btn btn-default btn-size-default btn-color-action ws-nowrap w-fit"><path d="M7,105.59 H35 A6,6 0 0 1 41,111.59 V139.59 A6,6 0 0 1 35,145.59 H7 A6,6 0 0 1 1,139.59 V111.59 A6,6 0 0 1 7,105.59 Z" fill="none" stroke-width="1px" stroke="rgba(0, 0, 0, 0)"/><g style="transform: translate(8.9px, 113.49px); color: var(--color-16);"><svg viewBox="0 0 24 24" role="presentation" class=" f-0 " style="width: 22px; height: 22px; transform: scale(1.1);" width="22" height="22"><path d="M12,16L19.36,10.27L21,9L12,2L3,9L4.63,10.27M12,18.54L4.62,12.81L3,14.07L12,21.07L21,14.07L19.37,12.8L12,18.54Z" style="fill: currentcolor;"/></svg></g></g></g><g data-selector="div.W_TimeChartLayerLegend flex-row gap-1 min-w-0 o-auto no-scroll-bar ScrollFade" clip-path="url(#clip-of-15)"><g data-selector="div.W_TimeChartLayerLegend_Item gap-0 FlexRow flex-row ai-center"><g data-selector="div.PopupMenu_triggerWrapper h-fit w-fit " data-command="TimeChartLayerOptions.yAxis"><path d="M81,104 H253.61 V147.19 H81 V104 Z" fill="none"/><g data-selector="div. FlexRow flex-row gap-1 ai-center"><g data-selector="button. f-0 flex-row gap-p5 ai-center rounded btn btn-text btn-size-default btn-color-action ws-nowrap w-fit" data-command="TimeChartLayerOptions.aggFunc"><path d="M89,104 H245.61 A8,8 0 0 1 253.61,112 V139.19 A8,8 0 0 1 245.61,147.19 H89 A8,8 0 0 1 81,139.19 V112 A8,8 0 0 1 89,104 Z" fill="none" stroke-width="1px" stroke="rgba(0, 0, 0, 0)"/><text x="172.59" y="130.59" fill="var(--color-17)" font-family="var(--fontFamily-6)" font-size="16px" font-weight="500" font-style="normal" letter-spacing="normal" text-decoration="none solid rgb(63, 131, 248)" text-anchor="start" style="line-height: 16px; white-space: pre; text-transform: none;">timestamp</text><g data-selector="div.gap-0 FlexRow flex-row ai-center"><g data-selector="span." style="opacity: 0.7;"><text x="82" y="130.59" fill="var(--color-17)" font-family="var(--fontFamily-6)" font-size="16px" font-weight="500" font-style="normal" letter-spacing="normal" text-decoration="none solid rgb(63, 131, 248)" text-anchor="start" style="line-height: 16px; white-space: nowrap; text-transform: none;">Avg(</text></g><g data-selector="strong."><text x="116.3" y="130.59" fill="var(--color-17)" font-family="var(--fontFamily-6)" font-size="16px" font-weight="700" font-style="normal" letter-spacing="normal" text-decoration="none solid rgb(63, 131, 248)" text-anchor="start" style="line-height: 16px; white-space: nowrap; text-transform: none;">price</text></g><g data-selector="span." style="opacity: 0.7;"><text x="154.88" y="130.59" fill="var(--color-17)" font-family="var(--fontFamily-6)" font-size="16px" font-weight="500" font-style="normal" letter-spacing="normal" text-decoration="none solid rgb(63, 131, 248)" text-anchor="start" style="line-height: 16px; white-space: nowrap; text-transform: none;">),</text></g></g></g></g></g><g data-selector="div.ml-1 ColorByLegend FlexRow flex-row gap-1 ai-center"><g data-selector="div. gap-p5 ai-center FlexRow flex-row"><g data-selector="button.shadow b b-color f-0 flex-row gap-p5 ai-center rounded btn btn-default btn-size-micro btn-color-default ws-nowrap w-fit"><path d="M276.11,113.09 H289.11 A6,6 0 0 1 295.11,119.09 V132.09 A6,6 0 0 1 289.11,138.09 H276.11 A6,6 0 0 1 270.11,132.09 V119.09 A6,6 0 0 1 276.11,113.09 Z" fill="rgb(113, 100, 0)" stroke-width="1px" stroke="var(--color-18)" style="filter: drop-shadow(rgba(0, 0, 0, 0.1) 0px 1px 1.5px) drop-shadow(rgba(0, 0, 0, 0.06) 0px 1px 1px);"/><g style="transform: translate(273.81px, 116.79px); color: var(--color-5);"><svg viewBox="0 0 24 24" role="presentation" class=" f-0 " style="width: 16px; height: 16px; transform: scale(1.1);" width="16" height="16"><path d="M17.5,12A1.5,1.5 0 0,1 16,10.5A1.5,1.5 0 0,1 17.5,9A1.5,1.5 0 0,1 19,10.5A1.5,1.5 0 0,1 17.5,12M14.5,8A1.5,1.5 0 0,1 13,6.5A1.5,1.5 0 0,1 14.5,5A1.5,1.5 0 0,1 16,6.5A1.5,1.5 0 0,1 14.5,8M9.5,8A1.5,1.5 0 0,1 8,6.5A1.5,1.5 0 0,1 9.5,5A1.5,1.5 0 0,1 11,6.5A1.5,1.5 0 0,1 9.5,8M6.5,12A1.5,1.5 0 0,1 5,10.5A1.5,1.5 0 0,1 6.5,9A1.5,1.5 0 0,1 8,10.5A1.5,1.5 0 0,1 6.5,12M12,3A9,9 0 0,0 3,12A9,9 0 0,0 12,21A1.5,1.5 0 0,0 13.5,19.5C13.5,19.11 13.35,18.76 13.11,18.5C12.88,18.23 12.73,17.88 12.73,17.5A1.5,1.5 0 0,1 14.23,16H16A5,5 0 0,0 21,11C21,6.58 16.97,3 12,3Z" style="fill: rgb(113, 100, 0);"/></svg></g></g><g data-selector="div. noselect f-d1"><text x="303.61" y="130.59" fill="var(--color-12)" font-family="var(--fontFamily-6)" font-size="16px" font-weight="400" font-style="normal" letter-spacing="normal" text-decoration="none solid rgb(22, 30, 46)" text-anchor="start" style="line-height: normal; white-space: normal; text-transform: none;">BTCUSDC</text></g></g><g data-selector="div. gap-p5 ai-center FlexRow flex-row"><g data-selector="button.shadow b b-color f-0 flex-row gap-p5 ai-center rounded btn btn-default btn-size-micro btn-color-default ws-nowrap w-fit"><path d="M395.78,113.09 H408.78 A6,6 0 0 1 414.78,119.09 V132.09 A6,6 0 0 1 408.78,138.09 H395.78 A6,6 0 0 1 389.78,132.09 V119.09 A6,6 0 0 1 395.78,113.09 Z" fill="rgb(0, 47, 255)" stroke-width="1px" stroke="var(--color-18)" style="filter: drop-shadow(rgba(0, 0, 0, 0.1) 0px 1px 1.5px) drop-shadow(rgba(0, 0, 0, 0.06) 0px 1px 1px);"/><g style="transform: translate(393.48px, 116.79px); color: var(--color-5);"><svg viewBox="0 0 24 24" role="presentation" class=" f-0 " style="width: 16px; height: 16px; transform: scale(1.1);" width="16" height="16"><path d="M17.5,12A1.5,1.5 0 0,1 16,10.5A1.5,1.5 0 0,1 17.5,9A1.5,1.5 0 0,1 19,10.5A1.5,1.5 0 0,1 17.5,12M14.5,8A1.5,1.5 0 0,1 13,6.5A1.5,1.5 0 0,1 14.5,5A1.5,1.5 0 0,1 16,6.5A1.5,1.5 0 0,1 14.5,8M9.5,8A1.5,1.5 0 0,1 8,6.5A1.5,1.5 0 0,1 9.5,5A1.5,1.5 0 0,1 11,6.5A1.5,1.5 0 0,1 9.5,8M6.5,12A1.5,1.5 0 0,1 5,10.5A1.5,1.5 0 0,1 6.5,9A1.5,1.5 0 0,1 8,10.5A1.5,1.5 0 0,1 6.5,12M12,3A9,9 0 0,0 3,12A9,9 0 0,0 12,21A1.5,1.5 0 0,0 13.5,19.5C13.5,19.11 13.35,18.76 13.11,18.5C12.88,18.23 12.73,17.88 12.73,17.5A1.5,1.5 0 0,1 14.23,16H16A5,5 0 0,0 21,11C21,6.58 16.97,3 12,3Z" style="fill: rgb(0, 47, 255);"/></svg></g></g><g data-selector="div. noselect f-d1"><text x="423.28" y="130.59" fill="var(--color-12)" font-family="var(--fontFamily-6)" font-size="16px" font-weight="400" font-style="normal" letter-spacing="normal" text-decoration="none solid rgb(22, 30, 46)" text-anchor="start" style="line-height: normal; white-space: normal; text-transform: none;">BTCUSDT</text></g></g></g><g data-selector="button. f-0 flex-row gap-p5 ai-center btn btn-default btn-size-micro btn-color-default ws-nowrap w-fit"><path d="M497.64,112.59 H511.64 A6,6 0 0 1 517.64,118.59 V132.59 A6,6 0 0 1 511.64,138.59 H497.64 A6,6 0 0 1 491.64,132.59 V118.59 A6,6 0 0 1 497.64,112.59 Z" fill="none" stroke-width="1px" stroke="rgba(0, 0, 0, 0)"/><g style="transform: translate(495.84px, 116.79px); color: var(--color-5);"><svg viewBox="0 0 24 24" role="presentation" class=" f-0 " style="width: 16px; height: 16px; transform: scale(1.1);" width="16" height="16"><path d="M19,6.41L17.59,5L12,10.59L6.41,5L5,6.41L10.59,12L5,17.59L6.41,19L12,13.41L17.59,19L19,17.59L13.41,12L19,6.41Z" style="fill: currentcolor;"/></svg></g></g></g><clipPath id="clip-of-15"><path d="M81,104 H517.64 V147.19 H81 V104 Z" fill="none" stroke="none"/></clipPath></g></g><g data-selector="div.AddTimeChartFilter FlexRow flex-row gap-1 ai-center"><g data-selector="button. f-0 flex-row gap-p5 ai-center btn btn-default btn-size-default btn-color-default ws-nowrap w-fit" data-command="W_TimeChart.AddTimeChartFilter"><path d="M865,104 H893 A6,6 0 0 1 899,110 V138 A6,6 0 0 1 893,144 H865 A6,6 0 0 1 859,138 V110 A6,6 0 0 1 865,104 Z" fill="none" stroke-width="1px" stroke="rgba(0, 0, 0, 0)"/><g style="transform: translate(866.9px, 111.9px); color: var(--color-5);"><svg viewBox="0 0 24 24" role="presentation" class=" f-0 " style="width: 22px; height: 22px; transform: scale(1.1);" width="22" height="22"><path d="M12 12V19.88C12.04 20.18 11.94 20.5 11.71 20.71C11.32 21.1 10.69 21.1 10.3 20.71L8.29 18.7C8.06 18.47 7.96 18.16 8 17.87V12H7.97L2.21 4.62C1.87 4.19 1.95 3.56 2.38 3.22C2.57 3.08 2.78 3 3 3H17C17.22 3 17.43 3.08 17.62 3.22C18.05 3.56 18.13 4.19 17.79 4.62L12.03 12H12M15 17H18V14H20V17H23V19H20V22H18V19H15V17Z" style="fill: currentcolor;"/></svg></g></g></g></g></g><clipPath id="clip-of-16"><path d="M1,60 H899 V600 H1 V60 Z" fill="none" stroke="none"/></clipPath></g></g></g></g></g></g></g></g></g></g></g><clipPath id="clip-of-17"><path d="M0,0 H900 V600 H0 V0 Z" fill="none" stroke="none"/></clipPath></g><view id="dashboard_menu" viewBox="-1 -1 61 61"/><view id="dashboard_goToConnConfig" viewBox="56 -1 60 60"/><view id="ConnectionSelector" viewBox="112 -1 124 60"/><view id="WorkspaceMenu_list" viewBox="372 -5 173 73"/><view id="WorkspaceMenuDropDown" viewBox="526 -2 68 68"/><view id="AskLLM" viewBox="730 -1 60 60"/><view id="Feedback" viewBox="786 -1 60 60"/><view id="dashboard_goToConnections" viewBox="842 -1 60 60"/><view id="dashboard_window_menu" viewBox="-9 51 60 60"/><view id="dashboard_window_collapse" viewBox="769 51 60 60"/><view id="dashboard_window_fullscreen" viewBox="809 51 60 60"/><view id="dashboard_window_close" viewBox="849 51 60 60"/><view id="W_TimeChart" viewBox="-9 94 918 516"/><view id="ChartLayerManager" viewBox="-9 96 60 60"/><view id="TimeChartLayerOptions_yAxis" viewBox="71 94 193 63"/><view id="TimeChartLayerOptions_aggFunc" viewBox="71 94 193 63"/><view id="W_TimeChart_AddTimeChartFilter" viewBox="849 94 60 60"/><style xmlns="http://www.w3.org/1999/xhtml" type="text/css">:root { 
  --dark-theme-hide: visible;
  --light-theme-hide: hidden;
  --color-0: rgb(244, 245, 247); 
  --color-1: rgb(210, 214, 220); 
  --color-18: rgb(210, 214, 220); 
  --color-2: rgb(255, 255, 255); 
  --color-11: rgb(255, 255, 255); 
  --color-14: rgb(255, 255, 255); 
  --color-3: rgb(240, 254, 255); 
  --color-4: rgba(125, 125, 125, 0.22); 
  --color-5: rgb(75, 85, 99); 
  --fontFamily-6: -apple-system, BlinkMacSystemFont, "Segoe UI", Roboto, Oxygen, Ubuntu, Cantarell, "Fira Sans", "Droid Sans", "Helvetica Neue", sans-serif; 
  --color-7: rgb(225, 239, 254); 
  --color-8: rgb(63, 131, 248); 
  --color-16: rgb(63, 131, 248); 
  --color-17: rgb(63, 131, 248); 
  --color-9: rgb(249, 250, 251); 
  --color-10: rgb(229, 231, 235); 
  --color-13: rgb(229, 231, 235); 
  --color-12: rgb(22, 30, 46); 
  --color-15: black; 
}
@media (prefers-color-scheme: dark) { 
 :root  { 
  --dark-theme-hide: hidden;
  --light-theme-hide: visible;
  --color-0: rgb(36, 36, 36); 
  --color-1: rgb(0, 0, 0); 
  --color-18: rgb(75, 85, 99); 
  --color-2: rgb(44, 44, 44); 
  --color-11: rgb(36, 36, 36); 
  --color-14: rgb(39, 39, 39); 
  --color-3: rgb(0, 37, 55); 
  --color-4: rgba(125, 125, 125, 0.38); 
  --color-5: rgb(229, 231, 235); 
  --color-7: rgba(0, 79, 163, 0.8); 
  --color-8: rgb(255, 255, 255); 
  --color-16: rgb(91, 164, 255); 
  --color-17: rgb(195, 221, 253); 
  --color-9: rgb(33, 33, 33); 
  --color-10: rgb(75, 85, 99); 
  --color-13: rgb(44, 44, 44); 
  --color-12: rgb(244, 245, 247); 
  --color-15: rgb(187, 187, 187); 
  }
} 
</style></svg>