<svg xmlns="http://www.w3.org/2000/svg" width="900" height="900" viewBox="0 0 900 900"><defs><style type="text/css"/></defs><g data-selector="body.text-0 enable-motion underline-links bg-color-2" style="clip-path: inset(0px) view-box;" id="id-2305afa1"><rect x="0" y="0" width="900" height="900" rx="0" ry="0" fill="var(--rgb244245247rgb262525)" style="animation: 0s ease 0s 1 normal none running none;"/><g data-selector="main."><g data-selector="div.App gap-0 f-1 min-h-0 FlexCol flex-col"><g data-selector="div.flex-col f-1 min-s-0 "><g data-selector="div.flex-col f-1 min-h-0 as-center  bg-color-2 w-full pt-1"><rect x="0" y="58" width="900" height="842" rx="0" ry="0" fill="var(--rgb244245247rgb363636)" style="animation: 0s ease 0s 1 normal none running none;"/><g data-selector="div.f-1 as-center w-full shadow Tabs flex-row min-w-0 min-h-0"><rect x="0" y="74" width="900" height="826" rx="0" ry="0" fill="none" style="animation: 0s ease 0s 1 normal none running none; filter: drop-shadow(rgba(0, 0, 0, 0.1) 0px 1px 1.5px) drop-shadow(rgba(0, 0, 0, 0.06) 0px 1px 1px);"/><g data-selector="div.Tabs_Content o-auto flex-row jc-center bg-color-2 f-1" style="clip-path: inset(74px 0px 0px 46px) view-box;"><rect x="46" y="74" width="854" height="826" rx="0" ry="0" fill="var(--rgb244245247rgb363636)" style="animation: 0s ease 0s 1 normal none running none;"/><g data-selector="div.flex-col f-1  min-w-0 bg-color-0 shadow"><rect x="46" y="74" width="854" height="826" rx="0" ry="0" fill="var(--rgb255255255rgb444444)" style="animation: 0s ease 0s 1 normal none running none; filter: drop-shadow(rgba(0, 0, 0, 0.1) 0px 1px 1.5px) drop-shadow(rgba(0, 0, 0, 0.06) 0px 1px 1px);"/><g data-selector="div.w-full text-0 FlexRow flex-row gap-1 ai-center"><g style="transform: translate(78px, 89.91px); color: var(--rgb223046rgb244245247);"><svg viewBox="0 0 24 24" role="presentation" style="width: 2.25rem; height: 2.25rem;" width="36" height="36"><path d="M16 17V19H2V17S2 13 9 13 16 17 16 17M12.5 7.5A3.5 3.5 0 1 0 9 11A3.5 3.5 0 0 0 12.5 7.5M15.94 13A5.32 5.32 0 0 1 18 17V19H22V17S22 13.37 15.94 13M15 4A3.39 3.39 0 0 0 13.07 4.59A5 5 0 0 1 13.07 10.41A3.39 3.39 0 0 0 15 11A3.5 3.5 0 0 0 15 4Z" style="fill: currentcolor;"/></svg></g><g data-selector="svg.[object SVGAnimatedString]" role="presentation" style="clip-path: inset(89.9062px 786px 774.094px 78px) view-box;"><rect x="78" y="89.91" width="36" height="36" fill="transparent"/></g><g data-selector="h2."><text x="130" y="116.91" fill="var(--rgb223046rgb244245247)" font-family="var(--fontFamily-3551640753)" font-size="24px" font-weight="700" font-style="normal" letter-spacing="normal" text-decoration="none" text-anchor="start" style="line-height: normal; white-space: normal; text-transform: none;">Access control</text></g></g><g data-selector="div. f-1 o-auto flex-row w-full  p-2  " style="clip-path: inset(141.812px 0px 0px 46px) view-box;"><g data-selector="div.flex-col f-1 min-h-0"><g data-selector="div.f-1 flex-row min-h-0 "><g data-selector="div.f-1 relative FlexCol flex-col gap-1"><g data-selector="div. FlexRow flex-row gap-1 ai-center"><g data-selector="button. f-0 flex-row gap-p5 ai-center rounded btn btn-filled btn-size-default btn-color-action ws-nowrap w-fit" data-command="config.ac.create"><rect x="78" y="173.8125" width="174.125" height="40" rx="8" ry="8" fill="var(--rgb63131248rgb48121197)" stroke-width="1px" stroke="rgba(0, 0, 0, 0)" style="animation: 0s ease 0s 1 normal none running none;"/><text x="121" y="199.81" fill="rgb(255, 255, 255)" font-family="var(--fontFamily-3551640753)" font-size="16px" font-weight="500" font-style="normal" letter-spacing="normal" text-decoration="none" text-anchor="start" style="line-height: 16px; white-space: nowrap; text-transform: none;">Create new rule</text><g style="transform: translate(89.9px, 181.71px); color: var(--rgb255255255rgb255255255);"><svg viewBox="0 0 24 24" role="presentation" class=" f-0 " style="width: 22px; height: 22px; transform: scale(1.1);" width="22" height="22"><path d="M19,13H13V19H11V13H5V11H11V5H13V11H19V13Z" style="fill: currentcolor;"/></svg></g><g data-selector="svg.[object SVGAnimatedString]" role="presentation" style="clip-path: inset(181.712px 785.9px 694.087px 89.9px) view-box;"><rect x="89.9" y="181.71" width="24.2" height="24.2" fill="transparent"/></g></g><g data-selector="div. PopupMenu_triggerWrapper h-fit w-fit"><g data-selector="button. f-0 flex-row gap-p5 ai-center rounded btn btn-faded btn-size-default btn-color-default ws-nowrap w-fit"><rect x="268.125" y="173.8125" width="145.890625" height="40" rx="8" ry="8" fill="var(--rgba125125125022rgba125125125038)" stroke-width="1px" stroke="rgba(0, 0, 0, 0)" style="animation: 0s ease 0s 1 normal none running none;"/><text x="311.13" y="199.81" fill="var(--rgb758599rgb229231235)" font-family="var(--fontFamily-3551640753)" font-size="16px" font-weight="500" font-style="normal" letter-spacing="normal" text-decoration="none" text-anchor="start" style="line-height: 16px; white-space: nowrap; text-transform: none;">Sync users...</text><g style="transform: translate(280.02px, 181.71px); color: var(--rgb758599rgb229231235);"><svg viewBox="0 0 24 24" role="presentation" class=" f-0 " style="width: 22px; height: 22px; transform: scale(1.1);" width="22" height="22"><path d="M12,18A6,6 0 0,1 6,12C6,11 6.25,10.03 6.7,9.2L5.24,7.74C4.46,8.97 4,10.43 4,12A8,8 0 0,0 12,20V23L16,19L12,15M12,4V1L8,5L12,9V6A6,6 0 0,1 18,12C18,13 17.75,13.97 17.3,14.8L18.76,16.26C19.54,15.03 20,13.57 20,12A8,8 0 0,0 12,4Z" style="fill: currentcolor;"/></svg></g><g data-selector="svg.[object SVGAnimatedString]" role="presentation" style="clip-path: inset(181.712px 595.775px 694.087px 280.025px) view-box;"><rect x="280.02" y="181.71" width="24.2" height="24.2" fill="transparent"/></g></g></g><g data-selector="a. f-0 flex-row gap-p5 ai-center button-css rounded btn btn-faded btn-size-default btn-color-default ws-nowrap w-fit" style="clip-path: inset(172.812px 310.609px 685.188px 429.016px round 8px) view-box;"><rect x="430.015625" y="173.8125" width="158.375" height="40" rx="8" ry="8" fill="var(--rgba125125125022rgba125125125038)" stroke-width="1px" stroke="rgba(0, 0, 0, 0)" style="animation: 0s ease 0s 1 normal none running none;"/><text x="473.02" y="199.81" fill="var(--rgb758599rgb229231235)" font-family="var(--fontFamily-3551640753)" font-size="16px" font-weight="500" font-style="normal" letter-spacing="normal" text-decoration="none" text-anchor="start" style="line-height: 16px; white-space: nowrap; text-transform: none;">Manage users</text><g style="transform: translate(441.92px, 181.71px); color: var(--rgb758599rgb229231235);"><svg viewBox="0 0 24 24" role="presentation" class=" f-0 " style="width: 22px; height: 22px; transform: scale(1.1);" width="22" height="22"><path d="M10 4A4 4 0 0 0 6 8A4 4 0 0 0 10 12A4 4 0 0 0 14 8A4 4 0 0 0 10 4M17 12C16.87 12 16.76 12.09 16.74 12.21L16.55 13.53C16.25 13.66 15.96 13.82 15.7 14L14.46 13.5C14.35 13.5 14.22 13.5 14.15 13.63L13.15 15.36C13.09 15.47 13.11 15.6 13.21 15.68L14.27 16.5C14.25 16.67 14.24 16.83 14.24 17C14.24 17.17 14.25 17.33 14.27 17.5L13.21 18.32C13.12 18.4 13.09 18.53 13.15 18.64L14.15 20.37C14.21 20.5 14.34 20.5 14.46 20.5L15.7 20C15.96 20.18 16.24 20.35 16.55 20.47L16.74 21.79C16.76 21.91 16.86 22 17 22H19C19.11 22 19.22 21.91 19.24 21.79L19.43 20.47C19.73 20.34 20 20.18 20.27 20L21.5 20.5C21.63 20.5 21.76 20.5 21.83 20.37L22.83 18.64C22.89 18.53 22.86 18.4 22.77 18.32L21.7 17.5C21.72 17.33 21.74 17.17 21.74 17C21.74 16.83 21.73 16.67 21.7 16.5L22.76 15.68C22.85 15.6 22.88 15.47 22.82 15.36L21.82 13.63C21.76 13.5 21.63 13.5 21.5 13.5L20.27 14C20 13.82 19.73 13.65 19.42 13.53L19.23 12.21C19.22 12.09 19.11 12 19 12H17M10 14C5.58 14 2 15.79 2 18V20H11.68A7 7 0 0 1 11 17A7 7 0 0 1 11.64 14.09C11.11 14.03 10.56 14 10 14M18 15.5C18.83 15.5 19.5 16.17 19.5 17C19.5 17.83 18.83 18.5 18 18.5C17.16 18.5 16.5 17.83 16.5 17C16.5 16.17 17.17 15.5 18 15.5Z" style="fill: currentcolor;"/></svg></g><g data-selector="svg.[object SVGAnimatedString]" role="presentation" style="clip-path: inset(181.712px 433.884px 694.087px 441.916px) view-box;"><rect x="441.92" y="181.71" width="24.2" height="24.2" fill="transparent"/></g></g></g><g data-selector="div.ExistingAccessRules "><g data-selector="div. rounded flex-row ai-start ta-left text-default"><g data-selector="div. min-s-0 f-1 as-center"><g data-selector="p."><text x="78" y="260.81" fill="var(--rgb758599rgb201201201)" font-family="var(--fontFamily-3551640753)" font-size="16px" font-weight="400" font-style="normal" letter-spacing="normal" text-decoration="none" text-anchor="start" style="line-height: normal; white-space: pre-line; text-transform: none;">Users</text><text x="118.41" y="260.81" fill="var(--rgb758599rgb201201201)" font-family="var(--fontFamily-3551640753)" font-size="16px" font-weight="400" font-style="normal" letter-spacing="normal" text-decoration="none" text-anchor="start" style="line-height: normal; white-space: pre; text-transform: none;"> of type</text><text x="238.83" y="260.81" fill="var(--rgb758599rgb201201201)" font-family="var(--fontFamily-3551640753)" font-size="16px" font-weight="400" font-style="normal" letter-spacing="normal" text-decoration="none" text-anchor="start" style="line-height: normal; white-space: pre; text-transform: none;"> have full access to this database.</text><g data-selector="strong."><text x="177.88" y="260.81" fill="var(--rgb758599rgb201201201)" font-family="var(--fontFamily-3551640753)" font-size="16px" font-weight="700" font-style="normal" letter-spacing="normal" text-decoration="none" text-anchor="start" style="line-height: normal; white-space: pre-line; text-transform: none;">"admin"</text></g></g><g data-selector="p."><text x="78" y="294.81" fill="var(--rgb758599rgb201201201)" font-family="var(--fontFamily-3551640753)" font-size="16px" font-weight="400" font-style="normal" letter-spacing="normal" text-decoration="none" text-anchor="start" style="line-height: normal; white-space: pre-line; text-transform: none;">Users of</text><text x="141.42" y="294.81" fill="var(--rgb758599rgb201201201)" font-family="var(--fontFamily-3551640753)" font-size="16px" font-weight="400" font-style="normal" letter-spacing="normal" text-decoration="none" text-anchor="start" style="line-height: normal; white-space: pre-line; text-transform: none;">type</text><text x="252.55" y="294.81" fill="var(--rgb758599rgb201201201)" font-family="var(--fontFamily-3551640753)" font-size="16px" font-weight="400" font-style="normal" letter-spacing="normal" text-decoration="none" text-anchor="start" style="line-height: normal; white-space: pre-line; text-transform: none;">can access according to the rules below:</text><g data-selector="strong."><text x="177.89" y="294.81" fill="var(--rgb758599rgb201201201)" font-family="var(--fontFamily-3551640753)" font-size="16px" font-weight="700" font-style="normal" letter-spacing="normal" text-decoration="none" text-anchor="start" style="line-height: normal; white-space: pre-line; text-transform: none;">"default"</text></g></g></g></g><g data-selector="h3.m-0 mt-1 mb-1"><text x="78" y="350.25" fill="var(--rgb223046rgb244245247)" font-family="var(--fontFamily-3551640753)" font-size="18.72px" font-weight="700" font-style="normal" letter-spacing="normal" text-decoration="none" text-anchor="start" style="line-height: normal; white-space: normal; text-transform: none;">Access rules</text></g><g data-selector="div.flex-col gap-1 w-fit max-w-full"><g data-selector="div.ExistingAccessRules_Item flex-col active-shadow-hover gap-p5 pointer rounded p-p5 bg-color-0 shadow b b-color o-auto" data-key="default" style="clip-path: inset(372.25px 428.609px 423.75px 77px round 8px) view-box;"><rect x="78.5" y="373.75" width="391.390625" height="101" rx="8" ry="8" fill="var(--rgb255255255rgb444444)" stroke-width="1px" stroke="var(--rgb210214220rgb758599)" style="animation: 0s ease 0s 1 normal none running none; filter: drop-shadow(rgba(0, 0, 0, 0.1) 0px 1px 1.5px) drop-shadow(rgba(0, 0, 0, 0.06) 0px 1px 1px);"/><g data-selector="div. FlexRow flex-row gap-1 ai-center"><g data-selector="div.LabeledRow ExistingAccessRules_Item_Header ai-center f-1 flex-row-wrap ai-center "><g data-selector="div.flex-row gap-p5 text-1 ai-center "><g style="transform: translate(87px, 390.25px); color: var(--rgb159166178rgb159166178);"><svg viewBox="0 0 24 24" role="presentation" class="text-2" style="width: 1.5rem; height: 1.5rem;" width="24" height="24"><path d="M12,4A4,4 0 0,1 16,8A4,4 0 0,1 12,12A4,4 0 0,1 8,8A4,4 0 0,1 12,4M12,14C16.42,14 20,15.79 20,18V20H4V18C4,15.79 7.58,14 12,14Z" style="fill: currentcolor;"/></svg></g><g data-selector="svg.[object SVGAnimatedString]" role="presentation" style="clip-path: inset(390.25px 789px 485.75px 87px) view-box;"><rect x="87" y="390.25" width="24" height="24" fill="transparent"/></g></g><g data-selector="div.px-p5 font-medium gap-p5  FlexRowWrap flex-row-wrap ai-center"><g data-selector="span.text-0 font-20 bold"><text x="119" y="409.25" fill="var(--rgb223046rgb244245247)" font-family="var(--fontFamily-3551640753)" font-size="20px" font-weight="700" font-style="normal" letter-spacing="normal" text-decoration="none" text-anchor="start" style="line-height: normal; white-space: normal; text-transform: none;">default</text></g></g></g><g data-selector="div. SwitchToggle flex-row-reverse w-fit ai-center gap-p25"><g data-selector="div.Switch-root rounded focusable  checked" style="clip-path: inset(383.25px 439.609px 478.75px 402.391px round 8px) view-box;"><g data-selector="span.Switch-track" style="opacity: 0.38;"><rect x="414.390625" y="395.25" width="34" height="14" rx="7" ry="7" fill="rgb(118, 169, 250)" style="animation: 0s ease 0s 1 normal none running none;"/></g><g data-selector="span.SwitchBase-root "><g data-selector="span.Switch-thumb "><rect x="431.390625" y="392.25" width="20" height="20" rx="10" ry="10" fill="var(--rgb63131248rgb118169250)" style="animation: 0s ease 0s 1 normal none running none; filter: drop-shadow(rgba(0, 0, 0, 0.2) 0px 2px 0.5px) drop-shadow(rgba(0, 0, 0, 0.14) 0px 1px 0.5px) drop-shadow(rgba(0, 0, 0, 0.12) 0px 1px 1.5px);"/></g></g></g></g></g><g data-selector="div.LabeledRow AccessRuleSummary  flex-row-wrap ai-center "><g data-selector="div.flex-row gap-p5 text-1 ai-center "><text x="119" y="454.25" fill="var(--rgb758599rgb180180180)" font-family="var(--fontFamily-3551640753)" font-size="16px" font-weight="400" font-style="normal" letter-spacing="normal" text-decoration="none" text-anchor="start" style="line-height: normal; white-space: normal; text-transform: none;">Tables/views: (2)</text><g style="transform: translate(87px, 436.25px); color: var(--rgb159166178rgb159166178);"><svg viewBox="0 0 24 24" role="presentation" class="text-2" style="width: 1.5rem; height: 1.5rem;" width="24" height="24"><path d="M15.5,12C18,12 20,14 20,16.5C20,17.38 19.75,18.21 19.31,18.9L22.39,22L21,23.39L17.88,20.32C17.19,20.75 16.37,21 15.5,21C13,21 11,19 11,16.5C11,14 13,12 15.5,12M15.5,14A2.5,2.5 0 0,0 13,16.5A2.5,2.5 0 0,0 15.5,19A2.5,2.5 0 0,0 18,16.5A2.5,2.5 0 0,0 15.5,14M5,3H19C20.11,3 21,3.89 21,5V13.03C20.5,12.23 19.81,11.54 19,11V5H5V19H9.5C9.81,19.75 10.26,20.42 10.81,21H5C3.89,21 3,20.11 3,19V5C3,3.89 3.89,3 5,3M7,7H17V9H7V7M7,11H12.03C11.23,11.5 10.54,12.19 10,13H7V11M7,15H9.17C9.06,15.5 9,16 9,16.5V17H7V15Z" style="fill: currentcolor;"/></svg></g><g data-selector="svg.[object SVGAnimatedString]" role="presentation" style="clip-path: inset(436.25px 789px 439.75px 87px) view-box;"><rect x="87" y="436.25" width="24" height="24" fill="transparent"/></g></g><g data-selector="div.pl-1 pt-p5 flex-row-wrap gap-p5 o-auto no-scroll-bar" style="clip-path: inset(430.25px 438.609px 433.75px 239.312px) view-box;"><g data-selector="div. chip-component flex-row ws-pre-wrap ai-center chip lg gray variant-default gap-p25"><rect x="255.3125" y="438.25" width="69.09375" height="28" rx="16" ry="16" fill="var(--rgb249250251rgb333333)" style="animation: 0s ease 0s 1 normal none running none;"/><g data-selector="div.gap-p25  FlexCol flex-col"><g data-selector="div.flex-row-wrap gap-p5"><text x="261.31" y="458.25" fill="var(--rgb223046rgb244245247)" font-family="var(--fontFamily-3551640753)" font-size="16px" font-weight="500" font-style="normal" letter-spacing="normal" text-decoration="none" text-anchor="start" style="line-height: 16px; white-space: nowrap; text-transform: none;">chats</text><g data-selector="div.flex-row gap-p25 ai-center"><g data-selector="span.text-1p5"><text x="308.73" y="458.25" fill="rgb(107, 114, 128)" font-family="var(--fontFamily-3551640753)" font-size="16px" font-weight="500" font-style="normal" letter-spacing="normal" text-decoration="none" text-anchor="start" style="line-height: 16px; white-space: nowrap; text-transform: none;">■</text></g></g></g></g></g><g data-selector="div. chip-component flex-row ws-pre-wrap ai-center chip lg gray variant-default gap-p25"><rect x="332.40625" y="438.25" width="128.984375" height="28" rx="16" ry="16" fill="var(--rgb249250251rgb333333)" style="animation: 0s ease 0s 1 normal none running none;"/><g data-selector="div.gap-p25  FlexCol flex-col"><g data-selector="div.flex-row-wrap gap-p5"><text x="338.41" y="458.25" fill="var(--rgb223046rgb244245247)" font-family="var(--fontFamily-3551640753)" font-size="16px" font-weight="500" font-style="normal" letter-spacing="normal" text-decoration="none" text-anchor="start" style="line-height: 16px; white-space: nowrap; text-transform: none;">messages</text><g data-selector="div.flex-row gap-p25 ai-center"><g data-selector="span.text-green"><text x="418.38" y="458.25" fill="rgb(5, 122, 85)" font-family="var(--fontFamily-3551640753)" font-size="16px" font-weight="500" font-style="normal" letter-spacing="normal" text-decoration="none" text-anchor="start" style="line-height: 16px; white-space: nowrap; text-transform: none;">■</text></g><g data-selector="span.text-1p5"><text x="432.05" y="458.25" fill="rgb(107, 114, 128)" font-family="var(--fontFamily-3551640753)" font-size="16px" font-weight="500" font-style="normal" letter-spacing="normal" text-decoration="none" text-anchor="start" style="line-height: 16px; white-space: nowrap; text-transform: none;">■</text></g><g data-selector="span.text-warning"><text x="445.72" y="458.25" fill="var(--rgb1427516rgb1891490)" font-family="var(--fontFamily-3551640753)" font-size="16px" font-weight="500" font-style="normal" letter-spacing="normal" text-decoration="none" text-anchor="start" style="line-height: 16px; white-space: nowrap; text-transform: none;">■</text></g></g></g></g></g></g></g></g></g></g></g></g></g></g></g></g><g data-selector="div. Tabs_Menu bg-color-1 shadow f-0 w-full noselect MenuList relative list-comp rounded max-w-fit min-w-fit" data-command="MenuList"><rect x="0" y="74" width="46" height="826" rx="0" ry="0" fill="var(--rgb249250251rgb333333)" style="animation: 0s ease 0s 1 normal none running none; filter: drop-shadow(rgba(0, 0, 0, 0.1) 0px 1px 1.5px) drop-shadow(rgba(0, 0, 0, 0.06) 0px 1px 1px);"/><g data-selector="ul.no-decor relative f-1 o-auto min-h-0 min-w-0 trigger-hover  flex-col ws-nowrap " role="list" style="clip-path: inset(74px 854px 506px 0px) view-box;"><g data-selector="li.flex-row  p-p5  bg-li  pointer  " data-command="config.details" data-key="details" role="option"><g data-selector="label.mr-p5 f-1 flex-row ai-center noselect"><g style="transform: translate(8px, 82px); color: var(--rgb223046rgb244245247);"><svg viewBox="0 0 24 24" role="presentation" class="mr-p5 f-0" style="width: 1.5rem; height: 1.5rem;" width="24" height="24"><path d="M20.71,7.04C21.1,6.65 21.1,6 20.71,5.63L18.37,3.29C18,2.9 17.35,2.9 16.96,3.29L15.12,5.12L18.87,8.87M3,17.25V21H6.75L17.81,9.93L14.06,6.18L3,17.25Z" style="fill: currentcolor;"/></svg></g><g data-selector="svg.[object SVGAnimatedString]" role="presentation" style="clip-path: inset(82px 868px 794px 8px) view-box;"><rect x="8" y="82" width="24" height="24" fill="transparent"/></g></g></g><g data-selector="li.flex-row  p-p5  bg-li  pointer  " data-command="config.status" data-key="status" role="option"><g data-selector="label.mr-p5 f-1 flex-row ai-center noselect"><g style="transform: translate(8px, 122px); color: var(--rgb223046rgb244245247);"><svg viewBox="0 0 24 24" role="presentation" class="mr-p5 f-0" style="width: 1.5rem; height: 1.5rem;" width="24" height="24"><path d="M16,11.78L20.24,4.45L21.97,5.45L16.74,14.5L10.23,10.75L5.46,19H22V21H2V3H4V17.54L9.5,8L16,11.78Z" style="fill: currentcolor;"/></svg></g><g data-selector="svg.[object SVGAnimatedString]" role="presentation" style="clip-path: inset(122px 868px 754px 8px) view-box;"><rect x="8" y="122" width="24" height="24" fill="transparent"/></g></g></g><g data-selector="li.flex-row  p-p5  bg-li  pointer   selected " data-command="config.ac" data-key="access_control" role="option"><rect x="0" y="154" width="46" height="40" rx="0" ry="0" fill="var(--rgb225239254rgba36101212039)" style="animation: 0s ease 0s 1 normal none running none;"/><g data-selector="label.mr-p5 f-1 flex-row ai-center noselect"><g style="transform: translate(8px, 162px); color: var(--rgb223046rgb244245247);"><svg viewBox="0 0 24 24" role="presentation" class="mr-p5 f-0" style="width: 1.5rem; height: 1.5rem;" width="24" height="24"><path d="M16 17V19H2V17S2 13 9 13 16 17 16 17M12.5 7.5A3.5 3.5 0 1 0 9 11A3.5 3.5 0 0 0 12.5 7.5M15.94 13A5.32 5.32 0 0 1 18 17V19H22V17S22 13.37 15.94 13M15 4A3.39 3.39 0 0 0 13.07 4.59A5 5 0 0 1 13.07 10.41A3.39 3.39 0 0 0 15 11A3.5 3.5 0 0 0 15 4Z" style="fill: currentcolor;"/></svg></g><g data-selector="svg.[object SVGAnimatedString]" role="presentation" style="clip-path: inset(162px 868px 714px 8px) view-box;"><rect x="8" y="162" width="24" height="24" fill="transparent"/></g></g></g><g data-selector="li.flex-row  p-p5  bg-li  pointer  " data-command="config.files" data-key="file_storage" role="option"><g data-selector="label.mr-p5 f-1 flex-row ai-center noselect"><g style="transform: translate(8px, 202px); color: var(--rgb223046rgb244245247);"><svg viewBox="0 0 24 24" role="presentation" class="mr-p5 f-0" style="width: 1.5rem; height: 1.5rem;" width="24" height="24"><path d="M8.5,13.5L11,16.5L14.5,12L19,18H5M21,19V5C21,3.89 20.1,3 19,3H5A2,2 0 0,0 3,5V19A2,2 0 0,0 5,21H19A2,2 0 0,0 21,19Z" style="fill: currentcolor;"/></svg></g><g data-selector="svg.[object SVGAnimatedString]" role="presentation" style="clip-path: inset(202px 868px 674px 8px) view-box;"><rect x="8" y="202" width="24" height="24" fill="transparent"/></g></g></g><g data-selector="li.flex-row  p-p5  bg-li  pointer  " data-command="config.bkp" data-key="backups" role="option"><g data-selector="label.mr-p5 f-1 flex-row ai-center noselect"><g style="transform: translate(8px, 242px); color: var(--rgb223046rgb244245247);"><svg viewBox="0 0 24 24" role="presentation" class="mr-p5 f-0" style="width: 1.5rem; height: 1.5rem;" width="24" height="24"><path d="M19,12V13.5A4,4 0 0,1 23,17.5C23,18.32 22.75,19.08 22.33,19.71L21.24,18.62C21.41,18.28 21.5,17.9 21.5,17.5A2.5,2.5 0 0,0 19,15V16.5L16.75,14.25L19,12M19,23V21.5A4,4 0 0,1 15,17.5C15,16.68 15.25,15.92 15.67,15.29L16.76,16.38C16.59,16.72 16.5,17.1 16.5,17.5A2.5,2.5 0 0,0 19,20V18.5L21.25,20.75L19,23M12,3C16.42,3 20,4.79 20,7C20,9.21 16.42,11 12,11C7.58,11 4,9.21 4,7C4,4.79 7.58,3 12,3M4,9C4,11.21 7.58,13 12,13C13.11,13 14.17,12.89 15.14,12.68C14.19,13.54 13.5,14.67 13.18,15.96L12,16C7.58,16 4,14.21 4,12V9M20,9V11H19.5L18.9,11.03C19.6,10.43 20,9.74 20,9M4,14C4,16.21 7.58,18 12,18L13,17.97C13.09,19.03 13.42,20 13.95,20.88L12,21C7.58,21 4,19.21 4,17V14Z" style="fill: currentcolor;"/></svg></g><g data-selector="svg.[object SVGAnimatedString]" role="presentation" style="clip-path: inset(242px 868px 634px 8px) view-box;"><rect x="8" y="242" width="24" height="24" fill="transparent"/></g></g></g><g data-selector="li.flex-row  p-p5  bg-li  pointer  " data-command="config.api" data-key="API" role="option"><g data-selector="label.mr-p5 f-1 flex-row ai-center noselect"><g style="transform: translate(8px, 282px); color: var(--rgb223046rgb244245247);"><svg viewBox="0 0 24 24" role="presentation" class="mr-p5 f-0" style="width: 1.5rem; height: 1.5rem;" width="24" height="24"><path d="M21 2H3C1.9 2 1 2.9 1 4V20C1 21.1 1.9 22 3 22H21C22.1 22 23 21.1 23 20V4C23 2.9 22.1 2 21 2M21 20H3V6H21V20M9 8C7.9 8 7 8.9 7 10C7 11.1 6.1 12 5 12V14C6.1 14 7 14.9 7 16C7 17.1 7.9 18 9 18H11V16H9V15C9 13.9 8.1 13 7 13C8.1 13 9 12.1 9 11V10H11V8M15 8C16.1 8 17 8.9 17 10C17 11.1 17.9 12 19 12V14C17.9 14 17 14.9 17 16C17 17.1 16.1 18 15 18H13V16H15V15C15 13.9 15.9 13 17 13C15.9 13 15 12.1 15 11V10H13V8H15Z" style="fill: currentcolor;"/></svg></g><g data-selector="svg.[object SVGAnimatedString]" role="presentation" style="clip-path: inset(282px 868px 594px 8px) view-box;"><rect x="8" y="282" width="24" height="24" fill="transparent"/></g></g></g><g data-selector="li.flex-row  p-p5  bg-li  pointer  " data-command="config.tableConfig" data-key="table_config" role="option"><g data-selector="label.mr-p5 f-1 flex-row ai-center noselect"><g style="transform: translate(8px, 322px); color: var(--rgb223046rgb244245247);"><svg viewBox="0 0 24 24" role="presentation" class="mr-p5 f-0" style="width: 1.5rem; height: 1.5rem;" width="24" height="24"><path d="M21.7,13.35L20.7,14.35L18.65,12.3L19.65,11.3C19.86,11.08 20.21,11.08 20.42,11.3L21.7,12.58C21.92,12.79 21.92,13.14 21.7,13.35M12,18.94L18.07,12.88L20.12,14.93L14.06,21H12V18.94M4,2H18A2,2 0 0,1 20,4V8.17L16.17,12H12V16.17L10.17,18H4A2,2 0 0,1 2,16V4A2,2 0 0,1 4,2M4,6V10H10V6H4M12,6V10H18V6H12M4,12V16H10V12H4Z" style="fill: currentcolor;"/></svg></g><g data-selector="svg.[object SVGAnimatedString]" role="presentation" style="clip-path: inset(322px 868px 554px 8px) view-box;"><rect x="8" y="322" width="24" height="24" fill="transparent"/></g></g></g><g data-selector="li.flex-row  p-p5  bg-li  pointer  " data-command="config.methods" data-key="methods" role="option"><g data-selector="label.mr-p5 f-1 flex-row ai-center noselect"><g style="transform: translate(8px, 362px); color: var(--rgb223046rgb244245247);"><svg viewBox="0 0 24 24" role="presentation" class="mr-p5 f-0" style="width: 1.5rem; height: 1.5rem;" width="24" height="24"><path d="M3,3H21V21H3V3M13.71,17.86C14.21,18.84 15.22,19.59 16.8,19.59C18.4,19.59 19.6,18.76 19.6,17.23C19.6,15.82 18.79,15.19 17.35,14.57L16.93,14.39C16.2,14.08 15.89,13.87 15.89,13.37C15.89,12.96 16.2,12.64 16.7,12.64C17.18,12.64 17.5,12.85 17.79,13.37L19.1,12.5C18.55,11.54 17.77,11.17 16.7,11.17C15.19,11.17 14.22,12.13 14.22,13.4C14.22,14.78 15.03,15.43 16.25,15.95L16.67,16.13C17.45,16.47 17.91,16.68 17.91,17.26C17.91,17.74 17.46,18.09 16.76,18.09C15.93,18.09 15.45,17.66 15.09,17.06L13.71,17.86M13,11.25H8V12.75H9.5V20H11.25V12.75H13V11.25Z" style="fill: currentcolor;"/></svg></g><g data-selector="svg.[object SVGAnimatedString]" role="presentation" style="clip-path: inset(362px 868px 514px 8px) view-box;"><rect x="8" y="362" width="24" height="24" fill="transparent"/></g></g></g></g></g></g></g><g data-selector="div.TopControls w-full bg-color-0 jc-center shadow FlexRow flex-row gap-1 ai-center"><rect x="0" y="0" width="900" height="58" rx="0" ry="0" fill="var(--rgb255255255rgb444444)" style="animation: 0s ease 0s 1 normal none running none; filter: drop-shadow(rgba(0, 0, 0, 0.1) 0px 1px 1.5px) drop-shadow(rgba(0, 0, 0, 0.06) 0px 1px 1px);"/><g data-selector="div.gap-0 max-w-1200 f-1 FlexRow flex-row ai-center"><g data-selector="div.max-w-fit f-1 ai-center  p-p5  FlexRow flex-row gap-1"><g data-selector="a. f-0 flex-row gap-p5 ai-center button-css rounded btn btn-default btn-size-default btn-color-default ws-nowrap w-fit" data-command="config.goToConnDashboard" style="clip-path: inset(7px 849px 849px 7px round 4px) view-box;"><rect x="8.5" y="8.5" width="41" height="41" rx="4" ry="4" fill="var(--rgb240254255rgb03755)" stroke-width="1px" stroke="rgb(58, 216, 227)" style="animation: 0s ease 0s 1 normal none running none;"/><svg xmlns:dc="http://purl.org/dc/elements/1.1/" xmlns:cc="http://creativecommons.org/ns#" xmlns:rdf="http://www.w3.org/1999/02/22-rdf-syntax-ns#" xmlns:svg="http://www.w3.org/2000/svg" xmlns="http://www.w3.org/2000/svg" id="svg8" version="1.1" viewBox="0 0 9.5249998 9.5250003" height="36" width="36" x="11" y="11">
  <style>
    @media (prefers-color-scheme: dark) {
      <!-- #path3881-head {
        fill: green !important;
      }
  
      #path3887-eye {
        fill: #ff0000 !important;
      }       -->
    }
  </style>
  <g transform="translate(0,-287.47498)" id="layer1">
    <path style="fill:#0087ab;stroke-width:0.10478402" id="path3881-head" d="m 6.5209966,295.25712 c 0.2175402,-0.46431 1.6420322,-2.2511 1.3456182,-4.2915 -0.085217,-0.58659 -2.1619067,-1.59449 -2.2268491,-1.64218 -0.01022,-0.008 -0.1325362,-0.0996 -0.1694292,-0.13795 -0.197562,-0.2055 -0.499117,-0.62298 -0.8304557,-0.82041 -0.1525898,-0.0909 -0.7394033,-0.0609 -1.0268278,0.11432 l -1.879837,1.08657 c -0.4703536,0.4665 0.1139504,1.07392 0.2268207,1.30469 0.1128704,0.23077 0.803662,0.95627 0.803662,0.95627 v 0 c -0.1433145,0.0653 -0.3911698,-0.0575 -0.6915708,-0.27496 0,0 -0.8432496,-0.80366 -0.8823501,-0.87005 -0.039101,-0.0664 -0.1564018,-0.20484 -0.23460266,-0.47082 0,0 -0.0384912,-0.0917 -0.0544209,-0.51555 -0.0159297,-0.42388 0.69813926,-0.64516 0.80535536,-0.72619 0.107216,-0.081 1.4441719,-0.86378 1.8275182,-1.11029 0.3833462,-0.24651 0.8880668,-0.20266 1.1387453,-0.0444 l 2.8538119,1.69411 c 0.2716598,0.15804 1.3866918,1.14066 1.421482,1.86382 0.081505,1.69417 -1.2190224,2.93746 -1.8472163,4.27428 -0.6281939,1.33683 1.1838142,0.58699 1.2737198,0.43944 l 0.259057,0.27303 c -0.8972105,0.56378 -1.9304095,0.39775 -2.0611443,0.33679 -0.1307347,-0.0609 -0.2768897,-0.88205 -0.051087,-1.439 z"/>
    <path style="fill: #bc0000;fill-opacity:1;fill-rule:evenodd;stroke-width:0.07858816;stroke-miterlimit:4;stroke-dasharray:none;stroke-opacity:0.60294118;" id="path3887-eye" d="m 6.2908378,290.63597 c 0.030281,-0.0145 0.067771,-0.0145 0.09805,0 0.9624569,0.37529 0.8624334,0.39198 0.8624334,1.21858 0,0.0285 -0.018608,0.0549 -0.049026,0.0694 -0.9558494,-0.4203 -0.9974496,-0.45611 -0.9114585,-1.28795 z"/>
  </g>
</svg></g><g data-selector="div.h-full flex-col gap-p25 ai-start "><g data-selector="a.ConnectionConfigBtn f-0 flex-row gap-p5 ai-center button-css rounded btn btn-faded btn-size-default btn-color-action ws-nowrap w-fit" data-command="dashboard.goToConnConfig" style="clip-path: inset(8px 587.344px 850px 65px round 8px) view-box;"><rect x="66" y="9" width="245.65625" height="40" rx="8" ry="8" fill="var(--rgb225239254rgba07916308)" stroke-width="1px" stroke="rgba(0, 0, 0, 0)" style="animation: 0s ease 0s 1 normal none running none;"/><text x="109" y="35" fill="var(--rgb63131248rgb255255255)" font-family="var(--fontFamily-3551640753)" font-size="16px" font-weight="500" font-style="normal" letter-spacing="normal" text-decoration="none" text-anchor="start" style="line-height: 16px; white-space: nowrap; text-transform: none;">Connection configuration</text><g style="transform: translate(77.9px, 16.9px); color: var(--rgb63131248rgb255255255);"><svg viewBox="0 0 24 24" role="presentation" class=" f-0 " style="width: 22px; height: 22px; transform: scale(1.1);" width="22" height="22"><path d="M4 7C4 4.79 7.58 3 12 3S20 4.79 20 7 16.42 11 12 11 4 9.21 4 7M12.08 18L12 18C7.58 18 4 16.21 4 14V17C4 19.21 7.58 21 12 21C12.1 21 12.2 21 12.29 21C12.11 20.36 12 19.69 12 19C12 18.66 12.03 18.33 12.08 18M20 12.08C20 12.05 20 12.03 20 12V9C20 11.21 16.42 13 12 13S4 11.21 4 9V12C4 14.21 7.58 16 12 16C12.23 16 12.46 16 12.69 16C13.82 13.63 16.22 12 19 12C19.34 12 19.67 12.03 20 12.08M23.8 20.4C23.9 20.4 23.9 20.5 23.8 20.6L22.8 22.3C22.7 22.4 22.6 22.4 22.5 22.4L21.3 22C21 22.2 20.8 22.3 20.5 22.5L20.3 23.8C20.3 23.9 20.2 24 20.1 24H18.1C18 24 17.9 23.9 17.8 23.8L17.6 22.5C17.3 22.4 17 22.2 16.8 22L15.6 22.5C15.5 22.5 15.4 22.5 15.3 22.4L14.3 20.7C14.2 20.6 14.3 20.5 14.4 20.4L15.5 19.6V18.6L14.4 17.8C14.3 17.7 14.3 17.6 14.3 17.5L15.3 15.8C15.4 15.7 15.5 15.7 15.6 15.7L16.8 16.2C17.1 16 17.3 15.9 17.6 15.7L17.8 14.4C17.8 14.3 17.9 14.2 18.1 14.2H20.1C20.2 14.2 20.3 14.3 20.3 14.4L20.5 15.7C20.8 15.8 21.1 16 21.4 16.2L22.6 15.7C22.7 15.7 22.9 15.7 22.9 15.8L23.9 17.5C24 17.6 23.9 17.7 23.8 17.8L22.7 18.6V19.6L23.8 20.4M20.5 19C20.5 18.2 19.8 17.5 19 17.5S17.5 18.2 17.5 19 18.2 20.5 19 20.5 20.5 19.8 20.5 19Z" style="fill: currentcolor;"/></svg></g><g data-selector="svg.[object SVGAnimatedString]" role="presentation" style="clip-path: inset(16.9px 797.9px 858.9px 77.9px) view-box;"><rect x="77.9" y="16.9" width="24.2" height="24.2" fill="transparent"/></g></g></g><g data-selector="button. Select w-fit f-0 select-button flex-row gap-p5 ai-center rounded btn btn-faded btn-size-default btn-color-default ws-nowrap" data-command="ConnectionSelector"><rect x="327.65625" y="9" width="225.140625" height="40" rx="8" ry="8" fill="var(--rgba125125125022rgba125125125038)" stroke-width="1px" stroke="rgba(0, 0, 0, 0)" style="animation: 0s ease 0s 1 normal none running none;"/><g style="transform: translate(339.56px, 16.9px); color: var(--rgb758599rgb229231235);"><svg viewBox="0 0 24 24" role="presentation" class=" f-0 " style="width: 22px; height: 22px; transform: scale(1.1);" width="22" height="22"><path d="M12,3C7.58,3 4,4.79 4,7C4,9.21 7.58,11 12,11C16.42,11 20,9.21 20,7C20,4.79 16.42,3 12,3M4,9V12C4,14.21 7.58,16 12,16C16.42,16 20,14.21 20,12V9C20,11.21 16.42,13 12,13C7.58,13 4,11.21 4,9M4,14V17C4,19.21 7.58,21 12,21C16.42,21 20,19.21 20,17V14C20,16.21 16.42,18 12,18C7.58,18 4,16.21 4,14Z" style="fill: currentcolor;"/></svg></g><g data-selector="svg.[object SVGAnimatedString]" role="presentation" style="clip-path: inset(16.9px 536.244px 858.9px 339.556px) view-box;"><rect x="339.56" y="16.9" width="24.2" height="24.2" fill="transparent"/></g><g data-selector="div. text-ellipsis text-color-0" style="clip-path: inset(20px 360.203px 862px 370.656px) view-box;"><text x="370.66" y="35" fill="var(--rgb758599rgb229231235)" font-family="var(--fontFamily-3551640753)" font-size="16px" font-weight="500" font-style="normal" letter-spacing="normal" text-decoration="none" text-anchor="start" style="line-height: 18px; white-space: nowrap; text-transform: none;">prostgles_video_demo</text></g></g></g><g data-selector="div.ml-auto min-w-0 f-0 ai-start gap-1 text-1p5 w-fit ai-center noselect o-auto no-scroll-bar jc-end  p-p5  FlexRow flex-row" style="clip-path: inset(1px 0px 843px 732px) view-box;"><g data-selector="button. f-0 flex-row gap-p5 ai-center btn btn-faded btn-size-default btn-color-action ws-nowrap w-fit" data-command="AskLLM"><rect x="740" y="9" width="40" height="40" rx="6" ry="6" fill="var(--rgb225239254rgba07916308)" stroke-width="1px" stroke="rgba(0, 0, 0, 0)" style="animation: 0s ease 0s 1 normal none running none;"/><g style="transform: translate(747.9px, 16.9px); color: var(--rgb63131248rgb255255255);"><svg viewBox="0 0 24 24" role="presentation" class=" f-0 " style="width: 22px; height: 22px; transform: scale(1.1);" width="22" height="22"><path d="M19,2H5A2,2 0 0,0 3,4V18A2,2 0 0,0 5,20H9L12,23L15,20H19A2,2 0 0,0 21,18V4A2,2 0 0,0 19,2M13.88,12.88L12,17L10.12,12.88L6,11L10.12,9.12L12,5L13.88,9.12L18,11" style="fill: currentcolor;"/></svg></g><g data-selector="svg.[object SVGAnimatedString]" role="presentation" style="clip-path: inset(16.9px 127.9px 858.9px 747.9px) view-box;"><rect x="747.9" y="16.9" width="24.2" height="24.2" fill="transparent"/></g></g><g data-selector="div. PopupMenu_triggerWrapper h-fit w-fit"><g data-selector="button. f-0 flex-row gap-p5 ai-center btn btn-faded btn-size-default btn-color-default ws-nowrap w-fit" data-command="Feedback"><rect x="796" y="9" width="40" height="40" rx="6" ry="6" fill="var(--rgba125125125022rgba125125125038)" stroke-width="1px" stroke="rgba(0, 0, 0, 0)" style="animation: 0s ease 0s 1 normal none running none;"/><g style="transform: translate(803.9px, 16.9px); color: var(--rgb758599rgb229231235);"><svg viewBox="0 0 24 24" role="presentation" class=" f-0 " style="width: 22px; height: 22px; transform: scale(1.1);" width="22" height="22"><path d="M20 2H4C2.9 2 2 2.9 2 4V22L6 18H20C21.1 18 22 17.1 22 16V4C22 2.9 21.1 2 20 2M20 16H5.2L4 17.2V4H20V16M18 14V6H13V14L15.5 12.5L18 14" style="fill: currentcolor;"/></svg></g><g data-selector="svg.[object SVGAnimatedString]" role="presentation" style="clip-path: inset(16.9px 71.9px 858.9px 803.9px) view-box;"><rect x="803.9" y="16.9" width="24.2" height="24.2" fill="transparent"/></g></g></g><g data-selector="a. f-0 flex-row gap-p5 ai-center button-css btn btn-faded btn-size-default btn-color-default ws-nowrap w-fit" data-command="dashboard.goToConnections" style="clip-path: inset(8px 7px 850px 851px round 6px) view-box;"><rect x="852" y="9" width="40" height="40" rx="6" ry="6" fill="var(--rgba125125125022rgba125125125038)" stroke-width="1px" stroke="rgba(0, 0, 0, 0)" style="animation: 0s ease 0s 1 normal none running none;"/><g style="transform: translate(859.9px, 16.9px); color: var(--rgb758599rgb229231235);"><svg viewBox="0 0 24 24" role="presentation" class=" f-0 " style="width: 22px; height: 22px; transform: scale(1.1);" width="22" height="22"><path d="M20,11V13H8L13.5,18.5L12.08,19.92L4.16,12L12.08,4.08L13.5,5.5L8,11H20Z" style="fill: currentcolor;"/></svg></g><g data-selector="svg.[object SVGAnimatedString]" role="presentation" style="clip-path: inset(16.9px 15.9px 858.9px 859.9px) view-box;"><rect x="859.9" y="16.9" width="24.2" height="24.2" fill="transparent"/></g></g></g></g></g></g></g></g></g><style xmlns="http://www.w3.org/1999/xhtml" type="text/css">:root #id-2305afa1 { 
  --dark-theme-hide: 1;
  --light-theme-hide: 0;
  --rgb244245247rgb262525: rgb(244, 245, 247); 
  --rgb244245247rgb363636: rgb(244, 245, 247); 
  --rgb255255255rgb444444: rgb(255, 255, 255); 
  --rgb255255255rgb255255255: rgb(255, 255, 255); 
  --rgb223046rgb244245247: rgb(22, 30, 46); 
  --fontFamily-3551640753: -apple-system, BlinkMacSystemFont, "Segoe UI", Roboto, Oxygen, Ubuntu, Cantarell, "Fira Sans", "Droid Sans", "Helvetica Neue", sans-serif; 
  --rgb63131248rgb48121197: rgb(63, 131, 248); 
  --rgb63131248rgb118169250: rgb(63, 131, 248); 
  --rgb63131248rgb255255255: rgb(63, 131, 248); 
  --rgba125125125022rgba125125125038: rgba(125, 125, 125, 0.22); 
  --rgb758599rgb229231235: rgb(75, 85, 99); 
  --rgb758599rgb201201201: rgb(75, 85, 99); 
  --rgb758599rgb180180180: rgb(75, 85, 99); 
  --rgb210214220rgb758599: rgb(210, 214, 220); 
  --rgb159166178rgb159166178: rgb(159, 166, 178); 
  --rgb249250251rgb333333: rgb(249, 250, 251); 
  --rgb1427516rgb1891490: rgb(142, 75, 16); 
  --rgb225239254rgba36101212039: rgb(225, 239, 254); 
  --rgb225239254rgba07916308: rgb(225, 239, 254); 
  --rgb240254255rgb03755: rgb(240, 254, 255); 
}
@media (prefers-color-scheme: dark) { 
 :root #id-2305afa1  { 
  --dark-theme-hide: 0;
  --light-theme-hide: 1;
  --rgb244245247rgb262525: rgb(26, 25, 25); 
  --rgb244245247rgb363636: rgb(36, 36, 36); 
  --rgb255255255rgb444444: rgb(44, 44, 44); 
  --rgb223046rgb244245247: rgb(244, 245, 247); 
  --rgb63131248rgb48121197: rgb(48, 121, 197); 
  --rgb63131248rgb118169250: rgb(118, 169, 250); 
  --rgb63131248rgb255255255: rgb(255, 255, 255); 
  --rgba125125125022rgba125125125038: rgba(125, 125, 125, 0.38); 
  --rgb758599rgb229231235: rgb(229, 231, 235); 
  --rgb758599rgb201201201: rgb(201, 201, 201); 
  --rgb758599rgb180180180: rgb(180, 180, 180); 
  --rgb210214220rgb758599: rgb(75, 85, 99); 
  --rgb249250251rgb333333: rgb(33, 33, 33); 
  --rgb1427516rgb1891490: rgb(189, 149, 0); 
  --rgb225239254rgba36101212039: rgba(36, 101, 212, 0.39); 
  --rgb225239254rgba07916308: rgba(0, 79, 163, 0.8); 
  --rgb240254255rgb03755: rgb(0, 37, 55); 
  }
} 
</style></svg>