<svg xmlns="http://www.w3.org/2000/svg" width="900" height="900" viewBox="0 0 900 900"><defs><style xmlns="http://www.w3.org/1999/xhtml">@keyframes rotator { 
  100% { transform: translateZ(0px) rotate(360deg); }
}</style><style type="text/css"/></defs><g data-selector="body.text-0 enable-motion underline-links bg-color-2" style="clip-path: inset(0px) view-box;" id="id-f956411c"><path d="M0,0 H900 V900 H0 V0 Z" fill="var(--rgb244245247rgb262525)"/><g data-selector="main." style="filter: blur(2px);"><g data-selector="div.App gap-0 f-1 min-h-0 FlexCol flex-col"><g data-selector="div.Project f-1 flex-col h-full w-full min-h-0 min-w-0 relative bg-color-4"><path d="M0,0 H900 V900 H0 V0 Z" fill="var(--rgb210214220rgb000)"/><g data-selector="div.f-1 w-full h-full flex-col"><g data-selector="div.Dashboard gap-0 f-1 min-w-0 min-h-0 w-full  FlexCol flex-col"><g data-selector="div.TopHeader f-0 flex-row  min-h-0 min-w-0 o-hidden" style="clip-path: inset(0px 0px 842px) view-box;"><g data-selector="div.TopControls w-full bg-color-0 jc-center shadow FlexRow flex-row gap-1 ai-center"><path d="M0,0 H900 V58 H0 V0 Z" fill="var(--rgb255255255rgb444444)" style="filter: drop-shadow(rgba(0, 0, 0, 0.1) 0px 1px 1.5px) drop-shadow(rgba(0, 0, 0, 0.06) 0px 1px 1px);"/><g data-selector="div.max-w-fit f-1 ai-center  p-p5  FlexRow flex-row gap-1"><g data-selector="button. f-0 flex-row gap-p5 ai-center rounded btn btn-default btn-size-default btn-color-default ws-nowrap w-fit" data-command="dashboard.menu"><path d="M12.5,8.5 H45.5 A4,4 0 0 1 49.5,12.5 V45.5 A4,4 0 0 1 45.5,49.5 H12.5 A4,4 0 0 1 8.5,45.5 V12.5 A4,4 0 0 1 12.5,8.5 Z" fill="var(--rgb240254255rgb03755)" stroke-width="1px" stroke="rgb(58, 216, 227)"/><svg xmlns:dc="http://purl.org/dc/elements/1.1/" xmlns:cc="http://creativecommons.org/ns#" xmlns:rdf="http://www.w3.org/1999/02/22-rdf-syntax-ns#" xmlns:svg="http://www.w3.org/2000/svg" xmlns="http://www.w3.org/2000/svg" id="svg8" version="1.1" viewBox="0 0 9.5249998 9.5250003" height="36" width="36" x="11" y="11">
  <style>
    @media (prefers-color-scheme: dark) {
      <!-- #path3881-head {
        fill: green !important;
      }
  
      #path3887-eye {
        fill: #ff0000 !important;
      }       -->
    }
  </style>
  <g transform="translate(0,-287.47498)" id="layer1">
    <path style="fill:#0087ab;stroke-width:0.10478402" id="path3881-head" d="m 6.5209966,295.25712 c 0.2175402,-0.46431 1.6420322,-2.2511 1.3456182,-4.2915 -0.085217,-0.58659 -2.1619067,-1.59449 -2.2268491,-1.64218 -0.01022,-0.008 -0.1325362,-0.0996 -0.1694292,-0.13795 -0.197562,-0.2055 -0.499117,-0.62298 -0.8304557,-0.82041 -0.1525898,-0.0909 -0.7394033,-0.0609 -1.0268278,0.11432 l -1.879837,1.08657 c -0.4703536,0.4665 0.1139504,1.07392 0.2268207,1.30469 0.1128704,0.23077 0.803662,0.95627 0.803662,0.95627 v 0 c -0.1433145,0.0653 -0.3911698,-0.0575 -0.6915708,-0.27496 0,0 -0.8432496,-0.80366 -0.8823501,-0.87005 -0.039101,-0.0664 -0.1564018,-0.20484 -0.23460266,-0.47082 0,0 -0.0384912,-0.0917 -0.0544209,-0.51555 -0.0159297,-0.42388 0.69813926,-0.64516 0.80535536,-0.72619 0.107216,-0.081 1.4441719,-0.86378 1.8275182,-1.11029 0.3833462,-0.24651 0.8880668,-0.20266 1.1387453,-0.0444 l 2.8538119,1.69411 c 0.2716598,0.15804 1.3866918,1.14066 1.421482,1.86382 0.081505,1.69417 -1.2190224,2.93746 -1.8472163,4.27428 -0.6281939,1.33683 1.1838142,0.58699 1.2737198,0.43944 l 0.259057,0.27303 c -0.8972105,0.56378 -1.9304095,0.39775 -2.0611443,0.33679 -0.1307347,-0.0609 -0.2768897,-0.88205 -0.051087,-1.439 z"/>
    <path style="fill: #bc0000;fill-opacity:1;fill-rule:evenodd;stroke-width:0.07858816;stroke-miterlimit:4;stroke-dasharray:none;stroke-opacity:0.60294118;" id="path3887-eye" d="m 6.2908378,290.63597 c 0.030281,-0.0145 0.067771,-0.0145 0.09805,0 0.9624569,0.37529 0.8624334,0.39198 0.8624334,1.21858 0,0.0285 -0.018608,0.0549 -0.049026,0.0694 -0.9558494,-0.4203 -0.9974496,-0.45611 -0.9114585,-1.28795 z"/>
  </g>
</svg></g><g data-selector="div.h-full flex-col gap-p25 ai-start "><g data-selector="a.ConnectionConfigBtn f-0 flex-row gap-p5 ai-center button-css btn btn-faded btn-size-default btn-color-default ws-nowrap w-fit" data-command="dashboard.goToConnConfig" style="clip-path: inset(8px 793px 850px 65px round 6px) view-box;"><path d="M72,9 H100 A6,6 0 0 1 106,15 V43 A6,6 0 0 1 100,49 H72 A6,6 0 0 1 66,43 V15 A6,6 0 0 1 72,9 Z" fill="var(--rgba125125125022rgba125125125038)" stroke-width="1px" stroke="rgba(0, 0, 0, 0)"/><g style="transform: translate(73.9px, 16.9px); color: var(--rgb758599rgb229231235);"><svg viewBox="0 0 24 24" role="presentation" class=" f-0 " style="width: 22px; height: 22px; transform: scale(1.1);" width="22" height="22"><path d="M4 7C4 4.79 7.58 3 12 3S20 4.79 20 7 16.42 11 12 11 4 9.21 4 7M12.08 18L12 18C7.58 18 4 16.21 4 14V17C4 19.21 7.58 21 12 21C12.1 21 12.2 21 12.29 21C12.11 20.36 12 19.69 12 19C12 18.66 12.03 18.33 12.08 18M20 12.08C20 12.05 20 12.03 20 12V9C20 11.21 16.42 13 12 13S4 11.21 4 9V12C4 14.21 7.58 16 12 16C12.23 16 12.46 16 12.69 16C13.82 13.63 16.22 12 19 12C19.34 12 19.67 12.03 20 12.08M23.8 20.4C23.9 20.4 23.9 20.5 23.8 20.6L22.8 22.3C22.7 22.4 22.6 22.4 22.5 22.4L21.3 22C21 22.2 20.8 22.3 20.5 22.5L20.3 23.8C20.3 23.9 20.2 24 20.1 24H18.1C18 24 17.9 23.9 17.8 23.8L17.6 22.5C17.3 22.4 17 22.2 16.8 22L15.6 22.5C15.5 22.5 15.4 22.5 15.3 22.4L14.3 20.7C14.2 20.6 14.3 20.5 14.4 20.4L15.5 19.6V18.6L14.4 17.8C14.3 17.7 14.3 17.6 14.3 17.5L15.3 15.8C15.4 15.7 15.5 15.7 15.6 15.7L16.8 16.2C17.1 16 17.3 15.9 17.6 15.7L17.8 14.4C17.8 14.3 17.9 14.2 18.1 14.2H20.1C20.2 14.2 20.3 14.3 20.3 14.4L20.5 15.7C20.8 15.8 21.1 16 21.4 16.2L22.6 15.7C22.7 15.7 22.9 15.7 22.9 15.8L23.9 17.5C24 17.6 23.9 17.7 23.8 17.8L22.7 18.6V19.6L23.8 20.4M20.5 19C20.5 18.2 19.8 17.5 19 17.5S17.5 18.2 17.5 19 18.2 20.5 19 20.5 20.5 19.8 20.5 19Z" style="fill: currentcolor;"/></svg></g><g data-selector="svg.[object SVGAnimatedString]" role="presentation" style="clip-path: inset(16.9px 801.9px 858.9px 73.9px) view-box;"><rect x="73.9" y="16.9" width="24.2" height="24.2" fill="transparent"/></g></g></g><g data-selector="button. Select w-fit f-0 select-button flex-row gap-p5 ai-center rounded btn btn-faded btn-size-default btn-color-default ws-nowrap" data-command="ConnectionSelector"><path d="M130,9 H314 A8,8 0 0 1 322,17 V41 A8,8 0 0 1 314,49 H130 A8,8 0 0 1 122,41 V17 A8,8 0 0 1 130,9 Z" fill="var(--rgba125125125022rgba125125125038)" stroke-width="1px" stroke="rgba(0, 0, 0, 0)"/><g style="transform: translate(133.9px, 16.9px); color: var(--rgb758599rgb229231235);"><svg viewBox="0 0 24 24" role="presentation" class=" f-0 " style="width: 22px; height: 22px; transform: scale(1.1);" width="22" height="22"><path d="M12,3C7.58,3 4,4.79 4,7C4,9.21 7.58,11 12,11C16.42,11 20,9.21 20,7C20,4.79 16.42,3 12,3M4,9V12C4,14.21 7.58,16 12,16C16.42,16 20,14.21 20,12V9C20,11.21 16.42,13 12,13C7.58,13 4,11.21 4,9M4,14V17C4,19.21 7.58,21 12,21C16.42,21 20,19.21 20,17V14C20,16.21 16.42,18 12,18C7.58,18 4,16.21 4,14Z" style="fill: currentcolor;"/></svg></g><g data-selector="svg.[object SVGAnimatedString]" role="presentation" style="clip-path: inset(16.9px 741.9px 858.9px 133.9px) view-box;"><rect x="133.9" y="16.9" width="24.2" height="24.2" fill="transparent"/></g><g data-selector="div. text-ellipsis text-color-0" style="clip-path: inset(20px 591px 862px 165px) view-box;"><text x="165" y="35" fill="var(--rgb758599rgb229231235)" font-family="var(--fontFamily-3551640753)" font-size="16px" font-weight="500" font-style="normal" letter-spacing="normal" text-decoration="none" text-anchor="start" style="line-height: 18px; white-space: nowrap; text-transform: none;">prostgles_video_...</text></g></g></g><g data-selector="div. WorkspaceMenu as-end jc-center text-white ai-center f-1 min-w-0 o-auto h-fit FlexRow flex-row gap-1" style="clip-path: inset(5px 240px 842px 346px) view-box;"><g data-selector="ul.no-decor o-auto f-1 min-w-0 max-w-fit flex-row no-scroll-bar ai-end" data-command="WorkspaceMenu.list" style="clip-path: inset(5px 376.469px 842px 433.453px) view-box;"><g data-selector="li.workspace-list-item text-1 relative flex-row active"><g data-selector="button. f-0 flex-row gap-p5 ai-center rounded btn btn-default btn-size-default btn-color-default ws-nowrap w-fit"><line x1="433.453125" y1="5.5" x2="523.53125" y2="5.5" stroke="rgba(0, 0, 0, 0)" stroke-width="1"/><line x1="523.03125" y1="5" x2="523.03125" y2="58" stroke="rgba(0, 0, 0, 0)" stroke-width="1"/><line x1="433.453125" y1="56" x2="523.53125" y2="56" stroke="rgb(0, 161, 255)" stroke-width="4"/><line x1="433.953125" y1="5" x2="433.953125" y2="58" stroke="rgba(0, 0, 0, 0)" stroke-width="1"/><text x="450.45" y="36" fill="var(--rgb758599rgb229231235)" font-family="var(--fontFamily-3551640753)" font-size="16px" font-weight="600" font-style="normal" letter-spacing="normal" text-decoration="none" text-anchor="start" style="line-height: 16px; white-space: nowrap; text-transform: none;">default</text></g></g></g><g data-selector="div. PopupMenu_triggerWrapper h-fit w-fit"><g data-selector="button.text-0 f-0 flex-row gap-p5 ai-center btn btn-default btn-size-default btn-color-default ws-nowrap w-fit" data-command="WorkspaceMenuDropDown"><g style="transform: translate(536.43px, 19.4px); color: var(--rgb758599rgb229231235);"><svg viewBox="0 0 24 24" role="presentation" class=" f-0 " style="width: 22px; height: 22px; transform: scale(1.1);" width="22" height="22"><path d="M7.41,8.58L12,13.17L16.59,8.58L18,10L12,16L6,10L7.41,8.58Z" style="fill: currentcolor;"/></svg></g><g data-selector="svg.[object SVGAnimatedString]" role="presentation" style="clip-path: inset(19.4px 339.369px 856.4px 536.431px) view-box;"><rect x="536.43" y="19.4" width="24.2" height="24.2" fill="transparent"/></g><path d="M530.53,7.5 H566.53 A6,6 0 0 1 572.53,13.5 V49.5 A6,6 0 0 1 566.53,55.5 H530.53 A6,6 0 0 1 524.53,49.5 V13.5 A6,6 0 0 1 530.53,7.5 Z" fill="none" stroke-width="1px" stroke="rgba(0, 0, 0, 0)"/></g></g></g><g data-selector="div.ml-auto min-w-0 f-0 ai-start gap-1 text-1p5 w-fit ai-center noselect o-auto no-scroll-bar jc-end  p-p5  FlexRow flex-row" style="clip-path: inset(1px 0px 843px 676px) view-box;"><g data-selector="button. f-0 flex-row gap-p5 ai-center btn btn-default btn-size-default btn-color-default ws-nowrap w-fit" data-command="AppDemo.start"><g style="transform: translate(691.9px, 16.9px); color: var(--rgb758599rgb229231235);"><svg viewBox="0 0 24 24" role="presentation" class=" f-0 " style="width: 22px; height: 22px; transform: scale(1.1);" width="22" height="22"><path d="M8,5.14V19.14L19,12.14L8,5.14Z" style="fill: currentcolor;"/></svg></g><g data-selector="svg.[object SVGAnimatedString]" role="presentation" style="clip-path: inset(16.9px 183.9px 858.9px 691.9px) view-box;"><rect x="691.9" y="16.9" width="24.2" height="24.2" fill="transparent"/></g><path d="M690,9 H718 A6,6 0 0 1 724,15 V43 A6,6 0 0 1 718,49 H690 A6,6 0 0 1 684,43 V15 A6,6 0 0 1 690,9 Z" fill="none" stroke-width="1px" stroke="rgba(0, 0, 0, 0)"/></g><g data-selector="button. f-0 flex-row gap-p5 ai-center btn btn-faded btn-size-default btn-color-action ws-nowrap w-fit" data-command="AskLLM"><path d="M746,9 H774 A6,6 0 0 1 780,15 V43 A6,6 0 0 1 774,49 H746 A6,6 0 0 1 740,43 V15 A6,6 0 0 1 746,9 Z" fill="var(--rgb225239254rgba07916308)" stroke-width="1px" stroke="rgba(0, 0, 0, 0)"/><g style="transform: translate(747.9px, 16.9px); color: var(--rgb63131248rgb255255255);"><svg viewBox="0 0 24 24" role="presentation" class=" f-0 " style="width: 22px; height: 22px; transform: scale(1.1);" width="22" height="22"><path d="M19,2H5A2,2 0 0,0 3,4V18A2,2 0 0,0 5,20H9L12,23L15,20H19A2,2 0 0,0 21,18V4A2,2 0 0,0 19,2M13.88,12.88L12,17L10.12,12.88L6,11L10.12,9.12L12,5L13.88,9.12L18,11" style="fill: currentcolor;"/></svg></g><g data-selector="svg.[object SVGAnimatedString]" role="presentation" style="clip-path: inset(16.9px 127.9px 858.9px 747.9px) view-box;"><rect x="747.9" y="16.9" width="24.2" height="24.2" fill="transparent"/></g></g><g data-selector="div. PopupMenu_triggerWrapper h-fit w-fit"><g data-selector="button. f-0 flex-row gap-p5 ai-center btn btn-faded btn-size-default btn-color-default ws-nowrap w-fit" data-command="Feedback"><path d="M802,9 H830 A6,6 0 0 1 836,15 V43 A6,6 0 0 1 830,49 H802 A6,6 0 0 1 796,43 V15 A6,6 0 0 1 802,9 Z" fill="var(--rgba125125125022rgba125125125038)" stroke-width="1px" stroke="rgba(0, 0, 0, 0)"/><g style="transform: translate(803.9px, 16.9px); color: var(--rgb758599rgb229231235);"><svg viewBox="0 0 24 24" role="presentation" class=" f-0 " style="width: 22px; height: 22px; transform: scale(1.1);" width="22" height="22"><path d="M20 2H4C2.9 2 2 2.9 2 4V22L6 18H20C21.1 18 22 17.1 22 16V4C22 2.9 21.1 2 20 2M20 16H5.2L4 17.2V4H20V16M18 14V6H13V14L15.5 12.5L18 14" style="fill: currentcolor;"/></svg></g><g data-selector="svg.[object SVGAnimatedString]" role="presentation" style="clip-path: inset(16.9px 71.9px 858.9px 803.9px) view-box;"><rect x="803.9" y="16.9" width="24.2" height="24.2" fill="transparent"/></g></g></g><g data-selector="a. f-0 flex-row gap-p5 ai-center button-css btn btn-faded btn-size-default btn-color-default ws-nowrap w-fit active" data-command="dashboard.goToConnections" style="clip-path: inset(8px 7px 850px 851px round 6px) view-box;"><path d="M858,9 H886 A6,6 0 0 1 892,15 V43 A6,6 0 0 1 886,49 H858 A6,6 0 0 1 852,43 V15 A6,6 0 0 1 858,9 Z" fill="var(--rgba125125125022rgba125125125038)" stroke-width="1px" stroke="rgba(0, 0, 0, 0)"/><g style="transform: translate(859.9px, 16.9px); color: var(--rgb758599rgb229231235);"><svg viewBox="0 0 24 24" role="presentation" class=" f-0 " style="width: 22px; height: 22px; transform: scale(1.1);" width="22" height="22"><path d="M20,11V13H8L13.5,18.5L12.08,19.92L4.16,12L12.08,4.08L13.5,5.5L8,11H20Z" style="fill: currentcolor;"/></svg></g><g data-selector="svg.[object SVGAnimatedString]" role="presentation" style="clip-path: inset(16.9px 15.9px 858.9px 859.9px) view-box;"><rect x="859.9" y="16.9" width="24.2" height="24.2" fill="transparent"/></g></g></g></g></g><g data-selector="div.Dashboard_Wrapper min-h-0 f-1 flex-row relative"><g data-selector="div.Dashboard_MainContentWrapper f-1 gap-0 relative ai-none jc-none FlexRow flex-row"><g data-selector="div.ViewRenderer min-h-0 f-1 flex-row relative"><g data-selector="div.absolute inset-0 jc-center ai-center FlexCol flex-col gap-1" style="opacity: var(--05);"><path d="M1,60 H899 V900 H1 V60 Z" fill="var(--rgb244245247rgb545762)"/><g data-selector="div.flex-col ai-start gap-p5  mt-1"><g data-selector="div. SectionHeader flex-row gap-1 ai-center font-16"><g style="transform: translate(308.41px, 404px); color: var(--rgb159166178rgb255255255);"><svg viewBox="0 0 24 24" role="presentation" style="width: 1.5rem; height: 1.5rem;" width="24" height="24"><path d="M19,10H17V8H19M19,13H17V11H19M16,10H14V8H16M16,13H14V11H16M16,17H8V15H16M7,10H5V8H7M7,13H5V11H7M8,11H10V13H8M8,8H10V10H8M11,11H13V13H11M11,8H13V10H11M20,5H4C2.89,5 2,5.89 2,7V17A2,2 0 0,0 4,19H20A2,2 0 0,0 22,17V7C22,5.89 21.1,5 20,5Z" style="fill: currentcolor;"/></svg></g><g data-selector="svg.[object SVGAnimatedString]" role="presentation" style="clip-path: inset(404px 567.594px 472px 308.406px) view-box;"><rect x="308.41" y="404" width="24" height="24" fill="transparent"/></g><g data-selector="h4.m-0 p-0"><text x="348.41" y="422" fill="var(--rgb159166178rgb255255255)" font-family="var(--fontFamily-3551640753)" font-size="16px" font-weight="700" font-style="normal" letter-spacing="normal" text-decoration="none" text-anchor="start" style="line-height: normal; white-space: normal; text-transform: none;">Hotkeys</text></g></g><g data-selector="div.flex-row-wrap ai-center gap-p5 noselect "><g data-selector="div.mr-p25"><text x="308.41" y="456" fill="var(--rgb159166178rgb255255255)" font-family="var(--fontFamily-3551640753)" font-size="16px" font-weight="400" font-style="normal" letter-spacing="normal" text-decoration="none" text-anchor="start" style="line-height: normal; white-space: normal; text-transform: none;">Open Command Palette</text><text x="482.17" y="456" fill="var(--rgb159166178rgb255255255)" font-family="var(--fontFamily-3551640753)" font-size="16px" font-weight="400" font-style="normal" letter-spacing="normal" text-decoration="none" text-anchor="start" style="line-height: normal; white-space: normal; text-transform: none;">:</text></g><g data-selector="div.flex-row ai-center gap-p25"><g data-selector="div.hotkey shadow"><path d="M504.61,436.5 H541.22 A6,6 0 0 1 547.22,442.5 V457.5 A6,6 0 0 1 541.22,463.5 H504.61 A6,6 0 0 1 498.61,457.5 V442.5 A6,6 0 0 1 504.61,436.5 Z" fill="var(--rgb229231235rgb000)" stroke-width="1px" stroke="rgb(210, 214, 220)" style="filter: drop-shadow(rgba(0, 0, 0, 0.1) 0px 1px 1.5px) drop-shadow(rgba(0, 0, 0, 0.06) 0px 1px 1px);"/><text x="504.11" y="456" fill="var(--rgb159166178rgb255255255)" font-family="var(--fontFamily-3551640753)" font-size="16px" font-weight="400" font-style="normal" letter-spacing="normal" text-decoration="none" text-anchor="start" style="line-height: normal; white-space: normal; text-transform: uppercase;">ctrl</text></g><g data-selector="span."><text x="551.72" y="456" fill="var(--rgb159166178rgb255255255)" font-family="var(--fontFamily-3551640753)" font-size="16px" font-weight="400" font-style="normal" letter-spacing="normal" text-decoration="none" text-anchor="start" style="line-height: normal; white-space: normal; text-transform: none;">+</text></g><g data-selector="div.hotkey shadow"><path d="M571.25,436.5 H582.25 A6,6 0 0 1 588.25,442.5 V457.5 A6,6 0 0 1 582.25,463.5 H571.25 A6,6 0 0 1 565.25,457.5 V442.5 A6,6 0 0 1 571.25,436.5 Z" fill="var(--rgb229231235rgb000)" stroke-width="1px" stroke="rgb(210, 214, 220)" style="filter: drop-shadow(rgba(0, 0, 0, 0.1) 0px 1px 1.5px) drop-shadow(rgba(0, 0, 0, 0.06) 0px 1px 1px);"/><text x="571.7" y="456" fill="var(--rgb159166178rgb255255255)" font-family="var(--fontFamily-3551640753)" font-size="16px" font-weight="400" font-style="normal" letter-spacing="normal" text-decoration="none" text-anchor="start" style="line-height: normal; white-space: normal; text-transform: uppercase;">k</text></g></g></g><g data-selector="div.flex-row-wrap ai-center gap-p5 noselect "><g data-selector="div.mr-p25"><text x="308.41" y="492" fill="var(--rgb159166178rgb255255255)" font-family="var(--fontFamily-3551640753)" font-size="16px" font-weight="400" font-style="normal" letter-spacing="normal" text-decoration="none" text-anchor="start" style="line-height: normal; white-space: normal; text-transform: none;">Open a table or script</text><text x="465.34" y="492" fill="var(--rgb159166178rgb255255255)" font-family="var(--fontFamily-3551640753)" font-size="16px" font-weight="400" font-style="normal" letter-spacing="normal" text-decoration="none" text-anchor="start" style="line-height: normal; white-space: normal; text-transform: none;">:</text></g><g data-selector="div.flex-row ai-center gap-p25"><g data-selector="div.hotkey shadow"><path d="M487.78,472.5 H524.39 A6,6 0 0 1 530.39,478.5 V493.5 A6,6 0 0 1 524.39,499.5 H487.78 A6,6 0 0 1 481.78,493.5 V478.5 A6,6 0 0 1 487.78,472.5 Z" fill="var(--rgb229231235rgb000)" stroke-width="1px" stroke="rgb(210, 214, 220)" style="filter: drop-shadow(rgba(0, 0, 0, 0.1) 0px 1px 1.5px) drop-shadow(rgba(0, 0, 0, 0.06) 0px 1px 1px);"/><text x="487.28" y="492" fill="var(--rgb159166178rgb255255255)" font-family="var(--fontFamily-3551640753)" font-size="16px" font-weight="400" font-style="normal" letter-spacing="normal" text-decoration="none" text-anchor="start" style="line-height: normal; white-space: normal; text-transform: uppercase;">ctrl</text></g><g data-selector="span."><text x="534.89" y="492" fill="var(--rgb159166178rgb255255255)" font-family="var(--fontFamily-3551640753)" font-size="16px" font-weight="400" font-style="normal" letter-spacing="normal" text-decoration="none" text-anchor="start" style="line-height: normal; white-space: normal; text-transform: none;">+</text></g><g data-selector="div.hotkey shadow"><path d="M554.42,472.5 H565.42 A6,6 0 0 1 571.42,478.5 V493.5 A6,6 0 0 1 565.42,499.5 H554.42 A6,6 0 0 1 548.42,493.5 V478.5 A6,6 0 0 1 554.42,472.5 Z" fill="var(--rgb229231235rgb000)" stroke-width="1px" stroke="rgb(210, 214, 220)" style="filter: drop-shadow(rgba(0, 0, 0, 0.1) 0px 1px 1.5px) drop-shadow(rgba(0, 0, 0, 0.06) 0px 1px 1px);"/><text x="555.05" y="492" fill="var(--rgb159166178rgb255255255)" font-family="var(--fontFamily-3551640753)" font-size="16px" font-weight="400" font-style="normal" letter-spacing="normal" text-decoration="none" text-anchor="start" style="line-height: normal; white-space: normal; text-transform: uppercase;">p</text></g></g></g><g data-selector="div.flex-row-wrap ai-center gap-p5 noselect "><g data-selector="div.mr-p25"><text x="308.41" y="528" fill="var(--rgb159166178rgb255255255)" font-family="var(--fontFamily-3551640753)" font-size="16px" font-weight="400" font-style="normal" letter-spacing="normal" text-decoration="none" text-anchor="start" style="line-height: normal; white-space: normal; text-transform: none;">Search all data</text><text x="414.02" y="528" fill="var(--rgb159166178rgb255255255)" font-family="var(--fontFamily-3551640753)" font-size="16px" font-weight="400" font-style="normal" letter-spacing="normal" text-decoration="none" text-anchor="start" style="line-height: normal; white-space: normal; text-transform: none;">:</text></g><g data-selector="div.flex-row ai-center gap-p25"><g data-selector="div.hotkey shadow"><path d="M436.45,508.5 H473.06 A6,6 0 0 1 479.06,514.5 V529.5 A6,6 0 0 1 473.06,535.5 H436.45 A6,6 0 0 1 430.45,529.5 V514.5 A6,6 0 0 1 436.45,508.5 Z" fill="var(--rgb229231235rgb000)" stroke-width="1px" stroke="rgb(210, 214, 220)" style="filter: drop-shadow(rgba(0, 0, 0, 0.1) 0px 1px 1.5px) drop-shadow(rgba(0, 0, 0, 0.06) 0px 1px 1px);"/><text x="435.95" y="528" fill="var(--rgb159166178rgb255255255)" font-family="var(--fontFamily-3551640753)" font-size="16px" font-weight="400" font-style="normal" letter-spacing="normal" text-decoration="none" text-anchor="start" style="line-height: normal; white-space: normal; text-transform: uppercase;">ctrl</text></g><g data-selector="span."><text x="483.56" y="528" fill="var(--rgb159166178rgb255255255)" font-family="var(--fontFamily-3551640753)" font-size="16px" font-weight="400" font-style="normal" letter-spacing="normal" text-decoration="none" text-anchor="start" style="line-height: normal; white-space: normal; text-transform: none;">+</text></g><g data-selector="div.hotkey shadow"><path d="M503.09,508.5 H544.05 A6,6 0 0 1 550.05,514.5 V529.5 A6,6 0 0 1 544.05,535.5 H503.09 A6,6 0 0 1 497.09,529.5 V514.5 A6,6 0 0 1 503.09,508.5 Z" fill="var(--rgb229231235rgb000)" stroke-width="1px" stroke="rgb(210, 214, 220)" style="filter: drop-shadow(rgba(0, 0, 0, 0.1) 0px 1px 1.5px) drop-shadow(rgba(0, 0, 0, 0.06) 0px 1px 1px);"/><text x="502.59" y="528" fill="var(--rgb159166178rgb255255255)" font-family="var(--fontFamily-3551640753)" font-size="16px" font-weight="400" font-style="normal" letter-spacing="normal" text-decoration="none" text-anchor="start" style="line-height: normal; white-space: normal; text-transform: uppercase;">shift</text></g><g data-selector="span."><text x="554.55" y="528" fill="var(--rgb159166178rgb255255255)" font-family="var(--fontFamily-3551640753)" font-size="16px" font-weight="400" font-style="normal" letter-spacing="normal" text-decoration="none" text-anchor="start" style="line-height: normal; white-space: normal; text-transform: none;">+</text></g><g data-selector="div.hotkey shadow"><path d="M574.08,508.5 H585.08 A6,6 0 0 1 591.08,514.5 V529.5 A6,6 0 0 1 585.08,535.5 H574.08 A6,6 0 0 1 568.08,529.5 V514.5 A6,6 0 0 1 574.08,508.5 Z" fill="var(--rgb229231235rgb000)" stroke-width="1px" stroke="rgb(210, 214, 220)" style="filter: drop-shadow(rgba(0, 0, 0, 0.1) 0px 1px 1.5px) drop-shadow(rgba(0, 0, 0, 0.06) 0px 1px 1px);"/><text x="575.28" y="528" fill="var(--rgb159166178rgb255255255)" font-family="var(--fontFamily-3551640753)" font-size="16px" font-weight="400" font-style="normal" letter-spacing="normal" text-decoration="none" text-anchor="start" style="line-height: normal; white-space: normal; text-transform: uppercase;">f</text></g></g></g><g data-selector="div.flex-row-wrap ai-center gap-p5 noselect "><g data-selector="div.mr-p25"><text x="308.41" y="564" fill="var(--rgb159166178rgb255255255)" font-family="var(--fontFamily-3551640753)" font-size="16px" font-weight="400" font-style="normal" letter-spacing="normal" text-decoration="none" text-anchor="start" style="line-height: normal; white-space: normal; text-transform: none;">Open an SQL File</text><text x="432.25" y="564" fill="var(--rgb159166178rgb255255255)" font-family="var(--fontFamily-3551640753)" font-size="16px" font-weight="400" font-style="normal" letter-spacing="normal" text-decoration="none" text-anchor="start" style="line-height: normal; white-space: normal; text-transform: none;">:</text></g><g data-selector="div.flex-row ai-center gap-p25"><g data-selector="div.hotkey shadow"><path d="M454.69,544.5 H491.3 A6,6 0 0 1 497.3,550.5 V565.5 A6,6 0 0 1 491.3,571.5 H454.69 A6,6 0 0 1 448.69,565.5 V550.5 A6,6 0 0 1 454.69,544.5 Z" fill="var(--rgb229231235rgb000)" stroke-width="1px" stroke="rgb(210, 214, 220)" style="filter: drop-shadow(rgba(0, 0, 0, 0.1) 0px 1px 1.5px) drop-shadow(rgba(0, 0, 0, 0.06) 0px 1px 1px);"/><text x="454.19" y="564" fill="var(--rgb159166178rgb255255255)" font-family="var(--fontFamily-3551640753)" font-size="16px" font-weight="400" font-style="normal" letter-spacing="normal" text-decoration="none" text-anchor="start" style="line-height: normal; white-space: normal; text-transform: uppercase;">ctrl</text></g><g data-selector="span."><text x="501.8" y="564" fill="var(--rgb159166178rgb255255255)" font-family="var(--fontFamily-3551640753)" font-size="16px" font-weight="400" font-style="normal" letter-spacing="normal" text-decoration="none" text-anchor="start" style="line-height: normal; white-space: normal; text-transform: none;">+</text></g><g data-selector="div.hotkey shadow"><path d="M521.33,544.5 H532.78 A6,6 0 0 1 538.78,550.5 V565.5 A6,6 0 0 1 532.78,571.5 H521.33 A6,6 0 0 1 515.33,565.5 V550.5 A6,6 0 0 1 521.33,544.5 Z" fill="var(--rgb229231235rgb000)" stroke-width="1px" stroke="rgb(210, 214, 220)" style="filter: drop-shadow(rgba(0, 0, 0, 0.1) 0px 1px 1.5px) drop-shadow(rgba(0, 0, 0, 0.06) 0px 1px 1px);"/><text x="520.83" y="564" fill="var(--rgb159166178rgb255255255)" font-family="var(--fontFamily-3551640753)" font-size="16px" font-weight="400" font-style="normal" letter-spacing="normal" text-decoration="none" text-anchor="start" style="line-height: normal; white-space: normal; text-transform: uppercase;">o</text></g></g></g></g></g></g></g></g></g></g></g></g></g><g data-selector="div.flex-col ClickCatchOverlay" data-command="ClickCatchOverlay" style="opacity: 0.1;"><path d="M0,0 H900 V900 H0 V0 Z" fill="var(--rgba444444042rgba000018)"/></g><g data-selector="div.popup-component-root positioning_right-panel card m-auto bg-popup-content flex-col shadow-xl  o-hidden" data-command="AskLLM.popup" role="dialog" style="clip-path: inset(0px 0px 0px 97px) view-box;"><path d="M98.5,0.5 H899.5 V899.5 H98.5 V0.5 Z" fill="var(--rgb255255255rgb454545)" stroke-width="1px" stroke="var(--rgb210214220rgb758599)" style="filter: var(--shadow-439614775);"/><g data-selector="div.AskLLMChat popup-component-root-child w-full min-h-0 text-center flex-col bg-inherit f-1"><g data-selector="header.POPUP-TITLE pl-2 py-p5 pr-p5 flex-row ai-center bb b-color gap-1" data-command="Popup.header"><line x1="99" y1="72.5" x2="899" y2="72.5" stroke="var(--rgb210214220rgb758599)" stroke-width="1"/><g data-selector="div.ai-none jc-none f-1 font-20 noselect font-medium text-0 o-hidden text-ellipsis ta-left m-0 ws-nowrap py-p25   FlexCol flex-col gap-1" style="clip-path: inset(9px 107px 836px 131px) view-box;"><g data-selector="h4.m-0"><g data-selector="div.AskLLMChatHeader FlexRow flex-row gap-1 ai-center"><g data-selector="div.gap-p25 FlexCol flex-col"><g data-selector="div."><text x="131" y="33" fill="var(--rgb223046rgb244245247)" font-family="var(--fontFamily-3551640753)" font-size="20px" font-weight="700" font-style="normal" letter-spacing="normal" text-decoration="none" text-anchor="start" style="line-height: normal; white-space: nowrap; text-transform: none;">AI Assistant</text></g><g data-selector="span.text-2 font-14"><text x="131" y="56" fill="rgb(159, 166, 178)" font-family="var(--fontFamily-3551640753)" font-size="14px" font-weight="700" font-style="normal" letter-spacing="normal" text-decoration="none" text-anchor="start" style="line-height: normal; white-space: nowrap; text-transform: none;">(</text><text x="135.58" y="56" fill="rgb(159, 166, 178)" font-family="var(--fontFamily-3551640753)" font-size="14px" font-weight="700" font-style="normal" letter-spacing="normal" text-decoration="none" text-anchor="start" style="line-height: normal; white-space: nowrap; text-transform: none;">experimental</text><text x="224.41" y="56" fill="rgb(159, 166, 178)" font-family="var(--fontFamily-3551640753)" font-size="14px" font-weight="700" font-style="normal" letter-spacing="normal" text-decoration="none" text-anchor="start" style="line-height: normal; white-space: nowrap; text-transform: none;">)</text></g></g><g data-selector="div.gap-p25 min-w-0 FlexRow flex-row ai-center"><g data-selector="button. f-0 flex-row gap-p5 ai-center btn btn-icon btn-size-default btn-color-default ws-nowrap w-fit" data-command="LLMChatOptions.toggle"><g style="transform: translate(274.15px, 24.4px); color: var(--rgb758599rgb229231235);"><svg viewBox="0 0 24 24" role="presentation" class=" f-0 " style="width: 22px; height: 22px; transform: scale(1.1);" width="22" height="22"><path d="M12,8A4,4 0 0,1 16,12A4,4 0 0,1 12,16A4,4 0 0,1 8,12A4,4 0 0,1 12,8M12,10A2,2 0 0,0 10,12A2,2 0 0,0 12,14A2,2 0 0,0 14,12A2,2 0 0,0 12,10M10,22C9.75,22 9.54,21.82 9.5,21.58L9.13,18.93C8.5,18.68 7.96,18.34 7.44,17.94L4.95,18.95C4.73,19.03 4.46,18.95 4.34,18.73L2.34,15.27C2.21,15.05 2.27,14.78 2.46,14.63L4.57,12.97L4.5,12L4.57,11L2.46,9.37C2.27,9.22 2.21,8.95 2.34,8.73L4.34,5.27C4.46,5.05 4.73,4.96 4.95,5.05L7.44,6.05C7.96,5.66 8.5,5.32 9.13,5.07L9.5,2.42C9.54,2.18 9.75,2 10,2H14C14.25,2 14.46,2.18 14.5,2.42L14.87,5.07C15.5,5.32 16.04,5.66 16.56,6.05L19.05,5.05C19.27,4.96 19.54,5.05 19.66,5.27L21.66,8.73C21.79,8.95 21.73,9.22 21.54,9.37L19.43,11L19.5,12L19.43,13L21.54,14.63C21.73,14.78 21.79,15.05 21.66,15.27L19.66,18.73C19.54,18.95 19.27,19.04 19.05,18.95L16.56,17.95C16.04,18.34 15.5,18.68 14.87,18.93L14.5,21.58C14.46,21.82 14.25,22 14,22H10M11.25,4L10.88,6.61C9.68,6.86 8.62,7.5 7.85,8.39L5.44,7.35L4.69,8.65L6.8,10.2C6.4,11.37 6.4,12.64 6.8,13.8L4.68,15.36L5.43,16.66L7.86,15.62C8.63,16.5 9.68,17.14 10.87,17.38L11.24,20H12.76L13.13,17.39C14.32,17.14 15.37,16.5 16.14,15.62L18.57,16.66L19.32,15.36L17.2,13.81C17.6,12.64 17.6,11.37 17.2,10.2L19.31,8.65L18.56,7.35L16.15,8.39C15.38,7.5 14.32,6.86 13.12,6.62L12.75,4H11.25Z" style="fill: currentcolor;"/></svg></g><g data-selector="svg.[object SVGAnimatedString]" role="presentation" style="clip-path: inset(24.4px 601.65px 851.4px 274.15px) view-box;"><rect x="274.15" y="24.4" width="24.2" height="24.2" fill="transparent"/></g><path d="M272.25,16.5 H300.25 A6,6 0 0 1 306.25,22.5 V50.5 A6,6 0 0 1 300.25,56.5 H272.25 A6,6 0 0 1 266.25,50.5 V22.5 A6,6 0 0 1 272.25,16.5 Z" fill="none" stroke-width="1px" stroke="rgba(0, 0, 0, 0)"/></g><g data-selector="button. Select w-fit f-0 select-button flex-row gap-p5 ai-center rounded disabled no-fade btn btn-faded btn-size-default btn-color-default ws-nowrap" data-command="LLMChat.select"><path d="M317.25,16.5 H551.03 A6,6 0 0 1 557.03,22.5 V50.5 A6,6 0 0 1 551.03,56.5 H317.25 A6,6 0 0 1 311.25,50.5 V22.5 A6,6 0 0 1 317.25,16.5 Z" fill="var(--rgba125125125022rgba125125125038)" stroke-width="1px" stroke="rgba(0, 0, 0, 0)"/><g data-selector="div. text-ellipsis text-color-0" style="clip-path: inset(27.5px 385.969px 854.5px 324.25px) view-box;"><text x="324.25" y="42.5" fill="var(--rgb758599rgb229231235)" font-family="var(--fontFamily-3551640753)" font-size="16px" font-weight="500" font-style="normal" letter-spacing="normal" text-decoration="none" text-anchor="start" style="line-height: 18px; white-space: nowrap; text-transform: none;">Show a list of orders fro...</text></g><g style="transform: translate(520.93px, 24.4px); color: var(--rgb159166178rgb159166178);"><svg viewBox="0 0 24 24" role="presentation" class="text-2 f-0 " style="width: 22px; height: 22px; transform: scale(1.1);" width="22" height="22"><path d="M7,10L12,15L17,10H7Z" style="fill: currentcolor;"/></svg></g><g data-selector="svg.[object SVGAnimatedString]" role="presentation" style="clip-path: inset(24.4px 354.869px 851.4px 520.931px) view-box;"><rect x="520.93" y="24.4" width="24.2" height="24.2" fill="transparent"/></g></g><g data-selector="button. f-0 flex-row gap-p5 ai-center btn btn-faded btn-size-default btn-color-action ws-nowrap w-fit" data-command="AskLLMChat.NewChat"><path d="M568.03,16.5 H596.03 A6,6 0 0 1 602.03,22.5 V50.5 A6,6 0 0 1 596.03,56.5 H568.03 A6,6 0 0 1 562.03,50.5 V22.5 A6,6 0 0 1 568.03,16.5 Z" fill="var(--rgb225239254rgba07916308)" stroke-width="1px" stroke="rgba(0, 0, 0, 0)"/><g style="transform: translate(569.93px, 24.4px); color: var(--rgb63131248rgb255255255);"><svg viewBox="0 0 24 24" role="presentation" class=" f-0 " style="width: 22px; height: 22px; transform: scale(1.1);" width="22" height="22"><path d="M19,13H13V19H11V13H5V11H11V5H13V11H19V13Z" style="fill: currentcolor;"/></svg></g><g data-selector="svg.[object SVGAnimatedString]" role="presentation" style="clip-path: inset(24.4px 305.869px 851.4px 569.931px) view-box;"><rect x="569.93" y="24.4" width="24.2" height="24.2" fill="transparent"/></g></g></g></g></g></g><g data-selector="div.Popup-header-actions gap-0 FlexRow flex-row ai-center"><g data-selector="button.f-0 flex-row gap-p5 ai-center btn btn-icon btn-size-default btn-color-default ws-nowrap w-fit" data-command="Popup.toggleFullscreen"><g style="transform: translate(816.9px, 24.4px); color: var(--rgb758599rgb229231235);"><svg viewBox="0 0 24 24" role="presentation" class=" f-0 " style="width: 22px; height: 22px; transform: scale(1.1);" width="22" height="22"><path d="M5,5H10V7H7V10H5V5M14,5H19V10H17V7H14V5M17,14H19V19H14V17H17V14M10,17V19H5V14H7V17H10Z" style="fill: currentcolor;"/></svg></g><g data-selector="svg.[object SVGAnimatedString]" role="presentation" style="clip-path: inset(24.4px 58.9px 851.4px 816.9px) view-box;"><rect x="816.9" y="24.4" width="24.2" height="24.2" fill="transparent"/></g><path d="M815,16.5 H843 A6,6 0 0 1 849,22.5 V50.5 A6,6 0 0 1 843,56.5 H815 A6,6 0 0 1 809,50.5 V22.5 A6,6 0 0 1 815,16.5 Z" fill="none" stroke-width="1px" stroke="rgba(0, 0, 0, 0)"/></g><g data-selector="button.f-0 flex-row gap-p5 ai-center btn btn-icon btn-size-default btn-color-default ws-nowrap w-fit" data-command="Popup.close"><g style="transform: translate(857.9px, 24.4px); color: var(--rgb758599rgb229231235);"><svg viewBox="0 0 24 24" role="presentation" class=" f-0 " style="width: 22px; height: 22px; transform: scale(1.1);" width="22" height="22"><path d="M19,6.41L17.59,5L12,10.59L6.41,5L5,6.41L10.59,12L5,17.59L6.41,19L12,13.41L17.59,19L19,17.59L13.41,12L19,6.41Z" style="fill: currentcolor;"/></svg></g><g data-selector="svg.[object SVGAnimatedString]" role="presentation" style="clip-path: inset(24.4px 17.9px 851.4px 857.9px) view-box;"><rect x="857.9" y="24.4" width="24.2" height="24.2" fill="transparent"/></g><path d="M856,16.5 H884 A6,6 0 0 1 890,22.5 V50.5 A6,6 0 0 1 884,56.5 H856 A6,6 0 0 1 850,50.5 V22.5 A6,6 0 0 1 856,16.5 Z" fill="none" stroke-width="1px" stroke="rgba(0, 0, 0, 0)"/></g></g></g><g data-selector="div.p-0 f-1 POPUP-CONTENT bg-inherit flex-col min-h-0 o-auto" data-command="Popup.content" style="clip-path: inset(73px 1px 1px 99px) view-box;"><g data-selector="div.min-h-0 f-1 FlexCol flex-col gap-1"><g data-selector="div. chat-container chat-component"><g data-selector="div.message-list " data-command="Chat.messageList" style="clip-path: inset(73px 1px 148px 99px) view-box;"><g data-selector="div.message gap-0 ai-start relative  FlexCol flex-col"><g data-selector="div.show-on-parent-hover f-1 gap-p25 FlexRow flex-row ai-center" style="opacity: 0;"><g data-selector="button. ml-auto Select w-fit f-0 select-button flex-row gap-p5 ai-center btn btn-icon btn-size-micro btn-color-default ws-nowrap" data-command="AskLLM.DeleteMessage"><g style="transform: translate(560.33px, 96.2px); color: var(--rgb758599rgb229231235);"><svg viewBox="0 0 24 24" role="presentation" class=" f-0 " style="width: 16px; height: 16px; transform: scale(1.1);" width="16" height="16"><path d="M19,4H15.5L14.5,3H9.5L8.5,4H5V6H19M6,19A2,2 0 0,0 8,21H16A2,2 0 0,0 18,19V7H6V19Z" style="fill: currentcolor;"/></svg></g><g data-selector="svg.[object SVGAnimatedString]" role="presentation" style="clip-path: inset(96.2px 322.075px 786.2px 560.325px) view-box;"><rect x="560.33" y="96.2" width="17.6" height="17.6" fill="transparent"/></g><path d="M562.13,89 H576.13 A6,6 0 0 1 582.13,95 V115 A6,6 0 0 1 576.13,121 H562.13 A6,6 0 0 1 556.13,115 V95 A6,6 0 0 1 562.13,89 Z" fill="none" stroke-width="1px" stroke="rgba(0, 0, 0, 0)"/></g></g><g data-selector="div.content-wrapper" style="clip-path: inset(121px 17px 735px 556.125px round 12px) view-box;"><path d="M568.13,121 H871 A12,12 0 0 1 883,133 V153 A12,12 0 0 1 871,165 H568.13 A12,12 0 0 1 556.13,153 V133 A12,12 0 0 1 568.13,121 Z" fill="var(--rgb244245247rgb363636)"/><g data-selector="div. FlexCol flex-col gap-1"><g data-selector="div. Marked flex-col o-auto min-w-0 max-w-full ScrollFade" style="clip-path: inset(129px 29px 743px 568.125px) view-box;"><g data-selector="p."><text x="568.13" y="149" fill="var(--rgb223046rgb244245247)" font-family="var(--fontFamily-3551640753)" font-size="16px" font-weight="400" font-style="normal" letter-spacing="normal" text-decoration="none" text-anchor="start" style="line-height: 28px; white-space: normal; text-transform: none;">Show a list of orders from the last 30 days</text></g></g></g></g></g><g data-selector="div.message gap-0 ai-start relative incoming FlexCol flex-col"><g data-selector="div.show-on-parent-hover f-1 gap-p25 FlexRow flex-row ai-center" style="opacity: 0;"><g data-selector="button. ml-auto Select w-fit f-0 select-button flex-row gap-p5 ai-center btn btn-icon btn-size-micro btn-color-default ws-nowrap" data-command="AskLLM.DeleteMessage"><g style="transform: translate(161.39px, 172.2px); color: var(--rgb758599rgb229231235);"><svg viewBox="0 0 24 24" role="presentation" class=" f-0 " style="width: 16px; height: 16px; transform: scale(1.1);" width="16" height="16"><path d="M19,4H15.5L14.5,3H9.5L8.5,4H5V6H19M6,19A2,2 0 0,0 8,21H16A2,2 0 0,0 18,19V7H6V19Z" style="fill: currentcolor;"/></svg></g><g data-selector="svg.[object SVGAnimatedString]" role="presentation" style="clip-path: inset(172.2px 721.012px 710.2px 161.387px) view-box;"><rect x="161.39" y="172.2" width="17.6" height="17.6" fill="transparent"/></g><path d="M163.19,165 H177.19 A6,6 0 0 1 183.19,171 V191 A6,6 0 0 1 177.19,197 H163.19 A6,6 0 0 1 157.19,191 V171 A6,6 0 0 1 163.19,165 Z" fill="none" stroke-width="1px" stroke="rgba(0, 0, 0, 0)"/></g></g><g data-selector="div.content-wrapper" style="clip-path: inset(197px 720.953px 597px 115px round 12px) view-box;"><g data-selector="div. FlexCol flex-col gap-1"><g data-selector="div. Loading spinner-loader ws-nowrap flex-row gap-1 ai-center"><g style="animation: 0.75s steps(36) 0s infinite normal none running rotator; transform-origin: 142px 236px;"><svg xmlns="http://www.w3.org/2000/svg" viewBox="0 0 24 24" width="30" height="30" x="127" y="221" fill="rgb(22, 30, 46)">
        <path d="M10.72,19.9a8,8,0,0,1-6.5-9.79A7.77,7.77,0,0,1,10.4,4.16a8,8,0,0,1,9.49,6.52A1.54,1.54,0,0,0,21.38,12h.13a1.37,1.37,0,0,0,1.38-1.54,11,11,0,1,0-12.7,12.39A1.54,1.54,0,0,0,12,21.34h0A1.47,1.47,0,0,0,10.72,19.9Z"/>
      </svg></g></g><g data-selector="div.text-2 undefined"><text x="127" y="287" fill="rgb(159, 166, 178)" font-family="var(--fontFamily-3551640753)" font-size="16px" font-weight="400" font-style="normal" letter-spacing="normal" text-decoration="none" text-anchor="start" style="line-height: 28px; white-space: pre-line; text-transform: none;">00:01</text></g></g></g></g></g><g data-selector="div.send-wrapper relative " data-command="Chat.sendWrapper"><g data-selector="div.f-1 rounded ml-1 p-p5 no-interaction not-allowedbg-color-2  FlexCol flex-col gap-1" style="opacity: 0.5;"><g data-selector="textarea.no-scroll-bar text-0 bg-transparent" data-command="Chat.textarea" style="clip-path: inset(768px 65px 65px 123px round 6px) view-box;"><rect x="123" y="768" width="712" height="67" fill="transparent"/></g><g data-selector="div.gap-p5 pr-1 FlexRow flex-row ai-center"><g data-selector="div. PopupMenu_triggerWrapper h-fit w-fit" data-command="LLMChatOptions.MCPTools"><g data-selector="button. f-0 flex-row gap-p5 ai-center btn btn-icon btn-size-small btn-color-default ws-nowrap w-fit" style="opacity: 0.75;"><g style="transform: translate(129.1px, 857.1px); color: var(--rgb758599rgb229231235);"><svg viewBox="0 0 24 24" role="presentation" class=" f-0 " style="width: 18px; height: 18px; transform: scale(1.1);" width="18" height="18"><path d="M21.71 20.29L20.29 21.71A1 1 0 0 1 18.88 21.71L7 9.85A3.81 3.81 0 0 1 6 10A4 4 0 0 1 2.22 4.7L4.76 7.24L5.29 6.71L6.71 5.29L7.24 4.76L4.7 2.22A4 4 0 0 1 10 6A3.81 3.81 0 0 1 9.85 7L21.71 18.88A1 1 0 0 1 21.71 20.29M2.29 18.88A1 1 0 0 0 2.29 20.29L3.71 21.71A1 1 0 0 0 5.12 21.71L10.59 16.25L7.76 13.42M20 2L16 4V6L13.83 8.17L15.83 10.17L18 8H20L22 4Z" style="fill: currentcolor;"/></svg></g><g data-selector="svg.[object SVGAnimatedString]" role="presentation" style="clip-path: inset(857.1px 751.1px 23.1px 129.1px) view-box;"><rect x="129.1" y="857.1" width="19.8" height="19.8" fill="transparent"/></g><path d="M129,851 H149 A6,6 0 0 1 155,857 V877 A6,6 0 0 1 149,883 H129 A6,6 0 0 1 123,877 V857 A6,6 0 0 1 129,851 Z" fill="none" stroke-width="1px" stroke="rgba(0, 0, 0, 0)"/></g></g><g data-selector="div. PopupMenu_triggerWrapper h-fit w-fit" data-command="LLMChatOptions.DatabaseAccess"><g data-selector="button. f-0 flex-row gap-p5 ai-center btn btn-icon btn-size-small btn-color-action ws-nowrap w-fit" style="opacity: 0.75;"><g style="transform: translate(169.1px, 857.1px); color: var(--rgb63131248rgb195221253);"><svg viewBox="0 0 24 24" role="presentation" class=" f-0 " style="width: 18px; height: 18px; transform: scale(1.1);" width="18" height="18"><path d="M12,3C7.58,3 4,4.79 4,7C4,9.21 7.58,11 12,11C16.42,11 20,9.21 20,7C20,4.79 16.42,3 12,3M4,9V12C4,14.21 7.58,16 12,16C16.42,16 20,14.21 20,12V9C20,11.21 16.42,13 12,13C7.58,13 4,11.21 4,9M4,14V17C4,19.21 7.58,21 12,21C16.42,21 20,19.21 20,17V14C20,16.21 16.42,18 12,18C7.58,18 4,16.21 4,14Z" style="fill: currentcolor;"/></svg></g><g data-selector="svg.[object SVGAnimatedString]" role="presentation" style="clip-path: inset(857.1px 711.1px 23.1px 169.1px) view-box;"><rect x="169.1" y="857.1" width="19.8" height="19.8" fill="transparent"/></g><path d="M169,851 H189 A6,6 0 0 1 195,857 V877 A6,6 0 0 1 189,883 H169 A6,6 0 0 1 163,877 V857 A6,6 0 0 1 169,851 Z" fill="none" stroke-width="1px" stroke="rgba(0, 0, 0, 0)"/></g></g><g data-selector="div. PopupMenu_triggerWrapper h-fit w-fit" data-command="LLMChatOptions.Prompt"><g data-selector="button. f-0 flex-row gap-p5 ai-center rounded btn btn-icon btn-size-small btn-color-default ws-nowrap w-fit" style="opacity: 0.75;"><text x="212" y="872" fill="var(--rgb758599rgb229231235)" font-family="var(--fontFamily-3551640753)" font-size="14px" font-weight="500" font-style="normal" letter-spacing="normal" text-decoration="none" text-anchor="start" style="line-height: 14px; white-space: nowrap; text-transform: none;">Chat</text><path d="M210,851 H244.42 A7,7 0 0 1 251.42,858 V876 A7,7 0 0 1 244.42,883 H210 A7,7 0 0 1 203,876 V858 A7,7 0 0 1 210,851 Z" fill="none" stroke-width="1px" stroke="rgba(0, 0, 0, 0)"/></g></g><g data-selector="button. ml-auto text-2 Select w-fit f-0 select-button flex-row gap-p5 ai-center rounded btn btn-icon btn-size-small btn-color-default ws-nowrap" data-command="LLMChatOptions.Model" style="opacity: 0.75;"><g data-selector="div. text-ellipsis text-color-0" style="clip-path: inset(858px 90px 24px 637.656px) view-box;"><text x="637.66" y="872" fill="var(--rgb758599rgb229231235)" font-family="var(--fontFamily-3551640753)" font-size="14px" font-weight="500" font-style="normal" letter-spacing="normal" text-decoration="none" text-anchor="start" style="line-height: 18px; white-space: nowrap; text-transform: none;">anthropic/claude-sonnet-4</text></g><path d="M635.66,851 H812 A7,7 0 0 1 819,858 V876 A7,7 0 0 1 812,883 H635.66 A7,7 0 0 1 628.66,876 V858 A7,7 0 0 1 635.66,851 Z" fill="none" stroke-width="1px" stroke="rgba(0, 0, 0, 0)"/></g></g></g><g data-selector="div.as-end gap-2 p-p5 FlexCol flex-col"><g data-selector="div.gap-0 FlexRow flex-row ai-center"><g data-selector="label.pointer button bg-transparent bg-active-hover" data-command="Chat.addFiles"><g style="transform: translate(859px, 776px); color: var(--rgb223046rgb244245247);"><svg viewBox="0 0 24 24" role="presentation" style="width: 1.5rem; height: 1.5rem;" width="24" height="24"><path d="M7.5,18A5.5,5.5 0 0,1 2,12.5A5.5,5.5 0 0,1 7.5,7H18A4,4 0 0,1 22,11A4,4 0 0,1 18,15H9.5A2.5,2.5 0 0,1 7,12.5A2.5,2.5 0 0,1 9.5,10H17V11.5H9.5A1,1 0 0,0 8.5,12.5A1,1 0 0,0 9.5,13.5H18A2.5,2.5 0 0,0 20.5,11A2.5,2.5 0 0,0 18,8.5H7.5A4,4 0 0,0 3.5,12.5A4,4 0 0,0 7.5,16.5H17V18H7.5Z" style="fill: currentcolor;"/></svg></g><g data-selector="svg.[object SVGAnimatedString]" role="presentation" style="clip-path: inset(776px 17px 100px 859px) view-box;"><rect x="859" y="776" width="24" height="24" fill="transparent"/></g></g></g><g data-selector="button. f-0 flex-row gap-p5 ai-center btn btn-default btn-size-default btn-color-default ws-nowrap w-fit" data-command="Chat.sendStop"><g style="transform: translate(858.9px, 850.9px); color: var(--rgb758599rgb229231235);"><svg viewBox="0 0 24 24" role="presentation" class=" f-0 " style="width: 22px; height: 22px; transform: scale(1.1);" width="22" height="22"><path d="M12,2A10,10 0 0,0 2,12A10,10 0 0,0 12,22A10,10 0 0,0 22,12A10,10 0 0,0 12,2M9,9H15V15H9" style="fill: currentcolor;"/></svg></g><g data-selector="svg.[object SVGAnimatedString]" role="presentation" style="clip-path: inset(850.9px 16.9px 24.9px 858.9px) view-box;"><rect x="858.9" y="850.9" width="24.2" height="24.2" fill="transparent"/></g><path d="M857,843 H885 A6,6 0 0 1 891,849 V877 A6,6 0 0 1 885,883 H857 A6,6 0 0 1 851,877 V849 A6,6 0 0 1 857,843 Z" fill="none" stroke-width="1px" stroke="rgba(0, 0, 0, 0)"/></g></g></g></g></g></g></g></g></g><style xmlns="http://www.w3.org/1999/xhtml" type="text/css">:root #id-f956411c { 
  --dark-theme-hide: 1;
  --light-theme-hide: 0;
  --rgb244245247rgb262525: rgb(244, 245, 247); 
  --rgb244245247rgb545762: rgb(244, 245, 247); 
  --rgb244245247rgb363636: rgb(244, 245, 247); 
  --rgb210214220rgb000: rgb(210, 214, 220); 
  --rgb210214220rgb758599: rgb(210, 214, 220); 
  --rgb255255255rgb444444: rgb(255, 255, 255); 
  --rgb255255255rgb454545: rgb(255, 255, 255); 
  --rgb240254255rgb03755: rgb(240, 254, 255); 
  --rgba125125125022rgba125125125038: rgba(125, 125, 125, 0.22); 
  --rgb758599rgb229231235: rgb(75, 85, 99); 
  --fontFamily-3551640753: -apple-system, BlinkMacSystemFont, "Segoe UI", Roboto, Oxygen, Ubuntu, Cantarell, "Fira Sans", "Droid Sans", "Helvetica Neue", sans-serif; 
  --rgb225239254rgba07916308: rgb(225, 239, 254); 
  --rgb63131248rgb255255255: rgb(63, 131, 248); 
  --rgb63131248rgb195221253: rgb(63, 131, 248); 
  --05: ; 
  --rgb159166178rgb255255255: rgb(159, 166, 178); 
  --rgb159166178rgb159166178: rgb(159, 166, 178); 
  --rgb229231235rgb000: rgb(229, 231, 235); 
  --rgba444444042rgba000018: rgba(44, 44, 44, 0.42); 
  --shadow-439614775: drop-shadow(rgba(0, 0, 0, 0.1) 0px 1px 1.5px) drop-shadow(rgba(0, 0, 0, 0.06) 0px 1px 1px); 
  --rgb223046rgb244245247: rgb(22, 30, 46); 
}
@media (prefers-color-scheme: dark) { 
 :root #id-f956411c  { 
  --dark-theme-hide: 0;
  --light-theme-hide: 1;
  --rgb244245247rgb262525: rgb(26, 25, 25); 
  --rgb244245247rgb545762: rgb(54, 57, 62); 
  --rgb244245247rgb363636: rgb(36, 36, 36); 
  --rgb210214220rgb000: rgb(0, 0, 0); 
  --rgb210214220rgb758599: rgb(75, 85, 99); 
  --rgb255255255rgb444444: rgb(44, 44, 44); 
  --rgb255255255rgb454545: rgb(45, 45, 45); 
  --rgb240254255rgb03755: rgb(0, 37, 55); 
  --rgba125125125022rgba125125125038: rgba(125, 125, 125, 0.38); 
  --rgb758599rgb229231235: rgb(229, 231, 235); 
  --rgb225239254rgba07916308: rgba(0, 79, 163, 0.8); 
  --rgb63131248rgb255255255: rgb(255, 255, 255); 
  --rgb63131248rgb195221253: rgb(195, 221, 253); 
  --05: 0.5; 
  --rgb159166178rgb255255255: rgb(255, 255, 255); 
  --rgb229231235rgb000: rgb(0, 0, 0); 
  --rgba444444042rgba000018: rgba(0, 0, 0, 0.18); 
  --shadow-439614775: drop-shadow(rgba(255, 255, 255, 0.075) 0px 0px 0.3px) drop-shadow(rgba(0, 0, 0, 0.05) 0px 0px 0px) drop-shadow(rgba(0, 0, 0, 0.02) 0px 0.3px 0.2px) drop-shadow(rgba(0, 0, 0, 0.043) 0px 0.9px 0.8px) drop-shadow(rgba(0, 0, 0, 0.09) 0px 3.5px 3px); 
  --rgb223046rgb244245247: rgb(244, 245, 247); 
  }
} 
</style></svg>