<svg xmlns="http://www.w3.org/2000/svg" width="900" height="900" viewBox="0 0 900 900"><defs><style type="text/css"/></defs><g data-selector="body.text-0 enable-motion underline-links bg-color-2" style="clip-path: inset(0px) view-box;" id="id-e85a37d2"><rect x="0" y="0" width="900" height="900" rx="0" ry="0" fill="var(--rgb244245247rgb262525)" style="animation: 0s ease 0s 1 normal none running none;"/><g data-selector="main."><g data-selector="div.App gap-0 f-1 min-h-0 FlexCol flex-col"><g data-selector="div.flex-col f-1 min-s-0 "><g data-selector="div.flex-col f-1 min-h-0 as-center  bg-color-2 w-full pt-1"><rect x="0" y="58" width="900" height="842" rx="0" ry="0" fill="var(--rgb244245247rgb363636)" style="animation: 0s ease 0s 1 normal none running none;"/><g data-selector="div.f-1 as-center w-full shadow Tabs flex-row min-w-0 min-h-0"><rect x="0" y="74" width="900" height="826" rx="0" ry="0" fill="none" style="animation: 0s ease 0s 1 normal none running none; filter: drop-shadow(rgba(0, 0, 0, 0.1) 0px 1px 1.5px) drop-shadow(rgba(0, 0, 0, 0.06) 0px 1px 1px);"/><g data-selector="div.Tabs_Content o-auto flex-row jc-center bg-color-2 f-1" style="clip-path: inset(74px 0px 0px 46px) view-box;"><rect x="46" y="74" width="854" height="826" rx="0" ry="0" fill="var(--rgb244245247rgb363636)" style="animation: 0s ease 0s 1 normal none running none;"/><g data-selector="div.flex-col f-1  min-w-0 bg-color-0 shadow"><rect x="46" y="74" width="854" height="826" rx="0" ry="0" fill="var(--rgb255255255rgb444444)" style="animation: 0s ease 0s 1 normal none running none; filter: drop-shadow(rgba(0, 0, 0, 0.1) 0px 1px 1.5px) drop-shadow(rgba(0, 0, 0, 0.06) 0px 1px 1px);"/><g data-selector="div.w-full text-0 FlexRow flex-row gap-1 ai-center"><g style="transform: translate(78px, 89.91px); color: var(--rgb223046rgb244245247);"><svg viewBox="0 0 24 24" role="presentation" style="width: 2.25rem; height: 2.25rem;" width="36" height="36"><path d="M21 2H3C1.9 2 1 2.9 1 4V20C1 21.1 1.9 22 3 22H21C22.1 22 23 21.1 23 20V4C23 2.9 22.1 2 21 2M21 20H3V6H21V20M9 8C7.9 8 7 8.9 7 10C7 11.1 6.1 12 5 12V14C6.1 14 7 14.9 7 16C7 17.1 7.9 18 9 18H11V16H9V15C9 13.9 8.1 13 7 13C8.1 13 9 12.1 9 11V10H11V8M15 8C16.1 8 17 8.9 17 10C17 11.1 17.9 12 19 12V14C17.9 14 17 14.9 17 16C17 17.1 16.1 18 15 18H13V16H15V15C15 13.9 15.9 13 17 13C15.9 13 15 12.1 15 11V10H13V8H15Z" style="fill: currentcolor;"/></svg></g><g data-selector="svg.[object SVGAnimatedString]" role="presentation" style="clip-path: inset(89.9062px 786px 774.094px 78px) view-box;"><rect x="78" y="89.91" width="36" height="36" fill="transparent"/></g><g data-selector="h2."><text x="130" y="116.91" fill="var(--rgb223046rgb244245247)" font-family="var(--fontFamily-3551640753)" font-size="24px" font-weight="700" font-style="normal" letter-spacing="normal" text-decoration="none" text-anchor="start" style="line-height: normal; white-space: normal; text-transform: none;">API</text></g></g><g data-selector="div. f-1 o-auto flex-row w-full  p-2  " style="clip-path: inset(141.812px 0px 0px 46px) view-box;"><g data-selector="div.APIDetails f-1 min-s-0 o-auto gap-2 FlexCol flex-col" style="clip-path: inset(173.812px 32px 32px 78px) view-box;"><g data-selector="div.form-field trigger-hover flex-row min-w-0    " data-label="Url Path"><g data-selector="div.form-field__hint-wrapper trigger-hover flex-col gap-p5 min-w-0"><g data-selector="label.main-label ta-left noselect text-1 flex-row  pointer "><text x="80" y="190.81" fill="var(--rgb758599rgb180180180)" font-family="var(--fontFamily-3551640753)" font-size="16px" font-weight="400" font-style="normal" letter-spacing="normal" text-decoration="none" text-anchor="start" style="line-height: normal; white-space: normal; text-transform: none;">Url Path</text></g><g data-selector="div.form-field__right-content-wrapper flex-row f-0 ai-center min-w-0 gap-p25 "><g data-selector="div.form-field__error-wrapper flex-col gap-p5 min-w-0 f-1"><g data-selector="div. w-full input-wrapper h-fit flex-row relative f-0 focus-border" style="clip-path: inset(200.812px 523px 653.188px 79px round 8px) view-box;"><g data-selector="input. font-semibold formfield-bg-color  " style="clip-path: inset(202.812px 525px 655.188px 81px round 8px) view-box;"><rect x="81" y="202.8125" width="294" height="42" rx="0" ry="0" fill="var(--rgb255255255rgb363636)" style="animation: 0s ease 0s 1 normal none running none;"/></g><rect x="80.5" y="202.3125" width="295" height="43" rx="8" ry="8" fill="none" stroke-width="1px" stroke="var(--rgb210214220rgb777777)" style="animation: 0s ease 0s 1 normal none running none;"/></g></g></g><g data-selector="p.FormFieldHint ta-left text-2 m-0 text-sm noselect ws-pre-line"><text x="80" y="266.81" fill="rgb(159, 166, 178)" font-family="var(--fontFamily-3551640753)" font-size="14px" font-weight="400" font-style="normal" letter-spacing="normal" text-decoration="none" text-anchor="start" style="line-height: normal; white-space: pre-line; text-transform: none;"><tspan x="80" dy="0">URL path to be used instead of the connection </tspan><tspan x="80" dy="15.4px">uuid</tspan></text></g></g></g><g data-selector="div. PopupMenu_triggerWrapper h-fit w-fit" data-command="AllowedOriginCheck"><g data-selector="button. f-0 flex-row gap-p5 ai-center rounded btn btn-faded btn-size-default btn-color-warn ws-nowrap w-fit"><rect x="78" y="319.8125" width="220.515625" height="40" rx="8" ry="8" fill="rgba(228, 206, 5, 0.35)" stroke-width="1px" stroke="rgba(0, 0, 0, 0)" style="animation: 0s ease 0s 1 normal none running none;"/><text x="121" y="345.81" fill="var(--rgb1145919rgb218187140)" font-family="var(--fontFamily-3551640753)" font-size="16px" font-weight="500" font-style="normal" letter-spacing="normal" text-decoration="none" text-anchor="start" style="line-height: 16px; white-space: nowrap; text-transform: none;">Allowed origin not set</text><g style="transform: translate(89.9px, 327.71px); color: var(--rgb1145919rgb218187140);"><svg viewBox="0 0 24 24" role="presentation" class=" f-0 " style="width: 22px; height: 22px; transform: scale(1.1);" width="22" height="22"><path d="M13 14H11V9H13M13 18H11V16H13M1 21H23L12 2L1 21Z" style="fill: currentcolor;"/></svg></g><g data-selector="svg.[object SVGAnimatedString]" role="presentation" style="clip-path: inset(327.712px 785.9px 548.087px 89.9px) view-box;"><rect x="89.9" y="327.71" width="24.2" height="24.2" fill="transparent"/></g></g></g><g data-selector="div. FlexCol flex-col gap-1"><g data-selector="h4.m-0 p-0"><text x="78" y="406.81" fill="var(--rgb223046rgb244245247)" font-family="var(--fontFamily-3551640753)" font-size="16px" font-weight="700" font-style="normal" letter-spacing="normal" text-decoration="none" text-anchor="start" style="line-height: normal; white-space: normal; text-transform: none;">Websocket API (recommended)</text></g><g data-selector="div. "><text x="78" y="440.81" fill="var(--rgb223046rgb244245247)" font-family="var(--fontFamily-3551640753)" font-size="16px" font-weight="400" font-style="normal" letter-spacing="normal" text-decoration="none" text-anchor="start" style="line-height: normal; white-space: normal; text-transform: none;">Realtime Isomorphic API using</text><text x="78" y="440.81" fill="var(--rgb223046rgb244245247)" font-family="var(--fontFamily-3551640753)" font-size="16px" font-weight="400" font-style="normal" letter-spacing="normal" text-decoration="none" text-anchor="start" style="line-height: normal; white-space: normal; text-transform: none;"><tspan x="418.55" dy="0">library. End-to-end type-safety between client &amp; server using </tspan><tspan x="78" dy="17.6px">the database Typescript schema provided below:</tspan></text><g data-selector="a."><text x="301.48" y="440.81" fill="var(--rgb00238rgb135206250)" font-family="var(--fontFamily-3551640753)" font-size="16px" font-weight="400" font-style="normal" letter-spacing="normal" text-decoration="underline" text-anchor="start" style="line-height: normal; white-space: normal; text-transform: none;">prostgles-client</text></g></g><g data-selector="div.ai-end mb-1  FlexRow flex-row gap-1"><g data-selector="div. PopupMenu_triggerWrapper h-fit w-fit" data-command="APIDetailsWs.Examples"><g data-selector="button. f-0 flex-row gap-p5 ai-center rounded disabled btn btn-filled btn-size-default btn-color-action ws-nowrap w-fit" style="opacity: 0.5;"><rect x="78" y="477.8125" width="127.09375" height="40" rx="8" ry="8" fill="var(--rgb63131248rgb48121197)" stroke-width="1px" stroke="rgba(0, 0, 0, 0)" style="animation: 0s ease 0s 1 normal none running none;"/><text x="121" y="503.81" fill="rgb(255, 255, 255)" font-family="var(--fontFamily-3551640753)" font-size="16px" font-weight="500" font-style="normal" letter-spacing="normal" text-decoration="none" text-anchor="start" style="line-height: 16px; white-space: nowrap; text-transform: none;">Examples</text><g style="transform: translate(89.9px, 485.71px); color: var(--rgb255255255rgb255255255);"><svg viewBox="0 0 24 24" role="presentation" class=" f-0 " style="width: 22px; height: 22px; transform: scale(1.1);" width="22" height="22"><path d="M8,3A2,2 0 0,0 6,5V9A2,2 0 0,1 4,11H3V13H4A2,2 0 0,1 6,15V19A2,2 0 0,0 8,21H10V19H8V14A2,2 0 0,0 6,12A2,2 0 0,0 8,10V5H10V3M16,3A2,2 0 0,1 18,5V9A2,2 0 0,0 20,11H21V13H20A2,2 0 0,0 18,15V19A2,2 0 0,1 16,21H14V19H16V14A2,2 0 0,1 18,12A2,2 0 0,1 16,10V5H14V3H16Z" style="fill: currentcolor;"/></svg></g><g data-selector="svg.[object SVGAnimatedString]" role="presentation" style="clip-path: inset(485.712px 785.9px 390.087px 89.9px) view-box;"><rect x="89.9" y="485.71" width="24.2" height="24.2" fill="transparent"/></g></g></g><g data-selector="button. f-0 flex-row gap-p5 ai-center rounded btn btn-faded btn-size-default btn-color-action ws-nowrap w-fit"><rect x="221.09375" y="477.8125" width="229.859375" height="40" rx="8" ry="8" fill="var(--rgb225239254rgba07916308)" stroke-width="1px" stroke="rgba(0, 0, 0, 0)" style="animation: 0s ease 0s 1 normal none running none;"/><text x="264.09" y="503.81" fill="var(--rgb63131248rgb255255255)" font-family="var(--fontFamily-3551640753)" font-size="16px" font-weight="500" font-style="normal" letter-spacing="normal" text-decoration="none" text-anchor="start" style="line-height: 16px; white-space: nowrap; text-transform: none;">Database schema types</text><g style="transform: translate(232.99px, 485.71px); color: var(--rgb63131248rgb255255255);"><svg viewBox="0 0 24 24" role="presentation" class=" f-0 " style="width: 22px; height: 22px; transform: scale(1.1);" width="22" height="22"><path d="M3,3H21V21H3V3M13.71,17.86C14.21,18.84 15.22,19.59 16.8,19.59C18.4,19.59 19.6,18.76 19.6,17.23C19.6,15.82 18.79,15.19 17.35,14.57L16.93,14.39C16.2,14.08 15.89,13.87 15.89,13.37C15.89,12.96 16.2,12.64 16.7,12.64C17.18,12.64 17.5,12.85 17.79,13.37L19.1,12.5C18.55,11.54 17.77,11.17 16.7,11.17C15.19,11.17 14.22,12.13 14.22,13.4C14.22,14.78 15.03,15.43 16.25,15.95L16.67,16.13C17.45,16.47 17.91,16.68 17.91,17.26C17.91,17.74 17.46,18.09 16.76,18.09C15.93,18.09 15.45,17.66 15.09,17.06L13.71,17.86M13,11.25H8V12.75H9.5V20H11.25V12.75H13V11.25Z" style="fill: currentcolor;"/></svg></g><g data-selector="svg.[object SVGAnimatedString]" role="presentation" style="clip-path: inset(485.712px 642.806px 390.087px 232.994px) view-box;"><rect x="232.99" y="485.71" width="24.2" height="24.2" fill="transparent"/></g></g></g></g><g data-selector="div. FlexCol flex-col gap-1"><g data-selector="h4.m-0 p-0"><text x="78" y="580.81" fill="var(--rgb223046rgb244245247)" font-family="var(--fontFamily-3551640753)" font-size="16px" font-weight="700" font-style="normal" letter-spacing="normal" text-decoration="none" text-anchor="start" style="line-height: normal; white-space: normal; text-transform: none;">HTTP API</text></g><g data-selector="div.  FlexCol flex-col gap-1"><g data-selector="div. SwitchToggle flex-row w-fit ai-center gap-p25"><g data-selector="label. text-1p5 noselect w-fit flex-row ai-center Label variant:normal relative gap-p25 pointer"><text x="79" y="625.81" fill="var(--rgb758599rgb180180180)" font-family="var(--fontFamily-3551640753)" font-size="16px" font-weight="400" font-style="normal" letter-spacing="normal" text-decoration="none" text-anchor="start" style="line-height: normal; white-space: normal; text-transform: none;">Enabled</text></g><g data-selector="div.Switch-root rounded focusable  " style="clip-path: inset(600.812px 700.156px 261.188px 141.844px round 8px) view-box;"><g data-selector="span.Switch-track" style="opacity: 0.38;"><rect x="153.84375" y="612.8125" width="34" height="14" rx="7" ry="7" fill="rgb(153, 153, 153)" style="animation: 0s ease 0s 1 normal none running none;"/></g><g data-selector="span.SwitchBase-root "><g data-selector="span.Switch-thumb "><rect x="150.84375" y="609.8125" width="20" height="20" rx="10" ry="10" fill="rgb(255, 255, 255)" style="animation: 0s ease 0s 1 normal none running none; filter: drop-shadow(rgba(0, 0, 0, 0.2) 0px 2px 0.5px) drop-shadow(rgba(0, 0, 0, 0.14) 0px 1px 0.5px) drop-shadow(rgba(0, 0, 0, 0.12) 0px 1px 1.5px);"/></g></g></g></g><g data-selector="div."><text x="78" y="670.81" fill="var(--rgb223046rgb244245247)" font-family="var(--fontFamily-3551640753)" font-size="16px" font-weight="400" font-style="normal" letter-spacing="normal" text-decoration="none" text-anchor="start" style="line-height: normal; white-space: normal; text-transform: none;"><tspan x="78" dy="0">Provides similar level of access to the Websocket API with the following limitations: no subscriptions, no </tspan><tspan x="78" dy="17.6px">sync, no file upload</tspan></text></g></g></g><g data-selector="div. FlexCol flex-col gap-1" data-command="APIDetailsTokens"><g data-selector="h4.m-0 p-0"><text x="78" y="738.81" fill="var(--rgb223046rgb244245247)" font-family="var(--fontFamily-3551640753)" font-size="16px" font-weight="700" font-style="normal" letter-spacing="normal" text-decoration="none" text-anchor="start" style="line-height: normal; white-space: normal; text-transform: none;">Access tokens (1)</text></g><g data-selector="div."><text x="78" y="772.81" fill="var(--rgb223046rgb244245247)" font-family="var(--fontFamily-3551640753)" font-size="16px" font-weight="400" font-style="normal" letter-spacing="normal" text-decoration="none" text-anchor="start" style="line-height: normal; white-space: normal; text-transform: none;">Provide the same level of access as the current account</text></g><g data-selector="div.w-fit   FlexCol flex-col gap-1"><g data-selector="div.min-h-0 f-1  SmartCardList o-auto flex-col gap-p5 relative max-w-full ScrollFade" data-command="SmartCardList" style="clip-path: inset(789.812px 338.531px 0px 76px) view-box;"><g data-selector="div.SmartCardListControls gap-p5 aid-end py-p25 FlexCol flex-col"><g data-selector="div.  FlexRowWrap flex-row-wrap gap-1 ai-center"><g data-selector="div.SearchList list-comp ta-left flex-col min-h-0 SmartSearch m-auto" data-command="SearchList"><g data-selector="div.SearchListInput f-0 min-h-0 min-w-0 flex-row jc-start relative  "><g data-selector="div.SearchList_InputWrapper bg-color-0 gap-0 h-fit f-1 relative o-hidden relative rounded focus-border b b-color  shadow  FlexRow flex-row ai-center" style="clip-path: inset(794.812px 546px 59.1875px 77px round 8px) view-box;"><rect x="78.5" y="796.3125" width="274" height="43" rx="8" ry="8" fill="var(--rgb255255255rgb282828)" stroke-width="1px" stroke="var(--rgb210214220rgb107114128)" style="animation: 0s ease 0s 1 normal none running none; filter: drop-shadow(rgba(0, 0, 0, 0.1) 0px 1px 1.5px) drop-shadow(rgba(0, 0, 0, 0.06) 0px 1px 1px);"/><g data-selector="input.custom-input rounded search-list-comp-input Input f-1 w-full" data-command="SearchList.Input" style="clip-path: inset(800.812px 590px 65.1875px 79px round 8px) view-box;"><text x="95" y="823.31" fill="rgb(159, 166, 178)" font-family="Arial" font-size="16px" font-weight="600" font-style="normal" letter-spacing="normal" text-decoration="none" text-anchor="start" style="line-height: normal; white-space: pre; text-transform: none;">Search ...</text></g><g data-selector="div.relative rounded f-0 ai-center jc-center gap-0 bg-color-0  FlexRow flex-row"><g data-selector="button. f-0 flex-row gap-p5 ai-center btn btn-default btn-size-default btn-color-default ws-nowrap w-fit" data-command="SearchList.MatchCase"><g style="transform: translate(318.9px, 805.71px); color: var(--rgb758599rgb229231235);"><svg viewBox="0 0 24 24" role="presentation" class=" f-0 " style="width: 22px; height: 22px; transform: scale(1.1);" width="22" height="22"><path d="M20.06,18C20,17.83 19.91,17.54 19.86,17.11C19.19,17.81 18.38,18.16 17.45,18.16C16.62,18.16 15.93,17.92 15.4,17.45C14.87,17 14.6,16.39 14.6,15.66C14.6,14.78 14.93,14.1 15.6,13.61C16.27,13.12 17.21,12.88 18.43,12.88H19.83V12.24C19.83,11.75 19.68,11.36 19.38,11.07C19.08,10.78 18.63,10.64 18.05,10.64C17.53,10.64 17.1,10.76 16.75,11C16.4,11.25 16.23,11.54 16.23,11.89H14.77C14.77,11.46 14.92,11.05 15.22,10.65C15.5,10.25 15.93,9.94 16.44,9.71C16.95,9.5 17.5,9.36 18.13,9.36C19.11,9.36 19.87,9.6 20.42,10.09C20.97,10.58 21.26,11.25 21.28,12.11V16C21.28,16.8 21.38,17.42 21.58,17.88V18H20.06M17.66,16.88C18.11,16.88 18.54,16.77 18.95,16.56C19.35,16.35 19.65,16.07 19.83,15.73V14.16H18.7C16.93,14.16 16.04,14.63 16.04,15.57C16.04,16 16.19,16.3 16.5,16.53C16.8,16.76 17.18,16.88 17.66,16.88M5.46,13.71H9.53L7.5,8.29L5.46,13.71M6.64,6H8.36L13.07,18H11.14L10.17,15.43H4.82L3.86,18H1.93L6.64,6Z" style="fill: currentcolor;"/></svg></g><g data-selector="svg.[object SVGAnimatedString]" role="presentation" style="clip-path: inset(805.713px 556.9px 70.0875px 318.9px) view-box;"><rect x="318.9" y="805.71" width="24.2" height="24.2" fill="transparent"/></g><rect x="311" y="797.8125" width="40" height="40" rx="6" ry="6" fill="none" stroke-width="1px" stroke="rgba(0, 0, 0, 0)" style="animation: 0s ease 0s 1 normal none running none;"/></g></g></g></g></g><g data-selector="div.Select flex-row gap-p25 min-h-0 f-0 relative ai-center "><g data-selector="div. flex-row gap-0 ai-center  "><g data-selector="button. Select w-fit f-0 select-button flex-row gap-p5 ai-center rounded btn btn-faded btn-size-default btn-color-default ws-nowrap"><rect x="369" y="797.8125" width="106.46875" height="40" rx="6" ry="6" fill="var(--rgba125125125022rgba125125125038)" stroke-width="1px" stroke="rgba(0, 0, 0, 0)" style="animation: 0s ease 0s 1 normal none running none;"/><g data-selector="div. text-ellipsis text-color-0" style="clip-path: inset(808.812px 467.531px 73.1875px 382px) view-box;"><text x="382" y="823.81" fill="var(--rgb758599rgb229231235)" font-family="var(--fontFamily-3551640753)" font-size="16px" font-weight="500" font-style="normal" letter-spacing="normal" text-decoration="none" text-anchor="start" style="line-height: 18px; white-space: nowrap; text-transform: none;">Id num</text></g><g style="transform: translate(439.37px, 805.71px); color: var(--rgb159166178rgb159166178);"><svg viewBox="0 0 24 24" role="presentation" class="text-2 f-0 " style="width: 22px; height: 22px; transform: scale(1.1);" width="22" height="22"><path d="M7,10L12,15L17,10H7Z" style="fill: currentcolor;"/></svg></g><g data-selector="svg.[object SVGAnimatedString]" role="presentation" style="clip-path: inset(805.713px 436.431px 70.0875px 439.369px) view-box;"><rect x="439.37" y="805.71" width="24.2" height="24.2" fill="transparent"/></g></g><g data-selector="button. f-0 flex-row gap-p5 ai-center btn btn-default btn-size-default btn-color-default ws-nowrap w-fit"><g style="transform: translate(483.37px, 805.71px); color: var(--rgb758599rgb229231235);"><svg viewBox="0 0 24 24" role="presentation" class=" f-0 " style="width: 22px; height: 22px; transform: scale(1.1);" width="22" height="22"><path d="M19,6.41L17.59,5L12,10.59L6.41,5L5,6.41L10.59,12L5,17.59L6.41,19L12,13.41L17.59,19L19,17.59L13.41,12L19,6.41Z" style="fill: currentcolor;"/></svg></g><g data-selector="svg.[object SVGAnimatedString]" role="presentation" style="clip-path: inset(805.713px 392.431px 70.0875px 483.369px) view-box;"><rect x="483.37" y="805.71" width="24.2" height="24.2" fill="transparent"/></g><rect x="475.46875" y="797.8125" width="40" height="40" rx="6" ry="6" fill="none" stroke-width="1px" stroke="rgba(0, 0, 0, 0)" style="animation: 0s ease 0s 1 normal none running none;"/></g></g><g data-selector="button. f-0 flex-row gap-p5 ai-center btn btn-default btn-size-default btn-color-action ws-nowrap w-fit"><g style="transform: translate(527.37px, 805.71px); color: var(--rgb63131248rgb91164255);"><svg viewBox="0 0 24 24" role="presentation" class=" f-0 " style="width: 22px; height: 22px; transform: scale(1.1);" width="22" height="22"><path d="M3,13H15V11H3M3,6V8H21V6M3,18H9V16H3V18Z" style="fill: currentcolor;"/></svg></g><g data-selector="svg.[object SVGAnimatedString]" role="presentation" style="clip-path: inset(805.713px 348.431px 70.0875px 527.369px) view-box;"><rect x="527.37" y="805.71" width="24.2" height="24.2" fill="transparent"/></g><rect x="519.46875" y="797.8125" width="40" height="40" rx="6" ry="6" fill="none" stroke-width="1px" stroke="rgba(0, 0, 0, 0)" style="animation: 0s ease 0s 1 normal none running none;"/></g></g></g></g><g data-selector="div.relative" data-key="13"><g data-selector="div. SmartCard card bg-color-0 relative flex-row-wrap ai-start"><rect x="78.5" y="852.3125" width="480.46875" height="65" rx="8" ry="8" fill="var(--rgb255255255rgb444444)" stroke-width="1px" stroke="var(--rgb210214220rgb758599)" style="animation: 0s ease 0s 1 normal none running none; filter: var(--shadow-1995758748);"/><g data-selector="div.flex-col min-w-0 min-h-0 f-1"><g data-selector="div. SmartCardContent o-auto f-1 min-w-0 min-h-0 gap-p5 p-p5 parent-hover flex-row-wrap ai-start" style="clip-path: inset(856.812px 345.531px 0px 83px) view-box;"><g data-selector="div. SmartCardCol flex-col o-auto ai-start text-1 ta-left" style="clip-path: inset(864.812px 797px 7.1875px 91px) view-box;"><g data-selector="div.my-p5 shadow"><rect x="91" y="872.8125" width="12" height="12" rx="6" ry="6" fill="rgb(14, 159, 110)" style="animation: 0s ease 0s 1 normal none running none; filter: drop-shadow(rgba(0, 0, 0, 0.1) 0px 1px 1.5px) drop-shadow(rgba(0, 0, 0, 0.06) 0px 1px 1px);"/></g></g><g data-selector="div. SmartCardCol flex-col o-auto ai-start text-1 ta-left" style="clip-path: inset(864.812px 705.188px 4.1875px 119px) view-box;"><g data-selector="label. Label variant:normal relative noselect flex-row ai-center gap-p25 w-fit" style="opacity: 0.7;"><text x="119" y="875.81" fill="var(--rgb758599rgb180180180)" font-family="var(--fontFamily-3551640753)" font-size="12px" font-weight="400" font-style="normal" letter-spacing="normal" text-decoration="none" text-anchor="start" style="line-height: normal; white-space: normal; text-transform: none;">Last used</text></g><g data-selector="div.font-16 text-0 o-auto" style="clip-path: inset(877.812px 705.188px 4.1875px 119px) view-box;"><g data-selector="span. text-green-500"><text x="119" y="892.81" fill="var(--rgb223046rgb244245247)" font-family="var(--fontFamily-3551640753)" font-size="16px" font-weight="400" font-style="normal" letter-spacing="normal" text-decoration="none" text-anchor="start" style="line-height: normal; white-space: normal; text-transform: none;">54min</text><text x="164.06" y="892.81" fill="var(--rgb223046rgb244245247)" font-family="var(--fontFamily-3551640753)" font-size="16px" font-weight="400" font-style="normal" letter-spacing="normal" text-decoration="none" text-anchor="start" style="line-height: normal; white-space: pre; text-transform: none;"> ago</text></g></g></g><g data-selector="div. SmartCardCol flex-col o-auto ai-start text-1 ta-left" style="clip-path: inset(864.812px 584.5px 4.1875px 210.812px) view-box;"><g data-selector="label. Label variant:normal relative noselect flex-row ai-center gap-p25 w-fit" style="opacity: 0.7;"><text x="210.81" y="875.81" fill="var(--rgb758599rgb180180180)" font-family="var(--fontFamily-3551640753)" font-size="12px" font-weight="400" font-style="normal" letter-spacing="normal" text-decoration="none" text-anchor="start" style="line-height: normal; white-space: normal; text-transform: none;">Created</text></g><g data-selector="div.font-16 text-0 o-auto" style="clip-path: inset(877.812px 584.5px 4.1875px 210.812px) view-box;"><text x="210.81" y="892.81" fill="var(--rgb223046rgb244245247)" font-family="var(--fontFamily-3551640753)" font-size="16px" font-weight="400" font-style="normal" letter-spacing="normal" text-decoration="none" text-anchor="start" style="line-height: normal; white-space: normal; text-transform: none;">54min 33s ago</text></g></g><g data-selector="div. SmartCardCol flex-col o-auto ai-start text-1 ta-left" style="clip-path: inset(864.812px 466.047px 4.1875px 331.5px) view-box;"><g data-selector="label. Label variant:normal relative noselect flex-row ai-center gap-p25 w-fit" style="opacity: 0.7;"><text x="331.5" y="875.81" fill="var(--rgb758599rgb180180180)" font-family="var(--fontFamily-3551640753)" font-size="12px" font-weight="400" font-style="normal" letter-spacing="normal" text-decoration="none" text-anchor="start" style="line-height: normal; white-space: normal; text-transform: none;">Expires</text></g><g data-selector="div.font-16 text-0 o-auto" style="clip-path: inset(877.812px 466.047px 4.1875px 331.5px) view-box;"><text x="331.5" y="892.81" fill="var(--rgb223046rgb244245247)" font-family="var(--fontFamily-3551640753)" font-size="16px" font-weight="400" font-style="normal" letter-spacing="normal" text-decoration="none" text-anchor="start" style="line-height: normal; white-space: normal; text-transform: none;">In 3mo 9d 23h</text></g></g><g data-selector="div. SmartCardCol flex-col o-auto ai-start text-1 ta-left" style="clip-path: inset(864.812px 353.531px 0px 506.469px) view-box;"><g data-selector="button. f-0 flex-row gap-p5 ai-center btn btn-faded btn-size-default btn-color-danger ws-nowrap w-fit"><rect x="506.46875" y="864.8125" width="40" height="40" rx="6" ry="6" fill="var(--rgb253232232rgba8900023)" stroke-width="1px" stroke="rgba(0, 0, 0, 0)" style="animation: 0s ease 0s 1 normal none running none;"/><g style="transform: translate(514.37px, 872.71px); color: var(--rgb2003030rgb2359393);"><svg viewBox="0 0 24 24" role="presentation" class=" f-0 " style="width: 22px; height: 22px; transform: scale(1.1);" width="22" height="22"><path d="M19,4H15.5L14.5,3H9.5L8.5,4H5V6H19M6,19A2,2 0 0,0 8,21H16A2,2 0 0,0 18,19V7H6V19Z" style="fill: currentcolor;"/></svg></g><g data-selector="svg.[object SVGAnimatedString]" role="presentation" style="clip-path: inset(872.713px 361.431px 3.08752px 514.369px) view-box;"><rect x="514.37" y="872.71" width="24.2" height="24.2" fill="transparent"/></g></g></g></g></g></g></g></g></g></g></g></g></g></g><g data-selector="div. Tabs_Menu bg-color-1 shadow f-0 w-full noselect MenuList relative list-comp rounded max-w-fit min-w-fit" data-command="MenuList"><rect x="0" y="74" width="46" height="826" rx="0" ry="0" fill="var(--rgb249250251rgb333333)" style="animation: 0s ease 0s 1 normal none running none; filter: drop-shadow(rgba(0, 0, 0, 0.1) 0px 1px 1.5px) drop-shadow(rgba(0, 0, 0, 0.06) 0px 1px 1px);"/><g data-selector="ul.no-decor relative f-1 o-auto min-h-0 min-w-0 trigger-hover  flex-col ws-nowrap " role="list" style="clip-path: inset(74px 854px 506px 0px) view-box;"><g data-selector="li.flex-row  p-p5  bg-li  pointer  " data-command="config.details" data-key="details" role="option"><g data-selector="label.mr-p5 f-1 flex-row ai-center noselect"><g style="transform: translate(8px, 82px); color: var(--rgb223046rgb244245247);"><svg viewBox="0 0 24 24" role="presentation" class="mr-p5 f-0" style="width: 1.5rem; height: 1.5rem;" width="24" height="24"><path d="M20.71,7.04C21.1,6.65 21.1,6 20.71,5.63L18.37,3.29C18,2.9 17.35,2.9 16.96,3.29L15.12,5.12L18.87,8.87M3,17.25V21H6.75L17.81,9.93L14.06,6.18L3,17.25Z" style="fill: currentcolor;"/></svg></g><g data-selector="svg.[object SVGAnimatedString]" role="presentation" style="clip-path: inset(82px 868px 794px 8px) view-box;"><rect x="8" y="82" width="24" height="24" fill="transparent"/></g></g></g><g data-selector="li.flex-row  p-p5  bg-li  pointer  " data-command="config.status" data-key="status" role="option"><g data-selector="label.mr-p5 f-1 flex-row ai-center noselect"><g style="transform: translate(8px, 122px); color: var(--rgb223046rgb244245247);"><svg viewBox="0 0 24 24" role="presentation" class="mr-p5 f-0" style="width: 1.5rem; height: 1.5rem;" width="24" height="24"><path d="M16,11.78L20.24,4.45L21.97,5.45L16.74,14.5L10.23,10.75L5.46,19H22V21H2V3H4V17.54L9.5,8L16,11.78Z" style="fill: currentcolor;"/></svg></g><g data-selector="svg.[object SVGAnimatedString]" role="presentation" style="clip-path: inset(122px 868px 754px 8px) view-box;"><rect x="8" y="122" width="24" height="24" fill="transparent"/></g></g></g><g data-selector="li.flex-row  p-p5  bg-li  pointer  " data-command="config.ac" data-key="access_control" role="option"><g data-selector="label.mr-p5 f-1 flex-row ai-center noselect"><g style="transform: translate(8px, 162px); color: var(--rgb223046rgb244245247);"><svg viewBox="0 0 24 24" role="presentation" class="mr-p5 f-0" style="width: 1.5rem; height: 1.5rem;" width="24" height="24"><path d="M16 17V19H2V17S2 13 9 13 16 17 16 17M12.5 7.5A3.5 3.5 0 1 0 9 11A3.5 3.5 0 0 0 12.5 7.5M15.94 13A5.32 5.32 0 0 1 18 17V19H22V17S22 13.37 15.94 13M15 4A3.39 3.39 0 0 0 13.07 4.59A5 5 0 0 1 13.07 10.41A3.39 3.39 0 0 0 15 11A3.5 3.5 0 0 0 15 4Z" style="fill: currentcolor;"/></svg></g><g data-selector="svg.[object SVGAnimatedString]" role="presentation" style="clip-path: inset(162px 868px 714px 8px) view-box;"><rect x="8" y="162" width="24" height="24" fill="transparent"/></g></g></g><g data-selector="li.flex-row  p-p5  bg-li  pointer  " data-command="config.files" data-key="file_storage" role="option"><g data-selector="label.mr-p5 f-1 flex-row ai-center noselect"><g style="transform: translate(8px, 202px); color: var(--rgb223046rgb244245247);"><svg viewBox="0 0 24 24" role="presentation" class="mr-p5 f-0" style="width: 1.5rem; height: 1.5rem;" width="24" height="24"><path d="M8.5,13.5L11,16.5L14.5,12L19,18H5M21,19V5C21,3.89 20.1,3 19,3H5A2,2 0 0,0 3,5V19A2,2 0 0,0 5,21H19A2,2 0 0,0 21,19Z" style="fill: currentcolor;"/></svg></g><g data-selector="svg.[object SVGAnimatedString]" role="presentation" style="clip-path: inset(202px 868px 674px 8px) view-box;"><rect x="8" y="202" width="24" height="24" fill="transparent"/></g></g></g><g data-selector="li.flex-row  p-p5  bg-li  pointer  " data-command="config.bkp" data-key="backups" role="option"><g data-selector="label.mr-p5 f-1 flex-row ai-center noselect"><g style="transform: translate(8px, 242px); color: var(--rgb223046rgb244245247);"><svg viewBox="0 0 24 24" role="presentation" class="mr-p5 f-0" style="width: 1.5rem; height: 1.5rem;" width="24" height="24"><path d="M19,12V13.5A4,4 0 0,1 23,17.5C23,18.32 22.75,19.08 22.33,19.71L21.24,18.62C21.41,18.28 21.5,17.9 21.5,17.5A2.5,2.5 0 0,0 19,15V16.5L16.75,14.25L19,12M19,23V21.5A4,4 0 0,1 15,17.5C15,16.68 15.25,15.92 15.67,15.29L16.76,16.38C16.59,16.72 16.5,17.1 16.5,17.5A2.5,2.5 0 0,0 19,20V18.5L21.25,20.75L19,23M12,3C16.42,3 20,4.79 20,7C20,9.21 16.42,11 12,11C7.58,11 4,9.21 4,7C4,4.79 7.58,3 12,3M4,9C4,11.21 7.58,13 12,13C13.11,13 14.17,12.89 15.14,12.68C14.19,13.54 13.5,14.67 13.18,15.96L12,16C7.58,16 4,14.21 4,12V9M20,9V11H19.5L18.9,11.03C19.6,10.43 20,9.74 20,9M4,14C4,16.21 7.58,18 12,18L13,17.97C13.09,19.03 13.42,20 13.95,20.88L12,21C7.58,21 4,19.21 4,17V14Z" style="fill: currentcolor;"/></svg></g><g data-selector="svg.[object SVGAnimatedString]" role="presentation" style="clip-path: inset(242px 868px 634px 8px) view-box;"><rect x="8" y="242" width="24" height="24" fill="transparent"/></g></g></g><g data-selector="li.flex-row  p-p5  bg-li  pointer   selected " data-command="config.api" data-key="API" role="option"><rect x="0" y="274" width="46" height="40" rx="0" ry="0" fill="var(--rgb225239254rgba36101212039)" style="animation: 0s ease 0s 1 normal none running none;"/><g data-selector="label.mr-p5 f-1 flex-row ai-center noselect"><g style="transform: translate(8px, 282px); color: var(--rgb223046rgb244245247);"><svg viewBox="0 0 24 24" role="presentation" class="mr-p5 f-0" style="width: 1.5rem; height: 1.5rem;" width="24" height="24"><path d="M21 2H3C1.9 2 1 2.9 1 4V20C1 21.1 1.9 22 3 22H21C22.1 22 23 21.1 23 20V4C23 2.9 22.1 2 21 2M21 20H3V6H21V20M9 8C7.9 8 7 8.9 7 10C7 11.1 6.1 12 5 12V14C6.1 14 7 14.9 7 16C7 17.1 7.9 18 9 18H11V16H9V15C9 13.9 8.1 13 7 13C8.1 13 9 12.1 9 11V10H11V8M15 8C16.1 8 17 8.9 17 10C17 11.1 17.9 12 19 12V14C17.9 14 17 14.9 17 16C17 17.1 16.1 18 15 18H13V16H15V15C15 13.9 15.9 13 17 13C15.9 13 15 12.1 15 11V10H13V8H15Z" style="fill: currentcolor;"/></svg></g><g data-selector="svg.[object SVGAnimatedString]" role="presentation" style="clip-path: inset(282px 868px 594px 8px) view-box;"><rect x="8" y="282" width="24" height="24" fill="transparent"/></g></g></g><g data-selector="li.flex-row  p-p5  bg-li  pointer  " data-command="config.tableConfig" data-key="table_config" role="option"><g data-selector="label.mr-p5 f-1 flex-row ai-center noselect"><g style="transform: translate(8px, 322px); color: var(--rgb223046rgb244245247);"><svg viewBox="0 0 24 24" role="presentation" class="mr-p5 f-0" style="width: 1.5rem; height: 1.5rem;" width="24" height="24"><path d="M21.7,13.35L20.7,14.35L18.65,12.3L19.65,11.3C19.86,11.08 20.21,11.08 20.42,11.3L21.7,12.58C21.92,12.79 21.92,13.14 21.7,13.35M12,18.94L18.07,12.88L20.12,14.93L14.06,21H12V18.94M4,2H18A2,2 0 0,1 20,4V8.17L16.17,12H12V16.17L10.17,18H4A2,2 0 0,1 2,16V4A2,2 0 0,1 4,2M4,6V10H10V6H4M12,6V10H18V6H12M4,12V16H10V12H4Z" style="fill: currentcolor;"/></svg></g><g data-selector="svg.[object SVGAnimatedString]" role="presentation" style="clip-path: inset(322px 868px 554px 8px) view-box;"><rect x="8" y="322" width="24" height="24" fill="transparent"/></g></g></g><g data-selector="li.flex-row  p-p5  bg-li  pointer  " data-command="config.methods" data-key="methods" role="option"><g data-selector="label.mr-p5 f-1 flex-row ai-center noselect"><g style="transform: translate(8px, 362px); color: var(--rgb223046rgb244245247);"><svg viewBox="0 0 24 24" role="presentation" class="mr-p5 f-0" style="width: 1.5rem; height: 1.5rem;" width="24" height="24"><path d="M3,3H21V21H3V3M13.71,17.86C14.21,18.84 15.22,19.59 16.8,19.59C18.4,19.59 19.6,18.76 19.6,17.23C19.6,15.82 18.79,15.19 17.35,14.57L16.93,14.39C16.2,14.08 15.89,13.87 15.89,13.37C15.89,12.96 16.2,12.64 16.7,12.64C17.18,12.64 17.5,12.85 17.79,13.37L19.1,12.5C18.55,11.54 17.77,11.17 16.7,11.17C15.19,11.17 14.22,12.13 14.22,13.4C14.22,14.78 15.03,15.43 16.25,15.95L16.67,16.13C17.45,16.47 17.91,16.68 17.91,17.26C17.91,17.74 17.46,18.09 16.76,18.09C15.93,18.09 15.45,17.66 15.09,17.06L13.71,17.86M13,11.25H8V12.75H9.5V20H11.25V12.75H13V11.25Z" style="fill: currentcolor;"/></svg></g><g data-selector="svg.[object SVGAnimatedString]" role="presentation" style="clip-path: inset(362px 868px 514px 8px) view-box;"><rect x="8" y="362" width="24" height="24" fill="transparent"/></g></g></g></g></g></g></g><g data-selector="div.TopControls w-full bg-color-0 jc-center shadow FlexRow flex-row gap-1 ai-center"><rect x="0" y="0" width="900" height="58" rx="0" ry="0" fill="var(--rgb255255255rgb444444)" style="animation: 0s ease 0s 1 normal none running none; filter: drop-shadow(rgba(0, 0, 0, 0.1) 0px 1px 1.5px) drop-shadow(rgba(0, 0, 0, 0.06) 0px 1px 1px);"/><g data-selector="div.gap-0 max-w-1200 f-1 FlexRow flex-row ai-center"><g data-selector="div.max-w-fit f-1 ai-center  p-p5  FlexRow flex-row gap-1"><g data-selector="a. f-0 flex-row gap-p5 ai-center button-css rounded btn btn-default btn-size-default btn-color-default ws-nowrap w-fit" data-command="config.goToConnDashboard" style="clip-path: inset(7px 849px 849px 7px round 4px) view-box;"><rect x="8.5" y="8.5" width="41" height="41" rx="4" ry="4" fill="var(--rgb240254255rgb03755)" stroke-width="1px" stroke="rgb(58, 216, 227)" style="animation: 0s ease 0s 1 normal none running none;"/><svg xmlns:dc="http://purl.org/dc/elements/1.1/" xmlns:cc="http://creativecommons.org/ns#" xmlns:rdf="http://www.w3.org/1999/02/22-rdf-syntax-ns#" xmlns:svg="http://www.w3.org/2000/svg" xmlns="http://www.w3.org/2000/svg" id="svg8" version="1.1" viewBox="0 0 9.5249998 9.5250003" height="36" width="36" x="11" y="11">
  <style>
    @media (prefers-color-scheme: dark) {
      <!-- #path3881-head {
        fill: green !important;
      }
  
      #path3887-eye {
        fill: #ff0000 !important;
      }       -->
    }
  </style>
  <g transform="translate(0,-287.47498)" id="layer1">
    <path style="fill:#0087ab;stroke-width:0.10478402" id="path3881-head" d="m 6.5209966,295.25712 c 0.2175402,-0.46431 1.6420322,-2.2511 1.3456182,-4.2915 -0.085217,-0.58659 -2.1619067,-1.59449 -2.2268491,-1.64218 -0.01022,-0.008 -0.1325362,-0.0996 -0.1694292,-0.13795 -0.197562,-0.2055 -0.499117,-0.62298 -0.8304557,-0.82041 -0.1525898,-0.0909 -0.7394033,-0.0609 -1.0268278,0.11432 l -1.879837,1.08657 c -0.4703536,0.4665 0.1139504,1.07392 0.2268207,1.30469 0.1128704,0.23077 0.803662,0.95627 0.803662,0.95627 v 0 c -0.1433145,0.0653 -0.3911698,-0.0575 -0.6915708,-0.27496 0,0 -0.8432496,-0.80366 -0.8823501,-0.87005 -0.039101,-0.0664 -0.1564018,-0.20484 -0.23460266,-0.47082 0,0 -0.0384912,-0.0917 -0.0544209,-0.51555 -0.0159297,-0.42388 0.69813926,-0.64516 0.80535536,-0.72619 0.107216,-0.081 1.4441719,-0.86378 1.8275182,-1.11029 0.3833462,-0.24651 0.8880668,-0.20266 1.1387453,-0.0444 l 2.8538119,1.69411 c 0.2716598,0.15804 1.3866918,1.14066 1.421482,1.86382 0.081505,1.69417 -1.2190224,2.93746 -1.8472163,4.27428 -0.6281939,1.33683 1.1838142,0.58699 1.2737198,0.43944 l 0.259057,0.27303 c -0.8972105,0.56378 -1.9304095,0.39775 -2.0611443,0.33679 -0.1307347,-0.0609 -0.2768897,-0.88205 -0.051087,-1.439 z"/>
    <path style="fill: #bc0000;fill-opacity:1;fill-rule:evenodd;stroke-width:0.07858816;stroke-miterlimit:4;stroke-dasharray:none;stroke-opacity:0.60294118;" id="path3887-eye" d="m 6.2908378,290.63597 c 0.030281,-0.0145 0.067771,-0.0145 0.09805,0 0.9624569,0.37529 0.8624334,0.39198 0.8624334,1.21858 0,0.0285 -0.018608,0.0549 -0.049026,0.0694 -0.9558494,-0.4203 -0.9974496,-0.45611 -0.9114585,-1.28795 z"/>
  </g>
</svg></g><g data-selector="div.h-full flex-col gap-p25 ai-start "><g data-selector="a.ConnectionConfigBtn f-0 flex-row gap-p5 ai-center button-css rounded btn btn-faded btn-size-default btn-color-action ws-nowrap w-fit" data-command="dashboard.goToConnConfig" style="clip-path: inset(8px 587.344px 850px 65px round 8px) view-box;"><rect x="66" y="9" width="245.65625" height="40" rx="8" ry="8" fill="var(--rgb225239254rgba07916308)" stroke-width="1px" stroke="rgba(0, 0, 0, 0)" style="animation: 0s ease 0s 1 normal none running none;"/><text x="109" y="35" fill="var(--rgb63131248rgb255255255)" font-family="var(--fontFamily-3551640753)" font-size="16px" font-weight="500" font-style="normal" letter-spacing="normal" text-decoration="none" text-anchor="start" style="line-height: 16px; white-space: nowrap; text-transform: none;">Connection configuration</text><g style="transform: translate(77.9px, 16.9px); color: var(--rgb63131248rgb255255255);"><svg viewBox="0 0 24 24" role="presentation" class=" f-0 " style="width: 22px; height: 22px; transform: scale(1.1);" width="22" height="22"><path d="M4 7C4 4.79 7.58 3 12 3S20 4.79 20 7 16.42 11 12 11 4 9.21 4 7M12.08 18L12 18C7.58 18 4 16.21 4 14V17C4 19.21 7.58 21 12 21C12.1 21 12.2 21 12.29 21C12.11 20.36 12 19.69 12 19C12 18.66 12.03 18.33 12.08 18M20 12.08C20 12.05 20 12.03 20 12V9C20 11.21 16.42 13 12 13S4 11.21 4 9V12C4 14.21 7.58 16 12 16C12.23 16 12.46 16 12.69 16C13.82 13.63 16.22 12 19 12C19.34 12 19.67 12.03 20 12.08M23.8 20.4C23.9 20.4 23.9 20.5 23.8 20.6L22.8 22.3C22.7 22.4 22.6 22.4 22.5 22.4L21.3 22C21 22.2 20.8 22.3 20.5 22.5L20.3 23.8C20.3 23.9 20.2 24 20.1 24H18.1C18 24 17.9 23.9 17.8 23.8L17.6 22.5C17.3 22.4 17 22.2 16.8 22L15.6 22.5C15.5 22.5 15.4 22.5 15.3 22.4L14.3 20.7C14.2 20.6 14.3 20.5 14.4 20.4L15.5 19.6V18.6L14.4 17.8C14.3 17.7 14.3 17.6 14.3 17.5L15.3 15.8C15.4 15.7 15.5 15.7 15.6 15.7L16.8 16.2C17.1 16 17.3 15.9 17.6 15.7L17.8 14.4C17.8 14.3 17.9 14.2 18.1 14.2H20.1C20.2 14.2 20.3 14.3 20.3 14.4L20.5 15.7C20.8 15.8 21.1 16 21.4 16.2L22.6 15.7C22.7 15.7 22.9 15.7 22.9 15.8L23.9 17.5C24 17.6 23.9 17.7 23.8 17.8L22.7 18.6V19.6L23.8 20.4M20.5 19C20.5 18.2 19.8 17.5 19 17.5S17.5 18.2 17.5 19 18.2 20.5 19 20.5 20.5 19.8 20.5 19Z" style="fill: currentcolor;"/></svg></g><g data-selector="svg.[object SVGAnimatedString]" role="presentation" style="clip-path: inset(16.9px 797.9px 858.9px 77.9px) view-box;"><rect x="77.9" y="16.9" width="24.2" height="24.2" fill="transparent"/></g></g></g><g data-selector="button. Select w-fit f-0 select-button flex-row gap-p5 ai-center rounded btn btn-faded btn-size-default btn-color-default ws-nowrap" data-command="ConnectionSelector"><rect x="327.65625" y="9" width="225.140625" height="40" rx="8" ry="8" fill="var(--rgba125125125022rgba125125125038)" stroke-width="1px" stroke="rgba(0, 0, 0, 0)" style="animation: 0s ease 0s 1 normal none running none;"/><g style="transform: translate(339.56px, 16.9px); color: var(--rgb758599rgb229231235);"><svg viewBox="0 0 24 24" role="presentation" class=" f-0 " style="width: 22px; height: 22px; transform: scale(1.1);" width="22" height="22"><path d="M12,3C7.58,3 4,4.79 4,7C4,9.21 7.58,11 12,11C16.42,11 20,9.21 20,7C20,4.79 16.42,3 12,3M4,9V12C4,14.21 7.58,16 12,16C16.42,16 20,14.21 20,12V9C20,11.21 16.42,13 12,13C7.58,13 4,11.21 4,9M4,14V17C4,19.21 7.58,21 12,21C16.42,21 20,19.21 20,17V14C20,16.21 16.42,18 12,18C7.58,18 4,16.21 4,14Z" style="fill: currentcolor;"/></svg></g><g data-selector="svg.[object SVGAnimatedString]" role="presentation" style="clip-path: inset(16.9px 536.244px 858.9px 339.556px) view-box;"><rect x="339.56" y="16.9" width="24.2" height="24.2" fill="transparent"/></g><g data-selector="div. text-ellipsis text-color-0" style="clip-path: inset(20px 360.203px 862px 370.656px) view-box;"><text x="370.66" y="35" fill="var(--rgb758599rgb229231235)" font-family="var(--fontFamily-3551640753)" font-size="16px" font-weight="500" font-style="normal" letter-spacing="normal" text-decoration="none" text-anchor="start" style="line-height: 18px; white-space: nowrap; text-transform: none;">prostgles_video_demo</text></g></g></g><g data-selector="div.ml-auto min-w-0 f-0 ai-start gap-1 text-1p5 w-fit ai-center noselect o-auto no-scroll-bar jc-end  p-p5  FlexRow flex-row" style="clip-path: inset(1px 0px 843px 732px) view-box;"><g data-selector="button. f-0 flex-row gap-p5 ai-center btn btn-faded btn-size-default btn-color-action ws-nowrap w-fit" data-command="AskLLM"><rect x="740" y="9" width="40" height="40" rx="6" ry="6" fill="var(--rgb225239254rgba07916308)" stroke-width="1px" stroke="rgba(0, 0, 0, 0)" style="animation: 0s ease 0s 1 normal none running none;"/><g style="transform: translate(747.9px, 16.9px); color: var(--rgb63131248rgb255255255);"><svg viewBox="0 0 24 24" role="presentation" class=" f-0 " style="width: 22px; height: 22px; transform: scale(1.1);" width="22" height="22"><path d="M19,2H5A2,2 0 0,0 3,4V18A2,2 0 0,0 5,20H9L12,23L15,20H19A2,2 0 0,0 21,18V4A2,2 0 0,0 19,2M13.88,12.88L12,17L10.12,12.88L6,11L10.12,9.12L12,5L13.88,9.12L18,11" style="fill: currentcolor;"/></svg></g><g data-selector="svg.[object SVGAnimatedString]" role="presentation" style="clip-path: inset(16.9px 127.9px 858.9px 747.9px) view-box;"><rect x="747.9" y="16.9" width="24.2" height="24.2" fill="transparent"/></g></g><g data-selector="div. PopupMenu_triggerWrapper h-fit w-fit"><g data-selector="button. f-0 flex-row gap-p5 ai-center btn btn-faded btn-size-default btn-color-default ws-nowrap w-fit" data-command="Feedback"><rect x="796" y="9" width="40" height="40" rx="6" ry="6" fill="var(--rgba125125125022rgba125125125038)" stroke-width="1px" stroke="rgba(0, 0, 0, 0)" style="animation: 0s ease 0s 1 normal none running none;"/><g style="transform: translate(803.9px, 16.9px); color: var(--rgb758599rgb229231235);"><svg viewBox="0 0 24 24" role="presentation" class=" f-0 " style="width: 22px; height: 22px; transform: scale(1.1);" width="22" height="22"><path d="M20 2H4C2.9 2 2 2.9 2 4V22L6 18H20C21.1 18 22 17.1 22 16V4C22 2.9 21.1 2 20 2M20 16H5.2L4 17.2V4H20V16M18 14V6H13V14L15.5 12.5L18 14" style="fill: currentcolor;"/></svg></g><g data-selector="svg.[object SVGAnimatedString]" role="presentation" style="clip-path: inset(16.9px 71.9px 858.9px 803.9px) view-box;"><rect x="803.9" y="16.9" width="24.2" height="24.2" fill="transparent"/></g></g></g><g data-selector="a. f-0 flex-row gap-p5 ai-center button-css btn btn-faded btn-size-default btn-color-default ws-nowrap w-fit" data-command="dashboard.goToConnections" style="clip-path: inset(8px 7px 850px 851px round 6px) view-box;"><rect x="852" y="9" width="40" height="40" rx="6" ry="6" fill="var(--rgba125125125022rgba125125125038)" stroke-width="1px" stroke="rgba(0, 0, 0, 0)" style="animation: 0s ease 0s 1 normal none running none;"/><g style="transform: translate(859.9px, 16.9px); color: var(--rgb758599rgb229231235);"><svg viewBox="0 0 24 24" role="presentation" class=" f-0 " style="width: 22px; height: 22px; transform: scale(1.1);" width="22" height="22"><path d="M20,11V13H8L13.5,18.5L12.08,19.92L4.16,12L12.08,4.08L13.5,5.5L8,11H20Z" style="fill: currentcolor;"/></svg></g><g data-selector="svg.[object SVGAnimatedString]" role="presentation" style="clip-path: inset(16.9px 15.9px 858.9px 859.9px) view-box;"><rect x="859.9" y="16.9" width="24.2" height="24.2" fill="transparent"/></g></g></g></g></g></g></g></g></g><style xmlns="http://www.w3.org/1999/xhtml" type="text/css">:root #id-e85a37d2 { 
  --dark-theme-hide: 1;
  --light-theme-hide: 0;
  --rgb244245247rgb262525: rgb(244, 245, 247); 
  --rgb244245247rgb363636: rgb(244, 245, 247); 
  --rgb255255255rgb444444: rgb(255, 255, 255); 
  --rgb255255255rgb363636: rgb(255, 255, 255); 
  --rgb255255255rgb255255255: rgb(255, 255, 255); 
  --rgb255255255rgb282828: rgb(255, 255, 255); 
  --rgb223046rgb244245247: rgb(22, 30, 46); 
  --fontFamily-3551640753: -apple-system, BlinkMacSystemFont, "Segoe UI", Roboto, Oxygen, Ubuntu, Cantarell, "Fira Sans", "Droid Sans", "Helvetica Neue", sans-serif; 
  --rgb758599rgb180180180: rgb(75, 85, 99); 
  --rgb758599rgb229231235: rgb(75, 85, 99); 
  --rgb210214220rgb777777: rgb(210, 214, 220); 
  --rgb210214220rgb107114128: rgb(210, 214, 220); 
  --rgb210214220rgb758599: rgb(210, 214, 220); 
  --rgb1145919rgb218187140: rgb(114, 59, 19); 
  --rgb00238rgb135206250: rgb(0, 0, 238); 
  --rgb63131248rgb48121197: rgb(63, 131, 248); 
  --rgb63131248rgb255255255: rgb(63, 131, 248); 
  --rgb63131248rgb91164255: rgb(63, 131, 248); 
  --rgb225239254rgba07916308: rgb(225, 239, 254); 
  --rgb225239254rgba36101212039: rgb(225, 239, 254); 
  --rgba125125125022rgba125125125038: rgba(125, 125, 125, 0.22); 
  --rgb159166178rgb159166178: rgb(159, 166, 178); 
  --shadow-1995758748: drop-shadow(rgba(0, 0, 0, 0.1) 0px 1px 1.5px) drop-shadow(rgba(0, 0, 0, 0.06) 0px 1px 1px); 
  --rgb253232232rgba8900023: rgb(253, 232, 232); 
  --rgb2003030rgb2359393: rgb(200, 30, 30); 
  --rgb249250251rgb333333: rgb(249, 250, 251); 
  --rgb240254255rgb03755: rgb(240, 254, 255); 
}
@media (prefers-color-scheme: dark) { 
 :root #id-e85a37d2  { 
  --dark-theme-hide: 0;
  --light-theme-hide: 1;
  --rgb244245247rgb262525: rgb(26, 25, 25); 
  --rgb244245247rgb363636: rgb(36, 36, 36); 
  --rgb255255255rgb444444: rgb(44, 44, 44); 
  --rgb255255255rgb363636: rgb(36, 36, 36); 
  --rgb255255255rgb282828: rgb(28, 28, 28); 
  --rgb223046rgb244245247: rgb(244, 245, 247); 
  --rgb758599rgb180180180: rgb(180, 180, 180); 
  --rgb758599rgb229231235: rgb(229, 231, 235); 
  --rgb210214220rgb777777: rgb(77, 77, 77); 
  --rgb210214220rgb107114128: rgb(107, 114, 128); 
  --rgb210214220rgb758599: rgb(75, 85, 99); 
  --rgb1145919rgb218187140: rgb(218, 187, 140); 
  --rgb00238rgb135206250: rgb(135, 206, 250); 
  --rgb63131248rgb48121197: rgb(48, 121, 197); 
  --rgb63131248rgb255255255: rgb(255, 255, 255); 
  --rgb63131248rgb91164255: rgb(91, 164, 255); 
  --rgb225239254rgba07916308: rgba(0, 79, 163, 0.8); 
  --rgb225239254rgba36101212039: rgba(36, 101, 212, 0.39); 
  --rgba125125125022rgba125125125038: rgba(125, 125, 125, 0.38); 
  --shadow-1995758748: drop-shadow(rgba(255, 255, 255, 0.075) 0px 0px 0.3px) drop-shadow(rgba(0, 0, 0, 0.02) 0px 0.3px 0.2px) drop-shadow(rgba(0, 0, 0, 0.043) 0px 0.9px 0.8px) drop-shadow(rgba(0, 0, 0, 0.09) 0px 3.5px 3px); 
  --rgb253232232rgba8900023: rgba(89, 0, 0, 0.23); 
  --rgb2003030rgb2359393: rgb(235, 93, 93); 
  --rgb249250251rgb333333: rgb(33, 33, 33); 
  --rgb240254255rgb03755: rgb(0, 37, 55); 
  }
} 
</style></svg>