<svg xmlns="http://www.w3.org/2000/svg" width="100%" height="100%" viewBox="0 0 900 600" preserveAspectRatio="xMidYMid meet"><defs><mask id="mask-0" maskUnits="userSpaceOnUse" maskContentUnits="userSpaceOnUse"><rect x="165.3125" y="101" width="569.375" height="414" fill="url(#mask-gradient-toTop-1)"/></mask><linearGradient id="mask-gradient-toTop-1" x1="0%" y1="100%" x2="0%" y2="0%"><stop offset="0%" stop-color="white" stop-opacity="0.1"/><stop offset="9.66183574879227%" stop-color="white" stop-opacity="0.9"/><stop offset="19.32367149758454%" stop-color="white" stop-opacity="1"/><stop offset="100%" stop-color="white" stop-opacity="1"/></linearGradient><style type="text/css"/></defs><g data-selector="body.text-0 bg-color-2" clip-path="url(#clip-of-10)"><path d="M0,0 H900 V600 H0 V0 Z" fill="var(--color-0)"/><g data-selector="main."><g data-selector="div.App gap-0 f-1 min-h-0 FlexCol flex-col"><g data-selector="div.min-h-0  mx-auto  FlexCol flex-col gap-1" data-command="NewConnectionForm"><path d="M136.31,0 H763.69 V600 H136.31 V0 Z" fill="none"/><g data-selector="a.p-1 text-1 round flex-row ai-center"><g style="transform: translate(152.31px, 16px); color: var(--color-1);"><svg viewBox="0 0 24 24" role="presentation" style="width: 1.5rem; height: 1.5rem;" width="24" height="24"><path d="M20,11V13H8L13.5,18.5L12.08,19.92L4.16,12L12.08,4.08L13.5,5.5L8,11H20Z" style="fill: currentcolor;"/></svg></g><g data-selector="div.ml-p5"><text x="184.31" y="33" fill="var(--color-1)" font-family="var(--fontFamily-2)" font-size="16px" font-weight="400" font-style="normal" letter-spacing="normal" text-decoration="none solid rgb(75, 85, 99)" text-anchor="start" style="line-height: normal; white-space: normal; text-transform: none;">Connections</text></g></g><g data-selector="div.flex-col bg-color-0  min-h-0  card p-1 "><path d="M144.81,72.5 H755.19 A8,8 0 0 1 763.19,80.5 V591.5 A8,8 0 0 1 755.19,599.5 H144.81 A8,8 0 0 1 136.81,591.5 V80.5 A8,8 0 0 1 144.81,72.5 Z" fill="var(--color-3)" stroke-width="1px" stroke="var(--color-4)" style="filter: var(--shadow-5);"/><g data-selector="div.flex-col gap-1 f-1 o-auto min-h-0 p-p25 no-scroll-bar ScrollFade" mask="url(#mask-0)" clip-path="url(#clip-of-9)"><path d="M165.31,101 H734.69 V515 H165.31 V101 Z" fill="none"/><g data-selector="h2.m-0 p-0 mb-1"><text x="169.31" y="127" fill="var(--color-6)" font-family="var(--fontFamily-2)" font-size="24px" font-weight="700" font-style="normal" letter-spacing="normal" text-decoration="none solid rgb(22, 30, 46)" text-anchor="start" style="line-height: normal; white-space: normal; text-transform: none;">Add connection</text></g><g data-selector="div.PopupMenu_triggerWrapper h-fit w-fit " data-command="PostgresInstallationInstructions"><path d="M169.31,173 H353.55 V213 H169.31 V173 Z" fill="none"/><g data-selector="button. f-0 flex-row gap-p5 ai-center b rounded btn btn-outline btn-size-default btn-color-action ws-nowrap w-fit"><path d="M177.81,173.5 H345.05 A8,8 0 0 1 353.05,181.5 V204.5 A8,8 0 0 1 345.05,212.5 H177.81 A8,8 0 0 1 169.81,204.5 V181.5 A8,8 0 0 1 177.81,173.5 Z" fill="var(--color-3)" stroke-width="1px" stroke="var(--color-7)"/><text x="212.31" y="198" fill="rgb(71, 157, 255)" font-family="var(--fontFamily-2)" font-size="16px" font-weight="500" font-style="normal" letter-spacing="normal" text-decoration="none solid rgb(71, 157, 255)" text-anchor="start" style="line-height: 16px; white-space: pre; text-transform: none;">Installation steps</text><g style="transform: translate(181.21px, 180.9px); color: var(--color-8);"><svg viewBox="0 0 24 24" role="presentation" class=" f-0 " style="width: 22px; height: 22px; transform: scale(1.1);" width="22" height="22"><path d="M13.5,4A1.5,1.5 0 0,0 12,5.5A1.5,1.5 0 0,0 13.5,7A1.5,1.5 0 0,0 15,5.5A1.5,1.5 0 0,0 13.5,4M13.14,8.77C11.95,8.87 8.7,11.46 8.7,11.46C8.5,11.61 8.56,11.6 8.72,11.88C8.88,12.15 8.86,12.17 9.05,12.04C9.25,11.91 9.58,11.7 10.13,11.36C12.25,10 10.47,13.14 9.56,18.43C9.2,21.05 11.56,19.7 12.17,19.3C12.77,18.91 14.38,17.8 14.54,17.69C14.76,17.54 14.6,17.42 14.43,17.17C14.31,17 14.19,17.12 14.19,17.12C13.54,17.55 12.35,18.45 12.19,17.88C12,17.31 13.22,13.4 13.89,10.71C14,10.07 14.3,8.67 13.14,8.77Z" style="fill: currentcolor;"/></svg></g></g></g><g data-selector="div.form-field trigger-hover flex-row min-w-0    " data-command="NewConnectionForm.connectionName" data-label="Connection name"><path d="M169.31,229 H730.69 V323 H169.31 V229 Z" fill="none"/><g data-selector="div.form-field__hint-wrapper trigger-hover flex-col gap-p5 min-w-0"><g data-selector="label.main-label ta-left noselect text-1 flex-row  pointer "><text x="169.31" y="243" fill="var(--color-1)" font-family="var(--fontFamily-2)" font-size="16px" font-weight="400" font-style="normal" letter-spacing="normal" text-decoration="none solid rgb(75, 85, 99)" text-anchor="start" style="line-height: normal; white-space: normal; text-transform: none;">Connection name</text></g><g data-selector="div.form-field__right-content-wrapper flex-row f-0 ai-center min-w-0 gap-p25 "><g data-selector="div.form-field__error-wrapper flex-col gap-p5 min-w-0 f-1"><g data-selector="div. w-full input-wrapper h-fit flex-row relative f-0 focus-border" clip-path="url(#clip-of-3)"><path d="M177.81,255.5 H560.81 A8,8 0 0 1 568.81,263.5 V290.5 A8,8 0 0 1 560.81,298.5 H177.81 A8,8 0 0 1 169.81,290.5 V263.5 A8,8 0 0 1 177.81,255.5 Z" fill="none" stroke-width="1px" stroke="var(--color-9)"/><g data-selector="input. font-semibold formfield-bg-color  " clip-path="url(#clip-of-2)"><path d="M170.31,256 H568.31 V298 H170.31 V256 Z" fill="var(--color-10)"/><clipPath id="clip-of-2"><path d="M178.31,256 H560.31 A8,8 0 0 1 568.31,264 V290 A8,8 0 0 1 560.31,298 H178.31 A8,8 0 0 1 170.31,290 V264 A8,8 0 0 1 178.31,256 Z" fill="none" stroke="none"/></clipPath></g><clipPath id="clip-of-3"><path d="M176.81,254.5 H561.81 A8,8 0 0 1 569.81,262.5 V291.5 A8,8 0 0 1 561.81,299.5 H176.81 A8,8 0 0 1 168.81,291.5 V262.5 A8,8 0 0 1 176.81,254.5 Z" fill="none" stroke="none"/></clipPath></g></g></g><g data-selector="p.ta-left text-2 m-0 text-sm noselect ws-pre-line"><text x="169.31" y="319" fill="rgb(159, 166, 178)" font-family="var(--fontFamily-2)" font-size="14px" font-weight="400" font-style="normal" letter-spacing="normal" text-decoration="none solid rgb(159, 166, 178)" text-anchor="start" style="line-height: normal; white-space: pre-line; text-transform: none;">Optional</text></g></g></g><g data-selector="div. FlexCol flex-col gap-1" data-command="NewConnectionForm.connectionType"><path d="M169.31,339 H730.69 V407 H169.31 V339 Z" fill="none"/><g data-selector="label. Label variant:normal relative noselect flex-row ai-center gap-p25 w-fit"><text x="169.31" y="353" fill="var(--color-1)" font-family="var(--fontFamily-2)" font-size="16px" font-weight="400" font-style="normal" letter-spacing="normal" text-decoration="none solid rgb(75, 85, 99)" text-anchor="start" style="line-height: normal; white-space: normal; text-transform: none;">Connection type</text></g><g data-selector="div.bbutton-group flex-row o-auto  rounded-md w-fit " clip-path="url(#clip-of-4)"><g data-selector="button. f-0 flex-row gap-p5 ai-center rounded btn btn-filled btn-size-default btn-color-action ws-nowrap w-fit" data-key="Standard"><path d="M175.31,365 H266.61 V407 H175.31 A6,6 0 0 1 169.31,401 V371 A6,6 0 0 1 175.31,365 Z" fill="var(--color-11)" stroke-width="1px" stroke="rgba(0, 0, 0, 0)"/><text x="184.31" y="391" fill="rgb(255, 255, 255)" font-family="var(--fontFamily-2)" font-size="16px" font-weight="500" font-style="normal" letter-spacing="normal" text-decoration="none solid rgb(255, 255, 255)" text-anchor="start" style="line-height: 16px; white-space: nowrap; text-transform: none;">Standard</text></g><g data-selector="button. f-0 flex-row gap-p5 ai-center b bg-color-0 rounded btn btn-outline btn-size-default btn-color-action ws-nowrap w-fit" data-key="Connection URI"><path d="M266.11,365.5 H404.02 A6,6 0 0 1 410.02,371.5 V400.5 A6,6 0 0 1 404.02,406.5 H266.11 V365.5 Z" fill="var(--color-3)" stroke-width="1px" stroke="rgb(71, 157, 255)"/><text x="280.61" y="391" fill="rgb(71, 157, 255)" font-family="var(--fontFamily-2)" font-size="16px" font-weight="500" font-style="normal" letter-spacing="normal" text-decoration="none solid rgb(71, 157, 255)" text-anchor="start" style="line-height: 16px; white-space: nowrap; text-transform: none;">Connection URI</text></g><clipPath id="clip-of-4"><path d="M175.31,365 H404.52 A6,6 0 0 1 410.52,371 V401 A6,6 0 0 1 404.52,407 H175.31 A6,6 0 0 1 169.31,401 V371 A6,6 0 0 1 175.31,365 Z" fill="none" stroke="none"/></clipPath></g></g><g data-selector="div.form-field trigger-hover flex-row min-w-0    " data-command="NewConnectionForm.db_host" data-label="Host"><path d="M169.31,423 H730.69 V493 H169.31 V423 Z" fill="none"/><g data-selector="div.form-field__hint-wrapper trigger-hover flex-col gap-p5 min-w-0"><g data-selector="label.main-label ta-left noselect text-1 flex-row  pointer "><text x="169.31" y="437" fill="var(--color-1)" font-family="var(--fontFamily-2)" font-size="16px" font-weight="400" font-style="normal" letter-spacing="normal" text-decoration="none solid rgb(75, 85, 99)" text-anchor="start" style="line-height: normal; white-space: normal; text-transform: none;">Host</text></g><g data-selector="div.form-field__right-content-wrapper flex-row f-0 ai-center min-w-0 gap-p25 "><g data-selector="div.form-field__error-wrapper flex-col gap-p5 min-w-0 f-1"><g data-selector="div. w-full input-wrapper h-fit flex-row relative f-0 focus-border" clip-path="url(#clip-of-6)"><path d="M177.81,449.5 H560.81 A8,8 0 0 1 568.81,457.5 V484.5 A8,8 0 0 1 560.81,492.5 H177.81 A8,8 0 0 1 169.81,484.5 V457.5 A8,8 0 0 1 177.81,449.5 Z" fill="none" stroke-width="1px" stroke="var(--color-9)"/><g data-selector="input. font-semibold formfield-bg-color  " clip-path="url(#clip-of-5)"><path d="M170.31,450 H568.31 V492 H170.31 V450 Z" fill="var(--color-10)"/><clipPath id="clip-of-5"><path d="M178.31,450 H560.31 A8,8 0 0 1 568.31,458 V484 A8,8 0 0 1 560.31,492 H178.31 A8,8 0 0 1 170.31,484 V458 A8,8 0 0 1 178.31,450 Z" fill="none" stroke="none"/></clipPath></g><clipPath id="clip-of-6"><path d="M176.81,448.5 H561.81 A8,8 0 0 1 569.81,456.5 V485.5 A8,8 0 0 1 561.81,493.5 H176.81 A8,8 0 0 1 168.81,485.5 V456.5 A8,8 0 0 1 176.81,448.5 Z" fill="none" stroke="none"/></clipPath></g></g></g></g></g><g data-selector="div.form-field trigger-hover flex-row min-w-0    " data-command="NewConnectionForm.db_port" data-label="Port"><path d="M169.31,509 H730.69 V579 H169.31 V509 Z" fill="none"/><g data-selector="div.form-field__hint-wrapper trigger-hover flex-col gap-p5 min-w-0"><g data-selector="label.main-label ta-left noselect text-1 flex-row  pointer "><text x="169.31" y="523" fill="var(--color-1)" font-family="var(--fontFamily-2)" font-size="16px" font-weight="400" font-style="normal" letter-spacing="normal" text-decoration="none solid rgb(75, 85, 99)" text-anchor="start" style="line-height: normal; white-space: normal; text-transform: none;">Port</text></g><g data-selector="div.form-field__right-content-wrapper flex-row f-0 ai-center min-w-0 gap-p25 "><g data-selector="div.form-field__error-wrapper flex-col gap-p5 min-w-0 f-1"><g data-selector="div. w-full input-wrapper h-fit flex-row relative f-0 focus-border" clip-path="url(#clip-of-8)"><path d="M177.81,535.5 H560.81 A8,8 0 0 1 568.81,543.5 V570.5 A8,8 0 0 1 560.81,578.5 H177.81 A8,8 0 0 1 169.81,570.5 V543.5 A8,8 0 0 1 177.81,535.5 Z" fill="none" stroke-width="1px" stroke="var(--color-9)"/><g data-selector="input. font-semibold formfield-bg-color  " clip-path="url(#clip-of-7)"><path d="M170.31,536 H568.31 V578 H170.31 V536 Z" fill="var(--color-10)"/><text x="178.31" y="563" fill="var(--color-6)" font-family="Arial" font-size="16px" font-weight="600" font-style="normal" letter-spacing="normal" text-decoration="none solid rgb(22, 30, 46)" text-anchor="start" style="line-height: 16px; white-space: normal; text-transform: none;">5432</text><clipPath id="clip-of-7"><path d="M178.31,536 H560.31 A8,8 0 0 1 568.31,544 V570 A8,8 0 0 1 560.31,578 H178.31 A8,8 0 0 1 170.31,570 V544 A8,8 0 0 1 178.31,536 Z" fill="none" stroke="none"/></clipPath></g><clipPath id="clip-of-8"><path d="M176.81,534.5 H561.81 A8,8 0 0 1 569.81,542.5 V571.5 A8,8 0 0 1 561.81,579.5 H176.81 A8,8 0 0 1 168.81,571.5 V542.5 A8,8 0 0 1 176.81,534.5 Z" fill="none" stroke="none"/></clipPath></g></g></g></g></g><g data-selector="div.form-field trigger-hover flex-row min-w-0    " data-command="NewConnectionForm.db_user" data-label="User"><path d="M169.31,595 H730.69 V665 H169.31 V595 Z" fill="none"/><g data-selector="div.form-field__hint-wrapper trigger-hover flex-col gap-p5 min-w-0"><g data-selector="label.main-label ta-left noselect text-1 flex-row  pointer "><text x="169.31" y="609" fill="var(--color-1)" font-family="var(--fontFamily-2)" font-size="16px" font-weight="400" font-style="normal" letter-spacing="normal" text-decoration="none solid rgb(75, 85, 99)" text-anchor="start" style="line-height: normal; white-space: normal; text-transform: none;">User</text></g></g></g><g data-selector="button. flex-row  f-0 gap-p5 ai-center rounded btn btn-default btn-size-default btn-color-action ws-nowrap w-fit" data-command="NewConnectionForm.MoreOptionsToggle"><path d="M177.31,853 H316.8 A8,8 0 0 1 324.8,861 V885 A8,8 0 0 1 316.8,893 H177.31 A8,8 0 0 1 169.31,885 V861 A8,8 0 0 1 177.31,853 Z" fill="none" stroke-width="1px" stroke="rgba(0, 0, 0, 0)"/><text x="182.31" y="878" fill="var(--color-12)" font-family="var(--fontFamily-2)" font-size="16px" font-weight="500" font-style="normal" letter-spacing="normal" text-decoration="none solid rgb(63, 131, 248)" text-anchor="start" style="line-height: 16px; white-space: nowrap; text-transform: none;">More options</text><g style="transform: translate(288.7px, 860.9px); color: var(--color-12);"><svg viewBox="0 0 24 24" role="presentation" class=" f-0 " style="width: 22px; height: 22px; transform: scale(1.1);" width="22" height="22"><path d="M16,12A2,2 0 0,1 18,10A2,2 0 0,1 20,12A2,2 0 0,1 18,14A2,2 0 0,1 16,12M10,12A2,2 0 0,1 12,10A2,2 0 0,1 14,12A2,2 0 0,1 12,14A2,2 0 0,1 10,12M4,12A2,2 0 0,1 6,10A2,2 0 0,1 8,12A2,2 0 0,1 6,14A2,2 0 0,1 4,12Z" style="fill: currentcolor;"/></svg></g></g><clipPath id="clip-of-9"><path d="M165.31,101 H734.69 V515 H165.31 V101 Z" fill="none" stroke="none"/></clipPath></g><g data-selector="div.flex-row-wrap ai-center mt-1 gap-1 "><g data-selector="button.ml-auto w-fit f-0 flex-row gap-p5 ai-center rounded btn btn-filled btn-size-default btn-color-action ws-nowrap" data-command="Connection.edit.updateOrCreateConfirm"><path d="M632.66,527 H722.69 A8,8 0 0 1 730.69,535 V559 A8,8 0 0 1 722.69,567 H632.66 A8,8 0 0 1 624.66,559 V535 A8,8 0 0 1 632.66,527 Z" fill="var(--color-11)" stroke-width="1px" stroke="rgba(0, 0, 0, 0)"/><text x="667.66" y="552" fill="rgb(255, 255, 255)" font-family="var(--fontFamily-2)" font-size="16px" font-weight="500" font-style="normal" letter-spacing="normal" text-decoration="none solid rgb(255, 255, 255)" text-anchor="start" style="line-height: 16px; white-space: pre; text-transform: none;">Create</text><g style="transform: translate(636.56px, 534.9px); color: var(--color-13);"><svg viewBox="0 0 24 24" role="presentation" class=" f-0 " style="width: 22px; height: 22px; transform: scale(1.1);" width="22" height="22"><path d="M19,13H13V19H11V13H5V11H11V5H13V11H19V13Z" style="fill: currentcolor;"/></svg></g></g></g></g></g></g></g><clipPath id="clip-of-10"><path d="M0,0 H900 V600 H0 V0 Z" fill="none" stroke="none"/></clipPath></g><view id="NewConnectionForm" viewBox="126 -10 647 913"/><view id="PostgresInstallationInstructions" viewBox="159 163 204 60"/><view id="NewConnectionForm_connectionName" viewBox="159 218 581 115"/><view id="NewConnectionForm_connectionType" viewBox="159 328 581 89"/><view id="NewConnectionForm_db_host" viewBox="159 412 581 91"/><view id="NewConnectionForm_db_port" viewBox="159 498 581 91"/><view id="NewConnectionForm_db_user" viewBox="159 584 581 91"/><view id="NewConnectionForm_MoreOptionsToggle" viewBox="159 843 175 60"/><view id="Connection_edit_updateOrCreateConfirm" viewBox="615 517 126 60"/><style xmlns="http://www.w3.org/1999/xhtml" type="text/css">:root { 
  --dark-theme-hide: visible;
  --light-theme-hide: hidden;
  --color-0: rgb(244, 245, 247); 
  --color-1: rgb(75, 85, 99); 
  --fontFamily-2: -apple-system, BlinkMacSystemFont, "Segoe UI", Roboto, Oxygen, Ubuntu, Cantarell, "Fira Sans", "Droid Sans", "Helvetica Neue", sans-serif; 
  --color-3: rgb(255, 255, 255); 
  --color-10: rgb(255, 255, 255); 
  --color-13: rgb(255, 255, 255); 
  --color-4: rgb(210, 214, 220); 
  --color-9: rgb(210, 214, 220); 
  --shadow-5: drop-shadow(rgba(0, 0, 0, 0.1) 0px 1px 1.5px) drop-shadow(rgba(0, 0, 0, 0.06) 0px 1px 1px); 
  --color-6: rgb(22, 30, 46); 
  --color-7: rgb(63, 131, 248); 
  --color-11: rgb(63, 131, 248); 
  --color-12: rgb(63, 131, 248); 
  --color-8: rgb(71, 157, 255); 
}
@media (prefers-color-scheme: dark) { 
 :root  { 
  --dark-theme-hide: hidden;
  --light-theme-hide: visible;
  --color-0: rgb(36, 36, 36); 
  --color-1: rgb(180, 180, 180); 
  --color-3: rgb(44, 44, 44); 
  --color-10: rgb(36, 36, 36); 
  --color-4: rgb(75, 85, 99); 
  --color-9: rgb(77, 77, 77); 
  --shadow-5: drop-shadow(rgba(255, 255, 255, 0.075) 0px 0px 0.3px) drop-shadow(rgba(0, 0, 0, 0.05) 0px 0px 0px) drop-shadow(rgba(0, 0, 0, 0.02) 0px 0.3px 0.2px) drop-shadow(rgba(0, 0, 0, 0.043) 0px 0.9px 0.8px) drop-shadow(rgba(0, 0, 0, 0.09) 0px 3.5px 3px); 
  --color-6: rgb(244, 245, 247); 
  --color-7: rgb(82, 146, 215); 
  --color-11: rgb(48, 121, 197); 
  --color-12: rgb(91, 164, 255); 
  }
} 
</style></svg>