<svg xmlns="http://www.w3.org/2000/svg" width="900" height="900" viewBox="0 0 900 900"><defs><style type="text/css"/></defs><g data-selector="body.text-0 bg-color-2" style="clip-path: inset(0px) view-box;" id="id-4761e287"><path d="M0,0 H900 V900 H0 V0 Z" fill="var(--rgb244245247rgb262525)"/><g data-selector="main."><g data-selector="div.App gap-0 f-1 min-h-0 FlexCol flex-col"><g data-selector="div.Project f-1 flex-col h-full w-full min-h-0 min-w-0 relative bg-color-4"><path d="M0,0 H900 V900 H0 V0 Z" fill="var(--rgb210214220rgb000)"/><g data-selector="div.f-1 w-full h-full flex-col"><g data-selector="div.Dashboard gap-0 f-1 min-w-0 min-h-0 w-full  FlexCol flex-col"><g data-selector="div.TopHeader f-0 flex-row  min-h-0 min-w-0 o-hidden" style="clip-path: inset(0px 0px 839px) view-box;"><g data-selector="div.TopControls w-full bg-color-0 jc-center shadow FlexRow flex-row gap-1 ai-center"><path d="M0,0 H900 V61 H0 V0 Z" fill="var(--rgb255255255rgb444444)" style="filter: drop-shadow(rgba(0, 0, 0, 0.1) 0px 1px 1.5px) drop-shadow(rgba(0, 0, 0, 0.06) 0px 1px 1px);"/><g data-selector="div.max-w-fit f-1 ai-center  p-p5  FlexRow flex-row gap-1"><g data-selector="button. f-0 flex-row gap-p5 ai-center rounded btn btn-default btn-size-default btn-color-default ws-nowrap w-fit" data-command="dashboard.menu"><path d="M12.5,10 H45.5 A4,4 0 0 1 49.5,14 V47 A4,4 0 0 1 45.5,51 H12.5 A4,4 0 0 1 8.5,47 V14 A4,4 0 0 1 12.5,10 Z" fill="var(--rgb240254255rgb03755)" stroke-width="1px" stroke="rgb(58, 216, 227)"/><svg xmlns:dc="http://purl.org/dc/elements/1.1/" xmlns:cc="http://creativecommons.org/ns#" xmlns:rdf="http://www.w3.org/1999/02/22-rdf-syntax-ns#" xmlns:svg="http://www.w3.org/2000/svg" xmlns="http://www.w3.org/2000/svg" id="svg8" version="1.1" viewBox="0 0 9.5249998 9.5250003" height="36" width="36" x="11" y="12.5">
  <style>
    @media (prefers-color-scheme: dark) {
      <!-- #path3881-head {
        fill: green !important;
      }
  
      #path3887-eye {
        fill: #ff0000 !important;
      }       -->
    }
  </style>
  <g transform="translate(0,-287.47498)" id="layer1">
    <path style="fill:#0087ab;stroke-width:0.10478402" id="path3881-head" d="m 6.5209966,295.25712 c 0.2175402,-0.46431 1.6420322,-2.2511 1.3456182,-4.2915 -0.085217,-0.58659 -2.1619067,-1.59449 -2.2268491,-1.64218 -0.01022,-0.008 -0.1325362,-0.0996 -0.1694292,-0.13795 -0.197562,-0.2055 -0.499117,-0.62298 -0.8304557,-0.82041 -0.1525898,-0.0909 -0.7394033,-0.0609 -1.0268278,0.11432 l -1.879837,1.08657 c -0.4703536,0.4665 0.1139504,1.07392 0.2268207,1.30469 0.1128704,0.23077 0.803662,0.95627 0.803662,0.95627 v 0 c -0.1433145,0.0653 -0.3911698,-0.0575 -0.6915708,-0.27496 0,0 -0.8432496,-0.80366 -0.8823501,-0.87005 -0.039101,-0.0664 -0.1564018,-0.20484 -0.23460266,-0.47082 0,0 -0.0384912,-0.0917 -0.0544209,-0.51555 -0.0159297,-0.42388 0.69813926,-0.64516 0.80535536,-0.72619 0.107216,-0.081 1.4441719,-0.86378 1.8275182,-1.11029 0.3833462,-0.24651 0.8880668,-0.20266 1.1387453,-0.0444 l 2.8538119,1.69411 c 0.2716598,0.15804 1.3866918,1.14066 1.421482,1.86382 0.081505,1.69417 -1.2190224,2.93746 -1.8472163,4.27428 -0.6281939,1.33683 1.1838142,0.58699 1.2737198,0.43944 l 0.259057,0.27303 c -0.8972105,0.56378 -1.9304095,0.39775 -2.0611443,0.33679 -0.1307347,-0.0609 -0.2768897,-0.88205 -0.051087,-1.439 z"/>
    <path style="fill: #bc0000;fill-opacity:1;fill-rule:evenodd;stroke-width:0.07858816;stroke-miterlimit:4;stroke-dasharray:none;stroke-opacity:0.60294118;" id="path3887-eye" d="m 6.2908378,290.63597 c 0.030281,-0.0145 0.067771,-0.0145 0.09805,0 0.9624569,0.37529 0.8624334,0.39198 0.8624334,1.21858 0,0.0285 -0.018608,0.0549 -0.049026,0.0694 -0.9558494,-0.4203 -0.9974496,-0.45611 -0.9114585,-1.28795 z"/>
  </g>
</svg></g><g data-selector="div.h-full flex-col gap-p25 ai-start "><g data-selector="a.ConnectionConfigBtn f-0 flex-row gap-p5 ai-center button-css btn btn-faded btn-size-default btn-color-default ws-nowrap w-fit" data-command="dashboard.goToConnConfig" style="clip-path: inset(9.5px 793px 848.5px 65px round 6px) view-box;"><path d="M72,10.5 H100 A6,6 0 0 1 106,16.5 V44.5 A6,6 0 0 1 100,50.5 H72 A6,6 0 0 1 66,44.5 V16.5 A6,6 0 0 1 72,10.5 Z" fill="var(--rgba125125125022rgba125125125038)" stroke-width="1px" stroke="rgba(0, 0, 0, 0)"/><g style="transform: translate(73.9px, 18.4px); color: var(--rgb758599rgb229231235);"><svg viewBox="0 0 24 24" role="presentation" class=" f-0 " style="width: 22px; height: 22px; transform: scale(1.1);" width="22" height="22"><path d="M4 7C4 4.79 7.58 3 12 3S20 4.79 20 7 16.42 11 12 11 4 9.21 4 7M12.08 18L12 18C7.58 18 4 16.21 4 14V17C4 19.21 7.58 21 12 21C12.1 21 12.2 21 12.29 21C12.11 20.36 12 19.69 12 19C12 18.66 12.03 18.33 12.08 18M20 12.08C20 12.05 20 12.03 20 12V9C20 11.21 16.42 13 12 13S4 11.21 4 9V12C4 14.21 7.58 16 12 16C12.23 16 12.46 16 12.69 16C13.82 13.63 16.22 12 19 12C19.34 12 19.67 12.03 20 12.08M23.8 20.4C23.9 20.4 23.9 20.5 23.8 20.6L22.8 22.3C22.7 22.4 22.6 22.4 22.5 22.4L21.3 22C21 22.2 20.8 22.3 20.5 22.5L20.3 23.8C20.3 23.9 20.2 24 20.1 24H18.1C18 24 17.9 23.9 17.8 23.8L17.6 22.5C17.3 22.4 17 22.2 16.8 22L15.6 22.5C15.5 22.5 15.4 22.5 15.3 22.4L14.3 20.7C14.2 20.6 14.3 20.5 14.4 20.4L15.5 19.6V18.6L14.4 17.8C14.3 17.7 14.3 17.6 14.3 17.5L15.3 15.8C15.4 15.7 15.5 15.7 15.6 15.7L16.8 16.2C17.1 16 17.3 15.9 17.6 15.7L17.8 14.4C17.8 14.3 17.9 14.2 18.1 14.2H20.1C20.2 14.2 20.3 14.3 20.3 14.4L20.5 15.7C20.8 15.8 21.1 16 21.4 16.2L22.6 15.7C22.7 15.7 22.9 15.7 22.9 15.8L23.9 17.5C24 17.6 23.9 17.7 23.8 17.8L22.7 18.6V19.6L23.8 20.4M20.5 19C20.5 18.2 19.8 17.5 19 17.5S17.5 18.2 17.5 19 18.2 20.5 19 20.5 20.5 19.8 20.5 19Z" style="fill: currentcolor;"/></svg></g></g></g><g data-selector="button. Select w-fit f-0 select-button flex-row gap-p5 ai-center rounded btn btn-faded btn-size-default btn-color-default ws-nowrap" data-command="ConnectionSelector"><path d="M130,10.5 H273.16 A8,8 0 0 1 281.16,18.5 V42.5 A8,8 0 0 1 273.16,50.5 H130 A8,8 0 0 1 122,42.5 V18.5 A8,8 0 0 1 130,10.5 Z" fill="var(--rgba125125125022rgba125125125038)" stroke-width="1px" stroke="rgba(0, 0, 0, 0)"/><g style="transform: translate(133.9px, 18.4px); color: var(--rgb758599rgb229231235);"><svg viewBox="0 0 24 24" role="presentation" class=" f-0 " style="width: 22px; height: 22px; transform: scale(1.1);" width="22" height="22"><path d="M12,3C7.58,3 4,4.79 4,7C4,9.21 7.58,11 12,11C16.42,11 20,9.21 20,7C20,4.79 16.42,3 12,3M4,9V12C4,14.21 7.58,16 12,16C16.42,16 20,14.21 20,12V9C20,11.21 16.42,13 12,13C7.58,13 4,11.21 4,9M4,14V17C4,19.21 7.58,21 12,21C16.42,21 20,19.21 20,17V14C20,16.21 16.42,18 12,18C7.58,18 4,16.21 4,14Z" style="fill: currentcolor;"/></svg></g><g data-selector="div. text-ellipsis text-color-0" style="clip-path: inset(21.5px 631.844px 860.5px 165px) view-box;"><text x="165" y="35.5" fill="var(--rgb758599rgb229231235)" font-family="var(--applesystemBlinkMacSystemFontSegoeUIRobotoOxygenUbuntuCantarellFiraSansDroidSansHelveticaNeuesansserifapplesystemBlinkMacSystemFontSegoeUIRobotoOxygenUbuntuCantarellFiraSansDroidSansHelveticaNeuesansserif)" font-size="16px" font-weight="500" font-style="normal" letter-spacing="normal" text-decoration="none" text-anchor="start" style="line-height: 18px; white-space: nowrap; text-transform: none;">food_delivery</text></g></g></g><g data-selector="div. WorkspaceMenu as-end jc-center text-white ai-center f-1 min-w-0 o-auto h-fit FlexRow flex-row gap-1" style="clip-path: inset(0px 184px 839px 305.156px) view-box;"><g data-selector="ul.no-decor o-auto f-1 min-w-0 max-w-fit flex-row no-scroll-bar ai-end" data-command="WorkspaceMenu.list" style="clip-path: inset(0px 365.586px 839px 305.156px) view-box;"><path d="M305.16,0 H534.41 V61 H305.16 V0 Z" fill="none"/><g data-selector="li.workspace-list-item text-1 relative flex-row "><g data-selector="button. f-0 flex-row gap-p5 ai-center rounded btn btn-default btn-size-default btn-color-default ws-nowrap w-fit"><line x1="305.15625" y1="8.5" x2="375.625" y2="8.5" stroke="rgba(0, 0, 0, 0)" stroke-width="1"/><line x1="375.125" y1="8" x2="375.125" y2="61" stroke="rgba(0, 0, 0, 0)" stroke-width="1"/><line x1="305.15625" y1="59" x2="375.625" y2="59" stroke="rgba(0, 0, 0, 0)" stroke-width="4"/><line x1="305.65625" y1="8" x2="305.65625" y2="61" stroke="rgba(0, 0, 0, 0)" stroke-width="1"/><text x="322.16" y="38" fill="var(--rgb758599rgb229231235)" font-family="var(--applesystemBlinkMacSystemFontSegoeUIRobotoOxygenUbuntuCantarellFiraSansDroidSansHelveticaNeuesansserifapplesystemBlinkMacSystemFontSegoeUIRobotoOxygenUbuntuCantarellFiraSansDroidSansHelveticaNeuesansserif)" font-size="16px" font-weight="500" font-style="normal" letter-spacing="normal" text-decoration="none" text-anchor="start" style="line-height: 16px; white-space: nowrap; text-transform: none;">Main</text><path d="M305.16,8 H375.63 V61 H305.16 V8 Z" fill="none" stroke="none"/></g></g><g data-selector="li.workspace-list-item text-1 relative flex-row active"><g data-selector="button. f-0 flex-row gap-p5 ai-center rounded btn btn-default btn-size-default btn-color-default ws-nowrap w-fit"><line x1="375.625" y1="8.5" x2="499.8671875" y2="8.5" stroke="rgba(0, 0, 0, 0)" stroke-width="1"/><line x1="499.3671875" y1="8" x2="499.3671875" y2="61" stroke="rgba(0, 0, 0, 0)" stroke-width="1"/><line x1="375.625" y1="59" x2="499.8671875" y2="59" stroke="rgb(0, 161, 255)" stroke-width="4"/><line x1="376.125" y1="8" x2="376.125" y2="61" stroke="rgba(0, 0, 0, 0)" stroke-width="1"/><text x="392.63" y="38" fill="var(--rgb758599rgb229231235)" font-family="var(--applesystemBlinkMacSystemFontSegoeUIRobotoOxygenUbuntuCantarellFiraSansDroidSansHelveticaNeuesansserifapplesystemBlinkMacSystemFontSegoeUIRobotoOxygenUbuntuCantarellFiraSansDroidSansHelveticaNeuesansserif)" font-size="16px" font-weight="600" font-style="normal" letter-spacing="normal" text-decoration="none" text-anchor="start" style="line-height: 16px; white-space: nowrap; text-transform: none;">Main (Copy)</text><path d="M375.63,8 H499.87 V61 H375.63 V8 Z" fill="none" stroke="none"/></g></g><g data-selector="li.workspace-list-item text-1 relative flex-row "><g data-selector="button. f-0 flex-row gap-p5 ai-center rounded btn btn-default btn-size-default btn-color-default ws-nowrap w-fit"><line x1="499.8671875" y1="0.5" x2="711.8046875" y2="0.5" stroke="rgba(0, 0, 0, 0)" stroke-width="1"/><line x1="711.3046875" y1="0" x2="711.3046875" y2="61" stroke="rgba(0, 0, 0, 0)" stroke-width="1"/><line x1="499.8671875" y1="59" x2="711.8046875" y2="59" stroke="rgba(0, 0, 0, 0)" stroke-width="4"/><line x1="500.3671875" y1="0" x2="500.3671875" y2="61" stroke="rgba(0, 0, 0, 0)" stroke-width="1"/><text x="548.87" y="34" fill="var(--rgb758599rgb229231235)" font-family="var(--applesystemBlinkMacSystemFontSegoeUIRobotoOxygenUbuntuCantarellFiraSansDroidSansHelveticaNeuesansserifapplesystemBlinkMacSystemFontSegoeUIRobotoOxygenUbuntuCantarellFiraSansDroidSansHelveticaNeuesansserif)" font-size="16px" font-weight="500" font-style="normal" letter-spacing="normal" text-decoration="none" text-anchor="start" style="line-height: 16px; white-space: nowrap; text-transform: none;">Order Management</text><g data-selector="div."><g style="transform: translate(516.87px, 17px); color: var(--rgb758599rgb229231235);"><svg xmlns="http://www.w3.org/2000/svg" viewBox="0 0 24 24" role="presentation" width="24" height="24">
      <path d="M19 3H14.82C14.4 1.84 13.3 1 12 1S9.6 1.84 9.18 3H5C3.9 3 3 3.9 3 5V19C3 20.1 3.9 21 5 21H19C20.1 21 21 20.1 21 19V5C21 3.9 20.1 3 19 3M7 8H9V12H8V9H7V8M10 17V18H7V17.08L9 15H7V14H9.25C9.66 14 10 14.34 10 14.75C10 14.95 9.92 15.14 9.79 15.27L8.12 17H10M11 4C11 3.45 11.45 3 12 3S13 3.45 13 4 12.55 5 12 5 11 4.55 11 4M17 17H12V15H17V17M17 11H12V9H17V11Z" style="fill:currentcolor"/>
    </svg></g></g><path d="M499.87,0 H711.8 V61 H499.87 V0 Z" fill="none" stroke="none"/></g></g></g><g data-selector="div. PopupMenu_triggerWrapper h-fit w-fit"><g data-selector="button.text-0 f-0 flex-row gap-p5 ai-center btn btn-default btn-size-default btn-color-default ws-nowrap w-fit" data-command="WorkspaceMenuDropDown"><g style="transform: translate(547.31px, 18.4px); color: var(--rgb758599rgb229231235);"><svg viewBox="0 0 24 24" role="presentation" class=" f-0 " style="width: 22px; height: 22px; transform: scale(1.1);" width="22" height="22"><path d="M7.41,8.58L12,13.17L16.59,8.58L18,10L12,16L6,10L7.41,8.58Z" style="fill: currentcolor;"/></svg></g><path d="M541.41,6.5 H577.41 A6,6 0 0 1 583.41,12.5 V48.5 A6,6 0 0 1 577.41,54.5 H541.41 A6,6 0 0 1 535.41,48.5 V12.5 A6,6 0 0 1 541.41,6.5 Z" fill="none" stroke-width="1px" stroke="rgba(0, 0, 0, 0)"/></g></g><g data-selector="button. f-0 flex-row gap-p5 ai-center rounded btn btn-faded btn-size-default btn-color-action ws-nowrap w-fit"><path d="M592.41,10.5 H708 A8,8 0 0 1 716,18.5 V42.5 A8,8 0 0 1 708,50.5 H592.41 A8,8 0 0 1 584.41,42.5 V18.5 A8,8 0 0 1 592.41,10.5 Z" fill="var(--rgb225239254rgba07916308)" stroke-width="1px" stroke="rgba(0, 0, 0, 0)"/><text x="627.41" y="35.5" fill="var(--rgb63131248rgb255255255)" font-family="var(--applesystemBlinkMacSystemFontSegoeUIRobotoOxygenUbuntuCantarellFiraSansDroidSansHelveticaNeuesansserifapplesystemBlinkMacSystemFontSegoeUIRobotoOxygenUbuntuCantarellFiraSansDroidSansHelveticaNeuesansserif)" font-size="16px" font-weight="500" font-style="normal" letter-spacing="normal" text-decoration="none" text-anchor="start" style="line-height: 16px; white-space: nowrap; text-transform: none;">Edit mode</text><g style="transform: translate(596.31px, 18.4px); color: var(--rgb63131248rgb255255255);"><svg viewBox="0 0 24 24" role="presentation" class=" f-0 " style="width: 22px; height: 22px; transform: scale(1.1);" width="22" height="22"><path d="M20.71,7.04C21.1,6.65 21.1,6 20.71,5.63L18.37,3.29C18,2.9 17.35,2.9 16.96,3.29L15.12,5.12L18.87,8.87M3,17.25V21H6.75L17.81,9.93L14.06,6.18L3,17.25Z" style="fill: currentcolor;"/></svg></g></g></g><g data-selector="div.ml-auto min-w-0 f-0 ai-start gap-1 text-1p5 w-fit ai-center noselect o-auto no-scroll-bar jc-end  p-p5  FlexRow flex-row" style="clip-path: inset(2.5px 0px 841.5px 732px) view-box;"><g data-selector="button. f-0 flex-row gap-p5 ai-center btn btn-faded btn-size-default btn-color-action ws-nowrap w-fit" data-command="AskLLM"><path d="M746,10.5 H774 A6,6 0 0 1 780,16.5 V44.5 A6,6 0 0 1 774,50.5 H746 A6,6 0 0 1 740,44.5 V16.5 A6,6 0 0 1 746,10.5 Z" fill="var(--rgb225239254rgba07916308)" stroke-width="1px" stroke="rgba(0, 0, 0, 0)"/><g style="transform: translate(747.9px, 18.4px); color: var(--rgb63131248rgb255255255);"><svg viewBox="0 0 24 24" role="presentation" class=" f-0 " style="width: 22px; height: 22px; transform: scale(1.1);" width="22" height="22"><path d="M19,2H5A2,2 0 0,0 3,4V18A2,2 0 0,0 5,20H9L12,23L15,20H19A2,2 0 0,0 21,18V4A2,2 0 0,0 19,2M13.88,12.88L12,17L10.12,12.88L6,11L10.12,9.12L12,5L13.88,9.12L18,11" style="fill: currentcolor;"/></svg></g></g><g data-selector="div. PopupMenu_triggerWrapper h-fit w-fit"><g data-selector="button. f-0 flex-row gap-p5 ai-center btn btn-faded btn-size-default btn-color-default ws-nowrap w-fit" data-command="Feedback"><path d="M802,10.5 H830 A6,6 0 0 1 836,16.5 V44.5 A6,6 0 0 1 830,50.5 H802 A6,6 0 0 1 796,44.5 V16.5 A6,6 0 0 1 802,10.5 Z" fill="var(--rgba125125125022rgba125125125038)" stroke-width="1px" stroke="rgba(0, 0, 0, 0)"/><g style="transform: translate(803.9px, 18.4px); color: var(--rgb758599rgb229231235);"><svg viewBox="0 0 24 24" role="presentation" class=" f-0 " style="width: 22px; height: 22px; transform: scale(1.1);" width="22" height="22"><path d="M20 2H4C2.9 2 2 2.9 2 4V22L6 18H20C21.1 18 22 17.1 22 16V4C22 2.9 21.1 2 20 2M20 16H5.2L4 17.2V4H20V16M18 14V6H13V14L15.5 12.5L18 14" style="fill: currentcolor;"/></svg></g></g></g><g data-selector="a. f-0 flex-row gap-p5 ai-center button-css btn btn-faded btn-size-default btn-color-default ws-nowrap w-fit active" data-command="dashboard.goToConnections" style="clip-path: inset(9.5px 7px 848.5px 851px round 6px) view-box;"><path d="M858,10.5 H886 A6,6 0 0 1 892,16.5 V44.5 A6,6 0 0 1 886,50.5 H858 A6,6 0 0 1 852,44.5 V16.5 A6,6 0 0 1 858,10.5 Z" fill="var(--rgba125125125022rgba125125125038)" stroke-width="1px" stroke="rgba(0, 0, 0, 0)"/><g style="transform: translate(859.9px, 18.4px); color: var(--rgb758599rgb229231235);"><svg viewBox="0 0 24 24" role="presentation" class=" f-0 " style="width: 22px; height: 22px; transform: scale(1.1);" width="22" height="22"><path d="M20,11V13H8L13.5,18.5L12.08,19.92L4.16,12L12.08,4.08L13.5,5.5L8,11H20Z" style="fill: currentcolor;"/></svg></g></g></g></g></g><g data-selector="div.Dashboard_Wrapper min-h-0 f-1 flex-row relative"><g data-selector="div.Dashboard_MainContentWrapper f-1 gap-0 relative ai-none jc-none FlexRow flex-row"><g data-selector="div.ViewRenderer min-h-0 f-1 flex-row relative"><g data-selector="div.absolute inset-0 jc-center ai-center FlexCol flex-col gap-1" style="opacity: var(--05);"><path d="M1,63 H899 V900 H1 V63 Z" fill="var(--rgb244245247rgb545762)"/><g data-selector="div.flex-col ai-start gap-p5  mt-1"><g data-selector="div. SectionHeader flex-row gap-1 ai-center font-16"><g style="transform: translate(308.42px, 404.5px); color: var(--rgb159166178rgb255255255);"><svg viewBox="0 0 24 24" role="presentation" style="width: 1.5rem; height: 1.5rem;" width="24" height="24"><path d="M19,10H17V8H19M19,13H17V11H19M16,10H14V8H16M16,13H14V11H16M16,17H8V15H16M7,10H5V8H7M7,13H5V11H7M8,11H10V13H8M8,8H10V10H8M11,11H13V13H11M11,8H13V10H11M20,5H4C2.89,5 2,5.89 2,7V17A2,2 0 0,0 4,19H20A2,2 0 0,0 22,17V7C22,5.89 21.1,5 20,5Z" style="fill: currentcolor;"/></svg></g><g data-selector="h4.m-0 p-0"><text x="348.42" y="421.25" fill="var(--rgb159166178rgb255255255)" font-family="var(--applesystemBlinkMacSystemFontSegoeUIRobotoOxygenUbuntuCantarellFiraSansDroidSansHelveticaNeuesansserifapplesystemBlinkMacSystemFontSegoeUIRobotoOxygenUbuntuCantarellFiraSansDroidSansHelveticaNeuesansserif)" font-size="16px" font-weight="700" font-style="normal" letter-spacing="normal" text-decoration="none" text-anchor="start" style="line-height: normal; white-space: normal; text-transform: none;">Hotkeys</text></g></g><g data-selector="div.flex-row-wrap ai-center gap-p5 noselect "><g data-selector="div.mr-p25"><text x="308.42" y="455.5" fill="var(--rgb159166178rgb255255255)" font-family="var(--applesystemBlinkMacSystemFontSegoeUIRobotoOxygenUbuntuCantarellFiraSansDroidSansHelveticaNeuesansserifapplesystemBlinkMacSystemFontSegoeUIRobotoOxygenUbuntuCantarellFiraSansDroidSansHelveticaNeuesansserif)" font-size="16px" font-weight="400" font-style="normal" letter-spacing="normal" text-decoration="none" text-anchor="start" style="line-height: normal; white-space: normal; text-transform: none;">Open Command Palette</text><text x="482.19" y="455.5" fill="var(--rgb159166178rgb255255255)" font-family="var(--applesystemBlinkMacSystemFontSegoeUIRobotoOxygenUbuntuCantarellFiraSansDroidSansHelveticaNeuesansserifapplesystemBlinkMacSystemFontSegoeUIRobotoOxygenUbuntuCantarellFiraSansDroidSansHelveticaNeuesansserif)" font-size="16px" font-weight="400" font-style="normal" letter-spacing="normal" text-decoration="none" text-anchor="start" style="line-height: normal; white-space: normal; text-transform: none;">:</text></g><g data-selector="div.flex-row ai-center gap-p25"><g data-selector="div.hotkey shadow"><path d="M504.63,437 H541.23 A6,6 0 0 1 547.23,443 V458.5 A6,6 0 0 1 541.23,464.5 H504.63 A6,6 0 0 1 498.63,458.5 V443 A6,6 0 0 1 504.63,437 Z" fill="var(--rgb229231235rgb000)" stroke-width="1px" stroke="rgb(210, 214, 220)" style="filter: drop-shadow(rgba(0, 0, 0, 0.1) 0px 1px 1.5px) drop-shadow(rgba(0, 0, 0, 0.06) 0px 1px 1px);"/><text x="504.13" y="455.5" fill="var(--rgb159166178rgb255255255)" font-family="var(--applesystemBlinkMacSystemFontSegoeUIRobotoOxygenUbuntuCantarellFiraSansDroidSansHelveticaNeuesansserifapplesystemBlinkMacSystemFontSegoeUIRobotoOxygenUbuntuCantarellFiraSansDroidSansHelveticaNeuesansserif)" font-size="16px" font-weight="400" font-style="normal" letter-spacing="normal" text-decoration="none" text-anchor="start" style="line-height: normal; white-space: normal; text-transform: uppercase;">ctrl</text></g><g data-selector="span."><text x="551.73" y="455.5" fill="var(--rgb159166178rgb255255255)" font-family="var(--applesystemBlinkMacSystemFontSegoeUIRobotoOxygenUbuntuCantarellFiraSansDroidSansHelveticaNeuesansserifapplesystemBlinkMacSystemFontSegoeUIRobotoOxygenUbuntuCantarellFiraSansDroidSansHelveticaNeuesansserif)" font-size="16px" font-weight="400" font-style="normal" letter-spacing="normal" text-decoration="none" text-anchor="start" style="line-height: normal; white-space: normal; text-transform: none;">+</text></g><g data-selector="div.hotkey shadow"><path d="M571.26,437 H582.26 A6,6 0 0 1 588.26,443 V458.5 A6,6 0 0 1 582.26,464.5 H571.26 A6,6 0 0 1 565.26,458.5 V443 A6,6 0 0 1 571.26,437 Z" fill="var(--rgb229231235rgb000)" stroke-width="1px" stroke="rgb(210, 214, 220)" style="filter: drop-shadow(rgba(0, 0, 0, 0.1) 0px 1px 1.5px) drop-shadow(rgba(0, 0, 0, 0.06) 0px 1px 1px);"/><text x="571.72" y="455.5" fill="var(--rgb159166178rgb255255255)" font-family="var(--applesystemBlinkMacSystemFontSegoeUIRobotoOxygenUbuntuCantarellFiraSansDroidSansHelveticaNeuesansserifapplesystemBlinkMacSystemFontSegoeUIRobotoOxygenUbuntuCantarellFiraSansDroidSansHelveticaNeuesansserif)" font-size="16px" font-weight="400" font-style="normal" letter-spacing="normal" text-decoration="none" text-anchor="start" style="line-height: normal; white-space: normal; text-transform: uppercase;">k</text></g></g></g><g data-selector="div.flex-row-wrap ai-center gap-p5 noselect "><g data-selector="div.mr-p25"><text x="308.42" y="492" fill="var(--rgb159166178rgb255255255)" font-family="var(--applesystemBlinkMacSystemFontSegoeUIRobotoOxygenUbuntuCantarellFiraSansDroidSansHelveticaNeuesansserifapplesystemBlinkMacSystemFontSegoeUIRobotoOxygenUbuntuCantarellFiraSansDroidSansHelveticaNeuesansserif)" font-size="16px" font-weight="400" font-style="normal" letter-spacing="normal" text-decoration="none" text-anchor="start" style="line-height: normal; white-space: normal; text-transform: none;">Open a table or script</text><text x="465.35" y="492" fill="var(--rgb159166178rgb255255255)" font-family="var(--applesystemBlinkMacSystemFontSegoeUIRobotoOxygenUbuntuCantarellFiraSansDroidSansHelveticaNeuesansserifapplesystemBlinkMacSystemFontSegoeUIRobotoOxygenUbuntuCantarellFiraSansDroidSansHelveticaNeuesansserif)" font-size="16px" font-weight="400" font-style="normal" letter-spacing="normal" text-decoration="none" text-anchor="start" style="line-height: normal; white-space: normal; text-transform: none;">:</text></g><g data-selector="div.flex-row ai-center gap-p25"><g data-selector="div.hotkey shadow"><path d="M487.79,473.5 H524.39 A6,6 0 0 1 530.39,479.5 V495 A6,6 0 0 1 524.39,501 H487.79 A6,6 0 0 1 481.79,495 V479.5 A6,6 0 0 1 487.79,473.5 Z" fill="var(--rgb229231235rgb000)" stroke-width="1px" stroke="rgb(210, 214, 220)" style="filter: drop-shadow(rgba(0, 0, 0, 0.1) 0px 1px 1.5px) drop-shadow(rgba(0, 0, 0, 0.06) 0px 1px 1px);"/><text x="487.29" y="492" fill="var(--rgb159166178rgb255255255)" font-family="var(--applesystemBlinkMacSystemFontSegoeUIRobotoOxygenUbuntuCantarellFiraSansDroidSansHelveticaNeuesansserifapplesystemBlinkMacSystemFontSegoeUIRobotoOxygenUbuntuCantarellFiraSansDroidSansHelveticaNeuesansserif)" font-size="16px" font-weight="400" font-style="normal" letter-spacing="normal" text-decoration="none" text-anchor="start" style="line-height: normal; white-space: normal; text-transform: uppercase;">ctrl</text></g><g data-selector="span."><text x="534.89" y="492" fill="var(--rgb159166178rgb255255255)" font-family="var(--applesystemBlinkMacSystemFontSegoeUIRobotoOxygenUbuntuCantarellFiraSansDroidSansHelveticaNeuesansserifapplesystemBlinkMacSystemFontSegoeUIRobotoOxygenUbuntuCantarellFiraSansDroidSansHelveticaNeuesansserif)" font-size="16px" font-weight="400" font-style="normal" letter-spacing="normal" text-decoration="none" text-anchor="start" style="line-height: normal; white-space: normal; text-transform: none;">+</text></g><g data-selector="div.hotkey shadow"><path d="M554.42,473.5 H565.42 A6,6 0 0 1 571.42,479.5 V495 A6,6 0 0 1 565.42,501 H554.42 A6,6 0 0 1 548.42,495 V479.5 A6,6 0 0 1 554.42,473.5 Z" fill="var(--rgb229231235rgb000)" stroke-width="1px" stroke="rgb(210, 214, 220)" style="filter: drop-shadow(rgba(0, 0, 0, 0.1) 0px 1px 1.5px) drop-shadow(rgba(0, 0, 0, 0.06) 0px 1px 1px);"/><text x="555.05" y="492" fill="var(--rgb159166178rgb255255255)" font-family="var(--applesystemBlinkMacSystemFontSegoeUIRobotoOxygenUbuntuCantarellFiraSansDroidSansHelveticaNeuesansserifapplesystemBlinkMacSystemFontSegoeUIRobotoOxygenUbuntuCantarellFiraSansDroidSansHelveticaNeuesansserif)" font-size="16px" font-weight="400" font-style="normal" letter-spacing="normal" text-decoration="none" text-anchor="start" style="line-height: normal; white-space: normal; text-transform: uppercase;">p</text></g></g></g><g data-selector="div.flex-row-wrap ai-center gap-p5 noselect "><g data-selector="div.mr-p25"><text x="308.42" y="528.5" fill="var(--rgb159166178rgb255255255)" font-family="var(--applesystemBlinkMacSystemFontSegoeUIRobotoOxygenUbuntuCantarellFiraSansDroidSansHelveticaNeuesansserifapplesystemBlinkMacSystemFontSegoeUIRobotoOxygenUbuntuCantarellFiraSansDroidSansHelveticaNeuesansserif)" font-size="16px" font-weight="400" font-style="normal" letter-spacing="normal" text-decoration="none" text-anchor="start" style="line-height: normal; white-space: normal; text-transform: none;">Search all data</text><text x="414.02" y="528.5" fill="var(--rgb159166178rgb255255255)" font-family="var(--applesystemBlinkMacSystemFontSegoeUIRobotoOxygenUbuntuCantarellFiraSansDroidSansHelveticaNeuesansserifapplesystemBlinkMacSystemFontSegoeUIRobotoOxygenUbuntuCantarellFiraSansDroidSansHelveticaNeuesansserif)" font-size="16px" font-weight="400" font-style="normal" letter-spacing="normal" text-decoration="none" text-anchor="start" style="line-height: normal; white-space: normal; text-transform: none;">:</text></g><g data-selector="div.flex-row ai-center gap-p25"><g data-selector="div.hotkey shadow"><path d="M436.46,510 H473.06 A6,6 0 0 1 479.06,516 V531.5 A6,6 0 0 1 473.06,537.5 H436.46 A6,6 0 0 1 430.46,531.5 V516 A6,6 0 0 1 436.46,510 Z" fill="var(--rgb229231235rgb000)" stroke-width="1px" stroke="rgb(210, 214, 220)" style="filter: drop-shadow(rgba(0, 0, 0, 0.1) 0px 1px 1.5px) drop-shadow(rgba(0, 0, 0, 0.06) 0px 1px 1px);"/><text x="435.96" y="528.5" fill="var(--rgb159166178rgb255255255)" font-family="var(--applesystemBlinkMacSystemFontSegoeUIRobotoOxygenUbuntuCantarellFiraSansDroidSansHelveticaNeuesansserifapplesystemBlinkMacSystemFontSegoeUIRobotoOxygenUbuntuCantarellFiraSansDroidSansHelveticaNeuesansserif)" font-size="16px" font-weight="400" font-style="normal" letter-spacing="normal" text-decoration="none" text-anchor="start" style="line-height: normal; white-space: normal; text-transform: uppercase;">ctrl</text></g><g data-selector="span."><text x="483.56" y="528.5" fill="var(--rgb159166178rgb255255255)" font-family="var(--applesystemBlinkMacSystemFontSegoeUIRobotoOxygenUbuntuCantarellFiraSansDroidSansHelveticaNeuesansserifapplesystemBlinkMacSystemFontSegoeUIRobotoOxygenUbuntuCantarellFiraSansDroidSansHelveticaNeuesansserif)" font-size="16px" font-weight="400" font-style="normal" letter-spacing="normal" text-decoration="none" text-anchor="start" style="line-height: normal; white-space: normal; text-transform: none;">+</text></g><g data-selector="div.hotkey shadow"><path d="M503.09,510 H544.05 A6,6 0 0 1 550.05,516 V531.5 A6,6 0 0 1 544.05,537.5 H503.09 A6,6 0 0 1 497.09,531.5 V516 A6,6 0 0 1 503.09,510 Z" fill="var(--rgb229231235rgb000)" stroke-width="1px" stroke="rgb(210, 214, 220)" style="filter: drop-shadow(rgba(0, 0, 0, 0.1) 0px 1px 1.5px) drop-shadow(rgba(0, 0, 0, 0.06) 0px 1px 1px);"/><text x="502.59" y="528.5" fill="var(--rgb159166178rgb255255255)" font-family="var(--applesystemBlinkMacSystemFontSegoeUIRobotoOxygenUbuntuCantarellFiraSansDroidSansHelveticaNeuesansserifapplesystemBlinkMacSystemFontSegoeUIRobotoOxygenUbuntuCantarellFiraSansDroidSansHelveticaNeuesansserif)" font-size="16px" font-weight="400" font-style="normal" letter-spacing="normal" text-decoration="none" text-anchor="start" style="line-height: normal; white-space: normal; text-transform: uppercase;">shift</text></g><g data-selector="span."><text x="554.55" y="528.5" fill="var(--rgb159166178rgb255255255)" font-family="var(--applesystemBlinkMacSystemFontSegoeUIRobotoOxygenUbuntuCantarellFiraSansDroidSansHelveticaNeuesansserifapplesystemBlinkMacSystemFontSegoeUIRobotoOxygenUbuntuCantarellFiraSansDroidSansHelveticaNeuesansserif)" font-size="16px" font-weight="400" font-style="normal" letter-spacing="normal" text-decoration="none" text-anchor="start" style="line-height: normal; white-space: normal; text-transform: none;">+</text></g><g data-selector="div.hotkey shadow"><path d="M574.08,510 H585.08 A6,6 0 0 1 591.08,516 V531.5 A6,6 0 0 1 585.08,537.5 H574.08 A6,6 0 0 1 568.08,531.5 V516 A6,6 0 0 1 574.08,510 Z" fill="var(--rgb229231235rgb000)" stroke-width="1px" stroke="rgb(210, 214, 220)" style="filter: drop-shadow(rgba(0, 0, 0, 0.1) 0px 1px 1.5px) drop-shadow(rgba(0, 0, 0, 0.06) 0px 1px 1px);"/><text x="575.28" y="528.5" fill="var(--rgb159166178rgb255255255)" font-family="var(--applesystemBlinkMacSystemFontSegoeUIRobotoOxygenUbuntuCantarellFiraSansDroidSansHelveticaNeuesansserifapplesystemBlinkMacSystemFontSegoeUIRobotoOxygenUbuntuCantarellFiraSansDroidSansHelveticaNeuesansserif)" font-size="16px" font-weight="400" font-style="normal" letter-spacing="normal" text-decoration="none" text-anchor="start" style="line-height: normal; white-space: normal; text-transform: uppercase;">f</text></g></g></g><g data-selector="div.flex-row-wrap ai-center gap-p5 noselect "><g data-selector="div.mr-p25"><text x="308.42" y="565" fill="var(--rgb159166178rgb255255255)" font-family="var(--applesystemBlinkMacSystemFontSegoeUIRobotoOxygenUbuntuCantarellFiraSansDroidSansHelveticaNeuesansserifapplesystemBlinkMacSystemFontSegoeUIRobotoOxygenUbuntuCantarellFiraSansDroidSansHelveticaNeuesansserif)" font-size="16px" font-weight="400" font-style="normal" letter-spacing="normal" text-decoration="none" text-anchor="start" style="line-height: normal; white-space: normal; text-transform: none;">Open an SQL File</text><text x="432.27" y="565" fill="var(--rgb159166178rgb255255255)" font-family="var(--applesystemBlinkMacSystemFontSegoeUIRobotoOxygenUbuntuCantarellFiraSansDroidSansHelveticaNeuesansserifapplesystemBlinkMacSystemFontSegoeUIRobotoOxygenUbuntuCantarellFiraSansDroidSansHelveticaNeuesansserif)" font-size="16px" font-weight="400" font-style="normal" letter-spacing="normal" text-decoration="none" text-anchor="start" style="line-height: normal; white-space: normal; text-transform: none;">:</text></g><g data-selector="div.flex-row ai-center gap-p25"><g data-selector="div.hotkey shadow"><path d="M454.7,546.5 H491.3 A6,6 0 0 1 497.3,552.5 V568 A6,6 0 0 1 491.3,574 H454.7 A6,6 0 0 1 448.7,568 V552.5 A6,6 0 0 1 454.7,546.5 Z" fill="var(--rgb229231235rgb000)" stroke-width="1px" stroke="rgb(210, 214, 220)" style="filter: drop-shadow(rgba(0, 0, 0, 0.1) 0px 1px 1.5px) drop-shadow(rgba(0, 0, 0, 0.06) 0px 1px 1px);"/><text x="454.2" y="565" fill="var(--rgb159166178rgb255255255)" font-family="var(--applesystemBlinkMacSystemFontSegoeUIRobotoOxygenUbuntuCantarellFiraSansDroidSansHelveticaNeuesansserifapplesystemBlinkMacSystemFontSegoeUIRobotoOxygenUbuntuCantarellFiraSansDroidSansHelveticaNeuesansserif)" font-size="16px" font-weight="400" font-style="normal" letter-spacing="normal" text-decoration="none" text-anchor="start" style="line-height: normal; white-space: normal; text-transform: uppercase;">ctrl</text></g><g data-selector="span."><text x="501.8" y="565" fill="var(--rgb159166178rgb255255255)" font-family="var(--applesystemBlinkMacSystemFontSegoeUIRobotoOxygenUbuntuCantarellFiraSansDroidSansHelveticaNeuesansserifapplesystemBlinkMacSystemFontSegoeUIRobotoOxygenUbuntuCantarellFiraSansDroidSansHelveticaNeuesansserif)" font-size="16px" font-weight="400" font-style="normal" letter-spacing="normal" text-decoration="none" text-anchor="start" style="line-height: normal; white-space: normal; text-transform: none;">+</text></g><g data-selector="div.hotkey shadow"><path d="M521.34,546.5 H532.79 A6,6 0 0 1 538.79,552.5 V568 A6,6 0 0 1 532.79,574 H521.34 A6,6 0 0 1 515.34,568 V552.5 A6,6 0 0 1 521.34,546.5 Z" fill="var(--rgb229231235rgb000)" stroke-width="1px" stroke="rgb(210, 214, 220)" style="filter: drop-shadow(rgba(0, 0, 0, 0.1) 0px 1px 1.5px) drop-shadow(rgba(0, 0, 0, 0.06) 0px 1px 1px);"/><text x="520.84" y="565" fill="var(--rgb159166178rgb255255255)" font-family="var(--applesystemBlinkMacSystemFontSegoeUIRobotoOxygenUbuntuCantarellFiraSansDroidSansHelveticaNeuesansserifapplesystemBlinkMacSystemFontSegoeUIRobotoOxygenUbuntuCantarellFiraSansDroidSansHelveticaNeuesansserif)" font-size="16px" font-weight="400" font-style="normal" letter-spacing="normal" text-decoration="none" text-anchor="start" style="line-height: normal; white-space: normal; text-transform: uppercase;">o</text></g></g></g></g></g></g></g></g></g></g></g></g></g></g><style xmlns="http://www.w3.org/1999/xhtml" type="text/css">:root #id-4761e287 { 
  --dark-theme-hide: 1;
  --light-theme-hide: 0;
  --rgb244245247rgb262525: rgb(244, 245, 247); 
  --rgb244245247rgb545762: rgb(244, 245, 247); 
  --rgb210214220rgb000: rgb(210, 214, 220); 
  --rgb255255255rgb444444: rgb(255, 255, 255); 
  --rgb240254255rgb03755: rgb(240, 254, 255); 
  --rgba125125125022rgba125125125038: rgba(125, 125, 125, 0.22); 
  --rgb758599rgb229231235: rgb(75, 85, 99); 
  --applesystemBlinkMacSystemFontSegoeUIRobotoOxygenUbuntuCantarellFiraSansDroidSansHelveticaNeuesansserifapplesystemBlinkMacSystemFontSegoeUIRobotoOxygenUbuntuCantarellFiraSansDroidSansHelveticaNeuesansserif: -apple-system, BlinkMacSystemFont, "Segoe UI", Roboto, Oxygen, Ubuntu, Cantarell, "Fira Sans", "Droid Sans", "Helvetica Neue", sans-serif; 
  --rgb225239254rgba07916308: rgb(225, 239, 254); 
  --rgb63131248rgb255255255: rgb(63, 131, 248); 
  --05: ; 
  --rgb159166178rgb255255255: rgb(159, 166, 178); 
  --rgb229231235rgb000: rgb(229, 231, 235); 
}
@media (prefers-color-scheme: dark) { 
 :root #id-4761e287  { 
  --dark-theme-hide: 0;
  --light-theme-hide: 1;
  --rgb244245247rgb262525: rgb(26, 25, 25); 
  --rgb244245247rgb545762: rgb(54, 57, 62); 
  --rgb210214220rgb000: rgb(0, 0, 0); 
  --rgb255255255rgb444444: rgb(44, 44, 44); 
  --rgb240254255rgb03755: rgb(0, 37, 55); 
  --rgba125125125022rgba125125125038: rgba(125, 125, 125, 0.38); 
  --rgb758599rgb229231235: rgb(229, 231, 235); 
  --rgb225239254rgba07916308: rgba(0, 79, 163, 0.8); 
  --rgb63131248rgb255255255: rgb(255, 255, 255); 
  --05: 0.5; 
  --rgb159166178rgb255255255: rgb(255, 255, 255); 
  --rgb229231235rgb000: rgb(0, 0, 0); 
  }
} 
</style></svg>