<?xml version="1.0" encoding="UTF-8" standalone="no"?>
<svg
   id="svg8"
   version="1.1"
   viewBox="0 0 9.5249998 9.5250003"
   height="36"
   width="36" 
   xmlns="http://www.w3.org/2000/svg"
   xmlns:svg="http://www.w3.org/2000/svg">
  
  <g
     transform="translate(0,-287.47498)"
     id="layer1">
    <path
       style="fill:#0087ab;stroke-width:0.104784"
       id="path3881-2"
       d="m 6.5474865,295.27602 c 0.490374,-2.20657 1.4015631,-2.78973 1.0273687,-4.13365 -0.174802,-0.6278 -2.1214377,-1.5014 -2.3905819,-1.78117 -0.197562,-0.2055 -0.4148337,-0.44119 -0.7461724,-0.63862 -0.2644216,-0.16074 -0.7394033,-0.0609 -1.0268278,0.11432 l -1.6192147,0.89508 c -0.53862,0.39618 0.3790418,1.40754 0.6805851,2.02006 0.1076218,0.24693 -0.3198514,0.10953 -0.5751416,-0.1433 0,0 -0.8432496,-0.80366 -0.8823501,-0.87005 -0.5147904,-0.73234 -0.25162748,-1.23836 0.5163318,-1.71256 0.6558012,-0.40215 1.4441719,-0.86378 1.8275182,-1.11029 0.3833462,-0.24651 0.8880668,-0.20266 1.1387453,-0.0444 1.3185837,0.96102 3.8361373,1.88731 4.1041062,3.39661 0.3063144,1.72527 -1.0496173,2.61366 -1.4173194,4.22458 -0.3286977,1.44004 1.2223562,-0.07 1.5346239,-0.27362 l 0.024068,0.40773 c -0.4087075,0.40279 -1.073765,0.81872 -1.3788117,0.92429 -0.7994641,0.2767 -0.9989611,-0.52969 -0.816928,-1.27503 z"
      />
    <path
       style="fill:#bc0000;fill-opacity:1;fill-rule:evenodd;stroke-width:0.0785882;stroke-miterlimit:4;stroke-dasharray:none;stroke-opacity:0.602941"
       id="path3887-1-0"
       d="m 6.3521329,290.81318 c 0.7061892,0.25755 0.719689,0.4899 0.708332,0.87638 -0.0051,0.17357 -0.2223037,0.18245 -0.3145886,0.14545 -0.5687762,-0.22807 -0.6111224,-0.21429 -0.6033748,-0.86613 -0.00223,-0.16052 0.1382173,-0.17831 0.2096314,-0.1557 z"
     />
  </g>
</svg>
