<?xml version="1.0" encoding="UTF-8" standalone="no"?>
<svg
   xmlns:dc="http://purl.org/dc/elements/1.1/"
   xmlns:cc="http://creativecommons.org/ns#"
   xmlns:rdf="http://www.w3.org/1999/02/22-rdf-syntax-ns#"
   xmlns:svg="http://www.w3.org/2000/svg"
   xmlns="http://www.w3.org/2000/svg"
   id="svg8"
   version="1.1"
   viewBox="0 0 9.5249998 9.5250003"
   height="36"
   width="36">
  <defs
     id="defs2" />
  <metadata
     id="metadata5">
    <rdf:RDF>
      <cc:Work
         rdf:about="">
        <dc:format>image/svg+xml</dc:format>
        <dc:type
           rdf:resource="http://purl.org/dc/dcmitype/StillImage" />
        <dc:title></dc:title>
      </cc:Work>
    </rdf:RDF>
  </metadata>
  <g
     transform="translate(0,-287.47498)"
     id="layer1">
    <path
       style="fill:#0087ab;stroke-width:0.10478402"
       id="path3881-2"
       d="m 6.5209966,295.25712 c 0.2175402,-0.46431 1.6420322,-2.2511 1.3456182,-4.2915 -0.085217,-0.58659 -2.1619067,-1.59449 -2.2268491,-1.64218 -0.01022,-0.008 -0.1325362,-0.0996 -0.1694292,-0.13795 -0.197562,-0.2055 -0.499117,-0.62298 -0.8304557,-0.82041 -0.1525898,-0.0909 -0.7394033,-0.0609 -1.0268278,0.11432 l -1.879837,1.08657 c -0.4703536,0.4665 0.1139504,1.07392 0.2268207,1.30469 0.1128704,0.23077 0.803662,0.95627 0.803662,0.95627 v 0 c -0.1433145,0.0653 -0.3911698,-0.0575 -0.6915708,-0.27496 0,0 -0.8432496,-0.80366 -0.8823501,-0.87005 -0.039101,-0.0664 -0.1564018,-0.20484 -0.23460266,-0.47082 0,0 -0.0384912,-0.0917 -0.0544209,-0.51555 -0.0159297,-0.42388 0.69813926,-0.64516 0.80535536,-0.72619 0.107216,-0.081 1.4441719,-0.86378 1.8275182,-1.11029 0.3833462,-0.24651 0.8880668,-0.20266 1.1387453,-0.0444 l 2.8538119,1.69411 c 0.2716598,0.15804 1.3866918,1.14066 1.421482,1.86382 0.081505,1.69417 -1.2190224,2.93746 -1.8472163,4.27428 -0.6281939,1.33683 1.1838142,0.58699 1.2737198,0.43944 l 0.259057,0.27303 c -0.8972105,0.56378 -1.9304095,0.39775 -2.0611443,0.33679 -0.1307347,-0.0609 -0.2768897,-0.88205 -0.051087,-1.439 z" />
    <path
       style="fill: #6a0000;fill-opacity:1;fill-rule:evenodd;/* stroke:#000000; */stroke-width:0.07858816;stroke-miterlimit:4;stroke-dasharray:none;stroke-opacity:0.60294118;"
       id="path3887-1-0"
       d="m 6.2908378,290.63597 c 0.030281,-0.0145 0.067771,-0.0145 0.09805,0 0.9624569,0.37529 0.8624334,0.39198 0.8624334,1.21858 0,0.0285 -0.018608,0.0549 -0.049026,0.0694 -0.9558494,-0.4203 -0.9974496,-0.45611 -0.9114585,-1.28795 z" />
  </g>
</svg>